<svg width="71" height="84" viewBox="0 0 71 84" fill="none" xmlns="http://www.w3.org/2000/svg">
<path d="M61.9636 64.7495C58.0514 66.9404 54.1391 69.1117 50.2269 71.4101C50.0821 71.5381 49.9026 71.6204 49.7112 71.6465C49.5197 71.6726 49.3248 71.6414 49.151 71.5568C48.7989 71.3514 48.8869 71.0091 48.8967 70.6864C48.8967 66.6959 48.8967 62.7152 48.8967 58.7247C48.8653 58.3775 48.9426 58.0291 49.1178 57.7278C49.293 57.4264 49.5575 57.1869 49.8748 57.0424C52.1169 55.9237 54.2978 54.6864 56.4082 53.3355C57.0612 52.8484 57.5822 52.2059 57.9238 51.4663C58.2654 50.7267 58.4169 49.9135 58.3643 49.1005C58.3643 46.2642 58.247 43.4278 58.2665 40.6012C58.2665 36.7867 58.4817 32.9821 58.4915 29.1774C58.4915 27.0355 57.9242 25.2652 55.7138 24.0817C52.1634 22.243 48.7109 20.2282 45.3366 18.1058C42.8816 16.5506 40.3093 15.1716 37.8837 13.6262C37.1447 13.1842 36.2997 12.9507 35.4386 12.9507C34.5775 12.9507 33.7324 13.1842 32.9934 13.6262C30.7537 14.6728 28.7878 16.2377 26.6458 17.47C24.2496 18.8589 21.8631 20.2673 19.4277 21.6072C17.6175 22.4759 15.8806 23.4899 14.2342 24.6392C13.6641 25.0432 13.1922 25.5704 12.8536 26.1816C12.515 26.7928 12.3183 27.4724 12.2781 28.17C12.0825 31.515 12.4737 34.8306 12.4248 38.1658C12.3759 41.501 12.3368 44.7188 12.3074 47.9953C12.3074 48.6409 12.3074 49.2864 12.3661 49.9515C12.436 50.781 12.7208 51.578 13.1925 52.264C13.6641 52.95 14.3063 53.5014 15.0558 53.8637C18.0487 55.6633 21.198 57.1695 24.2104 58.9398C25.5308 59.7223 26.8023 60.583 28.1227 61.3752C28.8954 61.8447 29.1007 61.7078 29.1007 60.7884C29.1007 56.749 29.1007 52.6998 29.1007 48.6604C29.1149 48.3165 29.049 47.9741 28.9081 47.66C28.7672 47.346 28.5553 47.069 28.289 46.851C26.4172 45.0872 25.2846 42.6787 25.12 40.1122C24.9559 38.5392 25.1551 36.9495 25.7025 35.4657C26.2498 33.9819 27.1305 32.6437 28.2768 31.5541C29.4231 30.4645 30.8043 29.6527 32.314 29.1813C33.8236 28.7099 35.4213 28.5914 36.9839 28.8351C38.5782 29.0353 40.1007 29.6173 41.422 30.5317C42.7433 31.4461 43.8245 32.6658 44.5737 34.0873C45.2683 35.3309 45.6943 36.7065 45.824 38.125C45.9537 39.5436 45.7843 40.9736 45.3268 42.3226C44.6793 44.1936 43.549 45.8604 42.0503 47.1542C41.8852 47.3434 41.7652 47.5675 41.6991 47.8097C41.633 48.052 41.6227 48.306 41.6688 48.5528C41.6688 51.2718 41.6688 53.9811 41.6688 56.7001C41.6688 63.7552 41.6851 70.807 41.7177 77.8556C41.7177 79.3031 41.6688 80.7897 41.6004 82.1884C41.5515 83.1664 41.1602 83.3523 40.3387 82.8828C37.737 81.4059 35.1549 79.9486 32.5729 78.413C30.5483 77.2394 28.4846 76.1342 26.5089 74.892C22.5966 72.3882 18.5768 70.08 14.4885 67.7522C12.415 66.5687 10.2633 65.5418 8.18001 64.3387C6.47923 63.3308 4.84569 62.2134 3.2897 60.9938C2.47386 60.3507 1.79424 59.5517 1.29047 58.6432C0.786698 57.7347 0.468868 56.735 0.355516 55.7025C0.00517543 52.8934 -0.0864952 50.0582 0.081659 47.2324C0.120781 43.0463 0.218588 38.8505 0.169685 34.6546C0.169685 30.6445 -0.123734 26.6247 0.492445 22.6244C0.664433 21.4445 1.08024 20.3134 1.71339 19.3031C2.34654 18.2927 3.18316 17.4253 4.16996 16.756C6.79952 14.96 9.5367 13.3268 12.3661 11.8657C16.0436 9.90961 19.6135 7.66985 23.2128 5.5279C25.834 3.98256 28.4454 2.41766 31.1645 1.05816C32.3797 0.398409 33.7343 0.0366494 35.1167 0.00264201C36.4991 -0.0313654 37.8698 0.263352 39.1161 0.862544C42.0948 2.23841 44.974 3.82018 47.7328 5.59636C50.6214 7.4286 53.5653 9.15325 56.5647 10.7703C58.7654 11.9831 60.9758 13.1763 63.1569 14.4087C64.6138 15.2556 66.0182 16.1897 67.3625 17.206C68.2111 17.8295 68.9206 18.6228 69.446 19.5355C69.9713 20.4481 70.301 21.4601 70.4141 22.507C70.7907 26.2111 70.8888 29.9382 70.7075 33.6569C70.6488 37.2562 70.8053 40.8555 70.8542 44.4156C70.9031 47.9758 71.2454 51.5066 70.7075 55.0276C70.5067 57.0712 69.6047 58.9823 68.1547 60.4363C66.2807 62.1288 64.2006 63.578 61.9636 64.7495Z" fill="black"/>
</svg>
