<?xml version="1.0" encoding="UTF-8"?>
<svg xmlns="http://www.w3.org/2000/svg" width="178" height="20" viewBox="0 0 178 20" fill="none">
  <g clip-path="url(#clip0_2273_264)">
    <path d="M73.9798 1.4292H69.9336V18.5034H73.9798V1.4292Z" fill="#5E4EDA"></path>
    <path d="M38.7568 14.783C36.0959 14.783 33.9317 12.6226 33.9317 9.96744C33.9317 7.31226 36.0959 5.15078 38.7568 5.15078C40.7329 5.15078 42.4346 6.34252 43.1792 8.04343L46.6689 6.17464C45.2538 3.2345 42.2432 1.20557 38.7568 1.20557C33.9084 1.20557 29.9795 5.12759 29.9795 9.96744C29.9795 14.8073 33.9084 18.7282 38.7568 18.7282C42.2432 18.7282 45.2549 16.6982 46.67 13.7591L43.1792 11.8914C42.4335 13.5924 40.7329 14.783 38.7568 14.783Z" fill="#5E4EDA"></path>
    <path d="M58.4531 1.2041C53.6058 1.2041 49.6758 5.12723 49.6758 9.96597C49.6758 14.8047 53.6058 18.7278 58.4531 18.7278C63.3004 18.7278 67.2305 14.8047 67.2305 9.96597C67.2305 5.12723 63.3004 1.2041 58.4531 1.2041ZM58.4531 14.7826C55.7921 14.7826 53.628 12.6223 53.628 9.96597C53.628 7.30969 55.7921 5.14932 58.4531 5.14932C61.1141 5.14932 63.2783 7.30969 63.2783 9.96597C63.2783 12.6223 61.1141 14.7826 58.4531 14.7826Z" fill="#5E4EDA"></path>
    <path d="M91.7451 14.4879H91.0912L85.2028 1.55553L85.1541 1.44287L78.0508 1.48595V18.4464H82.0019V5.38809H82.6071L88.5342 18.432L95.6962 18.4464V1.48595H91.7451V14.4879Z" fill="#5E4EDA"></path>
    <path d="M152.947 14.4879H152.294L146.357 1.44287L139.253 1.48595V18.4464H143.205V5.38809H143.809L149.746 18.432L156.899 18.4464V1.48595H152.947V14.4879Z" fill="black"></path>
    <path d="M124.614 1.48584L119.34 18.5192H123.476L124.651 14.7242H131.705L132.88 18.5192H137.016L131.742 1.48584H124.613H124.614ZM125.873 10.7801L127.52 5.4653H128.839L130.485 10.7812H125.873V10.7801Z" fill="black"></path>
    <path d="M116.881 8.18318V7.98216C116.881 4.37602 113.943 1.44141 110.329 1.44141L99.7305 1.48448V18.446H103.683V14.7239H109.414L112.399 18.5002H117.432L113.707 13.7862C115.608 12.6409 116.881 10.5578 116.881 8.18318ZM103.683 5.38662H110.329C111.763 5.38662 112.929 6.55075 112.929 7.98216V8.18318C112.929 9.61459 111.763 10.7787 110.329 10.7787H103.683V5.38662Z" fill="black"></path>
    <path d="M164.294 1.56836H160.414V18.3212H164.294V1.56836Z" fill="black"></path>
    <path d="M177.273 1.56836H172.37L166.801 8.76076L166.777 8.79058V11.0978L172.336 18.277L172.37 18.3212H177.273L170.787 9.94256L177.273 1.56836Z" fill="black"></path>
    <path d="M2.50488 4.979L2.5071 15.0077L7.51371 10.0011V4.979H2.50488Z" fill="#5E4EDA"></path>
    <path d="M17.5313 10.0011V15.0011H7.51366V12.6728L0.000976562 20H12.5225L17.5313 15H22.5412V4.979L17.5313 10.0011ZM12.5225 20.0011L17.5313 15.0011L12.5225 20.0011Z" fill="black"></path>
    <path d="M12.4982 0L7.51367 4.97901H17.5313V7.50055L25.0451 0H12.4982Z" fill="#5E4EDA"></path>
  </g>
  <defs>
    <clipPath id="clip0_2273_264">
      <rect width="177.273" height="20" fill="white"></rect>
    </clipPath>
  </defs>
</svg>
