<svg width="168" height="65" viewBox="0 0 168 65" fill="none" xmlns="http://www.w3.org/2000/svg">
<path d="M13.8303 19.9061H13.439V20.2974V40.3844V40.6475L13.6827 40.7467L19.6707 43.1865L19.8206 43.2476L19.9698 43.1849L25.7802 40.7451L26.02 40.6444V40.3844V20.2974V19.9061H25.6287H13.8303Z" stroke="#197663" stroke-width="0.782596"/>
<path fill-rule="evenodd" clip-rule="evenodd" d="M25.6288 20.0652H13.8304V20.5297H25.6287V21.7182H25.6288V20.0652ZM20.6056 21.7182C20.3286 21.7086 20.0366 21.7034 19.7294 21.7034C19.4222 21.7034 19.1302 21.7086 18.8531 21.7182H18.8607C19.1355 21.7087 19.4251 21.7037 19.7295 21.7037C20.0339 21.7037 20.3234 21.7087 20.5983 21.7182H20.6056ZM13.8304 22.3443V23.2425H13.8717C13.8546 22.9437 13.8408 22.6442 13.8304 22.3443ZM15.1639 23.2425C15.1489 22.9395 15.1411 22.6443 15.1411 22.3589C15.3687 22.2451 15.6959 22.1313 16.1287 22.0313H16.1299C15.6966 22.1314 15.369 22.2453 15.1413 22.3591C15.1413 22.6445 15.149 22.9396 15.164 23.2425H15.1639ZM13.8908 23.5555H13.8304V24.7666H13.9874C13.9494 24.3651 13.9171 23.9611 13.8908 23.5555ZM15.2914 24.7666C15.2441 24.3539 15.2072 23.9489 15.1818 23.5555H15.1819C15.2073 23.9489 15.2442 24.3539 15.2915 24.7666H15.2914ZM14.0182 25.0796H13.8304V26.2906H14.1599C14.1072 25.8904 14.0598 25.4864 14.0182 25.0796ZM15.5068 26.2906C15.4389 25.8831 15.3794 25.4783 15.3291 25.0796H15.3292C15.3795 25.4783 15.439 25.8831 15.5069 26.2906H15.5068ZM14.2024 26.6037H13.8304V27.8149H14.3896C14.3219 27.4161 14.2594 27.012 14.2024 26.6037ZM15.7964 27.8149C15.7105 27.4117 15.6316 27.0068 15.5605 26.6037H15.5606C15.6316 27.0068 15.7106 27.4117 15.7965 27.8149H15.7964ZM14.4441 28.128H13.8304V29.339H14.6787C14.5953 28.942 14.517 28.5379 14.4441 28.128ZM16.1558 29.339C16.0525 28.9402 15.9551 28.5353 15.8645 28.128H15.8646C15.9552 28.5353 16.0526 28.9402 16.1559 29.339H16.1558ZM14.7458 29.652H13.8304V30.8631H15.0321C14.9316 30.4684 14.836 30.0642 14.7458 29.652ZM16.5887 30.8631C16.4665 30.4695 16.3494 30.0645 16.2385 29.652H16.2385C16.3495 30.0645 16.4666 30.4695 16.5887 30.8631H16.5887ZM15.1133 31.1761H13.8304V32.3871H15.4585C15.3384 31.9956 15.2232 31.5914 15.1133 31.1761ZM17.1093 32.3871C16.9641 32.0015 16.8231 31.5962 16.6877 31.1761H16.6877C16.8231 31.5962 16.9641 32.0015 17.1093 32.3871H17.1093ZM15.5564 32.7002H13.8304V33.9114H15.9742C15.8299 33.5247 15.6904 33.1203 15.5564 32.7002ZM24.3176 22.3591C24.0899 22.2452 23.7623 22.1314 23.3291 22.0313H23.3301C23.7628 22.1313 24.0901 22.2451 24.3176 22.3589C24.3176 22.3589 24.3176 22.359 24.3176 22.3591ZM25.5748 23.2425C25.5953 22.9417 25.6133 22.6388 25.6287 22.334V22.0313H25.6288V23.2425H25.5748ZM25.4479 24.7666C25.4873 24.3673 25.5222 23.9634 25.5525 23.5555H25.6288V24.7666H25.4479ZM25.2738 26.2906C25.3256 25.8924 25.3732 25.4885 25.4161 25.0796H25.6288V26.2906H25.2738ZM25.0497 27.8149C25.1149 27.4179 25.1757 27.0139 25.2319 26.6037H25.6288V27.8149H25.0497ZM24.7716 29.339C24.8512 28.9436 24.9265 28.5397 24.9971 28.128H25.6288V29.339H24.7716ZM24.4328 30.8631C24.5288 30.4699 24.6204 30.0659 24.7072 29.652H25.6288V30.8631H24.4328ZM24.0228 32.3871C24.1382 31.997 24.249 31.593 24.3548 31.1761H25.6288V32.3871H24.0228ZM23.5237 33.9114C23.6635 33.526 23.7986 33.1218 23.9284 32.7002H25.6288V33.9114H23.5237ZM22.9012 35.4353C23.0753 35.0586 23.2444 34.6542 23.4075 34.2245H25.6288V35.4353H22.9012ZM16.0936 34.2245C16.2604 34.6527 16.4332 35.0573 16.6107 35.4353H13.8304V34.2245H16.0936ZM16.7619 35.7483C16.9841 36.1959 17.2131 36.6015 17.4467 36.9596H13.8304V35.7483H16.7619ZM22.0717 36.9596C22.3046 36.6028 22.5321 36.1976 22.7522 35.7483H25.6288V36.9596H22.0717ZM17.6609 37.2726H13.8304V38.4836H18.8754C18.4662 38.2377 18.058 37.8249 17.6609 37.2726ZM20.62 38.4836C21.0403 38.2389 21.4557 37.8278 21.8569 37.2726H25.6288V38.4836H20.62ZM17.2298 32.7002H17.2298C17.3368 32.972 17.4459 33.2327 17.5564 33.4803C17.4459 33.2327 17.3368 32.972 17.2298 32.7002ZM13.8304 40.0077V38.7967H25.6288V40.0077H13.8304ZM13.8304 40.3208V40.3845L19.8184 42.8243L25.6288 40.3845V40.3208H13.8304Z" fill="#197663"/>
<path d="M19.7295 21.7036C17.9195 21.7036 15.7967 22.015 15.1412 22.3427C15.1412 27.5864 17.7631 36.1238 19.7295 36.1238C21.6959 36.1238 24.3177 28.8973 24.3177 22.3427C23.6623 22.015 21.5395 21.7036 19.7295 21.7036Z" stroke="#197663" stroke-width="0.176608"/>
<mask id="mask0_1003_64" style="mask-type:alpha" maskUnits="userSpaceOnUse" x="13" y="20" width="13" height="3">
<path d="M13.8303 20.519H25.6273L25.5112 22.932C25.5112 22.932 24.6979 22.1187 23.1875 21.8863C22.2371 21.7401 21.0602 21.5726 19.7021 21.5726C18.3177 21.5726 17.0116 21.7361 15.9843 21.9444C14.6839 22.2082 13.893 22.932 13.893 22.932L13.8303 20.519Z" fill="#D9D9D9"/>
</mask>
<g mask="url(#mask0_1003_64)">
<path d="M13.8301 19.9995L15.141 22.2936" stroke="#197663" stroke-width="0.176608"/>
<path d="M14.6514 19.9314L16.0116 22.0875" stroke="#197663" stroke-width="0.176608"/>
<path d="M16.888 21.9936L16.2079 20.9155L15.8678 20.3764L15.6978 20.1069L15.6128 19.9722" stroke="#197663" stroke-width="0.176608"/>
<path d="M17.6991 21.8061L17.4811 21.4545L17.1366 20.9155L16.801 20.3764L16.6332 20.1069L16.5493 19.9722" stroke="#197663" stroke-width="0.176608"/>
<path d="M18.5929 21.724L18.4229 21.4545L18.0828 20.9155L17.7428 20.3764L17.5727 20.1069L17.4877 19.9722" stroke="#197663" stroke-width="0.176608"/>
<path d="M19.5302 21.724L19.3602 21.4545L19.0202 20.9155L18.6801 20.3764L18.5101 20.1069L18.425 19.9722" stroke="#197663" stroke-width="0.176608"/>
<path d="M19.8182 21.6538L20.5679 20.4111" stroke="#197663" stroke-width="0.176608"/>
<path d="M20.7473 21.7699L21.5606 20.3757" stroke="#197663" stroke-width="0.176608"/>
<path d="M21.7931 21.77L22.5364 20.4111" stroke="#197663" stroke-width="0.176608"/>
<path d="M22.6064 21.8861L23.4739 20.4111" stroke="#197663" stroke-width="0.176608"/>
<path d="M24.7391 19.9314L23.4197 22.1186" stroke="#197663" stroke-width="0.176608"/>
<path d="M25.6285 20.0649L24.233 22.3509" stroke="#197663" stroke-width="0.176608"/>
</g>
<path fill-rule="evenodd" clip-rule="evenodd" d="M19.7863 0L39.4252 36.516L19.7863 44.7552L0.1474 36.516L19.7863 0ZM19.7863 3.74032L2.62627 35.6472L19.7863 42.8463L36.9463 35.6472L19.7863 3.74032Z" fill="#197663"/>
<path fill-rule="evenodd" clip-rule="evenodd" d="M19.7038 64.1097L-0.00012207 37.574L19.7777 45.8625L39.5699 37.6465L19.7038 64.1097ZM18.8856 47.3972L5.25644 41.6854L18.8313 59.9671L18.8856 47.3972ZM20.6071 59.9596L20.6613 47.4015L34.2779 41.749L20.6071 59.9596Z" fill="#197663"/>
<path fill-rule="evenodd" clip-rule="evenodd" d="M26.3858 31.7666L37.4582 36.7148L38.1889 35.1131L26.3858 29.8384V31.7666ZM1.34875 35.1133L13.0144 29.6418V31.5867L2.10921 36.7015L1.34875 35.1133Z" fill="#197663"/>
<path d="M135.136 36.0485C135.136 36.1602 135.163 36.1753 135.112 36.3837C135.06 36.592 134.611 38.4513 134.106 39.7119C131.216 46.9304 129.984 48.9755 129.188 48.9755C128.392 48.9755 128.265 47.4919 127.884 47.4514C127.704 47.4323 127.63 48.277 127.376 48.404C127.185 49.1025 127.605 49.6106 127.757 49.8646C128.519 51.1348 130.448 51.8333 132.686 48.3405C136.195 42.864 138.502 34.8774 138.299 33.4167C138.045 32.8879 135.695 33.2262 135.695 33.2262C135.695 33.2262 131.08 41.0503 130.728 40.9104C130.375 40.7704 132.317 34.6869 132.317 34.6869L132.686 33.7915C132.686 33.7915 132.791 33.5684 132.698 33.5438C132.456 33.4803 132.112 33.6656 131.743 33.7676C131.412 33.8589 130.136 33.7697 130.058 33.9764C129.867 34.4834 129.814 35.0231 129.677 35.4995C129.423 36.3837 129.424 36.3391 129.169 37.4046C128.85 38.7356 128.349 41.1062 128.729 41.7893C128.915 42.1253 128.994 42.5931 129.287 42.8458C129.518 43.0453 129.846 43.0267 130.185 42.9296C131.002 42.6951 131.851 42.069 132.456 41.236C133.487 39.8178 134.234 37.4176 135.136 36.0485Z" fill="#197663"/>
<path d="M155.928 35.4603C154.592 36.0215 152.442 37.6368 151.833 39.8137C151.582 40.7073 151.605 41.3479 152.221 41.8498C153.019 42.4999 155.264 40.4999 155.716 37.417C155.827 36.6569 155.928 35.4603 155.928 35.4603ZM155.867 34.5633C155.905 34.2142 155.734 32.5309 155.264 31.4602C154.525 29.7723 153.166 29.3032 151.917 28.4909C151.946 28.2277 152.451 28.2826 153.019 28.3443C153.587 28.4059 154.009 28.0524 154.703 28.1277C155.321 28.3278 156.737 28.4734 157.597 30.8951C158.166 32.4999 158.22 35.6185 157.5 38.4999C156.5 42.5 154 44.5 151.5 43.9998C149 43.4997 149.006 40.7824 149.767 39.3231C150.528 37.8637 151.136 36.9806 152.5 35.9999C153.661 35.1654 155.196 34.783 155.867 34.5633Z" fill="#197663"/>
<path d="M162.118 38.315C163.023 37.1543 163.229 36.8843 164.027 36.0507C164.698 35.3499 165.736 34.6569 166.214 34.7723C166.489 34.8384 166.678 34.8686 166.873 35.0802C167.105 35.3327 167.125 35.5713 167.127 35.9351C167.127 36.0674 167.174 36.3011 167.026 37.1451C166.877 37.989 166.752 38.746 166.651 39.4161C166.519 40.2848 166.429 40.9012 166.382 41.2651C166.336 41.6209 166.313 41.869 166.313 42.0096C166.01 43.4742 167.385 41.8463 167.594 41.6273C167.655 41.5635 167.719 42.2427 167.719 42.3254C167.722 43.2486 166.307 44.2854 165.365 44.3977C164.914 44.4514 164.619 44.2389 164.3 43.9175C163.98 43.5961 163.819 43.1914 163.817 42.7036C163.815 41.9428 163.901 41.0895 164.04 40.0515C164.171 39.0823 164.471 37.9267 164.47 37.5877C164.462 37.505 164.446 37.4389 164.422 37.3894C164.406 37.3399 164.386 37.3151 164.362 37.3152C164.131 37.316 163.551 37.8802 162.623 39.0079C161.694 40.1273 160.878 41.4199 160.174 42.8859C160.063 43.1095 159.884 43.2631 159.638 43.3466C159.598 43.355 159.566 43.3634 159.542 43.3717C159.351 43.4385 159.13 44.0631 158.876 44.2293C158.629 44.3872 158.538 44.3882 158.426 44.3886C158.259 44.3891 158.277 44.3884 158.165 44.2317C158.052 44.0749 157.996 43.8767 157.995 43.6369C159.566 37.5897 161.806 30.5331 163.468 27.3706C163.741 26.9781 164.094 27.1195 164.434 26.9045C164.909 26.6052 165.415 26.0122 166.021 26.0101C166.172 26.0096 166.296 26.063 166.392 26.1702C166.488 26.2773 166.536 26.4177 166.537 26.5914C166.538 26.8891 165.843 28.7974 164.452 32.3163C163.497 34.7423 162.719 36.7418 162.118 38.315Z" fill="#197663"/>
<path d="M113.497 27.6944C112.798 28.6784 111.809 30.3529 110.53 32.7178C109.26 35.0827 109.168 35.4975 107.571 38.7885C106.968 40.0206 106.543 40.9301 106.297 41.5172C104.371 45.1064 104.251 45.4991 104.251 45.6893C104.251 45.7555 104.263 45.8464 104.287 45.9622C104.311 46.0862 104.337 46.2459 104.337 46.2955C104.337 46.486 104.302 46.6495 104.215 46.74C103.727 47.2481 103.239 47.1846 102.812 47.1211C102.42 47.0628 101.942 47.3751 101.531 47.3751C100.859 47.3751 101.018 46.9941 101.164 46.6765C101.701 45.5093 102.205 44.7682 104.521 40.6614C104.752 40.2562 104.418 40.7304 106.205 37.2574C107.993 33.7762 109.724 30.5927 111.4 27.7068C109.896 27.5615 108.743 27.581 107.742 27.7133C106.742 27.8456 105.983 28.0234 105.467 28.2466C105.109 28.4037 104.728 28.91 104.323 29.2573C103.918 29.5963 103.624 29.7658 103.441 29.7658C103.267 29.7658 103.128 29.6996 103.024 29.5673C102.929 29.435 102.881 29.2407 102.881 28.9844C102.881 28.2657 104.632 25.3998 105.157 25.3998C105.252 25.3998 105.379 25.4329 105.538 25.499C105.697 25.5652 105.82 25.7253 105.908 25.7253C105.995 25.7253 107.004 25.5888 108.934 25.316C110.872 25.0348 114.546 24.7672 114.546 24.7672C114.546 24.7672 117.272 24.3543 118.5 25.0002C119.47 25.5103 119.734 25.9181 120 27.0001C120.487 28.9844 119.201 30.6564 118.094 31.5C117.466 31.9796 117.469 32.1927 116.063 32.8046C114.997 33.2711 113.683 33.7338 112.86 34.6621C111.805 35.8601 112.431 37.0569 112.866 38.2755C113.088 38.7551 113.41 39.305 113.831 39.9251C114.443 40.8595 114.842 41.0199 115.493 41.5326C117.362 42.9629 118.246 41.9771 118.5 41.8501C118.839 41.8501 118.099 43.2383 117.039 43.5648C115.749 43.9619 114.761 43.7656 113.599 43.2383C112.979 42.9572 112.411 42.5727 111.895 42.0848C111.212 41.4481 110.676 40.708 110.287 39.8646C109.397 37.4318 109.933 36.1564 110.287 35.3443C110.427 34.7981 110.698 34.4553 111.097 34.1039C111.311 33.922 111.482 33.7442 111.609 33.5706C111.649 33.521 111.708 33.4052 111.788 33.2233C111.875 33.0331 112.047 32.9321 112.234 32.7674C113.036 32.0614 114.044 31.8959 114.752 31.7007C116.015 31.3534 116.409 31.0144 116.949 30.6836C117.489 30.3446 117.759 29.5425 117.759 29.5425C117.759 29.5425 117.862 28.3226 116.949 28.0001C116.044 27.6776 115.197 27.711 113.497 27.6944Z" fill="#197663"/>
<path fill-rule="evenodd" clip-rule="evenodd" d="M125.654 30.0011C125.654 30.0011 125.903 29.9822 126.002 30.103C126.1 30.2238 126.175 30.4766 126.175 30.4766L126.002 31.7335C126.002 31.7335 126.031 31.892 126.088 31.9713C126.146 32.0505 126.175 32.1751 126.175 32.1751L125.915 32.9859C125.915 32.9859 125.762 33.1174 125.654 33.1897C125.419 33.3489 124.995 33.4999 124.995 33.4999C124.995 33.4999 124.196 33.6471 123.745 33.4659C123.618 33.2508 123.456 33.1036 123.259 33.0243C122.958 32.594 122.93 32.0711 123.119 31.5041C123.203 31.2498 123.353 31.0798 123.537 30.8843C123.711 30.6996 124.092 30.5446 124.092 30.5446C124.092 30.5446 124.477 30.2959 124.752 30.2049C124.923 30.1482 125.203 30.103 125.203 30.103C125.203 30.103 125.501 30.0011 125.654 30.0011ZM125.903 40.9433C125.163 42.0479 124.032 42.0753 123.847 41.9388C123.827 41.9244 123.803 41.9099 123.778 41.894C123.558 41.7589 123.169 41.519 123.552 40.3344C123.613 40.1986 123.67 40.0694 123.725 39.9458C124.334 38.5765 124.638 37.8916 125.533 36.333C125.828 35.8192 126.194 35.1435 126.153 34.7756C126.054 34.6748 125.964 34.5743 125.881 34.4742C125.835 34.4147 125.641 34.5099 125.449 34.6046C125.292 34.6817 125.136 34.7584 125.061 34.751C124.973 34.869 124.198 34.9235 124.198 34.9235C124.198 34.9235 123.902 34.8739 123.744 34.9008C123.6 34.9095 123.502 34.9446 123.451 35.0059C123.289 35.2014 123.175 35.3926 123.023 35.6557C122.936 35.8053 122.884 35.9105 122.821 36.0386C122.798 36.0859 122.773 36.1363 122.744 36.1931C121.564 38.53 120.465 40.8154 120.231 41.8847C119.998 42.9539 120.786 43.6293 121.024 43.832C121.43 44.1771 122.333 44.0965 122.333 44.0965C122.333 44.0965 123.075 44.0753 124.027 43.5375C124.98 42.9997 126.52 42.0093 126.365 41.3021C126.344 41.0773 126.19 40.9577 125.903 40.9433Z" fill="#197663"/>
<path d="M147.063 43.5C147.251 43.5 147.071 43.6851 147 43.8287C146.74 44.3497 145.811 44.4133 145.488 44.2675C144.993 44.0437 144.872 43.1485 144.716 42.1612C143.964 43.0826 142.772 44.3253 141.362 44.3003C139.514 44.2675 138.823 42.354 138.823 41.3667C138.823 38.708 141.467 36.1099 142.411 35.4501C143.15 34.9332 145.366 33.4122 147.316 34.99C147.316 34.5984 148.411 35.0897 148.411 35.7808C148.411 35.8795 148.38 36.0112 148.348 36.1099C147.534 37.8212 146.325 41.3321 146.325 42.9776C146.325 43.4129 146.748 43.4343 147.063 43.5ZM144.473 39.2461C144.473 39.2461 146.347 36.4985 145.488 36.1099C144.629 35.7213 143.263 37.1983 142.886 37.6585C141.417 39.4494 140.136 42.589 141.55 42.589C142.658 42.6489 144.473 39.2461 144.473 39.2461Z" fill="#197663"/>
<path d="M47.224 26.4667H60.3169V29.7031H51.0734V33.4545H59.5568V36.4457H51.0734V40.7365H60.513V43.9729H47.224V26.4667ZM66.9967 29.7031H61.7497V26.4667H76.093V29.7031H70.8461V43.9729H66.9967V29.7031ZM78.1116 26.4667H81.961V33.1848H89.0468V26.4667H92.8963V43.9729H89.0468V36.4212H81.961V43.9729H78.1116V26.4667Z" fill="#197663"/>
</svg>
