<?xml version="1.0" encoding="UTF-8"?>
<svg id="_レイヤー_2" data-name="レイヤー 2" xmlns="http://www.w3.org/2000/svg" viewBox="0 0 117.35 38.78">
  <defs>
    <style>
      .cls-1 {
        fill: #595757;
      }

      .cls-1, .cls-2 {
        stroke-width: 0px;
      }

      .cls-2 {
        fill: #005bab;
      }
    </style>
  </defs>
  <g id="_レイヤー_1-2" data-name="レイヤー 1">
    <g>
      <g>
        <path class="cls-1" d="M1.6,28.37s0-.05-.03-.06c-.02-.02-.04-.02-.07-.02-.56.1-.85.1-1.41,0-.02,0-.05,0-.07.02-.02.02-.03.04-.03.06.06,1.24.12,2.53.12,3.8v2.53c0,1.28-.06,2.56-.12,3.8,0,.02,0,.05.03.06.02.02.04.02.07.02.57-.1.84-.1,1.41,0,0,0,0,0,.01,0,.02,0,.04,0,.05-.02.02-.02.03-.04.03-.06-.06-1.24-.12-2.52-.12-3.8v-2.53c0-1.28.06-2.56.12-3.8Z"/>
        <path class="cls-1" d="M12.05,28.3s-.05-.02-.07-.02c-.18.05-.31.07-.45.07-.14,0-.31-.02-.48-.07-.02,0-.05,0-.07.02-.02.02-.03.04-.03.07.11,2.2.12,5.03.12,7.56-1.66-1.68-4.42-4.69-6.66-7.11l-.64-.69s-.04-.03-.06-.03h-.23s-.04,0-.06.03c-.02.02-.02.04-.02.06.04.66.04,2.1.04,3.93,0,1.97-.19,5.71-.31,6.38,0,.03,0,.05.02.07s.05.03.07.02c.22-.05.38-.07.53-.07s.32.02.49.07c.03,0,.05,0,.07-.02.02-.02.03-.04.03-.07-.07-.58-.13-3.63-.13-4.94,0-1.38.02-2.22.04-2.78l.49.52c2.33,2.48,4.74,5.04,6.79,7.46.02.02.04.03.06.03h.21s.04,0,.06-.02c.02-.02.02-.04.02-.06-.01-.64-.04-3.9-.04-5.41,0-1.15.15-4.04.23-4.91,0-.03,0-.05-.03-.07Z"/>
        <path class="cls-1" d="M21.35,28.84c0-.13.02-.26.07-.45,0-.02,0-.05-.01-.07-.02-.02-.04-.03-.07-.03-1.41.05-2.65.07-3.79.07s-2.37-.02-3.79-.07c-.02,0-.05.01-.07.03-.02.02-.02.05-.01.07.05.18.07.31.07.43,0,.14-.02.29-.07.45,0,.03,0,.05.02.08.02.02.04.03.07.03.74-.09,1.99-.16,3.06-.16.03.98.04,1.98.04,2.96v2.53c0,1.28-.06,2.56-.12,3.8,0,.02,0,.05.03.06.01.01.03.02.05.02,0,0,0,0,.01,0,.57-.1.84-.1,1.41,0,.02,0,.05,0,.07-.02.02-.02.03-.04.03-.06-.06-1.24-.12-2.52-.12-3.8v-2.53c0-.98.01-1.98.04-2.96,1.07,0,2.32.07,3.06.16.03,0,.05,0,.07-.03.02-.02.02-.05.02-.08-.05-.15-.07-.3-.07-.43Z"/>
        <path class="cls-1" d="M28.49,37.57s-.05-.03-.07-.02c-.86.16-2.43.19-3.87.19,0-.28-.03-.93-.03-2.12,0-1.3,0-1.72.01-2.05.66,0,2.47.03,3.48.13.03,0,.05,0,.07-.03.02-.02.02-.04.02-.07-.03-.14-.04-.28-.04-.43s.01-.3.04-.44c0-.02,0-.05-.02-.07-.02-.02-.04-.03-.07-.03-.9.08-1.84.14-3.48.15,0-.15,0-.34,0-.56,0-.38,0-.85,0-1.3s.02-.8.03-1.15c0-.21.02-.41.02-.63,1.43,0,2.17.06,3.02.13.24.02.49.04.76.06.03,0,.05,0,.07-.03.02-.02.02-.04.02-.07-.03-.14-.04-.28-.04-.43s.01-.28.04-.43c0-.02,0-.05-.02-.07-.02-.02-.04-.03-.07-.03-.98.05-1.81.07-2.61.07s-1.63-.02-2.63-.07c-.02,0-.05,0-.06.02-.02.02-.02.04-.02.06.05,1.17.12,2.5.12,3.79v2.53c0,1.26-.06,2.56-.12,3.82,0,.02,0,.04.02.06.02.01.04.02.06.02h0c1.02-.05,1.87-.07,2.67-.07s1.66.02,2.64.07c.02,0,.05,0,.07-.03.02-.02.02-.05.02-.07-.03-.12-.04-.27-.04-.41,0-.12.01-.31.04-.44,0-.03,0-.05-.02-.07Z"/>
        <path class="cls-1" d="M34.51,34.56c-.32-.41-.6-.77-.8-1.01,1.16-.19,2.94-.99,2.94-2.87,0-1.57-1.08-2.4-3.14-2.4-.28,0-.57.02-.84.04-.27.02-.56.04-.83.04-.5,0-1.05-.02-1.67-.07-.02,0-.05,0-.06.02-.02.02-.03.04-.02.06.06,1.24.12,2.53.12,3.8v2.53c0,1.28-.06,2.56-.12,3.8,0,.02,0,.05.03.06.02.02.04.02.07.02.57-.1.84-.1,1.41,0,.02,0,.05,0,.07-.02.02-.02.03-.04.03-.06-.06-1.24-.12-2.52-.12-3.8v-.99h.44c1.26,1.28,3.21,3.98,3.77,4.84.02.03.05.04.08.04.31-.05.59-.07.84-.07s.54.02.87.07c0,0,0,0,.01,0,.03,0,.06-.02.07-.04.02-.03.01-.07-.01-.09-.62-.7-2.14-2.62-3.14-3.89ZM31.57,32.17c0-1.03.04-2.04.09-3.12.31-.03.72-.07,1.35-.07.66,0,2.2.18,2.2,1.84s-1.41,2.17-2.73,2.17c-.41,0-.69-.02-.9-.06v-.77Z"/>
        <path class="cls-1" d="M48.06,28.3s-.05-.02-.07-.02c-.18.05-.31.07-.45.07-.14,0-.31-.02-.48-.07-.03,0-.05,0-.07.02-.02.02-.03.04-.03.07.11,2.2.12,5.03.12,7.56-1.66-1.68-4.42-4.69-6.66-7.11l-.64-.69s-.04-.03-.06-.03h-.23s-.04,0-.06.03c-.02.02-.02.04-.02.06.04.66.04,2.1.04,3.93,0,1.97-.19,5.71-.31,6.38,0,.03,0,.05.02.07.02.02.05.03.07.02.22-.05.38-.07.53-.07s.32.02.49.07c.03,0,.05,0,.07-.02.02-.02.03-.04.03-.07-.07-.58-.13-3.63-.13-4.94,0-1.38.02-2.22.04-2.78l.49.52c2.33,2.48,4.74,5.04,6.79,7.46.02.02.04.03.06.03h.21s.04,0,.06-.02c.02-.02.02-.04.02-.06-.01-.64-.04-3.9-.04-5.41,0-1.15.15-4.04.23-4.91,0-.03,0-.05-.03-.07Z"/>
        <path class="cls-1" d="M55.14,37.57s-.05-.03-.07-.02c-.86.16-2.43.19-3.87.19,0-.28-.03-.93-.03-2.12,0-1.3,0-1.72.01-2.05.66,0,2.47.03,3.48.13.03,0,.05,0,.07-.03s.02-.04.02-.07c-.03-.14-.04-.28-.04-.43s.01-.3.04-.44c0-.02,0-.05-.02-.07-.02-.02-.04-.03-.07-.03-.9.08-1.84.14-3.48.15,0-.15,0-.34,0-.56,0-.38,0-.85,0-1.3s.02-.8.03-1.15c0-.21.02-.41.02-.63,1.43,0,2.17.06,3.02.13.24.02.49.04.76.06.02,0,.05,0,.07-.03.02-.02.02-.04.02-.07-.03-.14-.04-.28-.04-.43s.01-.28.04-.43c0-.02,0-.05-.02-.07-.02-.02-.04-.03-.07-.03-.98.05-1.81.07-2.61.07s-1.63-.02-2.63-.07c-.02,0-.05,0-.06.02-.02.02-.02.04-.02.06.05,1.17.12,2.5.12,3.79v2.53c0,1.26-.06,2.56-.12,3.82,0,.02,0,.04.02.06.02.01.04.02.06.02h0c1.02-.05,1.87-.07,2.67-.07s1.66.02,2.64.07c.03,0,.05,0,.07-.03s.02-.05.02-.07c-.03-.12-.04-.27-.04-.41,0-.12.01-.31.04-.44,0-.03,0-.05-.02-.07Z"/>
        <path class="cls-1" d="M64.56,28.84c0-.13.02-.26.07-.45,0-.02,0-.05-.01-.07-.02-.02-.04-.03-.07-.03-1.41.05-2.65.07-3.79.07s-2.37-.02-3.79-.07c-.02,0-.05.01-.07.03-.02.02-.02.05-.01.07.05.18.07.31.07.43,0,.14-.02.29-.07.45,0,.03,0,.05.02.08.02.02.04.03.07.03.74-.09,1.99-.16,3.06-.16.03.98.04,1.98.04,2.96v2.53c0,1.28-.06,2.56-.12,3.8,0,.02,0,.05.03.06.01.01.03.02.05.02,0,0,0,0,.01,0,.57-.1.84-.1,1.41,0,.02,0,.05,0,.07-.02.02-.02.03-.04.03-.06-.06-1.24-.12-2.52-.12-3.8v-2.53c0-.98.01-1.98.04-2.96,1.07,0,2.32.07,3.06.16.03,0,.05,0,.07-.03.02-.02.02-.05.02-.08-.05-.15-.07-.3-.07-.43Z"/>
        <path class="cls-1" d="M73.87,28.09c-3.59,0-5.83,2.05-5.83,5.34s2.1,5.34,5.75,5.34c1.14,0,2.93-.41,3.77-.71.03-.01.05-.04.05-.08,0-.2,0-.41,0-.61,0-.2,0-.39,0-.58,0-1.89.04-2.71.06-2.98,0-.03,0-.05-.03-.07-.02-.02-.05-.02-.07-.01-.16.05-.35.07-.61.07-.23,0-.5-.03-.69-.07-.02,0-.05,0-.07.02-.02.02-.03.04-.03.07l.02.36c.03.51.06,1.09.06,1.65,0,.59-.01,1.17-.03,1.73-.52.3-1.53.44-2.27.44-2.69,0-4.3-1.71-4.3-4.56s1.54-4.64,4.22-4.64c1.47,0,2.6.73,3.17,1.41.02.02.04.03.06.03h.18s.08-.03.08-.07c.04-.37.19-.85.33-1.1.01-.02.01-.04,0-.06,0-.02-.02-.04-.04-.05-.8-.43-1.88-.86-3.79-.86Z"/>
        <path class="cls-1" d="M83.9,34.56c-.32-.41-.6-.77-.8-1.01,1.16-.19,2.94-.99,2.94-2.87,0-1.57-1.08-2.4-3.14-2.4-.28,0-.57.02-.84.04-.27.02-.56.04-.83.04-.5,0-1.05-.02-1.67-.07-.02,0-.05,0-.06.02-.02.02-.03.04-.02.06.06,1.24.12,2.53.12,3.8v2.53c0,1.28-.06,2.56-.12,3.8,0,.02,0,.05.03.06.02.02.04.02.07.02.57-.1.84-.1,1.41,0,.02,0,.05,0,.07-.02.02-.02.03-.04.03-.06-.06-1.24-.12-2.52-.12-3.8v-.99h.44c1.26,1.29,3.21,3.98,3.77,4.84.02.03.05.04.08.04.31-.05.59-.07.84-.07s.54.02.87.07c0,0,0,0,.01,0,.03,0,.06-.02.07-.04.02-.03.01-.07-.01-.09-.62-.7-2.14-2.62-3.14-3.89ZM80.96,32.17c0-1.03.04-2.04.09-3.12.31-.03.72-.07,1.35-.07.66,0,2.2.18,2.2,1.84s-1.41,2.17-2.73,2.17c-.41,0-.69-.02-.9-.06v-.77Z"/>
        <path class="cls-1" d="M92.88,28.09c-3.39,0-5.58,2.1-5.58,5.34s2.19,5.34,5.58,5.34,5.59-2.1,5.59-5.34-2.19-5.34-5.59-5.34ZM96.87,33.44c0,2.95-1.45,4.64-3.99,4.64s-3.97-1.69-3.97-4.64,1.45-4.64,3.97-4.64,3.99,1.69,3.99,4.64Z"/>
        <path class="cls-1" d="M108.74,28.29c-.13.04-.28.07-.42.07-.18,0-.38-.02-.58-.07-.03,0-.05,0-.07.02-.02.02-.03.05-.02.07.09.57.09,1.97.09,4.76,0,1.9,0,4.78-3.14,4.78s-3.2-2.51-3.2-4.52c0-2.17.09-4.17.18-5.03,0-.03,0-.05-.03-.07-.02-.02-.05-.02-.07-.02-.19.04-.42.07-.61.07-.23,0-.51-.03-.75-.07-.02,0-.05,0-.07.02-.02.02-.03.04-.03.06v.4c.05.85.09,2.02.09,3.4,0,.35-.02.68-.03,1.03-.02.4-.04.81-.04,1.29,0,2.92,1.36,4.28,4.28,4.28,2.64,0,4.24-1.61,4.27-4.31.03-2.05.14-4.67.26-6.09,0-.03,0-.05-.03-.07-.02-.02-.05-.02-.08-.01Z"/>
        <path class="cls-1" d="M113.84,28.29c-.2,0-.52.02-.86.04-.36.02-.72.04-.96.04-.42,0-.9-.02-1.42-.07-.02,0-.05,0-.06.02-.02.02-.03.04-.02.06.06,1.24.12,2.53.12,3.8v2.53c0,1.28-.06,2.56-.12,3.8,0,.02,0,.05.03.06.02.02.04.02.07.02.57-.1.84-.1,1.41,0,0,0,0,0,.01,0,.02,0,.04,0,.05-.02.02-.02.03-.04.03-.06-.06-1.24-.12-2.52-.12-3.8v-.72c.36.03.71.04,1.11.04,1.95,0,4.03-.83,4.03-3.17,0-2.56-2.48-2.56-3.3-2.56ZM115.63,30.94c0,2.06-1.67,2.37-2.67,2.37-.31,0-.68-.04-.96-.1v-4.22h1.24c1.47,0,2.39.33,2.39,1.95Z"/>
      </g>
      <g>
        <path class="cls-2" d="M58.68,22.1h1.59c.08,0,.18-.06.22-.13l6.59-10.78,3.58,12.34c.02.08.11.14.19.14h6.91c.08,0,.13-.06.1-.14L70.57.45c-.02-.08-.11-.14-.19-.14h-2.6c-.08,0-.18.06-.23.12l-8.88,13.77L49.8.44c-.04-.07-.15-.12-.23-.12h-2.6c-.08,0-.17.06-.19.14l-7.29,23.08c-.02.08.02.14.1.14h6.91c.08,0,.17-.06.19-.14l3.58-12.34,6.59,10.78c.04.07.14.13.22.13h1.59Z"/>
        <path class="cls-2" d="M39.81,10.61s0,0,0,0c-.01-.07-.07-.12-.14-.12h-19.69c-1.04,0-1.89.84-1.89,1.89s.84,1.89,1.89,1.89h11.7c-1.39,3.68-6.1,6.39-11.7,6.39-6.69,0-12.12-3.88-12.12-8.66S13.28,3.34,19.97,3.34c3.66,0,6.93,1.16,9.16,2.98,0,0,.02.01.02.02.02.02.05.02.08.02h8.05c.08,0,.15-.07.15-.15,0-.04-.01-.07-.03-.09,0,0,0,0-.01-.01C33.95,2.46,27.44,0,19.97,0,8.94,0,0,5.37,0,11.99s8.94,12,19.97,12,19.97-5.37,19.97-12c0-.47-.05-.93-.13-1.39Z"/>
        <path class="cls-2" d="M97.38,0c-11.03,0-19.97,5.37-19.97,11.99s8.94,12,19.97,12,19.97-5.37,19.97-12S108.41,0,97.38,0ZM97.38,20.65c-6.69,0-12.12-3.88-12.12-8.66s5.43-8.65,12.12-8.65,12.12,3.88,12.12,8.65-5.43,8.66-12.12,8.66Z"/>
      </g>
    </g>
  </g>
</svg>