<svg width="216" height="30" viewBox="0 0 216 30" fill="none" xmlns="http://www.w3.org/2000/svg">
<path d="M5.97038 1.81244C5.97038 0.870337 6.7341 0.106614 7.6762 0.106614H16.2053C17.1474 0.106614 17.9111 0.870337 17.9111 1.81244V22.2823C17.9111 23.2244 18.6749 23.9881 19.617 23.9881H22.1757C23.1178 23.9881 23.8815 23.2244 23.8815 22.2823V1.81244C23.8815 0.870337 24.6452 0.106614 25.5873 0.106614H28.1461C29.0882 0.106614 29.8519 0.870337 29.8519 1.81244V23.1352C29.8519 24.0773 29.0882 24.841 28.1461 24.841H25.5873C24.6452 24.841 23.8815 25.6048 23.8815 26.5469V28.2527C23.8815 29.1948 23.1178 29.9585 22.1757 29.9585H13.6466C12.7045 29.9585 11.9408 29.1948 11.9408 28.2527V7.78282C11.9408 6.84072 11.177 6.07699 10.2349 6.07699H7.6762C6.7341 6.07699 5.97038 6.84072 5.97038 7.78282V28.2527C5.97038 29.1948 5.20666 29.9585 4.26456 29.9585H1.70582C0.763723 29.9585 0 29.1948 0 28.2527V7.03652C0 6.09442 0.763723 5.3307 1.70582 5.3307H4.26456C5.20666 5.3307 5.97038 4.56697 5.97038 3.62487V1.81244Z" fill="black"></path>
<path d="M41.7927 1.70582C41.7927 0.763723 42.5564 0 43.4985 0H63.9684C64.9105 0 65.6742 0.763723 65.6742 1.70582V4.26456C65.6742 5.20666 64.9105 5.97038 63.9684 5.97038H43.4985C42.5564 5.97038 41.7927 6.7341 41.7927 7.6762V10.2349C41.7927 11.177 42.5564 11.9408 43.4985 11.9408H63.9684C64.9105 11.9408 65.6742 12.7045 65.6742 13.6466V16.2053C65.6742 17.1474 64.9105 17.9111 63.9684 17.9111H43.4985C42.5564 17.9111 41.7927 18.6749 41.7927 19.617V22.1757C41.7927 23.1178 42.5564 23.8815 43.4985 23.8815H63.9684C64.9105 23.8815 65.6742 24.6452 65.6742 25.5873V28.1461C65.6742 29.0882 64.9105 29.8519 63.9684 29.8519H43.4985C42.5564 29.8519 41.7927 29.0882 41.7927 28.1461V26.4403C41.7927 25.4982 41.0289 24.7344 40.0868 24.7344H37.5281C36.586 24.7344 35.8223 23.9707 35.8223 23.0286V6.82329C35.8223 5.88119 36.586 5.11747 37.5281 5.11747H40.0868C41.0289 5.11747 41.7927 4.35375 41.7927 3.41165V1.70582Z" fill="black"></path>
<path fill-rule="evenodd" clip-rule="evenodd" d="M79.3208 0C78.3787 0 77.6149 0.763723 77.6149 1.70582V3.41165C77.6149 4.35375 76.8512 5.11747 75.9091 5.11747H73.3504C72.4083 5.11747 71.6446 5.88119 71.6446 6.82329V28.1461C71.6446 29.0882 72.4083 29.8519 73.3504 29.8519H75.9091C76.8512 29.8519 77.6149 29.0882 77.6149 28.1461V26.0138C77.6149 25.0717 78.3787 24.308 79.3208 24.308H81.8795C82.8216 24.308 83.5853 25.0717 83.5853 26.0138V28.1461C83.5853 29.0882 84.349 29.8519 85.2911 29.8519H99.7906C100.733 29.8519 101.496 29.0882 101.496 28.1461V25.5873C101.496 24.6452 100.733 23.8815 99.7906 23.8815H85.7176C84.7755 23.8815 84.0118 23.1178 84.0118 22.1757V19.617C84.0118 18.6749 84.7755 17.9111 85.7176 17.9111H93.8202C94.7623 17.9111 95.5261 17.1474 95.5261 16.2053V13.8598C95.5261 12.9177 96.2898 12.154 97.2319 12.154H99.7906C100.733 12.154 101.496 11.3903 101.496 10.4482V6.82329C101.496 5.88119 100.733 5.11747 99.7906 5.11747H97.2319C96.2898 5.11747 95.5261 4.35375 95.5261 3.41165V1.70582C95.5261 0.763723 94.7623 0 93.8202 0H79.3208ZM77.6149 15.7789C77.6149 16.721 78.3787 17.4847 79.3208 17.4847H81.8795C82.8216 17.4847 83.5853 16.721 83.5853 15.7789V13.6466C83.5853 12.7045 84.349 11.9408 85.2911 11.9408H93.8202C94.7623 11.9408 95.5261 11.177 95.5261 10.2349V7.6762C95.5261 6.7341 94.7623 5.97038 93.8202 5.97038H79.3208C78.3787 5.97038 77.6149 6.7341 77.6149 7.6762V15.7789Z" fill="black"></path>
<path fill-rule="evenodd" clip-rule="evenodd" d="M115.143 0C114.201 0 113.437 0.763723 113.437 1.70582V3.41165C113.437 4.35375 112.673 5.11747 111.731 5.11747H109.173C108.231 5.11747 107.467 5.88119 107.467 6.82329V23.0286C107.467 23.9707 108.231 24.7344 109.173 24.7344H111.731C112.673 24.7344 113.437 25.4982 113.437 26.4403V28.1461C113.437 29.0882 114.201 29.8519 115.143 29.8519H129.643C130.585 29.8519 131.348 29.0882 131.348 28.1461V26.4403C131.348 25.4982 132.112 24.7344 133.054 24.7344H135.613C136.555 24.7344 137.319 23.9707 137.319 23.0286V6.82329C137.319 5.88119 136.555 5.11747 135.613 5.11747H133.054C132.112 5.11747 131.348 4.35375 131.348 3.41165V1.70582C131.348 0.763723 130.585 0 129.643 0H115.143ZM131.348 7.6762C131.348 6.7341 130.585 5.97038 129.643 5.97038H115.143C114.201 5.97038 113.437 6.7341 113.437 7.6762V22.1757C113.437 23.1178 114.201 23.8815 115.143 23.8815H129.643C130.585 23.8815 131.348 23.1178 131.348 22.1757V7.6762Z" fill="black"></path>
<g opacity="0.6">
<path d="M154.292 15.9877C154.292 19.5717 156.168 21.5982 159.471 21.5982C162.567 21.5982 164.293 19.8156 164.537 17.0197H162.83C162.661 18.7648 161.723 20.0032 159.471 20.0032C156.938 20.0032 155.981 18.4458 155.981 15.9877V13.736C155.981 11.2779 156.938 9.72053 159.471 9.72053C161.779 9.72053 162.661 11.034 162.867 12.8541H164.575C164.35 9.98323 162.605 8.12559 159.471 8.12559C156.168 8.12559 154.292 10.1521 154.292 13.736V15.9877Z" fill="black"></path>
<path d="M174.801 15.4811V21.4293H176.489V8.29446H174.801V13.8862H168.515V8.29446H166.826V21.4293H168.515V15.4811H174.801Z" fill="black"></path>
<path fill-rule="evenodd" clip-rule="evenodd" d="M186.525 18.033L187.538 21.4293H189.359L185.306 8.29446H182.266L178.175 21.4293H179.995L181.009 18.033H186.525ZM186.075 16.5319H181.459L183.767 8.76356L186.075 16.5319Z" fill="black"></path>
<path d="M190.489 19.8719V21.4293H197.657V19.8719H194.917V9.85188H197.657V8.29446H190.489V9.85188H193.229V19.8719H190.489Z" fill="black"></path>
<path d="M200.105 8.29446V21.4293H201.756V8.76356L206.729 21.4293H210.012V8.29446H208.361V21.054L203.276 8.29446H200.105Z" fill="black"></path>
<path fill-rule="evenodd" clip-rule="evenodd" d="M212.802 3.30493H152.245C150.478 3.30493 149.046 4.73691 149.046 6.50335V23.1351C149.046 24.9016 150.478 26.3335 152.245 26.3335H212.802C214.568 26.3335 216 24.9016 216 23.1351V6.50335C216 4.73691 214.568 3.30493 212.802 3.30493ZM150.539 6.50335C150.539 5.56125 151.303 4.79753 152.245 4.79753H212.802C213.744 4.79753 214.507 5.56125 214.507 6.50335V23.1351C214.507 24.0772 213.744 24.8409 212.802 24.8409H152.245C151.303 24.8409 150.539 24.0772 150.539 23.1351V6.50335Z" fill="black"></path>
</g>
</svg>
