<?xml version="1.0" encoding="utf-8"?>
<svg style="" width="426" height="72" viewBox="0 0 213 36" fill="none" xmlns="http://www.w3.org/2000/svg"><path d="M0 0.998798C0 0.447177 0.447177 0 0.998798 0C1.55042 0 1.9976 0.447177 1.9976 0.998798C1.9976 1.55042 1.55042 1.9976 0.998798 1.9976C0.447177 1.9976 0 1.55042 0 0.998798Z" fill="white"></path><path d="M3.66504 0.998798C3.66504 0.447177 4.11222 0 4.66384 0C5.21546 0 5.66263 0.447177 5.66263 0.998798C5.66263 1.55042 5.21546 1.9976 4.66384 1.9976C4.11222 1.9976 3.66504 1.55042 3.66504 0.998798Z" fill="white"></path><path d="M7.32983 0.998798C7.32983 0.447177 7.77701 0 8.32863 0C8.88025 0 9.32743 0.447177 9.32743 0.998798C9.32743 1.55042 8.88025 1.9976 8.32863 1.9976C7.77701 1.9976 7.32983 1.55042 7.32983 0.998798Z" fill="white"></path><path d="M10.9946 0.998798C10.9946 0.447177 11.4418 0 11.9934 0C12.545 0 12.9922 0.447177 12.9922 0.998798C12.9922 1.55042 12.545 1.9976 11.9934 1.9976C11.4418 1.9976 10.9946 1.55042 10.9946 0.998798Z" fill="white"></path><path d="M14.6597 0.998798C14.6597 0.447177 15.1068 0 15.6585 0C16.2101 0 16.6573 0.447177 16.6573 0.998798C16.6573 1.55042 16.2101 1.9976 15.6585 1.9976C15.1068 1.9976 14.6597 1.55042 14.6597 0.998798Z" fill="white"></path><path d="M18.3247 0.998798C18.3247 0.447177 18.7719 0 19.3235 0C19.8751 0 20.3223 0.447177 20.3223 0.998798C20.3223 1.55042 19.8751 1.9976 19.3235 1.9976C18.7719 1.9976 18.3247 1.55042 18.3247 0.998798Z" fill="white"></path><path d="M21.9897 0.998798C21.9897 0.447177 22.4369 0 22.9885 0C23.5402 0 23.9873 0.447177 23.9873 0.998798C23.9873 1.55042 23.5402 1.9976 22.9885 1.9976C22.4369 1.9976 21.9897 1.55042 21.9897 0.998798Z" fill="white"></path><path d="M0 23.0291C0 22.4775 0.447177 22.0303 0.998798 22.0303C1.55042 22.0303 1.9976 22.4775 1.9976 23.0291C1.9976 23.5807 1.55042 24.0279 0.998798 24.0279C0.447177 24.0279 0 23.5807 0 23.0291Z" fill="white"></path><path d="M3.66504 23.0291C3.66504 22.4775 4.11222 22.0303 4.66384 22.0303C5.21546 22.0303 5.66263 22.4775 5.66263 23.0291C5.66263 23.5807 5.21546 24.0279 4.66384 24.0279C4.11222 24.0279 3.66504 23.5807 3.66504 23.0291Z" fill="white"></path><path d="M7.32983 23.0291C7.32983 22.4775 7.77701 22.0303 8.32863 22.0303C8.88025 22.0303 9.32743 22.4775 9.32743 23.0291C9.32743 23.5807 8.88025 24.0279 8.32863 24.0279C7.77701 24.0279 7.32983 23.5807 7.32983 23.0291Z" fill="white"></path><path d="M10.9946 22.6339C10.9946 22.3005 11.2649 22.0303 11.5983 22.0303H12.3886C12.722 22.0303 12.9922 22.3005 12.9922 22.6339V23.4242C12.9922 23.7576 12.722 24.0279 12.3886 24.0279H11.5983C11.2649 24.0279 10.9946 23.7576 10.9946 23.4242V22.6339Z" fill="#FBB03B"></path><path d="M14.6597 22.6339C14.6597 22.3005 14.9299 22.0303 15.2633 22.0303H16.0536C16.387 22.0303 16.6573 22.3005 16.6573 22.6339V23.4242C16.6573 23.7576 16.387 24.0279 16.0536 24.0279H15.2633C14.9299 24.0279 14.6597 23.7576 14.6597 23.4242V22.6339Z" fill="#39B54A"></path><path d="M18.3247 22.6339C18.3247 22.3005 18.595 22.0303 18.9284 22.0303H19.7186C20.052 22.0303 20.3223 22.3005 20.3223 22.6339V23.4242C20.3223 23.7576 20.052 24.0279 19.7186 24.0279H18.9284C18.595 24.0279 18.3247 23.7576 18.3247 23.4242V22.6339Z" fill="#0EB1D2"></path><path d="M21.9897 22.6339C21.9897 22.3005 22.26 22.0303 22.5934 22.0303H23.3837C23.7171 22.0303 23.9873 22.3005 23.9873 22.6339V23.4242C23.9873 23.7576 23.7171 24.0279 23.3837 24.0279H22.5934C22.26 24.0279 21.9897 23.7576 21.9897 23.4242V22.6339Z" fill="#D64933"></path><path d="M11.0278 11.6188C11.0278 11.2854 11.2981 11.0151 11.6315 11.0151H12.4218C12.7552 11.0151 13.0254 11.2854 13.0254 11.6188V12.4091C13.0254 12.7425 12.7552 13.0127 12.4218 13.0127H11.6315C11.2981 13.0127 11.0278 12.7425 11.0278 12.4091V11.6188Z" fill="#D64933"></path><path d="M14.6929 11.6188C14.6929 11.2854 14.9631 11.0151 15.2965 11.0151H16.0868C16.4202 11.0151 16.6905 11.2854 16.6905 11.6188V12.4091C16.6905 12.7425 16.4202 13.0127 16.0868 13.0127H15.2965C14.9631 13.0127 14.6929 12.7425 14.6929 12.4091V11.6188Z" fill="#0EB1D2"></path><path d="M18.3577 11.6188C18.3577 11.2854 18.6279 11.0151 18.9613 11.0151H19.7516C20.085 11.0151 20.3553 11.2854 20.3553 11.6188V12.4091C20.3553 12.7425 20.085 13.0127 19.7516 13.0127H18.9613C18.6279 13.0127 18.3577 12.7425 18.3577 12.4091V11.6188Z" fill="#39B54A"></path><path d="M22.0227 11.6188C22.0227 11.2854 22.293 11.0151 22.6264 11.0151H23.4166C23.75 11.0151 24.0203 11.2854 24.0203 11.6188V12.4091C24.0203 12.7425 23.75 13.0127 23.4166 13.0127H22.6264C22.293 13.0127 22.0227 12.7425 22.0227 12.4091V11.6188Z" fill="#FBB03B"></path><path d="M25.6877 11.317C25.6877 11.1503 25.8229 11.0151 25.9896 11.0151H27.3835C27.5502 11.0151 27.6853 11.1503 27.6853 11.317V12.7109C27.6853 12.8776 27.5502 13.0127 27.3835 13.0127H25.9896C25.8229 13.0127 25.6877 12.8776 25.6877 12.7109V11.317Z" fill="white"></path><path d="M29.3523 11.317C29.3523 11.1503 29.4874 11.0151 29.6541 11.0151H31.0481C31.2148 11.0151 31.3499 11.1503 31.3499 11.317V12.7109C31.3499 12.8776 31.2148 13.0127 31.0481 13.0127H29.6541C29.4874 13.0127 29.3523 12.8776 29.3523 12.7109V11.317Z" fill="white"></path><path d="M33.0173 11.317C33.0173 11.1503 33.1525 11.0151 33.3192 11.0151H34.7131C34.8798 11.0151 35.0149 11.1503 35.0149 11.317V12.7109C35.0149 12.8776 34.8798 13.0127 34.7131 13.0127H33.3192C33.1525 13.0127 33.0173 12.8776 33.0173 12.7109V11.317Z" fill="white"></path><path d="M11.0278 33.3472C11.0278 33.1805 11.163 33.0454 11.3297 33.0454H12.7236C12.8903 33.0454 13.0254 33.1805 13.0254 33.3472V34.7412C13.0254 34.9079 12.8903 35.043 12.7236 35.043H11.3297C11.163 35.043 11.0278 34.9079 11.0278 34.7412V33.3472Z" fill="white"></path><path d="M14.6929 33.3472C14.6929 33.1805 14.828 33.0454 14.9947 33.0454H16.3886C16.5553 33.0454 16.6905 33.1805 16.6905 33.3472V34.7412C16.6905 34.9079 16.5553 35.043 16.3886 35.043H14.9947C14.828 35.043 14.6929 34.9079 14.6929 34.7412V33.3472Z" fill="white"></path><path d="M18.3579 33.3472C18.3579 33.1805 18.493 33.0454 18.6597 33.0454H20.0537C20.2204 33.0454 20.3555 33.1805 20.3555 33.3472V34.7412C20.3555 34.9079 20.2204 35.043 20.0537 35.043H18.6597C18.493 35.043 18.3579 34.9079 18.3579 34.7412V33.3472Z" fill="white"></path><path d="M22.0227 33.3472C22.0227 33.1805 22.1578 33.0454 22.3245 33.0454H23.7185C23.8852 33.0454 24.0203 33.1805 24.0203 33.3472V34.7412C24.0203 34.9079 23.8852 35.043 23.7185 35.043H22.3245C22.1578 35.043 22.0227 34.9079 22.0227 34.7412V33.3472Z" fill="white"></path><path d="M25.6877 33.3472C25.6877 33.1805 25.8229 33.0454 25.9896 33.0454H27.3835C27.5502 33.0454 27.6853 33.1805 27.6853 33.3472V34.7412C27.6853 34.9079 27.5502 35.043 27.3835 35.043H25.9896C25.8229 35.043 25.6877 34.9079 25.6877 34.7412V33.3472Z" fill="white"></path><path d="M29.3528 33.3472C29.3528 33.1805 29.4879 33.0454 29.6546 33.0454H31.0485C31.2152 33.0454 31.3504 33.1805 31.3504 33.3472V34.7412C31.3504 34.9079 31.2152 35.043 31.0485 35.043H29.6546C29.4879 35.043 29.3528 34.9079 29.3528 34.7412V33.3472Z" fill="white"></path><path d="M33.0176 33.3472C33.0176 33.1805 33.1527 33.0454 33.3194 33.0454H34.7133C34.88 33.0454 35.0152 33.1805 35.0152 33.3472V34.7412C35.0152 34.9079 34.88 35.043 34.7133 35.043H33.3194C33.1527 35.043 33.0176 34.9079 33.0176 34.7412V33.3472Z" fill="white"></path><path d="M22.0227 4.72341C22.0227 4.17179 22.4699 3.72461 23.0215 3.72461C23.5731 3.72461 24.0203 4.17179 24.0203 4.72341C24.0203 5.27503 23.5731 5.7222 23.0215 5.7222C22.4699 5.7222 22.0227 5.27503 22.0227 4.72341Z" fill="white"></path><path d="M22.0227 8.36891C22.0227 7.81729 22.4699 7.37012 23.0215 7.37012C23.5731 7.37012 24.0203 7.81729 24.0203 8.36891C24.0203 8.92054 23.5731 9.36771 23.0215 9.36771C22.4699 9.36771 22.0227 8.92054 22.0227 8.36891Z" fill="white"></path><path d="M22.0227 15.3039C22.0227 14.9705 22.293 14.7002 22.6264 14.7002H23.4166C23.75 14.7002 24.0203 14.9705 24.0203 15.3039V16.0941C24.0203 16.4275 23.75 16.6978 23.4166 16.6978H22.6264C22.293 16.6978 22.0227 16.4275 22.0227 16.0941V15.3039Z" fill="#39B54A"></path><path d="M22.0227 18.9489C22.0227 18.6155 22.293 18.3452 22.6264 18.3452H23.4166C23.75 18.3452 24.0203 18.6155 24.0203 18.9489V19.7391C24.0203 20.0725 23.75 20.3428 23.4166 20.3428H22.6264C22.293 20.3428 22.0227 20.0725 22.0227 19.7391V18.9489Z" fill="#0EB1D2"></path><path d="M33.0173 22.2926C33.0173 22.1259 33.1525 21.9907 33.3192 21.9907H34.7131C34.8798 21.9907 35.0149 22.1259 35.0149 22.2926V23.6865C35.0149 23.8532 34.8798 23.9883 34.7131 23.9883H33.3192C33.1525 23.9883 33.0173 23.8532 33.0173 23.6865V22.2926Z" fill="white"></path><path d="M33.0173 15.002C33.0173 14.8353 33.1525 14.7002 33.3192 14.7002H34.7131C34.8798 14.7002 35.0149 14.8353 35.0149 15.002V16.396C35.0149 16.5627 34.8798 16.6978 34.7131 16.6978H33.3192C33.1525 16.6978 33.0173 16.5627 33.0173 16.396V15.002Z" fill="white"></path><path d="M33.0173 18.6471C33.0173 18.4804 33.1525 18.3452 33.3192 18.3452H34.7131C34.8798 18.3452 35.0149 18.4804 35.0149 18.6471V20.041C35.0149 20.2077 34.8798 20.3428 34.7131 20.3428H33.3192C33.1525 20.3428 33.0173 20.2077 33.0173 20.041V18.6471Z" fill="white"></path><path d="M33.0173 25.9776C33.0173 25.8109 33.1525 25.6758 33.3192 25.6758H34.7131C34.8798 25.6758 35.0149 25.8109 35.0149 25.9776V27.3715C35.0149 27.5382 34.8798 27.6734 34.7131 27.6734H33.3192C33.1525 27.6734 33.0173 27.5382 33.0173 27.3715V25.9776Z" fill="white"></path><path d="M33.0173 29.6226C33.0173 29.4559 33.1525 29.3208 33.3192 29.3208H34.7131C34.8798 29.3208 35.0149 29.4559 35.0149 29.6226V31.0166C35.0149 31.1833 34.8798 31.3184 34.7131 31.3184H33.3192C33.1525 31.3184 33.0173 31.1833 33.0173 31.0166V29.6226Z" fill="white"></path><path d="M11.0278 15.3039C11.0278 14.9705 11.2981 14.7002 11.6315 14.7002H12.4218C12.7552 14.7002 13.0254 14.9705 13.0254 15.3039V16.0941C13.0254 16.4275 12.7552 16.6978 12.4218 16.6978H11.6315C11.2981 16.6978 11.0278 16.4275 11.0278 16.0941V15.3039Z" fill="#0EB1D2"></path><path d="M11.0278 18.9489C11.0278 18.6155 11.2981 18.3452 11.6315 18.3452H12.4218C12.7552 18.3452 13.0254 18.6155 13.0254 18.9489V19.7391C13.0254 20.0725 12.7552 20.3428 12.4218 20.3428H11.6315C11.2981 20.3428 11.0278 20.0725 11.0278 19.7391V18.9489Z" fill="#39B54A"></path><path d="M11.0278 25.9776C11.0278 25.8109 11.163 25.6758 11.3297 25.6758H12.7236C12.8903 25.6758 13.0254 25.8109 13.0254 25.9776V27.3715C13.0254 27.5382 12.8903 27.6734 12.7236 27.6734H11.3297C11.163 27.6734 11.0278 27.5382 11.0278 27.3715V25.9776Z" fill="white"></path><path d="M11.0278 29.6226C11.0278 29.4559 11.163 29.3208 11.3297 29.3208H12.7236C12.8903 29.3208 13.0254 29.4559 13.0254 29.6226V31.0166C13.0254 31.1833 12.8903 31.3184 12.7236 31.3184H11.3297C11.163 31.3184 11.0278 31.1833 11.0278 31.0166V29.6226Z" fill="white"></path><path d="M0 12.0139C0 11.4623 0.447177 11.0151 0.998798 11.0151C1.55042 11.0151 1.9976 11.4623 1.9976 12.0139C1.9976 12.5656 1.55042 13.0127 0.998798 13.0127C0.447177 13.0127 0 12.5656 0 12.0139Z" fill="white"></path><path d="M0 4.72341C0 4.17179 0.447177 3.72461 0.998798 3.72461C1.55042 3.72461 1.9976 4.17179 1.9976 4.72341C1.9976 5.27503 1.55042 5.7222 0.998798 5.7222C0.447177 5.7222 0 5.27503 0 4.72341Z" fill="white"></path><path d="M0 8.36891C0 7.81729 0.447177 7.37012 0.998798 7.37012C1.55042 7.37012 1.9976 7.81729 1.9976 8.36891C1.9976 8.92054 1.55042 9.36771 0.998798 9.36771C0.447177 9.36771 0 8.92054 0 8.36891Z" fill="white"></path><path d="M0 15.699C0 15.1474 0.447177 14.7002 0.998798 14.7002C1.55042 14.7002 1.9976 15.1474 1.9976 15.699C1.9976 16.2506 1.55042 16.6978 0.998798 16.6978C0.447177 16.6978 0 16.2506 0 15.699Z" fill="white"></path><path d="M0 19.344C0 18.7924 0.447177 18.3452 0.998798 18.3452C1.55042 18.3452 1.9976 18.7924 1.9976 19.344C1.9976 19.8956 1.55042 20.3428 0.998798 20.3428C0.447177 20.3428 0 19.8956 0 19.344Z" fill="white"></path><path d="M203.28 25.5516V23.2574H205.574V25.5516H203.28ZM205.574 23.2574V20.9632H207.869V18.669H205.574V16.3748H207.869V18.669H210.163V20.9632H207.869V23.2574H205.574ZM210.163 18.669V9.49219H212.457V18.669H210.163ZM205.574 16.3748H203.28V9.49219H205.574V16.3748Z" fill="#D64933"></path><path d="M181.954 11.7864V9.49219H193.425V11.7864H188.837V25.5516H186.543V11.7864H181.954Z" fill="#FBB03B"></path><path d="M172.106 9.49219V25.5516H169.812V9.49219H172.106Z" fill="#39B54A"></path><path d="M159.952 25.5516H150.776V9.49219H153.07V23.2574H159.952V25.5516Z" fill="#0EB1D2"></path><path d="M140.921 16.3748V25.5516H138.626V20.9632H131.744V25.5516H129.45V16.3748H131.744V18.669H138.626V16.3748H140.921ZM138.626 16.3748H136.332V11.7864H138.626V16.3748ZM131.744 16.3748V11.7864H134.038V16.3748H131.744ZM136.332 11.7864H134.038V9.49219H136.332V11.7864Z" fill="white"></path><path d="M119.59 20.9632V25.5516H117.296V20.9632H119.59ZM112.708 20.9632V25.5516H110.413V9.49219H117.296V11.7864H119.59V18.669H117.296V20.9632H112.708ZM112.708 18.669H117.296V11.7864H112.708V18.669Z" fill="#0EB1D2"></path><path d="M98.2644 25.5516H91.3818V23.2574H98.2644V25.5516ZM98.2644 23.2574V9.49219H100.559V23.2574H98.2644ZM91.3818 23.2574H89.0876V9.49219H91.3818V23.2574Z" fill="#39B54A"></path><path d="M79.2281 25.5516H70.0513V9.49219H72.3455V23.2574H79.2281V25.5516Z" fill="#FBB03B"></path><path d="M53.3093 20.9632V25.5516H51.0151V9.49219H57.8977V11.7864H60.1919V18.669H57.8977V20.9632H53.3093ZM53.3093 18.669H57.8977V11.7864H53.3093V18.669Z" fill="#D64933"></path></svg>
