<?xml version="1.0" encoding="UTF-8"?>
<svg id="_レイヤー_2" data-name="レイヤー 2" xmlns="http://www.w3.org/2000/svg" viewBox="0 0 339.41 122.87">
  <defs>
    <style>
      .cls-1 {
        fill: #231815;
        stroke-width: 0px;
      }
    </style>
  </defs>
  <g id="_ロゴデータ" data-name="ロゴデータ">
    <g>
      <path class="cls-1" d="M113.39,62.68c0-24.68-15.78-45.67-37.8-53.45V2.57c-4.04-1.27-8.25-2.14-12.6-2.57v43.78h-12.6V0c-4.34.43-8.56,1.3-12.6,2.57v6.65C15.78,17.01,0,37.99,0,62.68c0,29.18,22.05,53.2,50.39,56.34v-6.37c-8.29-1.04-15.97-4.06-22.51-8.63l22.51-12.99-20-34.65h52.6l-20,34.65,22.51,12.99c-6.54,4.56-14.21,7.59-22.51,8.63v6.37c28.34-3.14,50.39-27.16,50.39-56.34ZM38.64,83.26l-20.51,11.84c-7.38-8.76-11.83-20.07-11.83-32.43,0-2.14.17-4.23.43-6.3h16.39l15.52,26.88ZM37.8,43.78H9.97c5.12-12.62,15.19-22.71,27.82-27.82v27.82ZM76.04,43.78h-.45V15.96c12.63,5.11,22.71,15.19,27.82,27.82h-27.38ZM74.75,83.26l15.52-26.88h16.39c.26,2.07.43,4.16.43,6.3,0,12.35-4.45,23.66-11.83,32.43l-20.51-11.84Z"/>
      <g>
        <polygon class="cls-1" points="284.91 21.36 284.91 64.29 336.36 64.29 336.36 72.38 276.82 72.38 276.82 13.33 336.37 13.33 336.37 21.36 284.91 21.36"/>
        <path class="cls-1" d="M207.14,45.31h54.05v27.07h-54.05v-27.07ZM253.11,53.41h-37.88v10.87h37.88v-10.87Z"/>
        <polygon class="cls-1" points="153.19 18.42 161.29 18.42 161.29 32.73 168.31 32.73 168.31 11.03 176.41 11.03 176.41 18.56 192.27 18.56 192.27 26.66 176.48 26.66 176.48 32.78 193.7 32.78 193.7 40.83 148.22 40.83 148.22 32.81 153.19 32.81 153.19 18.42"/>
        <path class="cls-1" d="M306.44,44.47c-2.37-1.73-4.64-3.38-6.91-5.04-2.26-1.64-4.51-3.29-6.78-4.91-.42-.3-.58-.61-.58-1.14.03-2.82.01-5.63.01-8.64,6.74,4.9,13.38,9.73,20.04,14.58,2.44-2.41,4.65-4.93,6.51-7.74,1.34-2.02,2.49-4.18,3.75-6.26.13-.22.39-.53.59-.53,2.54-.04,5.08-.02,7.79-.02-2.27,7.6-6.66,13.76-11.85,19.49,3.15,2.29,6.26,4.55,9.36,6.82.81.59,1.9,1.05,2.31,1.85.41.8.13,1.96.14,2.96,0,2.03,0,4.05,0,6.31-5.9-4.29-11.63-8.46-17.39-12.65-7.2,5.94-15.18,10.31-24.36,12.66v-.96c0-2.22.02-4.44-.01-6.67-.01-.65.15-.96.83-1.19,5.99-1.98,11.42-5.03,16.56-8.93"/>
        <path class="cls-1" d="M234.19,26.47c-4.62,7-10.87,11.9-18.42,15.18-3.82,1.66-7.75,2.99-11.94,3.69v-8.02c2.02-.66,4.06-1.22,6.01-1.98,5.41-2.11,10.48-4.82,14.77-8.81,1.88-1.75,3.49-3.7,4.56-6.07.09-.2.43-.4.65-.4,2.93-.03,5.85-.02,8.78,0,.21,0,.53.16.61.33,1.83,3.95,4.89,6.79,8.38,9.2,5.08,3.5,10.6,6.07,16.62,7.52.1.03.21.06.36.1v8.2c-12.41-2.68-23.04-8.03-30.38-18.94"/>
        <path class="cls-1" d="M138.78,45.95h8.06c-.22,5.43-1.2,10.63-3.78,15.4-2.61,4.84-6.72,8.19-11.45,11.05-.04-.33-.08-.53-.08-.73,0-3.12-.01-6.23.01-9.35,0-.31.14-.72.36-.9,4.7-3.84,6.68-8.92,6.83-14.84,0-.19.02-.37.04-.64"/>
        <path class="cls-1" d="M241.74,11.65c1.39,4.62,4.1,8.1,7.74,10.91,4.46,3.44,9.46,5.54,15.2,6.03,0-2.66.01-5.17-.03-7.69,0-.17-.35-.44-.57-.47-2.72-.48-5.28-1.4-7.61-2.9-2.21-1.42-4.21-3.05-5.27-5.57-.06-.14-.31-.29-.48-.29-2.92-.02-5.84-.01-8.99-.01Z"/>
        <path class="cls-1" d="M226.65,11.65c-.46,2.09-1.38,3.83-2.51,5.45-3.94,5.65-9.46,9-16.02,10.77-1.14.31-2.33.45-3.51.65-.23.04-.48,0-.82,0v-3.59c0-1.25.02-2.49-.01-3.74-.01-.54.15-.72.7-.82,4.1-.73,7.74-2.42,10.67-5.42.8-.82,1.33-1.88,2.02-2.82.15-.2.4-.47.61-.47,2.92-.03,5.85-.02,8.86-.02Z"/>
        <path class="cls-1" d="M174.44,57.53c5.31,1.87,10.54,3.7,15.77,5.54,1.02.36,2.04.71,3.05,1.1.2.08.48.33.48.51.03,2.54.02,5.08.02,7.74-.79-.28-1.47-.52-2.15-.76-5.53-1.95-11.06-3.9-16.6-5.84-.38-.13-.67-.23-.67-.74.02-2.38.01-4.77.02-7.15,0-.1.04-.2.08-.4"/>
        <path class="cls-1" d="M148.28,72.37c0-2.61-.02-5.13.03-7.64,0-.22.39-.52.65-.62,4.55-1.63,9.12-3.23,13.68-4.84,1.63-.57,3.26-1.14,4.96-1.74.03.26.08.46.08.67,0,2.25,0,4.5.01,6.74,0,.48-.13.71-.61.87-6.02,2.1-12.04,4.22-18.05,6.34-.22.08-.45.13-.76.22"/>
        <path class="cls-1" d="M191.29,51.75c-5.65,1.16-11.21,2.31-16.86,3.47v-8.09c5.6-1.15,11.21-2.3,16.86-3.47v8.09Z"/>
        <path class="cls-1" d="M150.81,43.67c5.67,1.17,11.22,2.31,16.82,3.46v8.09c-5.64-1.16-11.22-2.31-16.82-3.46v-8.09Z"/>
        <path class="cls-1" d="M144.87,25.75c-4.38-1.79-8.64-3.52-12.89-5.28-.2-.08-.43-.42-.43-.64-.03-2.49-.02-4.98-.02-7.55.26.07.46.11.65.19,4.01,1.63,8.01,3.28,12.02,4.89.52.21.74.47.73,1.06-.04,2.17-.01,4.34-.02,6.5,0,.24-.03.47-.05.82"/>
        <path class="cls-1" d="M131.53,28.64c.33.09.56.15.78.23,3.99,1.46,7.97,2.93,11.96,4.39.37.14.67.24.66.76-.03,2.41-.02,4.82-.02,7.23,0,.07-.04.15-.08.31-1.56-.57-3.1-1.13-4.63-1.69-2.61-.96-5.22-1.95-7.85-2.86-.66-.23-.84-.55-.83-1.22.04-2.09.02-4.17.02-6.26v-.88Z"/>
        <path class="cls-1" d="M223.23,122.87c1.15-2.23,2.3-4.47,3.45-6.7.79-1.51,1.56-3.03,2.39-4.51.26-.47.21-.81-.03-1.26-2.19-3.92-4.36-7.85-6.53-11.78-.13-.23-.24-.46-.42-.8,1.18,0,2.25-.03,3.32.02.21.01.47.3.59.52,1.53,2.86,3.04,5.73,4.56,8.6.14.26.29.51.52.91.83-1.7,1.61-3.28,2.38-4.86.76-1.55,1.54-3.1,2.27-4.67.19-.4.41-.56.86-.54.94.04,1.87.01,2.95.01-4.34,8.43-8.62,16.74-12.9,25.05h-3.42Z"/>
        <path class="cls-1" d="M323.09,122.87c1.15-2.23,2.3-4.47,3.46-6.7.79-1.51,1.56-3.03,2.39-4.51.26-.47.21-.81-.03-1.26-2.19-3.92-4.36-7.85-6.53-11.78-.13-.23-.24-.46-.42-.8,1.18,0,2.25-.03,3.32.02.21.01.47.3.59.52,1.53,2.86,3.04,5.73,4.56,8.6.14.26.29.51.52.91.83-1.7,1.61-3.28,2.38-4.86.76-1.55,1.53-3.1,2.27-4.67.19-.4.41-.56.86-.54.94.04,1.87.01,2.95.01-4.34,8.43-8.62,16.74-12.9,25.05h-3.42Z"/>
        <path class="cls-1" d="M183.15,84.19h3.09v16.17c.23-.24.3-.3.36-.38,2.85-4.1,9.25-3.34,11.72,1.23,1.7,3.14,1.29,7.63-.93,10.44-2.33,2.95-7.65,3.84-10.42.48-.17-.21-.36-.39-.7-.75v2.37h-3.12v-29.55ZM196.3,105.78c-.09-.64-.12-1.19-.24-1.71-.46-2.07-2.14-3.59-4.28-3.91-1.99-.3-3.84.6-4.89,2.48-1.13,2.02-1.08,4.12-.06,6.15.99,1.98,2.69,2.82,4.88,2.66,2.01-.15,3.58-1.46,4.19-3.53.21-.72.28-1.48.4-2.13"/>
        <path class="cls-1" d="M130.07,107.09c1.01-.22,2.03-.44,3.09-.67.09.5.14.95.26,1.39.64,2.29,2.65,3.65,5.12,3.48,2.16-.14,3.89-1.78,4.24-4.02.37-2.37-.12-3.58-2.22-4.72-1.8-.98-3.71-1.76-5.56-2.66-3.69-1.78-5.03-5.86-2.94-9.01,1.25-1.89,3.07-2.91,5.3-3.26,3.34-.53,6.37.91,7.92,3.86-.81.49-1.64.99-2.51,1.52-.81-1.33-1.9-2.22-3.43-2.43-1.44-.19-2.76.07-3.83,1.12-1.84,1.8-1.44,4.38.89,5.48,1.05.5,2.17.83,3.24,1.3.99.43,1.98.88,2.91,1.42,4.34,2.55,4.61,8.44,1.56,11.59-2.33,2.41-5.18,3.33-8.44,2.45-3.12-.84-4.87-3.06-5.58-6.15-.03-.13-.04-.27-.06-.4,0-.08.01-.16.03-.31"/>
        <path class="cls-1" d="M154.92,113.75h-3.03v-29.52h2.99v15.52c.18-.12.27-.16.32-.23,1.59-2.47,5.15-2.58,7.18-1.75,1.9.78,2.81,2.39,2.88,4.28.14,3.86.04,7.73.04,11.66h-2.98c0-.34,0-.66,0-.98-.02-3.17,0-6.34-.07-9.5-.05-1.89-.89-2.74-2.74-3.04-2.03-.33-3.53.36-4.11,2.03-.29.83-.44,1.74-.46,2.61-.06,2.65-.02,5.31-.02,7.96v.95Z"/>
        <path class="cls-1" d="M296.58,108.75c0,1.18.03,2.23-.02,3.28-.01.25-.26.58-.49.71-5.95,3.25-13.82,1.16-17.44-4.62-3.01-4.8-2.97-10.52.11-14.74,3.91-5.38,11.16-7.33,17.03-4.6.62.29.9.63.84,1.34-.07.91-.02,1.82-.02,2.89-2.73-2.14-5.68-2.92-8.94-2.26-2.47.5-4.4,1.92-5.93,3.87-2.93,3.74-2.67,9.57.46,13.14,3.32,3.78,9.03,5.12,14.4.99"/>
        <path class="cls-1" d="M255.61,100.36v-2.49h3.03v15.82h-3.04v-2.34c-.2.19-.28.25-.34.32-3.18,4.17-9.75,3.18-11.98-1.85-1.09-2.46-1.18-5.01-.33-7.53,1.63-4.81,7.74-6.55,11.4-3.3.42.37.76.82,1.26,1.36M255.75,105.49c-.04-.29-.07-.78-.16-1.26-.41-2.1-1.93-3.63-3.96-4.02-2.1-.4-3.97.42-5.16,2.25-1.25,1.93-1.23,4.87.05,6.77,1.82,2.69,5.51,2.99,7.71.62,1.09-1.18,1.46-2.62,1.52-4.37"/>
        <path class="cls-1" d="M204.72,97.86h3.06v.84c0,2.71,0,5.42,0,8.13,0,1.14.24,2.21.86,3.17.83,1.28,2.13,1.82,3.64,1.57,1.52-.25,2.31-1.24,2.62-2.63.16-.71.21-1.45.22-2.17.02-2.66,0-5.31,0-7.97v-.92h3.03c.02.2.06.4.06.61,0,2.95.02,5.91,0,8.86-.01,2.13-.53,4.1-2.14,5.6-2.02,1.89-4.45,2.05-6.91,1.25-2.53-.82-3.8-2.83-4.29-5.36-.12-.61-.14-1.24-.14-1.86-.01-3,0-6.01,0-9.11"/>
        <path class="cls-1" d="M317.28,97.83h3.03v2.89h-2.97v13h-3.09v-12.94h-1.67v-2.92c.52-.02,1.05-.05,1.64-.08v-5.92h3.06v5.97Z"/>
        <rect class="cls-1" x="172.87" y="97.85" width="3" height="15.85"/>
        <rect class="cls-1" x="303.3" y="97.85" width="3.01" height="15.86"/>
        <path class="cls-1" d="M174.28,92.62c-1.22,0-2.12-.95-2.09-2.21.02-1.13,1.01-2.03,2.21-2.02,1.23.01,2.1.94,2.07,2.22-.02,1.18-.94,2.02-2.19,2.01"/>
        <path class="cls-1" d="M304.71,92.62c-1.22,0-2.12-.95-2.09-2.21.03-1.13,1.01-2.03,2.21-2.02,1.23.01,2.09.94,2.07,2.22-.02,1.18-.94,2.02-2.19,2.01"/>
      </g>
    </g>
  </g>
</svg>