<svg width="289" height="46" viewBox="0 0 289 46" fill="none" xmlns="http://www.w3.org/2000/svg">
<path d="M5.18902 3.3135V15.4695H10.0514V5.74471H19.7763V0.882294H7.62023C6.97543 0.882294 6.35704 1.13844 5.9011 1.59438C5.44516 2.05032 5.18902 2.6687 5.18902 3.3135V3.3135ZM48.9507 15.4695V3.3135C48.9507 2.6687 48.6946 2.05032 48.2387 1.59438C47.7827 1.13844 47.1643 0.882294 46.5195 0.882294H34.3635V5.74471H44.0883V15.4695H48.9507ZM44.0883 39.7816H34.3635V44.644H46.5195C47.1643 44.644 47.7827 44.3879 48.2387 43.9319C48.6946 43.476 48.9507 42.8576 48.9507 42.2128V30.0568H44.0883V39.7816ZM19.7763 44.644V39.7816H10.0514V30.0568H5.18902V42.2128C5.18902 42.8576 5.44516 43.476 5.9011 43.9319C6.35704 44.3879 6.97543 44.644 7.62023 44.644H19.7763ZM2.75781 20.3319H51.382V25.1944H2.75781V20.3319Z" fill="url(#paint0_linear_1189_1280)"/>
<path d="M81.1026 35.4008C77.4766 35.4008 74.5883 34.6256 72.4378 33.0752C70.3122 31.4998 69.2119 29.2492 69.1369 26.3234H75.8137C76.0887 28.8741 77.8392 30.1494 81.0651 30.1494C82.2654 30.1494 83.2782 29.9244 84.1034 29.4742C84.9536 28.9991 85.3787 28.2864 85.3787 27.3362C85.3787 26.686 85.1162 26.1483 84.591 25.7232C84.0659 25.2731 83.5282 24.9605 82.9781 24.7855C82.4529 24.6104 81.4402 24.3354 79.9398 23.9603C79.8647 23.9353 79.8147 23.9227 79.7897 23.9227C79.7647 23.8977 79.7272 23.8852 79.6772 23.8852C79.6272 23.8602 79.5772 23.8477 79.5272 23.8477C78.3768 23.5727 77.4266 23.3351 76.6764 23.135C75.9512 22.91 75.1135 22.5849 74.1632 22.1598C73.238 21.7097 72.5003 21.222 71.9501 20.6969C71.4 20.1717 70.9248 19.4841 70.5247 18.6338C70.1496 17.7586 69.9621 16.7833 69.9621 15.708C69.9621 12.9573 70.9374 10.8943 72.8879 9.51889C74.8634 8.14352 77.4391 7.45583 80.6149 7.45583C83.6658 7.45583 86.1539 8.15602 88.0794 9.5564C90.03 10.9568 91.0677 13.0073 91.1928 15.708H84.7035C84.5785 14.6828 84.1409 13.8951 83.3907 13.3449C82.6405 12.7698 81.6402 12.4822 80.3899 12.4822C79.2396 12.4822 78.3018 12.7197 77.5766 13.1949C76.8764 13.645 76.5264 14.2452 76.5264 14.9954C76.5264 15.8456 76.9515 16.4708 77.8017 16.8709C78.6519 17.246 80.2523 17.6961 82.603 18.2212C84.0784 18.5713 85.2912 18.9214 86.2415 19.2715C87.1917 19.5966 88.1545 20.0717 89.1297 20.6969C90.13 21.3221 90.8677 22.1348 91.3428 23.135C91.843 24.1103 92.093 25.2856 92.093 26.661C92.093 29.3867 91.0552 31.5248 88.9797 33.0752C86.9291 34.6256 84.3034 35.4008 81.1026 35.4008ZM100.993 29.4367C101.693 30.487 102.694 31.0121 103.994 31.0121C105.294 31.0121 106.295 30.487 106.995 29.4367C107.72 28.3864 108.083 26.9736 108.083 25.1981C108.083 23.4226 107.72 22.0097 106.995 20.9595C106.295 19.8842 105.294 19.3465 103.994 19.3465C102.694 19.3465 101.693 19.8717 100.993 20.9219C100.293 21.9722 99.9429 23.3976 99.9429 25.1981C99.9429 26.9736 100.293 28.3864 100.993 29.4367ZM111.421 32.475C109.545 34.4006 107.082 35.3633 104.031 35.3633C100.981 35.3633 98.505 34.4006 96.6045 32.475C94.704 30.5495 93.7537 28.1239 93.7537 25.1981C93.7537 22.2723 94.704 19.8467 96.6045 17.9211C98.505 15.9956 100.981 15.0329 104.031 15.0329C107.082 15.0329 109.545 15.9956 111.421 17.9211C113.321 19.8467 114.272 22.2723 114.272 25.1981C114.272 28.1239 113.321 30.5495 111.421 32.475ZM116.376 34.7632V7.94346H122.565V34.7632H116.376ZM125.533 34.7632V15.558H131.647V34.7632H125.533ZM125.533 12.8948V7.94346H131.647V12.8948H125.533ZM142.12 35.3633C139.62 35.3633 137.594 34.4506 136.044 32.6251C134.493 30.7996 133.718 28.3114 133.718 25.1606C133.718 22.1598 134.493 19.7216 136.044 17.8461C137.619 15.9456 139.645 14.9954 142.12 14.9954C144.421 14.9954 146.209 15.9081 147.484 17.7336H147.597V7.94346H153.711V34.7632H147.859V32.175H147.784C146.534 34.3005 144.646 35.3633 142.12 35.3633ZM143.696 30.5245C144.946 30.5245 145.934 30.0369 146.659 29.0616C147.384 28.0614 147.747 26.761 147.747 25.1606C147.747 23.4851 147.409 22.1473 146.734 21.147C146.059 20.1217 145.071 19.6091 143.771 19.6091C142.57 19.6091 141.62 20.1092 140.92 21.1095C140.245 22.1098 139.907 23.4351 139.907 25.0856C139.907 26.761 140.245 28.0864 140.92 29.0616C141.595 30.0369 142.52 30.5245 143.696 30.5245ZM156.633 34.7632V15.558H162.747V34.7632H156.633ZM156.633 12.8948V7.94346H162.747V12.8948H156.633ZM173.295 34.9882C171.344 34.9882 169.832 34.6006 168.756 33.8254C167.706 33.0252 167.181 31.6498 167.181 29.6993V19.384H164.63V15.558H167.181V9.48138H173.145V15.558H176.633V19.384H173.145V28.3864C173.145 29.0866 173.32 29.5743 173.67 29.8493C174.045 30.1244 174.583 30.2619 175.283 30.2619C175.483 30.2619 175.746 30.2619 176.071 30.2619C176.396 30.2369 176.583 30.2244 176.633 30.2244V34.6881C175.933 34.8882 174.82 34.9882 173.295 34.9882ZM180.018 41.1024V36.3386H182.119C183.794 36.3386 184.632 35.6634 184.632 34.313C184.632 33.6629 184.244 32.3375 183.469 30.337L177.805 15.558H184.257L186.845 23.7352L188.045 28.1614H188.12C188.47 26.4609 188.845 24.9855 189.246 23.7352L191.759 15.558H197.873L191.234 35.0257C190.458 37.2763 189.533 38.8517 188.458 39.752C187.408 40.6522 185.92 41.1024 183.994 41.1024H180.018ZM210.3 35.4008C206.674 35.4008 203.786 34.6256 201.635 33.0752C199.509 31.4998 198.409 29.2492 198.334 26.3234H205.011C205.286 28.8741 207.036 30.1494 210.262 30.1494C211.463 30.1494 212.475 29.9244 213.301 29.4742C214.151 28.9991 214.576 28.2864 214.576 27.3362C214.576 26.686 214.313 26.1483 213.788 25.7232C213.263 25.2731 212.725 24.9605 212.175 24.7855C211.65 24.6104 210.637 24.3354 209.137 23.9603C209.062 23.9353 209.012 23.9227 208.987 23.9227C208.962 23.8977 208.924 23.8852 208.874 23.8852C208.824 23.8602 208.774 23.8477 208.724 23.8477C207.574 23.5727 206.624 23.3351 205.874 23.135C205.148 22.91 204.311 22.5849 203.36 22.1598C202.435 21.7097 201.697 21.222 201.147 20.6969C200.597 20.1717 200.122 19.4841 199.722 18.6338C199.347 17.7586 199.159 16.7833 199.159 15.708C199.159 12.9573 200.135 10.8943 202.085 9.51889C204.061 8.14352 206.636 7.45583 209.812 7.45583C212.863 7.45583 215.351 8.15602 217.277 9.5564C219.227 10.9568 220.265 13.0073 220.39 15.708H213.901C213.776 14.6828 213.338 13.8951 212.588 13.3449C211.838 12.7698 210.837 12.4822 209.587 12.4822C208.437 12.4822 207.499 12.7197 206.774 13.1949C206.074 13.645 205.724 14.2452 205.724 14.9954C205.724 15.8456 206.149 16.4708 206.999 16.8709C207.849 17.246 209.45 17.6961 211.8 18.2212C213.276 18.5713 214.488 18.9214 215.439 19.2715C216.389 19.5966 217.352 20.0717 218.327 20.6969C219.327 21.3221 220.065 22.1348 220.54 23.135C221.04 24.1103 221.29 25.2856 221.29 26.661C221.29 29.3867 220.252 31.5248 218.177 33.0752C216.126 34.6256 213.501 35.4008 210.3 35.4008ZM233.154 35.3633C230.103 35.3633 227.64 34.4006 225.764 32.475C223.889 30.5495 222.951 28.1239 222.951 25.1981C222.951 22.2723 223.876 19.8467 225.727 17.9211C227.577 15.9956 230.003 15.0329 233.004 15.0329C235.554 15.0329 237.642 15.708 239.268 17.0584C240.893 18.4088 241.843 20.1842 242.119 22.3848H236.229C235.804 20.4843 234.754 19.5341 233.079 19.5341C231.778 19.5341 230.791 20.0342 230.115 21.0345C229.465 22.0347 229.14 23.4226 229.14 25.1981C229.14 26.9486 229.478 28.3239 230.153 29.3242C230.828 30.2995 231.803 30.7871 233.079 30.7871C235.029 30.7871 236.142 29.6868 236.417 27.4862H242.269C242.194 29.7618 241.318 31.6498 239.643 33.1502C237.992 34.6256 235.829 35.3633 233.154 35.3633ZM250.247 35.2508C248.272 35.2508 246.684 34.7381 245.484 33.7129C244.283 32.6876 243.683 31.2497 243.683 29.3992C243.683 27.4487 244.333 26.0358 245.634 25.1606C246.934 24.2603 248.735 23.6602 251.035 23.3601C252.911 23.135 254.186 22.885 254.861 22.6099C255.561 22.3098 255.911 21.8472 255.911 21.222C255.911 19.8467 255.036 19.159 253.286 19.159C251.41 19.159 250.372 19.9842 250.172 21.6346H244.546C244.621 19.7341 245.396 18.1587 246.872 16.9084C248.372 15.658 250.497 15.0329 253.248 15.0329C255.999 15.0329 258.075 15.558 259.475 16.6083C261.1 17.7836 261.913 19.6091 261.913 22.0848V31.7623C261.913 33.2878 262.138 34.2005 262.588 34.5006V34.7632H256.662C256.412 34.4131 256.199 33.7004 256.024 32.6251H255.949C254.724 34.3755 252.823 35.2508 250.247 35.2508ZM252.198 31.3497C253.348 31.3497 254.273 31.0372 254.974 30.412C255.699 29.7618 256.061 28.9241 256.061 27.8988V25.6107C255.461 25.9108 254.411 26.2484 252.911 26.6235C251.685 26.8985 250.823 27.2236 250.322 27.5987C249.822 27.9738 249.572 28.5115 249.572 29.2117C249.572 30.637 250.447 31.3497 252.198 31.3497ZM264.877 34.7632V15.558H270.766V18.1837H270.879C272.354 16.0581 274.329 14.9954 276.805 14.9954C278.881 14.9954 280.506 15.6705 281.681 17.0209C282.882 18.3463 283.482 20.0967 283.482 22.2723V34.7632H277.368V23.5101C277.368 22.4599 277.105 21.6346 276.58 21.0345C276.08 20.4093 275.342 20.0967 274.367 20.0967C273.367 20.0967 272.554 20.4718 271.929 21.222C271.304 21.9722 270.991 22.9475 270.991 24.1478V34.7632H264.877Z" fill="black"/>
<defs>
<linearGradient id="paint0_linear_1189_1280" x1="7.44657" y1="4.00813" x2="48.8639" y2="41.5182" gradientUnits="userSpaceOnUse">
<stop stop-color="#52FF00"/>
<stop offset="1" stop-color="#00EEFD"/>
</linearGradient>
</defs>
</svg>
