<svg xmlns="http://www.w3.org/2000/svg" width="63" height="20" viewBox="0 0 63 20" fill="none">
<path d="M15.583 13.333C15.9931 13.3331 16.3814 13.5196 16.6377 13.8398L18.7666 16.5019C18.7956 16.5382 18.8261 16.5719 18.8574 16.6035C19.2049 16.954 19.6484 17.3405 19.6484 17.834C19.6484 18.3399 19.2383 18.75 18.7324 18.75H18.4668C18.1079 18.75 17.7682 18.5868 17.5439 18.3066L16.3633 16.831C15.6565 15.9476 14.2315 16.4477 14.2314 17.5791V18.6494C14.2314 18.7061 14.1827 18.7499 14.126 18.75H12.2529C11.6074 18.75 10.997 18.4562 10.5938 17.9521L9.69629 16.831C8.98948 15.9478 7.56544 16.4478 7.56543 17.5791V18.6494C7.56542 18.7062 7.51669 18.7499 7.45996 18.75H5.58594C4.94038 18.7499 4.32999 18.4563 3.92676 17.9521L3.03027 16.831C2.67436 16.3862 2.14844 15.9311 2.14844 15.3613V13.4385C2.14851 13.3817 2.19228 13.333 2.24902 13.333C2.65919 13.333 3.04737 13.5197 3.30371 13.8398L5.43359 16.5019C6.14031 17.3853 7.56521 16.8861 7.56543 15.7549V14.6846C7.56543 13.9385 8.16998 13.333 8.91602 13.333C9.32621 13.333 9.71437 13.5196 9.9707 13.8398L12.1006 16.5019C12.8052 17.3827 14.2227 16.8887 14.2314 15.7646V14.6846C14.2314 13.9385 14.837 13.333 15.583 13.333ZM15.583 6.66698C15.9932 6.66711 16.3814 6.8535 16.6377 7.17382L18.7666 9.83593C19.1224 10.2806 19.6484 10.7352 19.6484 11.3047V13.2266C19.6483 13.2833 19.6046 13.333 19.5479 13.333C19.1375 13.333 18.7495 13.1466 18.4932 12.8262L16.3633 10.1641C15.6565 9.28087 14.2315 9.78081 14.2314 10.9121V11.9824C14.2314 12.7284 13.6269 13.333 12.8809 13.333C12.4706 13.3329 12.0825 13.1465 11.8262 12.8262L9.69629 10.1641C8.98942 9.28109 7.56544 9.78088 7.56543 10.9121V11.9824C7.56543 12.7282 6.96062 13.3327 6.21484 13.333C5.80451 13.333 5.41551 13.1466 5.15918 12.8262L3.03027 10.1641C2.67435 9.71918 2.14844 9.26406 2.14844 8.69433V6.77245C2.14851 6.71573 2.19228 6.66699 2.24902 6.66698C2.65936 6.66698 3.04738 6.8534 3.30371 7.17382L5.43359 9.83593C6.14042 10.7191 7.56543 10.2192 7.56543 9.08788V8.01757C7.56543 7.27154 8.16998 6.66698 8.91602 6.66698C9.32634 6.66701 9.71437 6.85341 9.9707 7.17382L12.1006 9.83593C12.8052 10.7162 14.2225 10.2223 14.2314 9.09863V8.01757C14.2314 7.27154 14.837 6.66698 15.583 6.66698ZM3.33008 1.24999C3.68899 1.24999 4.02863 1.41318 4.25293 1.69335L5.43359 3.16894C6.14036 4.0524 7.56543 3.55227 7.56543 2.42089V1.35058C7.56544 1.29384 7.61417 1.25007 7.6709 1.24999H9.54395C10.1895 1.24999 10.7999 1.54378 11.2031 2.04784L12.1006 3.16894C12.8052 4.04953 14.2227 3.5556 14.2314 2.43163V1.35058C14.2315 1.29384 14.2802 1.25007 14.3369 1.24999H16.2109C16.8565 1.25014 17.4669 1.54375 17.8701 2.04784L18.7666 3.16894C19.1223 3.61354 19.6481 4.06741 19.6484 4.63671V6.56054C19.6483 6.61728 19.6046 6.66698 19.5479 6.66698C19.1377 6.66698 18.7495 6.48034 18.4932 6.16015L16.3633 3.49804C15.6566 2.61465 14.2317 3.11391 14.2314 4.24511V5.3164C14.2312 6.06217 13.6267 6.66698 12.8809 6.66698C12.4707 6.66693 12.0825 6.48039 11.8262 6.16015L9.69629 3.49804C8.98957 2.61465 7.56565 3.11391 7.56543 4.24511V5.3164C7.56518 6.06202 6.96046 6.66673 6.21484 6.66698C5.80453 6.66698 5.41551 6.48054 5.15918 6.16015L3.03027 3.49804C3.00109 3.46156 2.97093 3.42724 2.93945 3.3955C2.59217 3.04543 2.14867 2.65906 2.14844 2.16601C2.14844 1.66032 2.55877 1.24999 3.06445 1.24999H3.33008Z" fill="black"/>
<path d="M35.1083 6.97044C34.7154 6.97044 34.5223 6.77734 34.3692 6.39782C33.9963 5.49228 33.0042 4.97958 31.6925 4.97958C30.0146 4.97958 28.9559 5.83851 28.9559 6.99707C28.9493 8.30211 30.3675 8.80149 31.4328 9.07449L32.7645 9.42072C34.4957 9.84686 36.6863 10.799 36.6863 13.2559C36.6863 15.5664 34.8419 17.251 31.6392 17.251C28.8827 17.251 27.0649 16.0125 26.6321 13.9617C26.5389 13.5156 26.7986 13.2559 27.2514 13.2559H27.9971C28.3966 13.2559 28.5897 13.4557 28.7229 13.8485C29.1024 14.9272 30.2676 15.4466 31.6259 15.4466C33.3771 15.4466 34.6488 14.5676 34.6488 13.236C34.6488 12.0241 33.5236 11.5447 32.0654 11.1586L30.454 10.7191C28.2634 10.1265 26.9051 9.01456 26.9051 7.11692C26.9051 4.76651 29.0025 3.20179 31.7391 3.20179C34.2027 3.20179 36.0005 4.45357 36.4133 6.27131C36.5132 6.71076 36.2335 6.97044 35.7874 6.97044H35.1083Z" fill="black"/>
<path d="M45.0887 7.46316C45.0887 7.03036 45.3217 6.79732 45.7545 6.79732H46.4204C46.8532 6.79732 47.0862 7.03036 47.0862 7.46316V16.3588C47.0862 16.7915 46.8532 17.0246 46.4204 17.0246H45.7945C45.3617 17.0246 45.1286 16.7915 45.1286 16.3588V15.2535H45.0221C44.5494 16.3454 43.504 17.1578 41.9659 17.1578C40.0017 17.1578 38.6101 15.8394 38.6101 13.3026V7.46316C38.6101 7.03036 38.8431 6.79732 39.2759 6.79732H39.9351C40.3679 6.79732 40.601 7.03036 40.601 7.46316V13.0629C40.601 14.4545 41.4532 15.3467 42.685 15.3467C43.8036 15.3467 45.0954 14.521 45.0887 12.7832V7.46316Z" fill="black"/>
<path d="M49.3862 7.46316C49.3862 7.03036 49.6193 6.79732 50.0521 6.79732H50.6447C51.0774 6.79732 51.3105 7.03036 51.3105 7.46316V8.42196H51.417C51.7899 7.32333 52.8153 6.64418 54.0138 6.64418C54.0737 6.64418 54.147 6.64418 54.2202 6.65084C54.6397 6.65749 54.8594 6.91717 54.8594 7.33665V7.88264C54.8594 8.33541 54.673 8.54182 54.3467 8.50852C54.1803 8.48855 53.9938 8.47523 53.8207 8.47523C52.4091 8.47523 51.3771 9.4407 51.3771 10.779V16.3588C51.3771 16.7915 51.144 17.0246 50.7112 17.0246H50.0521C49.6193 17.0246 49.3862 16.7915 49.3862 16.3588V7.46316Z" fill="black"/>
<path d="M61.6788 7.72949C61.6788 8.16229 61.4457 8.39533 61.013 8.39533H59.4749V16.3588C59.4749 16.7915 59.2418 17.0246 58.809 17.0246H58.1432C57.7104 17.0246 57.4774 16.7915 57.4774 16.3588V8.39533H56.5652C56.1324 8.39533 55.8993 8.16229 55.8993 7.72949V7.46316C55.8993 7.03036 56.1324 6.79732 56.5652 6.79732H57.4774V5.61213C57.4774 3.69451 58.8956 2.74902 60.5136 2.74902C60.9131 2.74902 61.2593 2.78897 61.539 2.84224C61.9651 2.9288 62.1116 3.2484 61.9917 3.66122L61.8919 4.01412C61.7787 4.42028 61.5656 4.57342 61.2726 4.52015C61.1395 4.49352 60.993 4.4802 60.8199 4.4802C59.8477 4.4802 59.4749 4.97292 59.4749 5.87846V6.79732H61.013C61.4457 6.79732 61.6788 7.03036 61.6788 7.46316V7.72949Z" fill="black"/>
</svg>