<svg id="" data-name="" xmlns="http://www.w3.org/2000/svg" viewBox="0 0 160 46">
  <path class="cls-1" d="M73.65,0h65.36c11.05,0,20.01,9.01,20.01,20.12v5.41c0,11.11-8.96,20.12-20.01,20.12h-65.36c-11.05,0-20.01-9.01-20.01-20.12v-5.41c0-11.11,8.96-20.12,20.01-20.12ZM73.19,38.28h13.55c4.93,0,9.18-3.86,9.3-8.82.05-2.21-.69-4.24-1.95-5.83-.62-.78-.67-1.87-.18-2.74.88-1.57,1.32-3.44,1.11-5.42-.49-4.63-4.59-8.04-9.23-8.04h-12.59c-6.75,0-12.22,5.5-12.22,12.29v6.28c0,6.78,5.47,12.29,12.22,12.29ZM106.34,38.22c1.64,0,2.96-1.33,2.96-2.98V10.36c0-1.65-1.33-2.98-2.96-2.98s-2.97,1.33-2.97,2.98v24.89c0,1.65,1.33,2.98,2.97,2.98ZM138.49,38.28c7.29,0,13.2-5.94,13.2-13.28v-4.29c0-7.33-5.91-13.28-13.2-13.28h-8.65c-7.29,0-13.2,5.94-13.2,13.28v4.29c0,7.33,5.91,13.28,13.2,13.28h8.65ZM2.7,44.16c-.52-.55-.92-1.19-1.17-1.9-.26-.71-.36-1.46-.31-2.22.05-.75.25-1.49.6-2.15.35-.67.83-1.26,1.41-1.73,1.39-1.01,2.5-1.24,3.65-1.48.27-.06.54-.11.82-.18,2.5-.61,4.64-2.5,4.25-5.28-.34-2.39-2.06-3.02-3.61-3.59-1.41-.51-2.68-.98-2.68-2.65s1.27-2.14,2.68-2.65c1.56-.57,3.27-1.2,3.61-3.58.39-2.76-1.76-4.66-4.25-5.28-.27-.07-.54-.12-.81-.18-1.16-.24-2.26-.47-3.65-1.49-.58-.47-1.07-1.06-1.41-1.73-.35-.67-.55-1.41-.6-2.16-.05-.75.06-1.51.31-2.22.26-.71.66-1.36,1.18-1.9.54-.52,1.19-.93,1.89-1.18.7-.26,1.46-.37,2.2-.32.75.05,1.48.26,2.14.6.66.35,1.25.83,1.72,1.42,1.01,1.4,1.24,2.52,1.48,3.68.06.27.11.54.18.81.6,2.51,2.49,4.67,5.25,4.28,2.38-.34,3-2.07,3.56-3.64.51-1.42.97-2.7,2.64-2.7s2.13,1.28,2.64,2.7c.57,1.57,1.19,3.3,3.57,3.64,2.74.39,4.62-1.77,5.25-4.28.07-.28.12-.55.18-.82.24-1.16.47-2.27,1.47-3.67.47-.59,1.05-1.07,1.72-1.42.66-.35,1.4-.56,2.14-.6.75-.05,1.5.06,2.2.32.7.26,1.35.66,1.89,1.18.52.54.92,1.19,1.18,1.9.26.71.36,1.46.31,2.22-.05.75-.25,1.49-.6,2.16-.35.67-.83,1.26-1.41,1.73-1.39,1.01-2.5,1.24-3.65,1.49-.27.06-.53.11-.81.18-2.5.6-4.65,2.5-4.26,5.28.34,2.39,2.05,3.02,3.61,3.58,1.41.51,2.68.98,2.68,2.66s-1.27,2.14-2.68,2.66c-1.56.57-3.28,1.2-3.61,3.59-.39,2.76,1.76,4.65,4.26,5.25.28.07.56.13.83.18,1.14.24,2.24.47,3.63,1.48.58.47,1.07,1.06,1.41,1.73.35.67.55,1.4.6,2.16.05.75-.06,1.51-.31,2.22-.26.71-.66,1.36-1.18,1.9-.54.52-1.19.93-1.89,1.18-.71.26-1.46.37-2.2.32s-1.48-.26-2.14-.6c-.66-.35-1.25-.83-1.72-1.42-1-1.4-1.23-2.51-1.47-3.66-.06-.27-.11-.55-.18-.83-.6-2.51-2.49-4.67-5.25-4.28-2.38.34-3,2.07-3.57,3.64-.51,1.42-.97,2.7-2.64,2.7s-2.13-1.28-2.64-2.7c-.56-1.57-1.19-3.29-3.56-3.64-2.74-.39-4.62,1.77-5.25,4.29-.07.28-.12.55-.18.81-.24,1.16-.47,2.27-1.48,3.67-.47.59-1.05,1.07-1.72,1.42-.66.35-1.39.56-2.14.6-.75.05-1.5-.06-2.2-.32-.71-.26-1.35-.66-1.89-1.18v.02ZM86.92,25.49h-18.04c-1.05,0-1.89.85-1.89,1.9,0,3.11,2.5,5.62,5.59,5.62h14.49c2.31,0,4.13-2.1,3.67-4.51-.34-1.79-2-3.02-3.81-3.02h0ZM86.08,20.22h-17.21c-1.05,0-1.89-.85-1.89-1.9,0-3.11,2.5-5.62,5.59-5.62h13.3c2.03,0,3.84,1.52,3.95,3.56.11,2.17-1.6,3.97-3.74,3.97ZM139.48,12.7h-10.64c-3.43,0-6.21,2.79-6.21,6.24v7.84c0,3.45,2.78,6.24,6.21,6.24h10.64c3.43,0,6.21-2.79,6.21-6.24v-7.84c0-3.45-2.78-6.24-6.21-6.24Z"/>
</svg>