<svg width="795" height="287" viewBox="0 0 795 287" fill="none" xmlns="http://www.w3.org/2000/svg">
<g clip-path="url(#clip0_1_276)">
<path d="M106.522 91.4998C127.532 91.4998 144.566 108.448 144.566 129.353C144.566 150.257 127.532 167.205 106.522 167.205C85.5128 167.205 68.4787 150.257 68.4787 129.353C68.4787 108.448 85.5128 91.4998 106.522 91.4998ZM106.522 23.3647C92.1705 23.3647 78.2179 26.1753 65.0358 31.7208C52.3387 37.058 40.9541 44.6948 31.1959 54.4041C21.4376 64.1133 13.7623 75.4407 8.39816 88.0741C2.82475 101.181 0 115.073 0 129.353C0 143.633 2.82475 157.515 8.39816 170.631C13.7623 183.264 21.4376 194.592 31.1959 204.301C40.9541 214.01 52.3387 221.647 65.0358 226.984C78.2084 232.53 92.1705 235.34 106.522 235.34C120.874 235.34 134.827 232.53 148.009 226.984C160.706 221.647 172.091 214.01 181.849 204.301C191.607 194.592 199.283 183.264 204.647 170.631C210.22 157.525 213.045 143.633 213.045 129.353C213.045 115.073 210.22 101.19 204.647 88.0741C199.283 75.4407 191.607 64.1133 181.849 54.4041C172.091 44.6948 160.706 37.058 148.009 31.7208C134.837 26.1753 120.874 23.3647 106.522 23.3647Z" fill="#B7F7B0"/>
<path d="M106.523 91.4998C127.532 91.4998 144.566 108.448 144.566 129.353C144.566 150.257 127.532 167.205 106.523 167.205C85.5129 167.205 68.4788 150.257 68.4788 129.353C68.4788 108.448 85.5129 91.4998 106.523 91.4998ZM106.523 46.0764C60.3755 46.0764 22.8263 83.4371 22.8263 129.353C22.8263 175.268 60.3755 212.629 106.523 212.629C152.67 212.629 190.219 175.268 190.219 129.353C190.219 83.4371 152.67 46.0764 106.523 46.0764Z" fill="#07DC10"/>
<path d="M106.522 91.4998C127.532 91.4998 144.566 108.448 144.566 129.353C144.566 150.257 127.532 167.205 106.522 167.205C85.5128 167.205 68.4787 150.257 68.4787 129.353C68.4787 108.448 85.5128 91.4998 106.522 91.4998ZM106.522 68.7881C72.9584 68.7881 45.6525 95.9569 45.6525 129.353C45.6525 162.748 72.9584 189.917 106.522 189.917C140.087 189.917 167.392 162.748 167.392 129.353C167.392 95.9569 140.087 68.7881 106.522 68.7881Z" fill="#0C9B00"/>
<path d="M106.522 91.4998C127.532 91.4998 144.566 108.448 144.566 129.353C144.566 150.257 127.532 167.205 106.522 167.205C85.5128 167.205 68.4788 150.257 68.4788 129.353C68.4788 108.448 85.5128 91.4998 106.522 91.4998Z" fill="#EAEAEA"/>
<path d="M334.205 275.644L343.373 247.576C340.082 247.804 336.754 247.917 333.377 247.917C299.918 247.917 270.748 236.353 249.015 214.474C227.359 192.671 215.917 163.363 215.917 129.722C215.917 96.08 227.701 66.6305 249.11 45.0355C270.643 23.3174 300.688 11.356 333.72 11.356C360.017 11.356 384.28 18.8224 403.91 32.9415C408.942 36.5565 413.659 40.6256 418.006 45.0544H426.746V13.523H566.719L566.833 47.2783C570.57 48.518 574.213 49.9847 577.742 51.6881C591.323 45.3005 606.236 42.064 622.177 42.064C622.757 42.064 623.328 42.064 623.908 42.0735H624.307C625.059 42.0735 625.81 42.0924 626.552 42.1114H714.633L783.596 41.9221V190.315L755.901 185.848V248.409H624.707C624.345 248.419 624.012 248.428 623.67 248.428C623.128 248.428 622.5 248.438 621.882 248.438C606.046 248.438 590.591 245.002 576.81 238.463C564.036 244.52 550.093 247.936 537.758 247.936H489.727L480.017 275.654H334.224L334.205 275.644Z" fill="#07DC10"/>
<path d="M333.72 22.7117C357.602 22.7117 379.553 29.4306 397.215 42.1396C402.997 46.3034 408.295 51.0824 413.022 56.4101H438.15V24.8788H555.334L555.41 47.5147L555.439 55.9086C563.285 57.6593 570.77 60.5456 577.666 64.4823C590.886 57.2051 605.98 53.4198 622.177 53.4198C622.728 53.4198 623.28 53.4198 623.832 53.4292C623.993 53.4292 624.146 53.4292 624.307 53.4292C624.954 53.4292 625.601 53.4482 626.238 53.4576H626.438H714.633L749.291 53.363L772.183 53.2968V176.952L745.705 172.675L744.487 172.476V212.203V212.269V237.034H624.507C624.193 237.044 623.879 237.053 623.565 237.053C623.004 237.053 622.434 237.063 621.882 237.063C605.685 237.063 590.192 233.088 576.819 225.669C564.617 232.397 550.293 236.552 537.758 236.552H481.624L477.249 249.034L471.914 264.269H349.936L359.656 234.536L359.903 233.779C351.524 235.624 342.679 236.552 333.406 236.552C303.066 236.552 276.702 226.152 257.157 206.478C237.659 186.851 227.359 160.297 227.359 129.703C227.359 99.1081 237.983 72.4503 257.261 52.9939C276.626 33.4524 303.789 22.6928 333.739 22.6928M333.72 0C297.616 0 264.68 13.1633 240.988 37.0674C217.468 60.8011 204.514 93.7046 204.514 129.722C204.514 165.739 217.097 198.491 240.903 222.461C263.558 245.267 293.431 257.891 327.585 259.178L318.493 287.009H488.111L493.446 271.774L497.821 259.292H537.739C550.141 259.292 563.884 256.301 576.791 250.898C590.819 256.746 606.189 259.793 621.863 259.793C622.519 259.793 623.176 259.793 623.841 259.774C624.174 259.774 624.498 259.765 624.83 259.755H767.304V212.099V212.061V211.578V199.181L768.522 199.38L795 203.658V30.5283L772.107 30.5945L749.214 30.6608L714.604 30.7554H626.723C626.01 30.7365 625.192 30.7176 624.288 30.7176H623.965C623.366 30.7176 622.767 30.7081 622.167 30.7081C606.579 30.7081 591.847 33.5187 578.208 39.0736L578.16 24.8125L578.084 2.17654H415.324V27.3392C413.773 26.0995 412.194 24.9071 410.587 23.7432C389.016 8.2046 362.433 0 333.72 0Z" fill="#B7F7B0"/>
<path d="M365.629 251.04L377.803 213.802C364.706 220.124 349.831 223.322 333.387 223.322C306.167 223.322 282.608 214.086 265.26 196.626C247.922 179.167 238.753 155.376 238.753 127.838C238.753 100.3 248.207 76.4153 265.374 59.1071C282.579 41.7516 306.851 32.1843 333.729 32.1843C355.186 32.1843 374.836 38.1556 390.538 49.4547C396.986 54.1011 402.741 59.6087 407.705 65.8733H449.582V34.3419H543.978L544.073 63.6873C556.428 64.7945 567.793 68.9678 577.571 75.9611C590.363 67.3685 605.599 62.8735 622.186 62.8735C622.719 62.8735 623.252 62.8735 623.784 62.883H624.307C624.849 62.883 625.382 62.8924 625.924 62.9114H626.295L714.661 62.9208L760.78 62.7978V161.726L733.046 157.25C733.046 157.827 733.084 159.701 733.084 159.701V212.449V223.805H624.184C623.927 223.814 623.67 223.824 623.413 223.824C622.9 223.824 622.386 223.833 621.882 223.833C605.067 223.833 589.678 219.253 576.838 210.509C564.35 218.95 548.714 223.322 537.758 223.322H473.511C472.922 225.007 472.361 226.625 471.809 228.186L463.801 251.04H365.638H365.629Z" fill="#0C9B00"/>
<path d="M333.72 45.4234C352.761 45.4234 370.099 50.647 383.842 60.5456C390.899 65.6273 396.967 71.8825 401.913 79.1218H460.995V47.5904H532.603L532.679 70.2264C532.679 72.1853 532.689 74.3902 532.689 76.756C533.896 76.6803 535.123 76.6425 536.35 76.6425C536.674 76.6425 536.997 76.6425 537.311 76.6425C552.785 76.6425 566.671 82.1784 577.304 92.4082C589.269 81.8567 604.896 76.1314 622.186 76.1314C622.69 76.1314 623.195 76.1314 623.708 76.1409C623.908 76.1409 624.117 76.1409 624.317 76.1409C624.935 76.1409 625.544 76.1598 626.162 76.1788H714.671L749.376 76.0841V150.276L722.898 145.998C722.641 145.96 722.394 145.923 722.156 145.885C721.804 148.79 721.528 153.522 721.68 161.168V161.385V161.603V212.364V214.351H624.307C623.974 214.351 623.642 214.37 623.309 214.37C622.833 214.37 622.367 214.379 621.901 214.379C604.458 214.379 588.727 208.597 576.781 197.951C566.31 207.992 549.19 213.878 537.777 213.878H465.399C463.848 218.344 462.384 222.556 461.052 226.36L455.717 241.596H381.379L391.099 211.862L395.436 198.585L395.531 198.301L395.636 198.017C396.597 195.311 397.614 192.112 398.594 189.027C398.66 188.81 398.727 188.592 398.803 188.384C398.489 187.57 398.175 186.747 397.862 185.924C393.572 191.138 388.626 195.708 383.091 199.541C369.348 209.061 352.637 213.887 333.425 213.887C309.324 213.887 288.571 205.825 273.411 190.56C258.222 175.268 250.195 154.25 250.195 129.75C250.195 80.1155 284.558 45.4517 333.748 45.4517M333.72 22.7117C303.77 22.7117 276.607 33.4713 257.242 53.0128C237.964 72.4692 227.34 99.7137 227.34 129.722C227.34 159.729 237.65 186.86 257.138 206.497C276.683 226.171 303.047 236.571 333.387 236.571C342.66 236.571 351.505 235.643 359.884 233.798L359.637 234.555L349.917 264.288H471.895L477.23 249.053L481.605 236.571H537.739C550.274 236.571 564.607 232.416 576.8 225.688C590.173 233.107 605.666 237.082 621.863 237.082C622.424 237.082 622.985 237.082 623.546 237.072C623.86 237.072 624.174 237.063 624.488 237.053H624.517H721.642H744.468V212.231V211.635V172.495L745.686 172.694L772.164 176.971V53.3062L749.272 53.3724L714.614 53.4671H626.219C625.582 53.4481 624.935 53.4292 624.288 53.4292C624.127 53.4292 623.974 53.4292 623.813 53.4292C623.261 53.4292 622.71 53.4198 622.158 53.4198C605.961 53.4198 590.867 57.205 577.647 64.4822C570.751 60.5456 563.276 57.6593 555.42 55.9086L555.391 47.5147L555.315 24.8787H438.131V56.4101H413.003C408.266 51.0823 402.978 46.3034 397.196 42.1396C379.534 29.4305 357.573 22.7117 333.701 22.7117H333.72Z" fill="#07DC10"/>
<path d="M726.521 99.0513V122.624C723.64 122.16 721.034 121.924 718.684 121.924C701.802 121.924 698.321 134.15 698.826 160.638V188.024H672.804C672.728 176.451 672.984 111.098 672.642 100.878H696.828C696.838 108.392 696.581 109.612 696.486 114.656H696.819C701.327 103.537 709.839 98.7201 721.186 98.7201C723.687 98.7201 725.361 98.8904 726.521 99.0513ZM668.276 150.531H603.203C604.372 163.647 612.381 171.284 623.889 171.284C631.897 171.284 637.404 168.294 640.581 162.152H667.107C661.761 179.252 646.582 190.702 623.061 190.702C622.662 190.712 622.262 190.712 621.873 190.712C561.801 190.712 562.572 97.8968 622.167 97.8968C622.633 97.8968 623.09 97.8968 623.556 97.8968H624.298C654.685 97.8968 670.283 121.28 668.276 150.522V150.531ZM642.245 134.415C640.913 122.965 634.237 116.322 623.394 116.322C612.552 116.322 605.371 122.965 603.878 134.415H642.245ZM536.369 190.22C536.036 190.22 535.704 190.21 535.371 190.21C520.515 190.21 512.002 182.403 508.169 176.422C508.331 179.242 508.331 184.561 508.331 188.053H483.812V69.3558H509.834C509.872 80.2196 509.815 99.3352 509.672 110.029C513.847 105.051 522.35 98.4078 536.531 98.4078H537.292C588.128 98.3984 587.224 190.22 536.369 190.22ZM528.285 118.139C528.085 118.139 527.895 118.139 527.686 118.148C515.845 118.148 508.169 128.113 508.169 143.547C508.169 158.982 515.169 170.111 527.686 170.111H528.256C553.784 170.111 553.926 118.139 528.285 118.139ZM449.011 116.766C444.427 132.371 439.462 149.244 437.132 159.644H436.295C430.722 140.311 424.578 121.943 418.101 100.878H390.414C400.42 129.258 412.271 158.48 422.951 186.87C421.182 191.866 419.176 198.822 417.112 204.632L412.765 217.909H439.462C450.714 185.829 470.886 126.391 480.512 100.878H453.643C452.236 105.78 450.647 111.193 449.011 116.766ZM332.769 89.9193C333.025 89.9193 333.292 89.9193 333.549 89.9288C346.892 89.9288 355.909 96.572 361.083 108.022L390.947 107.862C383.433 82.4529 362.909 67.1887 333.72 67.1887C297.683 67.1887 272.992 91.0833 272.992 128.775C272.992 166.467 297.179 190.191 333.387 190.191C362.585 190.191 382.777 175.921 390.614 150.853H360.075C354.739 160.808 346.227 166.789 333.549 166.789C333.187 166.789 332.816 166.808 332.455 166.808C290.331 166.808 291.396 89.9193 332.769 89.9193Z" fill="#EAEAEA"/>
</g>
<defs>
<clipPath id="clip0_1_276">
<rect width="795" height="287" fill="white"/>
</clipPath>
</defs>
</svg>
