<svg data-name="レイヤー 1" xmlns="http://www.w3.org/2000/svg" viewBox="0 0 290 80.82"><path d="M198.75 40.36l-4.82-9.07a5.6 5.6 0 003.86-5.52 5.619 5.619 0 00-3.86-5.52 18.991 18.991 0 00-4.41-.41H185v20.52h3.95V29.81l5.58 10.55zm-6-12.7a12.985 12.985 0 01-2.83.24h-1v-4.25h.59a16.112 16.112 0 013.23.24 2 2 0 010 3.77zm26.15-7.82h11.17v3.82h-7.3v4.24H229v3.75h-6.25v4.87h7.53v3.84H218.9zm-40.44 20.52h3.92l-5.88-20.52h-5.1l-5.88 20.52h3.92l1.86-6.49h5.29zm-6.08-10.26l1.62-5.47 1.56 5.47zm-15.54-10.26l-3.09 8.11-3.1-8.11h-5.96v20.52h3.94V24.78l5.12 13.4 5.11-13.4v15.58h3.95V19.84zm59.6 20.52L209.68 29l6.09-9.16h-4.37l-5.59 8.41v-8.41h-3.94v20.52h3.94V29.83l6.26 10.53zm16.67-20.52h12.26v3.85h-4.15v16.67h-4V23.69h-4.15zm.15 30.62a19.186 19.186 0 00-4.42-.41h-3.92v20.51h3.91v-8.64a19.134 19.134 0 004.42-.42 5.88 5.88 0 00.01-11.04zm-1.21 7.4a16.237 16.237 0 01-3.22.25v-4.26a15.52 15.52 0 013.22.25 2 2 0 010 3.76zm-10.14 12.7l-4.83-9.06a5.863 5.863 0 000-11.02 19.046 19.046 0 00-4.41-.41h-4.56v20.5h3.95V60l5.58 10.55zm-6-12.7a13.044 13.044 0 01-2.83.25h-1v-4.26h.59a15.616 15.616 0 013.23.25 2 2 0 010 3.76zm37.88 12.7L249 61.5a5.9 5.9 0 000-11.04 19.186 19.186 0 00-4.42-.41H240v20.52h3.94V60l5.58 10.55zm-6-12.7a12.921 12.921 0 01-2.83.25h-1v-4.26h.6a15.52 15.52 0 013.22.25 2 2 0 010 3.76zm25.9 2.72c-.32-.33-1.22-1.11-2.71-2.36a24.9 24.9 0 01-2.86-2.64 1.543 1.543 0 01-.36-1 1.222 1.222 0 01.49-.93 1.932 1.932 0 011.26-.41c1 0 2 .67 3 2l2.73-2.71a10.478 10.478 0 00-2.74-2.31 6.424 6.424 0 00-2.93-.71 5.619 5.619 0 00-4 1.53 4.841 4.841 0 00-1.63 3.66 5.379 5.379 0 001 3 22.685 22.685 0 004.33 4.22 14.522 14.522 0 012.24 2.08 2.272 2.272 0 01.52 1.39 1.752 1.752 0 01-.68 1.35 2.517 2.517 0 01-1.69.59c-1.29 0-2.42-.91-3.41-2.72l-2.82 2.81a8 8 0 002.32 2.58 6.765 6.765 0 003.82 1.08 6.351 6.351 0 004.55-1.65 5.458 5.458 0 001.75-4.17 5.755 5.755 0 00-.5-2.39 8.146 8.146 0 00-1.68-2.29zm-129-10.53h11.17v3.82h-7.29v4.24h6.24v3.75h-6.24v4.86h7.52v3.84h-11.4zm48.44 0h11.17v3.82H197v4.24h6.25v3.75H197v4.86h7.53v3.84h-11.4zm85.46 0h11.18v3.82h-7.3v4.24h6.25v3.75h-6.25v4.86H290v3.84h-11.41zm-118.89 0h3.74l7.56 13.5v-13.5h3.9v20.51h-3.75L163.6 57.1v13.46h-3.9zm96.91 0h3.87v20.51h-3.87zm-78.61 0h12.25v3.85h-4.14v16.66h-4V53.9H178zm-74.33-39.21l-8.24 8.31h23.35l8.34-8.31zM86.71 71.25V49.36h29.44l8.34-8.31H86.71V23.97L70 40.82v36.33h-2.84v2.41h52.65l8.34-8.31zm-77.19-.03l16.71-16.85V24.38l13.76 16.1 6.2-6.25-19.96-23.39H6.84v2.41h2.68z"/><path d="M110.48 0H80.13L0 80.82h30.35z" fill="#f08300"/></svg>