<svg width="160" height="54" viewBox="0 0 160 54" fill="none" xmlns="http://www.w3.org/2000/svg">
  <path fill-rule="evenodd" clip-rule="evenodd" d="M24.178 3.35385C20.081 -1.11795 13.4769 -1.11795 9.37998 3.35385C5.8977 7.15478 5.30017 13.1158 7.80114 17.6807C9.40778 20.6133 11.4485 23.2714 13.8193 25.4913L14.3036 25.9448L13.636 26.5257C11.5629 28.3296 9.71194 30.4146 8.1405 32.7005L3.47982 28.0398C3.26387 27.8239 3.26387 27.4738 3.47982 27.2578L7.99851 22.7391C8.64637 22.0913 8.64637 21.0409 7.99851 20.393C7.35066 19.7452 6.30028 19.7452 5.65243 20.393L1.13374 24.9117C-0.377913 26.4234 -0.377914 28.8743 1.13374 30.3859L6.37616 35.6283C4.17088 40.2623 5.01203 45.9579 8.64991 49.648C13.1689 54.2317 20.3892 54.2317 24.9082 49.648C28.546 45.958 29.3872 40.2623 27.1819 35.6284L32.4244 30.3859C33.936 28.8743 33.936 26.4234 32.4244 24.9117L27.9057 20.393C27.2578 19.7452 26.2074 19.7452 25.5596 20.393C24.9117 21.0409 24.9117 22.0913 25.5596 22.7391L30.0783 27.2578C30.2942 27.4738 30.2942 27.8239 30.0783 28.0398L25.4176 32.7005C23.8461 30.4146 21.9952 28.3296 19.922 26.5257L19.2544 25.9447L19.7386 25.4913C22.1094 23.2714 24.1502 20.6133 25.7568 17.6807C28.2578 13.1158 27.6602 7.15478 24.178 3.35385ZM11.8264 5.59514C14.6082 2.55877 18.9497 2.55877 21.7316 5.59514C24.2066 8.29665 24.6999 12.7045 22.847 16.0866C21.4012 18.7255 19.5733 21.1008 17.4709 23.0694L16.779 23.7173L16.087 23.0694C13.9846 21.1008 12.1567 18.7255 10.7109 16.0866C8.85802 12.7045 9.35134 8.29665 11.8264 5.59514ZM11.0126 47.3186C8.66932 44.9417 7.90715 41.3502 8.9262 38.1784L14.042 43.2941C15.5536 44.8058 18.0045 44.8058 19.5161 43.2941L24.6319 38.1784C25.6509 41.3502 24.8887 44.9417 22.5455 47.3186C19.3259 50.5843 14.2322 50.5843 11.0126 47.3186ZM17.1701 40.9481L23.0271 35.091C21.5394 32.8296 19.7547 30.7781 17.7441 29.0287L16.8197 28.2243L16.779 28.2625L16.7383 28.2244L15.814 29.0287C13.8034 30.7781 12.0187 32.8296 10.531 35.091L16.388 40.9481C16.604 41.164 16.9541 41.164 17.1701 40.9481Z" fill="currentColor"></path>
  <path d="M87.5398 16.0363H83.3523V36.962H87.5398V16.0363Z" fill="currentColor"></path>
  <path d="M64.053 27.6355V36.9619H59.8166V28.3716C59.8338 27.7587 59.7848 27.1458 59.6705 26.5435C59.588 26.1523 59.3902 25.7946 59.1024 25.5162C58.8702 25.2903 58.594 25.1141 58.2909 24.9985C57.9913 24.8934 57.675 24.844 57.3576 24.853C56.9712 24.8367 56.586 24.906 56.2297 25.0556C55.8732 25.2053 55.5545 25.4316 55.2962 25.7184C54.6818 26.6117 54.3952 27.6887 54.4846 28.7679V36.9538H50.2807V28.3716C50.3001 27.74 50.2511 27.1081 50.1346 26.4869C50.0386 26.0858 49.8202 25.7241 49.5097 25.4516C49.2783 25.2342 49.001 25.0712 48.6982 24.9743C48.3682 24.8824 48.0261 24.8415 47.6837 24.853C47.333 24.8412 46.9841 24.9078 46.6625 25.0477C46.341 25.1876 46.0549 25.3975 45.8252 25.6619C45.189 26.5999 44.902 27.7301 45.0137 28.8569V36.9457H40.826V22.0057H45.0137V24.0926C45.2674 23.5357 45.6481 23.0454 46.1255 22.6609C46.9725 22.0393 47.9863 21.6836 49.0372 21.6389C50.0881 21.5943 51.1285 21.8627 52.0256 22.4102C52.7734 22.9371 53.3244 23.6969 53.5918 24.5699C53.9121 23.8293 54.4146 23.181 55.0527 22.6851C56.0757 21.9518 57.3159 21.5816 58.5749 21.6337C59.3204 21.583 60.0681 21.6917 60.7679 21.9526C61.4678 22.2135 62.1035 22.6205 62.6328 23.1463C63.6591 24.4096 64.1666 26.0138 64.053 27.6355Z" fill="currentColor"></path>
  <path fill-rule="evenodd" clip-rule="evenodd" d="M65.8709 29.488C65.8275 28.4504 65.9934 27.4146 66.3586 26.4421C66.7238 25.4695 67.2811 24.5799 67.9973 23.8258C69.5479 22.4093 71.5749 21.6235 73.6782 21.6235C75.7816 21.6235 77.8086 22.4093 79.3592 23.8258C80.0725 24.5816 80.6273 25.4718 80.9911 26.4441C81.3548 27.4163 81.5201 28.4511 81.4774 29.488C81.5235 30.5265 81.3581 31.5635 80.9913 32.5366C80.6245 33.5098 80.0639 34.3988 79.343 35.1501C78.6047 35.8752 77.724 36.4406 76.7562 36.8108C75.7885 37.1811 74.7544 37.3482 73.7189 37.3017C72.6702 37.3618 71.6205 37.2076 70.6338 36.8488C69.6471 36.4899 68.7445 35.9338 67.9811 35.2148C67.2625 34.4498 66.7052 33.5487 66.3427 32.5649C65.9803 31.5811 65.8198 30.5347 65.8709 29.488ZM76.186 33.2412C76.7869 32.0858 77.0485 30.7849 76.9408 29.488C76.9408 27.7165 76.6892 26.4708 76.1779 25.7429C75.8897 25.3625 75.5089 25.0618 75.0714 24.8693C74.634 24.6767 74.1544 24.5989 73.6782 24.6428C73.1979 24.6009 72.7149 24.6806 72.2736 24.8742C71.8325 25.0679 71.4475 25.3695 71.1543 25.7509C70.5305 26.8935 70.2488 28.1905 70.3428 29.488C70.3428 31.2594 70.5943 32.5132 71.1056 33.2412C71.4023 33.6198 71.7895 33.9181 72.2319 34.1089C72.6743 34.2997 73.1577 34.3768 73.6377 34.3332C74.1223 34.3831 74.6116 34.3074 75.0582 34.1132C75.5047 33.9191 75.8932 33.6131 76.186 33.225V33.2412Z" fill="currentColor"></path>
  <path d="M105.841 29.4881C105.794 28.4554 105.951 27.4236 106.305 26.4519C106.659 25.4803 107.202 24.5878 107.902 23.8259C108.643 23.0875 109.533 22.5136 110.511 22.1413C111.49 21.7692 112.537 21.6072 113.583 21.6661C115.252 21.583 116.898 22.0868 118.233 23.0897C119.581 24.2789 120.41 25.9443 120.546 27.7327H116.488C116.397 26.9118 116.076 26.1329 115.563 25.4841C115.314 25.224 115.011 25.0222 114.674 24.8935C114.337 24.7648 113.975 24.7123 113.616 24.7399C113.146 24.6939 112.672 24.774 112.245 24.9717C111.816 25.1694 111.449 25.4775 111.181 25.8643C110.633 26.9813 110.392 28.2234 110.483 29.4637C110.391 30.711 110.629 31.9604 111.173 33.0875C111.445 33.47 111.813 33.7741 112.241 33.9688C112.668 34.1634 113.14 34.2417 113.607 34.1957C115.123 34.1957 116.08 33.3356 116.48 31.6154H120.538C120.488 32.4367 120.263 33.238 119.878 33.966C119.494 34.694 118.958 35.332 118.306 35.8377C116.943 36.8489 115.273 37.3629 113.575 37.2937C112.537 37.3549 111.497 37.2034 110.52 36.8486C109.543 36.4938 108.65 35.9433 107.894 35.231C107.188 34.4564 106.643 33.5502 106.291 32.5644C105.938 31.5786 105.786 30.533 105.841 29.4881Z" fill="currentColor"></path>
  <path d="M135.951 36.9621V22.0222L131.803 22.0059V30.0947C131.876 31.1459 131.615 32.1931 131.057 33.0876C130.832 33.4072 130.531 33.6663 130.181 33.8414C129.831 34.0166 129.443 34.1021 129.052 34.0906C128.633 34.1036 128.214 34.0518 127.81 33.9369C127.498 33.8203 127.219 33.6285 126.999 33.3788C126.728 33.0713 126.546 32.6969 126.471 32.2949C126.368 31.6669 126.324 31.0304 126.342 30.394V21.9655H122.056V30.6043C122.034 31.626 122.132 32.6467 122.349 33.6458C122.516 34.3879 122.883 35.0703 123.412 35.6194C123.909 36.1786 124.532 36.6136 125.23 36.8894C126.012 37.1592 126.837 37.2879 127.664 37.2695C128.531 37.3316 129.397 37.1337 130.151 36.7012C130.904 36.2688 131.511 35.6216 131.893 34.8428V36.9621H135.951Z" fill="currentColor"></path>
  <path d="M138.701 16.0363H142.889V36.962H138.701V16.0363Z" fill="currentColor"></path>
  <path fill-rule="evenodd" clip-rule="evenodd" d="M154.648 33.7588C155.102 33.3808 155.428 32.8724 155.582 32.3028V32.3109H159.745C159.412 33.8274 158.523 35.1657 157.253 36.0641C155.834 36.9584 154.175 37.3987 152.498 37.3259C151.499 37.3824 150.501 37.236 149.562 36.8953C148.623 36.5545 147.764 36.0268 147.036 35.3442C146.289 34.5646 145.711 33.6402 145.339 32.6286C144.965 31.6169 144.806 30.5396 144.869 29.4637C144.869 26.94 145.575 24.9987 147.003 23.6397C147.734 22.9608 148.594 22.4348 149.532 22.0931C150.47 21.7513 151.468 21.6005 152.465 21.6498C153.475 21.5997 154.484 21.7609 155.427 22.1231C156.371 22.4853 157.228 23.0406 157.943 23.753C159.372 25.2899 160.056 27.5628 159.996 30.5718H149.008C148.935 31.5942 149.254 32.606 149.901 33.4029C150.553 33.9531 151.364 34.284 152.217 34.3479C153.069 34.4118 153.92 34.2056 154.648 33.7588ZM152.27 24.5592C151.331 24.6057 150.445 25.0022 149.787 25.67C149.354 26.2614 149.095 26.9619 149.04 27.6922H155.736C155.694 26.8595 155.384 26.0623 154.851 25.4193C154.13 24.8197 153.208 24.5128 152.27 24.5592Z" fill="currentColor"></path>
  <path fill-rule="evenodd" clip-rule="evenodd" d="M99.9008 32.3028C99.7474 32.8724 99.4212 33.3809 98.9675 33.7589C98.2403 34.2038 97.3906 34.4088 96.5393 34.3449C95.6888 34.281 94.8796 33.9514 94.2279 33.4029C93.5811 32.6061 93.2622 31.5942 93.3352 30.5718H104.316C104.375 27.5628 103.691 25.2899 102.262 23.753C101.548 23.0412 100.693 22.4863 99.7506 22.1241C98.8084 21.7619 97.8005 21.6004 96.7925 21.6499C95.7935 21.6004 94.7944 21.751 93.8554 22.0927C92.9156 22.4345 92.0546 22.9606 91.3225 23.6398C89.9047 24.9987 89.193 26.94 89.1881 29.4637C89.1248 30.5396 89.2847 31.6169 89.6572 32.6286C90.0305 33.6403 90.6084 34.5647 91.355 35.3443C92.083 36.0264 92.9424 36.5539 93.8814 36.8946C94.8204 37.2353 95.8186 37.382 96.8168 37.326C98.496 37.3988 100.158 36.9587 101.581 36.0642C102.846 35.1627 103.731 33.8253 104.064 32.311H99.9008V32.3028ZM94.1062 25.6701C94.766 25.0017 95.6531 24.605 96.5928 24.5584C97.5326 24.512 98.4554 24.8192 99.1785 25.4193C99.7052 26.0651 100.012 26.8612 100.055 27.6923H93.3596C93.418 26.9628 93.6761 26.2633 94.1062 25.6701Z" fill="currentColor"></path>
</svg>