<?xml version="1.0" encoding="UTF-8"?>
<svg id="_レイヤー_2" data-name="レイヤー 2" xmlns="http://www.w3.org/2000/svg" viewBox="0 0 160 103.53">
  <defs>
    <style>
      .cls-1 {
        fill-rule: evenodd;
      }
    </style>
  </defs>
  <g id="_レイヤー_1-2" data-name="レイヤー 1">
    <g>
      <path class="cls-1" d="M24.18,53.8c-4.1-4.47-10.7-4.47-14.8,0-3.48,3.8-4.08,9.76-1.58,14.33,1.61,2.93,3.65,5.59,6.02,7.81l.48.45-.67.58c-2.07,1.8-3.92,3.89-5.5,6.17l-4.66-4.66c-.22-.22-.22-.57,0-.78l4.52-4.52c.65-.65.65-1.7,0-2.35-.65-.65-1.7-.65-2.35,0l-4.52,4.52c-1.51,1.51-1.51,3.96,0,5.47l5.24,5.24c-2.21,4.63-1.36,10.33,2.27,14.02,4.52,4.58,11.74,4.58,16.26,0,3.64-3.69,4.48-9.39,2.27-14.02l5.24-5.24c1.51-1.51,1.51-3.96,0-5.47l-4.52-4.52c-.65-.65-1.7-.65-2.35,0-.65.65-.65,1.7,0,2.35l4.52,4.52c.22.22.22.57,0,.78l-4.66,4.66c-1.57-2.29-3.42-4.37-5.5-6.17l-.67-.58.48-.45c2.37-2.22,4.41-4.88,6.02-7.81,2.5-4.56,1.9-10.53-1.58-14.33ZM11.83,56.04c2.78-3.04,7.12-3.04,9.91,0,2.48,2.7,2.97,7.11,1.12,10.49-1.45,2.64-3.27,5.01-5.38,6.98l-.69.65-.69-.65c-2.1-1.97-3.93-4.34-5.38-6.98-1.85-3.38-1.36-7.79,1.12-10.49ZM11.01,97.77c-2.34-2.38-3.11-5.97-2.09-9.14l5.12,5.12c1.51,1.51,3.96,1.51,5.47,0l5.12-5.12c1.02,3.17.26,6.76-2.09,9.14-3.22,3.27-8.31,3.27-11.53,0ZM17.17,91.4l5.86-5.86c-1.49-2.26-3.27-4.31-5.28-6.06l-.92-.8-.04.04-.04-.04-.92.8c-2.01,1.75-3.8,3.8-5.28,6.06l5.86,5.86c.22.22.57.22.78,0Z"/>
      <path d="M87.54,66.49h-4.19v20.93h4.19v-20.93Z"/>
      <path d="M64.05,78.08v9.33h-4.24v-8.59c.02-.61-.03-1.23-.15-1.83-.08-.39-.28-.75-.57-1.03-.23-.23-.51-.4-.81-.52-.3-.11-.62-.15-.93-.15-.39-.02-.77.05-1.13.2-.36.15-.68.38-.93.66-.61.89-.9,1.97-.81,3.05v8.19h-4.2v-8.58c.02-.63-.03-1.26-.15-1.88-.1-.4-.31-.76-.62-1.04-.23-.22-.51-.38-.81-.48-.33-.09-.67-.13-1.01-.12-.35-.01-.7.05-1.02.19-.32.14-.61.35-.84.61-.64.94-.92,2.07-.81,3.19v8.09h-4.19v-14.94h4.19v2.09c.25-.56.63-1.05,1.11-1.43.85-.62,1.86-.98,2.91-1.02,1.05-.04,2.09.22,2.99.77.75.53,1.3,1.29,1.57,2.16.32-.74.82-1.39,1.46-1.88,1.02-.73,2.26-1.1,3.52-1.05.75-.05,1.49.06,2.19.32.7.26,1.34.67,1.86,1.19,1.03,1.26,1.53,2.87,1.42,4.49Z"/>
      <path class="cls-1" d="M65.87,79.94c-.04-1.04.12-2.07.49-3.05.37-.97.92-1.86,1.64-2.62,1.55-1.42,3.58-2.2,5.68-2.2s4.13.79,5.68,2.2c.71.76,1.27,1.65,1.63,2.62.36.97.53,2.01.49,3.04.05,1.04-.12,2.08-.49,3.05-.37.97-.93,1.86-1.65,2.61-.74.73-1.62,1.29-2.59,1.66-.97.37-2,.54-3.04.49-1.05.06-2.1-.09-3.09-.45-.99-.36-1.89-.92-2.65-1.63-.72-.77-1.28-1.67-1.64-2.65-.36-.98-.52-2.03-.47-3.08ZM76.19,83.69c.6-1.16.86-2.46.75-3.75,0-1.77-.25-3.02-.76-3.75-.29-.38-.67-.68-1.11-.87-.44-.19-.92-.27-1.39-.23-.48-.04-.96.04-1.4.23-.44.19-.83.5-1.12.88-.62,1.14-.91,2.44-.81,3.74,0,1.77.25,3.03.76,3.75.3.38.68.68,1.13.87.44.19.93.27,1.41.22.48.05.97-.03,1.42-.22.45-.19.84-.5,1.13-.89v.02Z"/>
      <path d="M105.84,79.94c-.05-1.03.11-2.06.46-3.04.35-.97.9-1.86,1.6-2.63.74-.74,1.63-1.31,2.61-1.68.98-.37,2.03-.53,3.07-.48,1.67-.08,3.32.42,4.65,1.42,1.35,1.19,2.18,2.85,2.31,4.64h-4.06c-.09-.82-.41-1.6-.92-2.25-.25-.26-.55-.46-.89-.59-.34-.13-.7-.18-1.06-.15-.47-.05-.94.03-1.37.23-.43.2-.8.51-1.06.89-.55,1.12-.79,2.36-.7,3.6-.09,1.25.15,2.5.69,3.62.27.38.64.69,1.07.88.43.19.9.27,1.37.23,1.52,0,2.47-.86,2.87-2.58h4.06c-.05.82-.28,1.62-.66,2.35-.38.73-.92,1.37-1.57,1.87-1.36,1.01-3.03,1.53-4.73,1.46-1.04.06-2.08-.09-3.06-.45-.98-.35-1.87-.91-2.63-1.62-.71-.77-1.25-1.68-1.6-2.67-.35-.99-.5-2.03-.45-3.08Z"/>
      <path d="M135.95,87.41v-14.94l-4.15-.02v8.09c.07,1.05-.19,2.1-.75,2.99-.23.32-.53.58-.88.75-.35.18-.74.26-1.13.25-.42.01-.84-.04-1.24-.15-.31-.12-.59-.31-.81-.56-.27-.31-.45-.68-.53-1.08-.1-.63-.15-1.26-.13-1.9v-8.43h-4.29v8.64c-.02,1.02.08,2.04.29,3.04.17.74.53,1.42,1.06,1.97.5.56,1.12.99,1.82,1.27.78.27,1.61.4,2.43.38.87.06,1.73-.14,2.49-.57.75-.43,1.36-1.08,1.74-1.86v2.12h4.06Z"/>
      <path d="M138.7,66.49h4.19v20.93h-4.19v-20.93Z"/>
      <path class="cls-1" d="M154.65,84.21c.45-.38.78-.89.93-1.46h0s4.16,0,4.16,0c-.33,1.52-1.22,2.85-2.49,3.75-1.42.89-3.08,1.33-4.76,1.26-1,.06-2-.09-2.94-.43-.94-.34-1.8-.87-2.53-1.55-.75-.78-1.32-1.7-1.7-2.72-.37-1.01-.53-2.09-.47-3.16,0-2.52.71-4.47,2.13-5.82.73-.68,1.59-1.2,2.53-1.55.94-.34,1.94-.49,2.93-.44,1.01-.05,2.02.11,2.96.47.94.36,1.8.92,2.52,1.63,1.43,1.54,2.11,3.81,2.05,6.82h-10.99c-.07,1.02.25,2.03.89,2.83.65.55,1.46.88,2.32.94.85.06,1.7-.14,2.43-.59ZM152.27,75.01c-.94.05-1.82.44-2.48,1.11-.43.59-.69,1.29-.75,2.02h6.7c-.04-.83-.35-1.63-.88-2.27-.72-.6-1.64-.91-2.58-.86Z"/>
      <path class="cls-1" d="M99.9,82.75c-.15.57-.48,1.08-.93,1.46-.73.44-1.58.65-2.43.59-.85-.06-1.66-.39-2.31-.94-.65-.8-.97-1.81-.89-2.83h10.98c.06-3.01-.62-5.28-2.05-6.82-.71-.71-1.57-1.27-2.51-1.63-.94-.36-1.95-.52-2.96-.47-1-.05-2,.1-2.94.44-.94.34-1.8.87-2.53,1.55-1.42,1.36-2.13,3.3-2.13,5.82-.06,1.08.1,2.15.47,3.16.37,1.01.95,1.94,1.7,2.72.73.68,1.59,1.21,2.53,1.55.94.34,1.94.49,2.94.43,1.68.07,3.34-.37,4.76-1.26,1.26-.9,2.15-2.24,2.48-3.75h-4.16ZM94.11,76.12c.66-.67,1.55-1.07,2.49-1.11.94-.05,1.86.26,2.59.86.53.65.83,1.44.88,2.27h-6.7c.06-.73.32-1.43.75-2.02Z"/>
      <path class="cls-1" d="M73.65,0h65.36c11.05,0,20.01,9.01,20.01,20.12v5.41c0,11.11-8.96,20.12-20.01,20.12h-65.36c-11.05,0-20.01-9.01-20.01-20.12v-5.41c0-11.11,8.96-20.12,20.01-20.12ZM73.19,38.28h13.55c4.93,0,9.18-3.86,9.3-8.82.05-2.21-.69-4.24-1.95-5.83-.62-.78-.67-1.87-.18-2.74.88-1.57,1.32-3.44,1.11-5.42-.49-4.63-4.59-8.04-9.23-8.04h-12.59c-6.75,0-12.22,5.5-12.22,12.29v6.28c0,6.78,5.47,12.29,12.22,12.29ZM106.34,38.22c1.64,0,2.96-1.33,2.96-2.98V10.36c0-1.65-1.33-2.98-2.96-2.98s-2.97,1.33-2.97,2.98v24.89c0,1.65,1.33,2.98,2.97,2.98ZM138.49,38.28c7.29,0,13.2-5.94,13.2-13.28v-4.29c0-7.33-5.91-13.28-13.2-13.28h-8.65c-7.29,0-13.2,5.94-13.2,13.28v4.29c0,7.33,5.91,13.28,13.2,13.28h8.65ZM2.7,44.16c-.52-.55-.92-1.19-1.17-1.9-.26-.71-.36-1.46-.31-2.22.05-.75.25-1.49.6-2.15.35-.67.83-1.26,1.41-1.73,1.39-1.01,2.5-1.24,3.65-1.48.27-.06.54-.11.82-.18,2.5-.61,4.64-2.5,4.25-5.28-.34-2.39-2.06-3.02-3.61-3.59-1.41-.51-2.68-.98-2.68-2.65s1.27-2.14,2.68-2.65c1.56-.57,3.27-1.2,3.61-3.58.39-2.76-1.76-4.66-4.25-5.28-.27-.07-.54-.12-.81-.18-1.16-.24-2.26-.47-3.65-1.49-.58-.47-1.07-1.06-1.41-1.73-.35-.67-.55-1.41-.6-2.16-.05-.75.06-1.51.31-2.22.26-.71.66-1.36,1.18-1.9.54-.52,1.19-.93,1.89-1.18.7-.26,1.46-.37,2.2-.32.75.05,1.48.26,2.14.6.66.35,1.25.83,1.72,1.42,1.01,1.4,1.24,2.52,1.48,3.68.06.27.11.54.18.81.6,2.51,2.49,4.67,5.25,4.28,2.38-.34,3-2.07,3.56-3.64.51-1.42.97-2.7,2.64-2.7s2.13,1.28,2.64,2.7c.57,1.57,1.19,3.3,3.57,3.64,2.74.39,4.62-1.77,5.25-4.28.07-.28.12-.55.18-.82.24-1.16.47-2.27,1.47-3.67.47-.59,1.05-1.07,1.72-1.42.66-.35,1.4-.56,2.14-.6.75-.05,1.5.06,2.2.32.7.26,1.35.66,1.89,1.18.52.54.92,1.19,1.18,1.9.26.71.36,1.46.31,2.22-.05.75-.25,1.49-.6,2.16-.35.67-.83,1.26-1.41,1.73-1.39,1.01-2.5,1.24-3.65,1.49-.27.06-.53.11-.81.18-2.5.6-4.65,2.5-4.26,5.28.34,2.39,2.05,3.02,3.61,3.58,1.41.51,2.68.98,2.68,2.66s-1.27,2.14-2.68,2.66c-1.56.57-3.28,1.2-3.61,3.59-.39,2.76,1.76,4.65,4.26,5.25.28.07.56.13.83.18,1.14.24,2.24.47,3.63,1.48.58.47,1.07,1.06,1.41,1.73.35.67.55,1.4.6,2.16.05.75-.06,1.51-.31,2.22-.26.71-.66,1.36-1.18,1.9-.54.52-1.19.93-1.89,1.18-.71.26-1.46.37-2.2.32s-1.48-.26-2.14-.6c-.66-.35-1.25-.83-1.72-1.42-1-1.4-1.23-2.51-1.47-3.66-.06-.27-.11-.55-.18-.83-.6-2.51-2.49-4.67-5.25-4.28-2.38.34-3,2.07-3.57,3.64-.51,1.42-.97,2.7-2.64,2.7s-2.13-1.28-2.64-2.7c-.56-1.57-1.19-3.29-3.56-3.64-2.74-.39-4.62,1.77-5.25,4.29-.07.28-.12.55-.18.81-.24,1.16-.47,2.27-1.48,3.67-.47.59-1.05,1.07-1.72,1.42-.66.35-1.39.56-2.14.6-.75.05-1.5-.06-2.2-.32-.71-.26-1.35-.66-1.89-1.18v.02ZM86.92,25.49h-18.04c-1.05,0-1.89.85-1.89,1.9,0,3.11,2.5,5.62,5.59,5.62h14.49c2.31,0,4.13-2.1,3.67-4.51-.34-1.79-2-3.02-3.81-3.02h0ZM86.08,20.22h-17.21c-1.05,0-1.89-.85-1.89-1.9,0-3.11,2.5-5.62,5.59-5.62h13.3c2.03,0,3.84,1.52,3.95,3.56.11,2.17-1.6,3.97-3.74,3.97ZM139.48,12.7h-10.64c-3.43,0-6.21,2.79-6.21,6.24v7.84c0,3.45,2.78,6.24,6.21,6.24h10.64c3.43,0,6.21-2.79,6.21-6.24v-7.84c0-3.45-2.78-6.24-6.21-6.24Z"/>
    </g>
  </g>
</svg>