<svg width="5000" height="1880" viewBox="0 0 5000 1880" fill="none" xmlns="http://www.w3.org/2000/svg">
<path fill-rule="evenodd" clip-rule="evenodd" d="M939.665 540.742C719.394 540.742 540.752 719.384 540.752 939.66C540.752 1159.94 719.394 1338.57 939.665 1338.57C1159.94 1338.57 1338.58 1159.94 1338.58 939.66H1195.22C1195.22 1080.78 1080.79 1195.22 939.665 1195.22C798.559 1195.21 684.111 1080.78 684.111 939.66C684.111 798.549 798.554 684.101 939.665 684.101V540.742V540.742ZM1061.26 662.333H1216.99V818.064H1061.26V662.333V662.333Z" fill="#EE2121"/>
<path fill-rule="evenodd" clip-rule="evenodd" d="M1734.17 1119.35C1760.47 1119.25 1783.94 1116.22 1804.38 1110.04C1824.82 1103.97 1843.33 1095.27 1859.83 1084.14C1876.42 1072.91 1892 1059.55 1906.57 1044.07L1858.61 995.514C1846.57 1006.94 1834.53 1016.65 1822.39 1024.96C1810.25 1033.14 1797.2 1039.52 1783.34 1043.97C1769.48 1048.43 1753.89 1050.76 1736.59 1050.76C1716.16 1050.66 1697.43 1046.61 1680.34 1038.82C1663.34 1031.03 1648.47 1020.2 1635.93 1006.34C1623.48 992.58 1613.77 976.488 1606.79 958.28C1599.91 940.068 1596.47 920.543 1596.36 899.598V898.378C1596.47 877.438 1599.91 857.913 1606.79 839.901C1613.77 821.792 1623.48 805.91 1635.93 792.252C1648.47 778.486 1663.34 767.869 1680.34 760.176C1697.43 752.487 1716.16 748.545 1736.59 748.437C1752.68 748.437 1767.66 750.665 1781.52 755.122C1795.28 759.465 1808.23 765.636 1820.37 773.53C1832.61 781.424 1844.35 790.631 1855.58 801.248L1903.54 746.013C1890.08 732.957 1875.51 721.424 1859.73 711.61C1843.94 701.693 1826.04 693.907 1806.1 688.339C1786.07 682.771 1763.1 679.94 1737.2 679.842C1711.41 679.94 1687.32 683.687 1664.96 691.072C1642.7 698.462 1622.47 708.878 1604.46 722.438C1586.45 735.895 1570.96 751.777 1558.12 770.092C1545.27 788.3 1535.35 808.437 1528.48 830.396C1521.6 852.247 1518.15 875.318 1518.05 899.598V900.812C1518.15 925.298 1521.69 948.461 1528.68 970.415C1535.66 992.272 1545.58 1012.31 1558.43 1030.42C1571.38 1048.63 1586.75 1064.31 1604.56 1077.57C1622.47 1090.82 1642.3 1101.04 1664.15 1108.32C1686.01 1115.61 1709.27 1119.25 1734.17 1119.35L1734.17 1119.35Z" fill="#060921"/>
<path fill-rule="evenodd" clip-rule="evenodd" d="M2086.86 1118.74C2103.35 1118.64 2117.92 1116.01 2130.37 1110.86C2142.82 1105.7 2153.74 1098.92 2162.95 1090.42C2172.16 1081.92 2180.25 1072.51 2187.02 1062.29V1112.07H2260.48V791.538H2187.02V972.449C2186.93 989.139 2183.89 1003.3 2177.72 1015.14C2171.65 1027.08 2163.25 1036.09 2152.42 1042.46C2141.6 1048.73 2129.05 1051.87 2114.79 1051.97C2092.83 1051.87 2075.93 1044.99 2064.1 1031.53C2052.26 1017.97 2046.29 998.747 2046.19 973.659V791.537H1972.73V995.514C1972.84 1020.5 1977.29 1042.25 1986.29 1060.67C1995.2 1079.08 2008.15 1093.25 2025.14 1103.36C2042.14 1113.49 2062.69 1118.64 2086.86 1118.74V1118.74Z" fill="#060921"/>
<path fill-rule="evenodd" clip-rule="evenodd" d="M2352.76 1112.07H2426.21V990.054C2426.42 961.724 2431.07 938.149 2440.28 919.329C2449.49 900.617 2462.23 886.547 2478.52 877.14C2494.91 867.835 2513.84 863.183 2535.48 863.183L2539.73 863.178V785.47C2520.91 784.765 2504.22 787.595 2489.65 794.079C2475.08 800.45 2462.53 809.657 2452.01 821.596C2441.49 833.633 2432.9 847.703 2426.21 863.785V791.542H2352.76V1112.07V1112.07Z" fill="#060921"/>
<path fill-rule="evenodd" clip-rule="evenodd" d="M2704.84 1114.5H2771.02L2902.14 791.537H2825.05L2738.24 1027.08L2652.03 791.537H2573.12L2704.84 1114.5Z" fill="#060921"/>
<path fill-rule="evenodd" clip-rule="evenodd" d="M3093.37 1119.36C3113 1119.25 3130.8 1116.82 3146.79 1111.87C3162.77 1106.91 3177.24 1100.03 3190.09 1091.03C3202.94 1082.02 3214.37 1071.5 3224.49 1059.26L3181.39 1021.01C3173 1029.31 3164.29 1036.29 3155.48 1041.96C3146.69 1047.62 3137.27 1051.97 3127.35 1054.9C3117.34 1057.74 3106.41 1059.26 3094.57 1059.26C3078.7 1059.26 3064.32 1056.02 3051.37 1049.75C3038.43 1043.47 3027.7 1034.27 3019.21 1022.23C3010.7 1010.09 3005.04 995.317 3002.3 977.912H3237.84C3238.15 974.268 3238.46 970.733 3238.66 967.388C3238.96 963.945 3239.06 960.61 3239.06 957.27C3239.06 938.754 3237.04 920.948 3232.88 903.95C3228.74 886.854 3222.56 871.168 3214.37 856.697C3206.18 842.339 3195.86 829.689 3183.61 818.965C3171.28 808.235 3157.01 799.841 3140.61 793.969C3124.22 788.005 3105.91 784.969 3085.47 784.866C3062.51 784.969 3041.46 789.415 3022.34 798.02C3003.22 806.717 2986.73 818.661 2972.77 833.935C2958.8 849.209 2948.07 866.923 2940.49 887.055C2932.8 907.187 2928.95 928.745 2928.85 951.81L2928.85 953.019C2928.95 977.804 2933.2 1000.47 2941.5 1020.71C2949.79 1041.04 2961.43 1058.55 2976.3 1073.32C2991.18 1087.99 3008.58 1099.32 3028.51 1107.31C3048.34 1115.2 3069.99 1119.25 3093.37 1119.36L3093.37 1119.36ZM3001.7 929.342C3004.03 912.652 3008.88 897.985 3016.27 885.336C3023.66 872.686 3033.16 862.873 3044.8 855.786C3056.44 848.71 3069.79 845.066 3084.87 844.969C3101.06 845.066 3114.92 848.911 3126.44 856.296C3137.98 863.68 3147.09 873.798 3153.76 886.447C3160.45 899.092 3164.59 913.362 3166.21 929.341H3001.7L3001.7 929.342Z" fill="#060921"/>
<path fill-rule="evenodd" clip-rule="evenodd" d="M3455.78 1210.41C3484.71 1210.41 3510.21 1206.87 3532.37 1199.79C3554.53 1192.71 3572.84 1181.88 3587.5 1167.31C3600.86 1153.95 3610.98 1137.27 3617.86 1117.13C3624.74 1097.1 3628.18 1073.52 3628.18 1046.51V791.54H3554.73V839.503C3546.53 829.489 3537.12 820.277 3526.6 812.079C3515.98 803.881 3503.83 797.309 3490.07 792.456C3476.22 787.495 3460.32 784.969 3442.42 784.866C3427.44 784.861 3412.77 787.094 3398.62 791.448C3384.45 795.791 3371.2 802.162 3358.85 810.566C3346.61 818.96 3335.79 829.283 3326.47 841.526C3317.17 853.666 3309.98 867.628 3304.72 883.416C3299.46 899.092 3296.83 916.497 3296.73 935.419V936.623C3296.83 955.449 3299.46 972.75 3304.61 988.333C3309.88 1004.01 3317.06 1017.88 3326.37 1030.02C3335.58 1042.26 3346.3 1052.48 3358.65 1060.87C3370.89 1069.27 3384.14 1075.64 3398.4 1080C3412.58 1084.35 3427.24 1086.58 3442.42 1086.58C3459.92 1086.47 3475.6 1083.95 3489.26 1078.99C3502.92 1074.02 3515.17 1067.15 3525.89 1058.35C3536.72 1049.54 3546.53 1039.32 3555.33 1027.69L3555.34 1052.58C3555.24 1084.86 3546.53 1109.24 3529.23 1125.93C3511.93 1142.52 3486.84 1150.83 3453.95 1150.92C3432.21 1150.82 3411.96 1147.78 3393.25 1141.92C3374.53 1135.94 3356.72 1127.65 3339.83 1116.92L3312.51 1172.17C3333.26 1184.62 3355.71 1194.12 3379.79 1200.6C3403.98 1207.07 3429.27 1210.41 3455.77 1210.41L3455.78 1210.41ZM3461.85 1024.66C3449.2 1024.66 3437.36 1022.43 3426.33 1018.28C3415.41 1014.03 3405.69 1007.96 3397.4 1000.17C3389.1 992.275 3382.63 982.971 3377.97 972.143C3373.22 961.315 3370.89 949.278 3370.79 936.027V934.807C3370.89 921.555 3373.22 909.513 3377.87 898.794C3382.43 887.966 3388.9 878.759 3397.2 870.968C3405.49 863.279 3415.1 857.31 3426.13 853.059C3437.16 848.911 3449 846.791 3461.84 846.791C3474.7 846.791 3486.73 848.911 3498.07 853.167C3509.39 857.407 3519.31 863.48 3528.02 871.271C3536.72 879.058 3543.5 888.47 3548.45 899.293C3553.32 910.121 3555.83 922.163 3555.94 935.42V936.624C3555.84 949.577 3553.31 961.413 3548.45 972.143C3543.5 982.868 3536.72 992.172 3528.02 999.969C3519.32 1007.86 3509.39 1013.93 3498.07 1018.18C3486.73 1022.43 3474.69 1024.55 3461.85 1024.66L3461.85 1024.66Z" fill="#060921"/>
<path fill-rule="evenodd" clip-rule="evenodd" d="M3719.86 1112.07H3793.31V990.054C3793.52 961.724 3798.17 938.149 3807.38 919.329C3816.58 900.617 3829.33 886.547 3845.62 877.14C3862.01 867.835 3880.93 863.183 3902.58 863.183L3906.83 863.178V785.47C3888.01 784.765 3871.31 787.595 3856.74 794.079C3842.18 800.45 3829.63 809.657 3819.11 821.596C3808.58 833.633 3799.99 847.703 3793.31 863.785V791.542H3719.86V1112.07V1112.07Z" fill="#060921"/>
<path fill-rule="evenodd" clip-rule="evenodd" d="M3971.79 742.376H4050.7V672.562H3971.79V742.376ZM3974.82 1112.07H4048.28V791.544H3974.82V1112.07Z" fill="#060921"/>
<path fill-rule="evenodd" clip-rule="evenodd" d="M4276.52 1118.74C4293.93 1118.64 4309.3 1115.91 4322.76 1110.55C4336.32 1105.29 4348.26 1098.11 4358.57 1089.1C4368.9 1079.99 4378.01 1069.88 4385.79 1058.64V1112.07H4459.25V668.912H4385.79V841.321C4378.21 831.199 4369.2 821.992 4358.99 813.496C4348.66 804.891 4336.82 798.119 4323.16 792.854C4309.61 787.698 4294.12 784.965 4276.52 784.862C4261.14 784.857 4246.17 787.291 4231.7 791.943C4217.13 796.693 4203.68 803.579 4191.13 812.786C4178.58 821.992 4167.56 833.329 4158.15 846.787C4148.64 860.136 4141.25 875.616 4135.89 893.119C4130.63 910.528 4127.9 929.95 4127.8 951.194V952.414C4127.9 973.657 4130.63 993.079 4136.09 1010.48C4141.46 1027.99 4148.94 1043.37 4158.45 1056.82C4168.06 1070.28 4179.09 1081.62 4191.63 1090.82C4204.19 1099.93 4217.74 1106.9 4232.1 1111.66C4246.58 1116.32 4261.35 1118.74 4276.52 1118.74V1118.74ZM4294.12 1055C4281.59 1055 4269.74 1052.48 4258.72 1047.72C4247.58 1042.86 4237.88 1035.98 4229.27 1026.98C4220.78 1017.97 4214.1 1007.15 4209.24 994.603C4204.39 981.954 4201.95 967.894 4201.85 952.414V951.194C4201.96 935.215 4204.39 920.945 4209.14 908.295C4213.99 895.651 4220.67 884.823 4229.07 876.023C4237.57 867.12 4247.38 860.337 4258.41 855.685C4269.54 851.028 4281.48 848.609 4294.12 848.609C4306.58 848.604 4318.31 851.033 4329.44 855.891C4340.46 860.749 4350.38 867.624 4358.99 876.63C4367.68 885.631 4374.47 896.459 4379.42 909.005C4384.38 921.655 4386.9 935.617 4387 951.194L4387.01 952.414C4386.9 967.786 4384.38 981.753 4379.42 994.299C4374.47 1006.84 4367.68 1017.67 4358.99 1026.67C4350.38 1035.78 4340.46 1042.76 4329.44 1047.61C4318.31 1052.48 4306.57 1054.9 4294.12 1055V1055Z" fill="#060921"/>
</svg>
