<?xml version="1.0" encoding="UTF-8" standalone="no"?>
<svg
   width="354.51599"
   height="91"
   viewBox="0 0 354.51599 91"
   fill="none"
   version="1.1"
   id="svg16"
   xmlns="http://www.w3.org/2000/svg"
   xmlns:svg="http://www.w3.org/2000/svg">
  <defs
     id="defs16" />
  <rect
     x="-2.4934963e-07"
     y="0"
     width="91"
     height="91"
     rx="30"
     fill="#121212"
     id="rect1" />
  <circle
     cx="-45.5"
     cy="45.5"
     r="27"
     transform="scale(-1,1)"
     fill="#313131"
     stroke="#7b7b7b"
     id="circle1" />
  <circle
     cx="-44"
     cy="47"
     r="22.5"
     transform="scale(-1,1)"
     fill="#4c4c4c"
     stroke="#898989"
     id="circle2" />
  <circle
     cx="-42"
     cy="49"
     r="17.5"
     transform="scale(-1,1)"
     fill="#717171"
     stroke="#a2a2a2"
     id="circle3" />
  <circle
     cx="-40.5"
     cy="50.5"
     r="12"
     transform="scale(-1,1)"
     fill="#989898"
     stroke="#c0c0c0"
     id="circle4" />
  <circle
     cx="-38.5"
     cy="52.5"
     r="7"
     transform="scale(-1,1)"
     fill="#bdbdbd"
     stroke="#b8b8b8"
     id="circle5" />
  <circle
     cx="-37"
     cy="54"
     r="4"
     transform="scale(-1,1)"
     fill="#ffffff"
     id="circle6" />
  <path
     d="m 112.823,53.706 c 0,0 0,-0.248 0,-0.743 v -4.198 h 4.942 c 0,0 0,0.25 0,0.75 v 4.191 c 0,0 -0.25,0 -0.75,0 z m 21.177,0 c 0,0 0,-0.248 0,-0.743 v -4.198 h 4.941 c 0,0 0,0.25 0,0.75 v 4.191 c 0,0 -0.25,0 -0.75,0 z m -21.177,-3.53 c 0,0 0,-0.247 0,-0.742 v -4.199 h 4.942 c 0,0 0,0.25 0,0.75 v 4.191 c 0,0 -0.25,0 -0.75,0 z m 21.177,0 c 0,0 0,-0.247 0,-0.742 v -4.199 h 4.941 c 0,0 0,0.25 0,0.75 v 4.191 c 0,0 -0.25,0 -0.75,0 z m -21.177,-3.529 c 0,0 0,-0.247 0,-0.743 v -4.198 h 4.942 c 0,0 0,0.25 0,0.75 v 4.191 c 0,0 -0.25,0 -0.75,0 z m 21.177,0 c 0,0 0,-0.247 0,-0.743 v -4.198 h 4.941 c 0,0 0,0.25 0,0.75 v 4.191 c 0,0 -0.25,0 -0.75,0 z m -21.177,-3.529 c 0,0 0,-0.248 0,-0.743 v -4.199 h 4.942 c 0,0 0,0.25 0,0.75 v 4.192 c 0,0 -0.25,0 -0.75,0 z m 21.177,0 c 0,0 0,-0.248 0,-0.743 v -4.199 h 4.941 c 0,0 0,0.25 0,0.75 v 4.192 c 0,0 -0.25,0 -0.75,0 z m -21.177,-3.53 c 0,0 0,-0.247 0,-0.742 v -4.199 h 4.942 c 0,0 0,0.25 0,0.75 v 4.191 c 0,0 -0.25,0 -0.75,0 z m 10.589,0 c 0,0 0,-0.247 0,-0.742 v -4.199 h 4.941 c 0,0 0,0.25 0,0.75 v 4.191 c 0,0 -0.25,0 -0.75,0 z m 10.588,0 c 0,0 0,-0.247 0,-0.742 v -4.199 h 4.941 c 0,0 0,0.25 0,0.75 v 4.191 c 0,0 -0.25,0 -0.75,0 z m -21.177,-3.529 c 0,0 0,-0.248 0,-0.743 v -4.198 h 4.942 c 0,0 0,0.25 0,0.75 v 4.191 c 0,0 -0.25,0 -0.75,0 z m 8.824,0 c 0,0 0,-0.248 0,-0.743 v -4.198 h 4.941 c 0,0 0,0.25 0,0.75 v 4.191 c 0,0 -0.25,0 -0.75,0 z m 3.529,0 c 0,0 0,-0.248 0,-0.743 v -4.198 h 4.942 c 0,0 0,0.25 0,0.75 v 4.191 c 0,0 -0.25,0 -0.75,0 z m 8.824,0 c 0,0 0,-0.248 0,-0.743 v -4.198 h 4.941 c 0,0 0,0.25 0,0.75 v 4.191 c 0,0 -0.25,0 -0.75,0 z m -21.177,-3.53 c 0,0 0,-0.247 0,-0.742 v -4.199 h 4.942 c 0,0 0,0.25 0,0.75 v 4.191 c 0,0 -0.25,0 -0.75,0 z m 7.059,0 c 0,0 0,-0.247 0,-0.742 v -4.199 h 4.941 c 0,0 0,0.25 0,0.75 v 4.191 c 0,0 -0.25,0 -0.75,0 z m 7.059,0 c 0,0 0,-0.247 0,-0.742 v -4.199 h 4.941 c 0,0 0,0.25 0,0.75 v 4.191 c 0,0 -0.25,0 -0.75,0 z m 7.059,0 c 0,0 0,-0.247 0,-0.742 v -4.199 h 4.941 c 0,0 0,0.25 0,0.75 v 4.191 c 0,0 -0.25,0 -0.75,0 z M 112.823,29 c 0,0 0,-0.248 0,-0.743 v -4.198 h 4.942 c 0,0 0,0.25 0,0.75 V 29 c 0,0 -0.25,0 -0.75,0 z m 5.295,0 c 0,0 0,-0.248 0,-0.743 v -4.198 h 4.941 c 0,0 0,0.25 0,0.75 V 29 c 0,0 -0.25,0 -0.75,0 z m 10.588,0 c 0,0 0,-0.248 0,-0.743 v -4.198 h 4.941 c 0,0 0,0.25 0,0.75 V 29 c 0,0 -0.25,0 -0.75,0 z M 134,29 c 0,0 0,-0.248 0,-0.743 v -4.198 h 4.941 c 0,0 0,0.25 0,0.75 V 29 c 0,0 -0.25,0 -0.75,0 z m -21.177,-3.529 c 0,0 0,-0.248 0,-0.743 v -4.199 h 4.942 c 0,0 0,0.25 0,0.75 v 4.192 c 0,0 -0.25,0 -0.75,0 z m 3.53,0 c 0,0 0,-0.248 0,-0.743 v -4.199 h 4.941 c 0,0 0,0.25 0,0.75 v 4.192 c 0,0 -0.25,0 -0.75,0 z m 14.118,0 c 0,0 0,-0.248 0,-0.743 v -4.199 h 4.941 c 0,0 0,0.25 0,0.75 v 4.192 c 0,0 -0.25,0 -0.75,0 z m 3.529,0 c 0,0 0,-0.248 0,-0.743 v -4.199 h 4.941 c 0,0 0,0.25 0,0.75 v 4.192 c 0,0 -0.25,0 -0.75,0 z m -21.177,-3.53 c 0,0 0,-0.247 0,-0.742 V 17 h 4.942 c 0,0 0,0.25 0,0.75 v 4.191 c 0,0 -0.25,0 -0.75,0 z m 21.177,0 c 0,0 0,-0.247 0,-0.742 V 17 h 4.941 c 0,0 0,0.25 0,0.75 v 4.191 c 0,0 -0.25,0 -0.75,0 z m -21.177,-3.529 c 0,0 0,-0.248 0,-0.743 v -4.198 h 4.942 c 0,0 0,0.25 0,0.75 v 4.191 c 0,0 -0.25,0 -0.75,0 z m 21.177,0 c 0,0 0,-0.248 0,-0.743 v -4.198 h 4.941 c 0,0 0,0.25 0,0.75 v 4.191 c 0,0 -0.25,0 -0.75,0 z"
     fill="#000000"
     id="path6" />
  <path
     d="m 142.817,53.706 c 0,0 0,-0.248 0,-0.743 v -4.198 h 4.941 c 0,0 0,0.25 0,0.75 v 4.191 c 0,0 -0.25,0 -0.75,0 z m 3.529,0 c 0,0 0,-0.248 0,-0.743 v -4.198 h 4.941 c 0,0 0,0.25 0,0.75 v 4.191 c 0,0 -0.25,0 -0.75,0 z m 3.529,0 c 0,0 0,-0.248 0,-0.743 v -4.198 h 4.942 c 0,0 0,0.25 0,0.75 v 4.191 c 0,0 -0.25,0 -0.75,0 z m -3.529,-3.53 c 0,0 0,-0.247 0,-0.742 v -4.199 h 4.941 c 0,0 0,0.25 0,0.75 v 4.191 c 0,0 -0.25,0 -0.75,0 z m 0,-3.529 c 0,0 0,-0.247 0,-0.743 v -4.198 h 4.941 c 0,0 0,0.25 0,0.75 v 4.191 c 0,0 -0.25,0 -0.75,0 z m 0,-3.529 c 0,0 0,-0.248 0,-0.743 v -4.199 h 4.941 c 0,0 0,0.25 0,0.75 v 4.192 c 0,0 -0.25,0 -0.75,0 z m 0,-3.53 c 0,0 0,-0.247 0,-0.742 v -4.199 h 4.941 c 0,0 0,0.25 0,0.75 v 4.191 c 0,0 -0.25,0 -0.75,0 z m 0,-3.529 c 0,0 0,-0.248 0,-0.743 v -4.198 h 4.941 c 0,0 0,0.25 0,0.75 v 4.191 c 0,0 -0.25,0 -0.75,0 z m 0,-3.53 c 0,0 0,-0.247 0,-0.742 v -4.199 h 4.941 c 0,0 0,0.25 0,0.75 v 4.191 c 0,0 -0.25,0 -0.75,0 z m 0,-3.529 c 0,0 0,-0.248 0,-0.743 v -4.198 h 4.941 c 0,0 0,0.25 0,0.75 V 29 c 0,0 -0.25,0 -0.75,0 z m 0,-3.529 c 0,0 0,-0.248 0,-0.743 v -4.199 h 4.941 c 0,0 0,0.25 0,0.75 v 4.192 c 0,0 -0.25,0 -0.75,0 z m 0,-3.53 c 0,0 0,-0.247 0,-0.742 V 17 h 4.941 c 0,0 0,0.25 0,0.75 v 4.191 c 0,0 -0.25,0 -0.75,0 z m -3.529,-3.529 c 0,0 0,-0.248 0,-0.743 v -4.198 h 4.941 c 0,0 0,0.25 0,0.75 v 4.191 c 0,0 -0.25,0 -0.75,0 z m 3.529,0 c 0,0 0,-0.248 0,-0.743 v -4.198 h 4.941 c 0,0 0,0.25 0,0.75 v 4.191 c 0,0 -0.25,0 -0.75,0 z m 3.529,0 c 0,0 0,-0.248 0,-0.743 v -4.198 h 4.942 c 0,0 0,0.25 0,0.75 v 4.191 c 0,0 -0.25,0 -0.75,0 z"
     fill="#000000"
     id="path7" />
  <path
     d="m 158.702,53.706 c 0,0 0,-0.248 0,-0.743 v -4.198 h 4.942 c 0,0 0,0.25 0,0.75 v 4.191 c 0,0 -0.25,0 -0.75,0 z m 17.647,0 c 0,0 0,-0.248 0,-0.743 v -4.198 h 4.942 c 0,0 0,0.25 0,0.75 v 4.191 c 0,0 -0.25,0 -0.75,0 z m -17.647,-3.53 c 0,0 0,-0.247 0,-0.742 v -4.199 h 4.942 c 0,0 0,0.25 0,0.75 v 4.191 c 0,0 -0.25,0 -0.75,0 z m 17.647,0 c 0,0 0,-0.247 0,-0.742 v -4.199 h 4.942 c 0,0 0,0.25 0,0.75 v 4.191 c 0,0 -0.25,0 -0.75,0 z m -17.647,-3.529 c 0,0 0,-0.247 0,-0.743 v -4.198 h 4.942 c 0,0 0,0.25 0,0.75 v 4.191 c 0,0 -0.25,0 -0.75,0 z m 14.118,0 c 0,0 0,-0.247 0,-0.743 v -4.198 h 4.941 c 0,0 0,0.25 0,0.75 v 4.191 c 0,0 -0.25,0 -0.75,0 z m 3.529,0 c 0,0 0,-0.247 0,-0.743 v -4.198 h 4.942 c 0,0 0,0.25 0,0.75 v 4.191 c 0,0 -0.25,0 -0.75,0 z m -17.647,-3.529 c 0,0 0,-0.248 0,-0.743 v -4.199 h 4.942 c 0,0 0,0.25 0,0.75 v 4.192 c 0,0 -0.25,0 -0.75,0 z m 12.353,0 c 0,0 0,-0.248 0,-0.743 v -4.199 h 4.942 c 0,0 0,0.25 0,0.75 v 4.192 c 0,0 -0.25,0 -0.75,0 z m 5.294,0 c 0,0 0,-0.248 0,-0.743 v -4.199 h 4.942 c 0,0 0,0.25 0,0.75 v 4.192 c 0,0 -0.25,0 -0.75,0 z m -17.647,-3.53 c 0,0 0,-0.247 0,-0.742 v -4.199 h 4.942 c 0,0 0,0.25 0,0.75 v 4.191 c 0,0 -0.25,0 -0.75,0 z m 10.589,0 c 0,0 0,-0.247 0,-0.742 v -4.199 h 4.941 c 0,0 0,0.25 0,0.75 v 4.191 c 0,0 -0.25,0 -0.75,0 z m 7.058,0 c 0,0 0,-0.247 0,-0.742 v -4.199 h 4.942 c 0,0 0,0.25 0,0.75 v 4.191 c 0,0 -0.25,0 -0.75,0 z m -17.647,-3.529 c 0,0 0,-0.248 0,-0.743 v -4.198 h 4.942 c 0,0 0,0.25 0,0.75 v 4.191 c 0,0 -0.25,0 -0.75,0 z m 8.824,0 c 0,0 0,-0.248 0,-0.743 v -4.198 h 4.941 c 0,0 0,0.25 0,0.75 v 4.191 c 0,0 -0.25,0 -0.75,0 z m 8.823,0 c 0,0 0,-0.248 0,-0.743 v -4.198 h 4.942 c 0,0 0,0.25 0,0.75 v 4.191 c 0,0 -0.25,0 -0.75,0 z m -17.647,-3.53 c 0,0 0,-0.247 0,-0.742 v -4.199 h 4.942 c 0,0 0,0.25 0,0.75 v 4.191 c 0,0 -0.25,0 -0.75,0 z m 7.059,0 c 0,0 0,-0.247 0,-0.742 v -4.199 h 4.941 c 0,0 0,0.25 0,0.75 v 4.191 c 0,0 -0.25,0 -0.75,0 z m 10.588,0 c 0,0 0,-0.247 0,-0.742 v -4.199 h 4.942 c 0,0 0,0.25 0,0.75 v 4.191 c 0,0 -0.25,0 -0.75,0 z M 158.702,29 c 0,0 0,-0.248 0,-0.743 v -4.198 h 4.942 c 0,0 0,0.25 0,0.75 V 29 c 0,0 -0.25,0 -0.75,0 z m 5.295,0 c 0,0 0,-0.248 0,-0.743 v -4.198 h 4.941 c 0,0 0,0.25 0,0.75 V 29 c 0,0 -0.25,0 -0.75,0 z m 12.352,0 c 0,0 0,-0.248 0,-0.743 v -4.198 h 4.942 c 0,0 0,0.25 0,0.75 V 29 c 0,0 -0.25,0 -0.75,0 z m -17.647,-3.529 c 0,0 0,-0.248 0,-0.743 v -4.199 h 4.942 c 0,0 0,0.25 0,0.75 v 4.192 c 0,0 -0.25,0 -0.75,0 z m 3.53,0 c 0,0 0,-0.248 0,-0.743 v -4.199 h 4.941 c 0,0 0,0.25 0,0.75 v 4.192 c 0,0 -0.25,0 -0.75,0 z m 14.117,0 c 0,0 0,-0.248 0,-0.743 v -4.199 h 4.942 c 0,0 0,0.25 0,0.75 v 4.192 c 0,0 -0.25,0 -0.75,0 z m -17.647,-3.53 c 0,0 0,-0.247 0,-0.742 V 17 h 4.942 c 0,0 0,0.25 0,0.75 v 4.191 c 0,0 -0.25,0 -0.75,0 z m 17.647,0 c 0,0 0,-0.247 0,-0.742 V 17 h 4.942 c 0,0 0,0.25 0,0.75 v 4.191 c 0,0 -0.25,0 -0.75,0 z m -17.647,-3.529 c 0,0 0,-0.248 0,-0.743 v -4.198 h 4.942 c 0,0 0,0.25 0,0.75 v 4.191 c 0,0 -0.25,0 -0.75,0 z m 17.647,0 c 0,0 0,-0.248 0,-0.743 v -4.198 h 4.942 c 0,0 0,0.25 0,0.75 v 4.191 c 0,0 -0.25,0 -0.75,0 z"
     fill="#000000"
     id="path8" />
  <path
     d="m 186.945,53.706 c 0,0 0,-0.248 0,-0.743 v -4.198 h 4.941 c 0,0 0,0.25 0,0.75 v 4.191 c 0,0 -0.25,0 -0.75,0 z m 3.529,0 c 0,0 0,-0.248 0,-0.743 v -4.198 h 4.941 c 0,0 0,0.25 0,0.75 v 4.191 c 0,0 -0.25,0 -0.75,0 z m 3.529,0 c 0,0 0,-0.248 0,-0.743 v -4.198 h 4.942 c 0,0 0,0.25 0,0.75 v 4.191 c 0,0 -0.25,0 -0.75,0 z m 3.53,0 c 0,0 0,-0.248 0,-0.743 v -4.198 h 4.941 c 0,0 0,0.25 0,0.75 v 4.191 c 0,0 -0.25,0 -0.75,0 z m -10.588,-3.53 c 0,0 0,-0.247 0,-0.742 v -4.199 h 4.941 c 0,0 0,0.25 0,0.75 v 4.191 c 0,0 -0.25,0 -0.75,0 z m 14.117,0 c 0,0 0,-0.247 0,-0.742 v -4.199 h 4.941 c 0,0 0,0.25 0,0.75 v 4.191 c 0,0 -0.25,0 -0.75,0 z m -14.117,-3.529 c 0,0 0,-0.247 0,-0.743 v -4.198 h 4.941 c 0,0 0,0.25 0,0.75 v 4.191 c 0,0 -0.25,0 -0.75,0 z m 14.117,0 c 0,0 0,-0.247 0,-0.743 v -4.198 h 4.941 c 0,0 0,0.25 0,0.75 v 4.191 c 0,0 -0.25,0 -0.75,0 z m -14.117,-3.529 c 0,0 0,-0.248 0,-0.743 v -4.199 h 4.941 c 0,0 0,0.25 0,0.75 v 4.192 c 0,0 -0.25,0 -0.75,0 z m 14.117,0 c 0,0 0,-0.248 0,-0.743 v -4.199 h 4.941 c 0,0 0,0.25 0,0.75 v 4.192 c 0,0 -0.25,0 -0.75,0 z m -14.117,-3.53 c 0,0 0,-0.247 0,-0.742 v -4.199 h 4.941 c 0,0 0,0.25 0,0.75 v 4.191 c 0,0 -0.25,0 -0.75,0 z m 14.117,0 c 0,0 0,-0.247 0,-0.742 v -4.199 h 4.941 c 0,0 0,0.25 0,0.75 v 4.191 c 0,0 -0.25,0 -0.75,0 z m -14.117,-3.529 c 0,0 0,-0.248 0,-0.743 v -4.198 h 4.941 c 0,0 0,0.25 0,0.75 v 4.191 c 0,0 -0.25,0 -0.75,0 z m 14.117,0 c 0,0 0,-0.248 0,-0.743 v -4.198 h 4.941 c 0,0 0,0.25 0,0.75 v 4.191 c 0,0 -0.25,0 -0.75,0 z m -14.117,-3.53 c 0,0 0,-0.247 0,-0.742 v -4.199 h 4.941 c 0,0 0,0.25 0,0.75 v 4.191 c 0,0 -0.25,0 -0.75,0 z m 14.117,0 c 0,0 0,-0.247 0,-0.742 v -4.199 h 4.941 c 0,0 0,0.25 0,0.75 v 4.191 c 0,0 -0.25,0 -0.75,0 z M 186.945,29 c 0,0 0,-0.248 0,-0.743 v -4.198 h 4.941 c 0,0 0,0.25 0,0.75 V 29 c 0,0 -0.25,0 -0.75,0 z m 14.117,0 c 0,0 0,-0.248 0,-0.743 v -4.198 h 4.941 c 0,0 0,0.25 0,0.75 V 29 c 0,0 -0.25,0 -0.75,0 z m -14.117,-3.529 c 0,0 0,-0.248 0,-0.743 v -4.199 h 4.941 c 0,0 0,0.25 0,0.75 v 4.192 c 0,0 -0.25,0 -0.75,0 z m 14.117,0 c 0,0 0,-0.248 0,-0.743 v -4.199 h 4.941 c 0,0 0,0.25 0,0.75 v 4.192 c 0,0 -0.25,0 -0.75,0 z m -14.117,-3.53 c 0,0 0,-0.247 0,-0.742 V 17 h 4.941 c 0,0 0,0.25 0,0.75 v 4.191 c 0,0 -0.25,0 -0.75,0 z m 14.117,0 c 0,0 0,-0.247 0,-0.742 V 17 h 4.941 c 0,0 0,0.25 0,0.75 v 4.191 c 0,0 -0.25,0 -0.75,0 z m -14.117,-3.529 c 0,0 0,-0.248 0,-0.743 v -4.198 h 4.941 c 0,0 0,0.25 0,0.75 v 4.191 c 0,0 -0.25,0 -0.75,0 z m 3.529,0 c 0,0 0,-0.248 0,-0.743 v -4.198 h 4.941 c 0,0 0,0.25 0,0.75 v 4.191 c 0,0 -0.25,0 -0.75,0 z m 3.529,0 c 0,0 0,-0.248 0,-0.743 v -4.198 h 4.942 c 0,0 0,0.25 0,0.75 v 4.191 c 0,0 -0.25,0 -0.75,0 z m 3.53,0 c 0,0 0,-0.248 0,-0.743 v -4.198 h 4.941 c 0,0 0,0.25 0,0.75 v 4.191 c 0,0 -0.25,0 -0.75,0 z"
     fill="#000000"
     id="path9" />
  <path
     d="m 222.277,53.706 c 0,0 0,-0.248 0,-0.743 v -4.198 h 4.941 c 0,0 0,0.25 0,0.75 v 4.191 c 0,0 -0.25,0 -0.75,0 z m 0,-3.53 c 0,0 0,-0.247 0,-0.742 v -4.199 h 4.941 c 0,0 0,0.25 0,0.75 v 4.191 c 0,0 -0.25,0 -0.75,0 z m 0,-3.529 c 0,0 0,-0.247 0,-0.743 v -4.198 h 4.941 c 0,0 0,0.25 0,0.75 v 4.191 c 0,0 -0.25,0 -0.75,0 z m 0,-3.529 c 0,0 0,-0.248 0,-0.743 v -4.199 h 4.941 c 0,0 0,0.25 0,0.75 v 4.192 c 0,0 -0.25,0 -0.75,0 z m 0,-3.53 c 0,0 0,-0.247 0,-0.742 v -4.199 h 4.941 c 0,0 0,0.25 0,0.75 v 4.191 c 0,0 -0.25,0 -0.75,0 z m 3.529,0 c 0,0 0,-0.247 0,-0.742 v -4.199 h 4.941 c 0,0 0,0.25 0,0.75 v 4.191 c 0,0 -0.25,0 -0.75,0 z m 3.529,0 c 0,0 0,-0.247 0,-0.742 v -4.199 h 4.942 c 0,0 0,0.25 0,0.75 v 4.191 c 0,0 -0.25,0 -0.75,0 z m 3.53,0 c 0,0 0,-0.247 0,-0.742 v -4.199 h 4.941 c 0,0 0,0.25 0,0.75 v 4.191 c 0,0 -0.25,0 -0.75,0 z m -10.588,-3.529 c 0,0 0,-0.248 0,-0.743 v -4.198 h 4.941 c 0,0 0,0.25 0,0.75 v 4.191 c 0,0 -0.25,0 -0.75,0 z m 14.117,0 c 0,0 0,-0.248 0,-0.743 v -4.198 h 4.941 c 0,0 0,0.25 0,0.75 v 4.191 c 0,0 -0.25,0 -0.75,0 z m -14.117,-3.53 c 0,0 0,-0.247 0,-0.742 v -4.199 h 4.941 c 0,0 0,0.25 0,0.75 v 4.191 c 0,0 -0.25,0 -0.75,0 z m 14.117,0 c 0,0 0,-0.247 0,-0.742 v -4.199 h 4.941 c 0,0 0,0.25 0,0.75 v 4.191 c 0,0 -0.25,0 -0.75,0 z M 222.277,29 c 0,0 0,-0.248 0,-0.743 v -4.198 h 4.941 c 0,0 0,0.25 0,0.75 V 29 c 0,0 -0.25,0 -0.75,0 z m 14.117,0 c 0,0 0,-0.248 0,-0.743 v -4.198 h 4.941 c 0,0 0,0.25 0,0.75 V 29 c 0,0 -0.25,0 -0.75,0 z m -14.117,-3.529 c 0,0 0,-0.248 0,-0.743 v -4.199 h 4.941 c 0,0 0,0.25 0,0.75 v 4.192 c 0,0 -0.25,0 -0.75,0 z m 14.117,0 c 0,0 0,-0.248 0,-0.743 v -4.199 h 4.941 c 0,0 0,0.25 0,0.75 v 4.192 c 0,0 -0.25,0 -0.75,0 z m -14.117,-3.53 c 0,0 0,-0.247 0,-0.742 V 17 h 4.941 c 0,0 0,0.25 0,0.75 v 4.191 c 0,0 -0.25,0 -0.75,0 z m 14.117,0 c 0,0 0,-0.247 0,-0.742 V 17 h 4.941 c 0,0 0,0.25 0,0.75 v 4.191 c 0,0 -0.25,0 -0.75,0 z m -14.117,-3.529 c 0,0 0,-0.248 0,-0.743 v -4.198 h 4.941 c 0,0 0,0.25 0,0.75 v 4.191 c 0,0 -0.25,0 -0.75,0 z m 3.529,0 c 0,0 0,-0.248 0,-0.743 v -4.198 h 4.941 c 0,0 0,0.25 0,0.75 v 4.191 c 0,0 -0.25,0 -0.75,0 z m 3.529,0 c 0,0 0,-0.248 0,-0.743 v -4.198 h 4.942 c 0,0 0,0.25 0,0.75 v 4.191 c 0,0 -0.25,0 -0.75,0 z m 3.53,0 c 0,0 0,-0.248 0,-0.743 v -4.198 h 4.941 c 0,0 0,0.25 0,0.75 v 4.191 c 0,0 -0.25,0 -0.75,0 z"
     fill="#000000"
     id="path10" />
  <path
     d="m 245.245,53.706 c 0,0 0,-0.248 0,-0.743 v -4.198 h 4.942 c 0,0 0,0.25 0,0.75 v 4.191 c 0,0 -0.25,0 -0.75,0 z m 14.118,0 c 0,0 0,-0.248 0,-0.743 v -4.198 h 4.941 c 0,0 0,0.25 0,0.75 v 4.191 c 0,0 -0.25,0 -0.75,0 z m -14.118,-3.53 c 0,0 0,-0.247 0,-0.742 v -4.199 h 4.942 c 0,0 0,0.25 0,0.75 v 4.191 c 0,0 -0.25,0 -0.75,0 z m 14.118,0 c 0,0 0,-0.247 0,-0.742 v -4.199 h 4.941 c 0,0 0,0.25 0,0.75 v 4.191 c 0,0 -0.25,0 -0.75,0 z m -14.118,-3.529 c 0,0 0,-0.247 0,-0.743 v -4.198 h 4.942 c 0,0 0,0.25 0,0.75 v 4.191 c 0,0 -0.25,0 -0.75,0 z m 14.118,0 c 0,0 0,-0.247 0,-0.743 v -4.198 h 4.941 c 0,0 0,0.25 0,0.75 v 4.191 c 0,0 -0.25,0 -0.75,0 z m -14.118,-3.529 c 0,0 0,-0.248 0,-0.743 v -4.199 h 4.942 c 0,0 0,0.25 0,0.75 v 4.192 c 0,0 -0.25,0 -0.75,0 z m 3.53,0 c 0,0 0,-0.248 0,-0.743 v -4.199 h 4.941 c 0,0 0,0.25 0,0.75 v 4.192 c 0,0 -0.25,0 -0.75,0 z m 3.529,0 c 0,0 0,-0.248 0,-0.743 v -4.199 h 4.941 c 0,0 0,0.25 0,0.75 v 4.192 c 0,0 -0.25,0 -0.75,0 z m 3.53,0 c 0,0 0,-0.248 0,-0.743 v -4.199 h 4.941 c 0,0 0,0.25 0,0.75 v 4.192 c 0,0 -0.25,0 -0.75,0 z m 3.529,0 c 0,0 0,-0.248 0,-0.743 v -4.199 h 4.941 c 0,0 0,0.25 0,0.75 v 4.192 c 0,0 -0.25,0 -0.75,0 z m -14.118,-3.53 c 0,0 0,-0.247 0,-0.742 v -4.199 h 4.942 c 0,0 0,0.25 0,0.75 v 4.191 c 0,0 -0.25,0 -0.75,0 z m 14.118,0 c 0,0 0,-0.247 0,-0.742 v -4.199 h 4.941 c 0,0 0,0.25 0,0.75 v 4.191 c 0,0 -0.25,0 -0.75,0 z m -14.118,-3.529 c 0,0 0,-0.248 0,-0.743 v -4.198 h 4.942 c 0,0 0,0.25 0,0.75 v 4.191 c 0,0 -0.25,0 -0.75,0 z m 14.118,0 c 0,0 0,-0.248 0,-0.743 v -4.198 h 4.941 c 0,0 0,0.25 0,0.75 v 4.191 c 0,0 -0.25,0 -0.75,0 z m -14.118,-3.53 c 0,0 0,-0.247 0,-0.742 v -4.199 h 4.942 c 0,0 0,0.25 0,0.75 v 4.191 c 0,0 -0.25,0 -0.75,0 z m 14.118,0 c 0,0 0,-0.247 0,-0.742 v -4.199 h 4.941 c 0,0 0,0.25 0,0.75 v 4.191 c 0,0 -0.25,0 -0.75,0 z M 245.245,29 c 0,0 0,-0.248 0,-0.743 v -4.198 h 4.942 c 0,0 0,0.25 0,0.75 V 29 c 0,0 -0.25,0 -0.75,0 z m 14.118,0 c 0,0 0,-0.248 0,-0.743 v -4.198 h 4.941 c 0,0 0,0.25 0,0.75 V 29 c 0,0 -0.25,0 -0.75,0 z M 247.01,25.471 c 0,0 0,-0.248 0,-0.743 v -4.199 h 4.941 c 0,0 0,0.25 0,0.75 v 4.192 c 0,0 -0.25,0 -0.75,0 z m 10.588,0 c 0,0 0,-0.248 0,-0.743 v -4.199 h 4.941 c 0,0 0,0.25 0,0.75 v 4.192 c 0,0 -0.25,0 -0.75,0 z m -8.823,-3.53 c 0,0 0,-0.247 0,-0.742 V 17 h 4.941 c 0,0 0,0.25 0,0.75 v 4.191 c 0,0 -0.25,0 -0.75,0 z m 7.059,0 c 0,0 0,-0.247 0,-0.742 V 17 h 4.941 c 0,0 0,0.25 0,0.75 v 4.191 c 0,0 -0.25,0 -0.75,0 z m -5.295,-3.529 c 0,0 0,-0.248 0,-0.743 v -4.198 h 4.942 c 0,0 0,0.25 0,0.75 v 4.191 c 0,0 -0.25,0 -0.75,0 z m 3.53,0 c 0,0 0,-0.248 0,-0.743 v -4.198 h 4.941 c 0,0 0,0.25 0,0.75 v 4.191 c 0,0 -0.25,0 -0.75,0 z"
     fill="#000000"
     id="path11" />
  <path
     d="m 269.972,53.706 c 0,0 0,-0.248 0,-0.743 v -4.198 h 4.941 c 0,0 0,0.25 0,0.75 v 4.191 c 0,0 -0.25,0 -0.75,0 z m 3.529,0 c 0,0 0,-0.248 0,-0.743 v -4.198 h 4.942 c 0,0 0,0.25 0,0.75 v 4.191 c 0,0 -0.25,0 -0.75,0 z m 3.53,0 c 0,0 0,-0.248 0,-0.743 v -4.198 h 4.941 c 0,0 0,0.25 0,0.75 v 4.191 c 0,0 -0.25,0 -0.75,0 z m 3.529,0 c 0,0 0,-0.248 0,-0.743 v -4.198 h 4.941 c 0,0 0,0.25 0,0.75 v 4.191 c 0,0 -0.25,0 -0.75,0 z m -10.588,-3.53 c 0,0 0,-0.247 0,-0.742 v -4.199 h 4.941 c 0,0 0,0.25 0,0.75 v 4.191 c 0,0 -0.25,0 -0.75,0 z m 0,-3.529 c 0,0 0,-0.247 0,-0.743 v -4.198 h 4.941 c 0,0 0,0.25 0,0.75 v 4.191 c 0,0 -0.25,0 -0.75,0 z m 0,-3.529 c 0,0 0,-0.248 0,-0.743 v -4.199 h 4.941 c 0,0 0,0.25 0,0.75 v 4.192 c 0,0 -0.25,0 -0.75,0 z m 0,-3.53 c 0,0 0,-0.247 0,-0.742 v -4.199 h 4.941 c 0,0 0,0.25 0,0.75 v 4.191 c 0,0 -0.25,0 -0.75,0 z m 0,-3.529 c 0,0 0,-0.248 0,-0.743 v -4.198 h 4.941 c 0,0 0,0.25 0,0.75 v 4.191 c 0,0 -0.25,0 -0.75,0 z m 0,-3.53 c 0,0 0,-0.247 0,-0.742 v -4.199 h 4.941 c 0,0 0,0.25 0,0.75 v 4.191 c 0,0 -0.25,0 -0.75,0 z m 0,-3.529 c 0,0 0,-0.248 0,-0.743 v -4.198 h 4.941 c 0,0 0,0.25 0,0.75 V 29 c 0,0 -0.25,0 -0.75,0 z m 0,-3.529 c 0,0 0,-0.248 0,-0.743 v -4.199 h 4.941 c 0,0 0,0.25 0,0.75 v 4.192 c 0,0 -0.25,0 -0.75,0 z m 0,-3.53 c 0,0 0,-0.247 0,-0.742 V 17 h 4.941 c 0,0 0,0.25 0,0.75 v 4.191 c 0,0 -0.25,0 -0.75,0 z m 0,-3.529 c 0,0 0,-0.248 0,-0.743 v -4.198 h 4.941 c 0,0 0,0.25 0,0.75 v 4.191 c 0,0 -0.25,0 -0.75,0 z"
     fill="#000000"
     id="path12" />
  <path
     d="m 289.366,53.706 c 0,0 0,-0.248 0,-0.743 v -4.198 h 4.942 c 0,0 0,0.25 0,0.75 v 4.191 c 0,0 -0.25,0 -0.75,0 z m 14.118,0 c 0,0 0,-0.248 0,-0.743 v -4.198 h 4.941 c 0,0 0,0.25 0,0.75 v 4.191 c 0,0 -0.25,0 -0.75,0 z m -14.118,-3.53 c 0,0 0,-0.247 0,-0.742 v -4.199 h 4.942 c 0,0 0,0.25 0,0.75 v 4.191 c 0,0 -0.25,0 -0.75,0 z m 14.118,0 c 0,0 0,-0.247 0,-0.742 v -4.199 h 4.941 c 0,0 0,0.25 0,0.75 v 4.191 c 0,0 -0.25,0 -0.75,0 z m -14.118,-3.529 c 0,0 0,-0.247 0,-0.743 v -4.198 h 4.942 c 0,0 0,0.25 0,0.75 v 4.191 c 0,0 -0.25,0 -0.75,0 z m 14.118,0 c 0,0 0,-0.247 0,-0.743 v -4.198 h 4.941 c 0,0 0,0.25 0,0.75 v 4.191 c 0,0 -0.25,0 -0.75,0 z m -14.118,-3.529 c 0,0 0,-0.248 0,-0.743 v -4.199 h 4.942 c 0,0 0,0.25 0,0.75 v 4.192 c 0,0 -0.25,0 -0.75,0 z m 3.53,0 c 0,0 0,-0.248 0,-0.743 v -4.199 h 4.941 c 0,0 0,0.25 0,0.75 v 4.192 c 0,0 -0.25,0 -0.75,0 z m 3.529,0 c 0,0 0,-0.248 0,-0.743 v -4.199 h 4.941 c 0,0 0,0.25 0,0.75 v 4.192 c 0,0 -0.25,0 -0.75,0 z m 3.53,0 c 0,0 0,-0.248 0,-0.743 v -4.199 h 4.941 c 0,0 0,0.25 0,0.75 v 4.192 c 0,0 -0.25,0 -0.75,0 z m 3.529,0 c 0,0 0,-0.248 0,-0.743 v -4.199 h 4.941 c 0,0 0,0.25 0,0.75 v 4.192 c 0,0 -0.25,0 -0.75,0 z m -14.118,-3.53 c 0,0 0,-0.247 0,-0.742 v -4.199 h 4.942 c 0,0 0,0.25 0,0.75 v 4.191 c 0,0 -0.25,0 -0.75,0 z m 14.118,0 c 0,0 0,-0.247 0,-0.742 v -4.199 h 4.941 c 0,0 0,0.25 0,0.75 v 4.191 c 0,0 -0.25,0 -0.75,0 z m -14.118,-3.529 c 0,0 0,-0.248 0,-0.743 v -4.198 h 4.942 c 0,0 0,0.25 0,0.75 v 4.191 c 0,0 -0.25,0 -0.75,0 z m 14.118,0 c 0,0 0,-0.248 0,-0.743 v -4.198 h 4.941 c 0,0 0,0.25 0,0.75 v 4.191 c 0,0 -0.25,0 -0.75,0 z m -14.118,-3.53 c 0,0 0,-0.247 0,-0.742 v -4.199 h 4.942 c 0,0 0,0.25 0,0.75 v 4.191 c 0,0 -0.25,0 -0.75,0 z m 14.118,0 c 0,0 0,-0.247 0,-0.742 v -4.199 h 4.941 c 0,0 0,0.25 0,0.75 v 4.191 c 0,0 -0.25,0 -0.75,0 z M 289.366,29 c 0,0 0,-0.248 0,-0.743 v -4.198 h 4.942 c 0,0 0,0.25 0,0.75 V 29 c 0,0 -0.25,0 -0.75,0 z m 14.118,0 c 0,0 0,-0.248 0,-0.743 v -4.198 h 4.941 c 0,0 0,0.25 0,0.75 V 29 c 0,0 -0.25,0 -0.75,0 z m -12.353,-3.529 c 0,0 0,-0.248 0,-0.743 v -4.199 h 4.941 c 0,0 0,0.25 0,0.75 v 4.192 c 0,0 -0.25,0 -0.75,0 z m 10.588,0 c 0,0 0,-0.248 0,-0.743 v -4.199 h 4.942 c 0,0 0,0.25 0,0.75 v 4.192 c 0,0 -0.25,0 -0.75,0 z m -8.823,-3.53 c 0,0 0,-0.247 0,-0.742 V 17 h 4.941 c 0,0 0,0.25 0,0.75 v 4.191 c 0,0 -0.25,0 -0.75,0 z m 7.059,0 c 0,0 0,-0.247 0,-0.742 V 17 h 4.941 c 0,0 0,0.25 0,0.75 v 4.191 c 0,0 -0.25,0 -0.75,0 z m -5.294,-3.529 c 0,0 0,-0.248 0,-0.743 v -4.198 h 4.941 c 0,0 0,0.25 0,0.75 v 4.191 c 0,0 -0.25,0 -0.75,0 z m 3.529,0 c 0,0 0,-0.248 0,-0.743 v -4.198 h 4.941 c 0,0 0,0.25 0,0.75 v 4.191 c 0,0 -0.25,0 -0.75,0 z"
     fill="#000000"
     id="path13" />
  <path
     d="m 317.622,53.706 c 0,0 0,-0.248 0,-0.743 v -4.198 h 4.942 c 0,0 0,0.25 0,0.75 v 4.191 c 0,0 -0.25,0 -0.75,0 z m 3.53,0 c 0,0 0,-0.248 0,-0.743 v -4.198 h 4.941 c 0,0 0,0.25 0,0.75 v 4.191 c 0,0 -0.25,0 -0.75,0 z m 3.529,0 c 0,0 0,-0.248 0,-0.743 v -4.198 h 4.941 c 0,0 0,0.25 0,0.75 v 4.191 c 0,0 -0.25,0 -0.75,0 z m -10.588,-3.53 c 0,0 0,-0.247 0,-0.742 v -4.199 h 4.941 c 0,0 0,0.25 0,0.75 v 4.191 c 0,0 -0.25,0 -0.75,0 z m 14.118,0 c 0,0 0,-0.247 0,-0.742 v -4.199 h 4.941 c 0,0 0,0.25 0,0.75 v 4.191 c 0,0 -0.25,0 -0.75,0 z m -14.118,-3.529 c 0,0 0,-0.247 0,-0.743 v -4.198 h 4.941 c 0,0 0,0.25 0,0.75 v 4.191 c 0,0 -0.25,0 -0.75,0 z m 14.118,0 c 0,0 0,-0.247 0,-0.743 v -4.198 h 4.941 c 0,0 0,0.25 0,0.75 v 4.191 c 0,0 -0.25,0 -0.75,0 z m -14.118,-3.529 c 0,0 0,-0.248 0,-0.743 v -4.199 h 4.941 c 0,0 0,0.25 0,0.75 v 4.192 c 0,0 -0.25,0 -0.75,0 z m 0,-3.53 c 0,0 0,-0.247 0,-0.742 v -4.199 h 4.941 c 0,0 0,0.25 0,0.75 v 4.191 c 0,0 -0.25,0 -0.75,0 z m 0,-3.529 c 0,0 0,-0.248 0,-0.743 v -4.198 h 4.941 c 0,0 0,0.25 0,0.75 v 4.191 c 0,0 -0.25,0 -0.75,0 z m 0,-3.53 c 0,0 0,-0.247 0,-0.742 v -4.199 h 4.941 c 0,0 0,0.25 0,0.75 v 4.191 c 0,0 -0.25,0 -0.75,0 z m 0,-3.529 c 0,0 0,-0.248 0,-0.743 v -4.198 h 4.941 c 0,0 0,0.25 0,0.75 V 29 c 0,0 -0.25,0 -0.75,0 z m 0,-3.529 c 0,0 0,-0.248 0,-0.743 v -4.199 h 4.941 c 0,0 0,0.25 0,0.75 v 4.192 c 0,0 -0.25,0 -0.75,0 z m 14.118,0 c 0,0 0,-0.248 0,-0.743 v -4.199 h 4.941 c 0,0 0,0.25 0,0.75 v 4.192 c 0,0 -0.25,0 -0.75,0 z m -14.118,-3.53 c 0,0 0,-0.247 0,-0.742 V 17 h 4.941 c 0,0 0,0.25 0,0.75 v 4.191 c 0,0 -0.25,0 -0.75,0 z m 14.118,0 c 0,0 0,-0.247 0,-0.742 V 17 h 4.941 c 0,0 0,0.25 0,0.75 v 4.191 c 0,0 -0.25,0 -0.75,0 z m -10.589,-3.529 c 0,0 0,-0.248 0,-0.743 v -4.198 h 4.942 c 0,0 0,0.25 0,0.75 v 4.191 c 0,0 -0.25,0 -0.75,0 z m 3.53,0 c 0,0 0,-0.248 0,-0.743 v -4.198 h 4.941 c 0,0 0,0.25 0,0.75 v 4.191 c 0,0 -0.25,0 -0.75,0 z m 3.529,0 c 0,0 0,-0.248 0,-0.743 v -4.198 h 4.941 c 0,0 0,0.25 0,0.75 v 4.191 c 0,0 -0.25,0 -0.75,0 z"
     fill="#000000"
     id="path14" />
  <path
     d="m 338.82,53.706 c 0,0 0,-0.248 0,-0.743 v -4.198 h 4.941 c 0,0 0,0.25 0,0.75 v 4.191 c 0,0 -0.25,0 -0.75,0 z m 3.529,0 c 0,0 0,-0.248 0,-0.743 v -4.198 h 4.941 c 0,0 0,0.25 0,0.75 v 4.191 c 0,0 -0.25,0 -0.75,0 z m 3.529,0 c 0,0 0,-0.248 0,-0.743 v -4.198 h 4.942 c 0,0 0,0.25 0,0.75 v 4.191 c 0,0 -0.25,0 -0.75,0 z m 3.53,0 c 0,0 0,-0.248 0,-0.743 v -4.198 h 4.941 c 0,0 0,0.25 0,0.75 v 4.191 c 0,0 -0.25,0 -0.75,0 z m -10.588,-3.53 c 0,0 0,-0.247 0,-0.742 v -4.199 h 4.941 c 0,0 0,0.25 0,0.75 v 4.191 c 0,0 -0.25,0 -0.75,0 z m 0,-3.529 c 0,0 0,-0.247 0,-0.743 v -4.198 h 4.941 c 0,0 0,0.25 0,0.75 v 4.191 c 0,0 -0.25,0 -0.75,0 z m 0,-3.529 c 0,0 0,-0.248 0,-0.743 v -4.199 h 4.941 c 0,0 0,0.25 0,0.75 v 4.192 c 0,0 -0.25,0 -0.75,0 z m 0,-3.53 c 0,0 0,-0.247 0,-0.742 v -4.199 h 4.941 c 0,0 0,0.25 0,0.75 v 4.191 c 0,0 -0.25,0 -0.75,0 z m 0,-3.529 c 0,0 0,-0.248 0,-0.743 v -4.198 h 4.941 c 0,0 0,0.25 0,0.75 v 4.191 c 0,0 -0.25,0 -0.75,0 z m 3.529,0 c 0,0 0,-0.248 0,-0.743 v -4.198 h 4.941 c 0,0 0,0.25 0,0.75 v 4.191 c 0,0 -0.25,0 -0.75,0 z m 3.529,0 c 0,0 0,-0.248 0,-0.743 v -4.198 h 4.942 c 0,0 0,0.25 0,0.75 v 4.191 c 0,0 -0.25,0 -0.75,0 z m 3.53,0 c 0,0 0,-0.248 0,-0.743 v -4.198 h 4.941 c 0,0 0,0.25 0,0.75 v 4.191 c 0,0 -0.25,0 -0.75,0 z m -10.588,-3.53 c 0,0 0,-0.247 0,-0.742 v -4.199 h 4.941 c 0,0 0,0.25 0,0.75 v 4.191 c 0,0 -0.25,0 -0.75,0 z m 0,-3.529 c 0,0 0,-0.248 0,-0.743 v -4.198 h 4.941 c 0,0 0,0.25 0,0.75 V 29 c 0,0 -0.25,0 -0.75,0 z m 0,-3.529 c 0,0 0,-0.248 0,-0.743 v -4.199 h 4.941 c 0,0 0,0.25 0,0.75 v 4.192 c 0,0 -0.25,0 -0.75,0 z m 0,-3.53 c 0,0 0,-0.247 0,-0.742 V 17 h 4.941 c 0,0 0,0.25 0,0.75 v 4.191 c 0,0 -0.25,0 -0.75,0 z m 0,-3.529 c 0,0 0,-0.248 0,-0.743 v -4.198 h 4.941 c 0,0 0,0.25 0,0.75 v 4.191 c 0,0 -0.25,0 -0.75,0 z m 3.529,0 c 0,0 0,-0.248 0,-0.743 v -4.198 h 4.941 c 0,0 0,0.25 0,0.75 v 4.191 c 0,0 -0.25,0 -0.75,0 z m 3.529,0 c 0,0 0,-0.248 0,-0.743 v -4.198 h 4.942 c 0,0 0,0.25 0,0.75 v 4.191 c 0,0 -0.25,0 -0.75,0 z m 3.53,0 c 0,0 0,-0.248 0,-0.743 v -4.198 h 4.941 c 0,0 0,0.25 0,0.75 v 4.191 c 0,0 -0.25,0 -0.75,0 z"
     fill="#000000"
     id="path15" />
  <path
     d="m 115.038,72.526 h 0.502 c 0.19,0 0.345,-0.025 0.465,-0.075 0.12,-0.055 0.228,-0.14 0.323,-0.255 l 3.27,-3.9 c 0.115,-0.145 0.232,-0.245 0.352,-0.3 0.125,-0.06 0.28,-0.09 0.465,-0.09 h 1.5 l -3.862,4.56 c -0.105,0.13 -0.208,0.24 -0.308,0.33 -0.095,0.085 -0.2,0.155 -0.315,0.21 0.15,0.055 0.285,0.132 0.405,0.232 0.12,0.095 0.238,0.223 0.353,0.383 l 4.005,5.085 h -1.53 c -0.11,0 -0.205,-0.008 -0.285,-0.023 -0.075,-0.015 -0.143,-0.037 -0.203,-0.067 -0.055,-0.03 -0.105,-0.068 -0.15,-0.113 -0.04,-0.045 -0.077,-0.095 -0.112,-0.15 l -3.375,-4.125 c -0.05,-0.065 -0.1,-0.12 -0.15,-0.165 -0.05,-0.045 -0.11,-0.082 -0.18,-0.112 -0.065,-0.03 -0.14,-0.05 -0.225,-0.06 -0.085,-0.015 -0.185,-0.023 -0.3,-0.023 h -0.645 v 4.838 h -1.755 v -10.8 h 1.755 z m 22.407,-4.62 v 10.8 h -0.893 c -0.135,0 -0.25,-0.023 -0.345,-0.068 -0.095,-0.05 -0.185,-0.13 -0.27,-0.24 l -5.932,-7.62 c 0.015,0.145 0.025,0.29 0.03,0.435 0.01,0.14 0.015,0.27 0.015,0.39 v 7.103 h -1.545 v -10.8 h 0.915 c 0.075,0 0.137,0.005 0.187,0.015 0.055,0.005 0.105,0.017 0.15,0.037 0.045,0.02 0.088,0.05 0.128,0.09 0.04,0.04 0.082,0.09 0.127,0.15 l 5.94,7.628 c -0.015,-0.155 -0.027,-0.308 -0.037,-0.458 -0.005,-0.15 -0.008,-0.29 -0.008,-0.42 v -7.042 z m 17.821,5.4 c 0,0.8 -0.13,1.537 -0.39,2.212 -0.26,0.675 -0.628,1.258 -1.103,1.748 -0.47,0.485 -1.037,0.865 -1.702,1.14 -0.66,0.275 -1.395,0.412 -2.205,0.412 -0.805,0 -1.54,-0.137 -2.205,-0.412 -0.66,-0.275 -1.228,-0.655 -1.703,-1.14 -0.475,-0.49 -0.842,-1.073 -1.102,-1.748 -0.26,-0.675 -0.39,-1.412 -0.39,-2.212 0,-0.8 0.13,-1.538 0.39,-2.213 0.26,-0.675 0.627,-1.257 1.102,-1.747 0.475,-0.49 1.043,-0.873 1.703,-1.148 0.665,-0.275 1.4,-0.412 2.205,-0.412 0.81,0 1.545,0.137 2.205,0.412 0.665,0.275 1.232,0.658 1.702,1.148 0.475,0.49 0.843,1.072 1.103,1.747 0.26,0.675 0.39,1.413 0.39,2.213 z m -1.793,0 c 0,-0.62 -0.085,-1.178 -0.255,-1.673 -0.165,-0.495 -0.405,-0.915 -0.72,-1.26 -0.31,-0.345 -0.687,-0.61 -1.132,-0.795 -0.445,-0.185 -0.945,-0.277 -1.5,-0.277 -0.55,0 -1.048,0.092 -1.493,0.277 -0.445,0.185 -0.825,0.45 -1.14,0.795 -0.315,0.345 -0.557,0.765 -0.727,1.26 -0.17,0.495 -0.255,1.053 -0.255,1.673 0,0.625 0.085,1.185 0.255,1.68 0.17,0.495 0.412,0.915 0.727,1.26 0.315,0.34 0.695,0.602 1.14,0.787 0.445,0.18 0.943,0.27 1.493,0.27 0.555,0 1.055,-0.09 1.5,-0.27 0.445,-0.185 0.822,-0.447 1.132,-0.787 0.315,-0.345 0.555,-0.765 0.72,-1.26 0.17,-0.495 0.255,-1.055 0.255,-1.68 z m 22.823,-5.4 -3.36,10.8 h -1.583 l -2.535,-7.755 c -0.03,-0.085 -0.06,-0.178 -0.09,-0.278 -0.025,-0.1 -0.05,-0.207 -0.075,-0.322 -0.025,0.115 -0.052,0.222 -0.082,0.322 -0.025,0.1 -0.053,0.193 -0.083,0.278 l -2.557,7.755 h -1.583 l -3.36,-10.8 h 1.47 c 0.15,0 0.275,0.037 0.375,0.112 0.105,0.07 0.175,0.168 0.21,0.293 l 2.025,6.922 c 0.04,0.15 0.078,0.313 0.113,0.488 0.035,0.175 0.07,0.357 0.105,0.547 0.035,-0.19 0.072,-0.372 0.112,-0.547 0.045,-0.18 0.093,-0.343 0.143,-0.488 l 2.317,-6.922 c 0.035,-0.1 0.105,-0.193 0.21,-0.278 0.105,-0.085 0.23,-0.127 0.375,-0.127 h 0.51 c 0.155,0 0.28,0.04 0.375,0.12 0.095,0.075 0.168,0.17 0.218,0.285 l 2.31,6.922 c 0.05,0.145 0.095,0.303 0.135,0.473 0.045,0.165 0.085,0.34 0.12,0.525 0.035,-0.185 0.067,-0.36 0.097,-0.525 0.035,-0.17 0.073,-0.328 0.113,-0.473 l 2.017,-6.922 c 0.03,-0.11 0.098,-0.205 0.203,-0.285 0.11,-0.08 0.237,-0.12 0.382,-0.12 z m 8.324,10.8 h -1.763 v -10.8 h 1.763 z m 16.599,-10.8 v 10.8 h -0.893 c -0.135,0 -0.25,-0.023 -0.345,-0.068 -0.095,-0.05 -0.185,-0.13 -0.27,-0.24 l -5.932,-7.62 c 0.015,0.145 0.025,0.29 0.03,0.435 0.01,0.14 0.015,0.27 0.015,0.39 v 7.103 h -1.545 v -10.8 h 0.915 c 0.075,0 0.137,0.005 0.187,0.015 0.055,0.005 0.105,0.017 0.15,0.037 0.045,0.02 0.088,0.05 0.128,0.09 0.04,0.04 0.082,0.09 0.127,0.15 l 5.94,7.628 c -0.015,-0.155 -0.027,-0.308 -0.037,-0.458 -0.005,-0.15 -0.008,-0.29 -0.008,-0.42 v -7.042 z m 16.516,5.482 v 4.275 c -1.075,0.775 -2.325,1.163 -3.75,1.163 -0.875,0 -1.668,-0.135 -2.378,-0.405 -0.705,-0.275 -1.307,-0.655 -1.807,-1.14 -0.5,-0.49 -0.885,-1.073 -1.155,-1.748 -0.27,-0.675 -0.405,-1.417 -0.405,-2.227 0,-0.815 0.13,-1.56 0.39,-2.235 0.26,-0.68 0.632,-1.263 1.117,-1.748 0.485,-0.49 1.07,-0.867 1.755,-1.132 0.685,-0.27 1.455,-0.405 2.31,-0.405 0.435,0 0.838,0.035 1.208,0.105 0.375,0.065 0.722,0.157 1.042,0.277 0.32,0.12 0.615,0.265 0.885,0.435 0.27,0.17 0.518,0.36 0.743,0.57 l -0.503,0.803 c -0.08,0.125 -0.182,0.202 -0.307,0.232 -0.125,0.03 -0.26,0 -0.405,-0.09 -0.145,-0.085 -0.3,-0.175 -0.465,-0.27 -0.16,-0.095 -0.345,-0.182 -0.555,-0.262 -0.21,-0.085 -0.453,-0.153 -0.728,-0.203 -0.275,-0.055 -0.6,-0.082 -0.975,-0.082 -0.57,0 -1.085,0.095 -1.545,0.285 -0.455,0.185 -0.845,0.452 -1.17,0.802 -0.325,0.345 -0.575,0.765 -0.75,1.26 -0.175,0.495 -0.262,1.048 -0.262,1.658 0,0.645 0.092,1.222 0.277,1.732 0.185,0.505 0.448,0.935 0.788,1.29 0.34,0.35 0.75,0.618 1.23,0.803 0.485,0.185 1.025,0.277 1.62,0.277 0.445,0 0.84,-0.047 1.185,-0.142 0.35,-0.095 0.692,-0.228 1.027,-0.398 v -2.145 h -1.507 c -0.115,0 -0.205,-0.03 -0.27,-0.09 -0.065,-0.065 -0.098,-0.147 -0.098,-0.247 v -0.998 z m 17.768,5.318 h -1.762 v -10.8 h 1.762 z m 13.306,-8.955 c -0.055,0.09 -0.112,0.157 -0.172,0.202 -0.06,0.04 -0.135,0.06 -0.225,0.06 -0.095,0 -0.203,-0.04 -0.323,-0.12 -0.115,-0.08 -0.26,-0.167 -0.435,-0.262 -0.17,-0.1 -0.372,-0.19 -0.607,-0.27 -0.235,-0.085 -0.515,-0.128 -0.84,-0.128 -0.3,0 -0.565,0.038 -0.795,0.113 -0.225,0.075 -0.415,0.18 -0.57,0.315 -0.155,0.135 -0.273,0.295 -0.353,0.48 -0.075,0.18 -0.112,0.377 -0.112,0.592 0,0.275 0.072,0.505 0.217,0.69 0.145,0.18 0.335,0.335 0.57,0.465 0.24,0.13 0.513,0.245 0.818,0.345 0.305,0.095 0.615,0.198 0.93,0.308 0.32,0.11 0.632,0.235 0.937,0.375 0.305,0.14 0.575,0.317 0.81,0.532 0.24,0.215 0.433,0.478 0.578,0.788 0.145,0.31 0.217,0.687 0.217,1.132 0,0.48 -0.082,0.93 -0.247,1.35 -0.165,0.42 -0.405,0.788 -0.72,1.103 -0.31,0.31 -0.695,0.555 -1.155,0.735 -0.455,0.18 -0.975,0.27 -1.56,0.27 -0.345,0 -0.683,-0.035 -1.013,-0.105 -0.325,-0.065 -0.637,-0.158 -0.937,-0.278 -0.295,-0.125 -0.573,-0.275 -0.833,-0.45 -0.26,-0.175 -0.492,-0.37 -0.697,-0.585 l 0.51,-0.84 c 0.045,-0.07 0.102,-0.125 0.172,-0.165 0.07,-0.04 0.148,-0.06 0.233,-0.06 0.115,0 0.242,0.055 0.382,0.165 0.14,0.105 0.308,0.223 0.503,0.353 0.2,0.125 0.44,0.242 0.72,0.352 0.28,0.105 0.615,0.158 1.005,0.158 0.635,0 1.125,-0.155 1.47,-0.465 0.35,-0.31 0.525,-0.738 0.525,-1.283 0,-0.305 -0.073,-0.552 -0.218,-0.742 -0.145,-0.195 -0.337,-0.358 -0.577,-0.488 -0.235,-0.13 -0.505,-0.24 -0.81,-0.33 -0.305,-0.09 -0.615,-0.185 -0.93,-0.285 -0.315,-0.105 -0.625,-0.225 -0.93,-0.36 -0.305,-0.14 -0.578,-0.32 -0.818,-0.54 -0.235,-0.225 -0.425,-0.5 -0.57,-0.825 -0.145,-0.33 -0.217,-0.74 -0.217,-1.23 0,-0.39 0.075,-0.767 0.225,-1.132 0.155,-0.365 0.377,-0.688 0.667,-0.968 0.295,-0.285 0.658,-0.512 1.088,-0.682 0.43,-0.17 0.92,-0.255 1.47,-0.255 0.62,0 1.187,0.097 1.702,0.292 0.52,0.195 0.968,0.473 1.343,0.833 z m 26.624,3.555 c 0,0.8 -0.13,1.537 -0.39,2.212 -0.26,0.675 -0.627,1.258 -1.102,1.748 -0.47,0.485 -1.038,0.865 -1.703,1.14 -0.66,0.275 -1.395,0.412 -2.205,0.412 -0.805,0 -1.54,-0.137 -2.205,-0.412 -0.66,-0.275 -1.227,-0.655 -1.702,-1.14 -0.475,-0.49 -0.843,-1.073 -1.103,-1.748 -0.26,-0.675 -0.39,-1.412 -0.39,-2.212 0,-0.8 0.13,-1.538 0.39,-2.213 0.26,-0.675 0.628,-1.257 1.103,-1.747 0.475,-0.49 1.042,-0.873 1.702,-1.148 0.665,-0.275 1.4,-0.412 2.205,-0.412 0.81,0 1.545,0.137 2.205,0.412 0.665,0.275 1.233,0.658 1.703,1.148 0.475,0.49 0.842,1.072 1.102,1.747 0.26,0.675 0.39,1.413 0.39,2.213 z m -1.792,0 c 0,-0.62 -0.085,-1.178 -0.255,-1.673 -0.165,-0.495 -0.405,-0.915 -0.72,-1.26 -0.31,-0.345 -0.688,-0.61 -1.133,-0.795 -0.445,-0.185 -0.945,-0.277 -1.5,-0.277 -0.55,0 -1.047,0.092 -1.492,0.277 -0.445,0.185 -0.825,0.45 -1.14,0.795 -0.315,0.345 -0.558,0.765 -0.728,1.26 -0.17,0.495 -0.255,1.053 -0.255,1.673 0,0.625 0.085,1.185 0.255,1.68 0.17,0.495 0.413,0.915 0.728,1.26 0.315,0.34 0.695,0.602 1.14,0.787 0.445,0.18 0.942,0.27 1.492,0.27 0.555,0 1.055,-0.09 1.5,-0.27 0.445,-0.185 0.823,-0.447 1.133,-0.787 0.315,-0.345 0.555,-0.765 0.72,-1.26 0.17,-0.495 0.255,-1.055 0.255,-1.68 z m 22.822,-5.4 -3.36,10.8 h -1.582 l -2.535,-7.755 c -0.03,-0.085 -0.06,-0.178 -0.09,-0.278 -0.025,-0.1 -0.05,-0.207 -0.075,-0.322 -0.025,0.115 -0.053,0.222 -0.083,0.322 -0.025,0.1 -0.052,0.193 -0.082,0.278 l -2.558,7.755 h -1.582 l -3.36,-10.8 h 1.47 c 0.15,0 0.275,0.037 0.375,0.112 0.105,0.07 0.175,0.168 0.21,0.293 l 2.025,6.922 c 0.04,0.15 0.077,0.313 0.112,0.488 0.035,0.175 0.07,0.357 0.105,0.547 0.035,-0.19 0.073,-0.372 0.113,-0.547 0.045,-0.18 0.092,-0.343 0.142,-0.488 l 2.318,-6.922 c 0.035,-0.1 0.105,-0.193 0.21,-0.278 0.105,-0.085 0.23,-0.127 0.375,-0.127 h 0.51 c 0.155,0 0.28,0.04 0.375,0.12 0.095,0.075 0.167,0.17 0.217,0.285 l 2.31,6.922 c 0.05,0.145 0.095,0.303 0.135,0.473 0.045,0.165 0.085,0.34 0.12,0.525 0.035,-0.185 0.068,-0.36 0.098,-0.525 0.035,-0.17 0.072,-0.328 0.112,-0.473 l 2.018,-6.922 c 0.03,-0.11 0.097,-0.205 0.202,-0.285 0.11,-0.08 0.238,-0.12 0.383,-0.12 z m 15.502,0 v 10.8 h -0.893 c -0.135,0 -0.25,-0.023 -0.345,-0.068 -0.095,-0.05 -0.185,-0.13 -0.27,-0.24 l -5.932,-7.62 c 0.015,0.145 0.025,0.29 0.03,0.435 0.01,0.14 0.015,0.27 0.015,0.39 v 7.103 h -1.545 v -10.8 h 0.915 c 0.075,0 0.137,0.005 0.187,0.015 0.055,0.005 0.105,0.017 0.15,0.037 0.045,0.02 0.088,0.05 0.128,0.09 0.04,0.04 0.082,0.09 0.127,0.15 l 5.94,7.628 c -0.015,-0.155 -0.027,-0.308 -0.037,-0.458 -0.005,-0.15 -0.008,-0.29 -0.008,-0.42 v -7.042 z m 9.436,10.8 h -1.762 v -10.8 h 1.762 z M 338,67.906 v 10.8 h -0.893 c -0.135,0 -0.25,-0.023 -0.345,-0.068 -0.095,-0.05 -0.185,-0.13 -0.27,-0.24 l -5.932,-7.62 c 0.015,0.145 0.025,0.29 0.03,0.435 0.01,0.14 0.015,0.27 0.015,0.39 v 7.103 h -1.545 v -10.8 h 0.915 c 0.075,0 0.137,0.005 0.187,0.015 0.055,0.005 0.105,0.017 0.15,0.037 0.045,0.02 0.088,0.05 0.128,0.09 0.04,0.04 0.082,0.09 0.127,0.15 l 5.94,7.628 c -0.015,-0.155 -0.027,-0.308 -0.037,-0.458 -0.005,-0.15 -0.008,-0.29 -0.008,-0.42 v -7.042 z m 16.516,5.482 v 4.275 c -1.075,0.775 -2.325,1.163 -3.75,1.163 -0.875,0 -1.667,-0.135 -2.377,-0.405 -0.705,-0.275 -1.308,-0.655 -1.808,-1.14 -0.5,-0.49 -0.885,-1.073 -1.155,-1.748 -0.27,-0.675 -0.405,-1.417 -0.405,-2.227 0,-0.815 0.13,-1.56 0.39,-2.235 0.26,-0.68 0.633,-1.263 1.118,-1.748 0.485,-0.49 1.07,-0.867 1.755,-1.132 0.685,-0.27 1.455,-0.405 2.31,-0.405 0.435,0 0.837,0.035 1.207,0.105 0.375,0.065 0.723,0.157 1.043,0.277 0.32,0.12 0.615,0.265 0.885,0.435 0.27,0.17 0.517,0.36 0.742,0.57 l -0.502,0.803 c -0.08,0.125 -0.183,0.202 -0.308,0.232 -0.125,0.03 -0.26,0 -0.405,-0.09 -0.145,-0.085 -0.3,-0.175 -0.465,-0.27 -0.16,-0.095 -0.345,-0.182 -0.555,-0.262 -0.21,-0.085 -0.452,-0.153 -0.727,-0.203 -0.275,-0.055 -0.6,-0.082 -0.975,-0.082 -0.57,0 -1.085,0.095 -1.545,0.285 -0.455,0.185 -0.845,0.452 -1.17,0.802 -0.325,0.345 -0.575,0.765 -0.75,1.26 -0.175,0.495 -0.263,1.048 -0.263,1.658 0,0.645 0.093,1.222 0.278,1.732 0.185,0.505 0.447,0.935 0.787,1.29 0.34,0.35 0.75,0.618 1.23,0.803 0.485,0.185 1.025,0.277 1.62,0.277 0.445,0 0.84,-0.047 1.185,-0.142 0.35,-0.095 0.693,-0.228 1.028,-0.398 v -2.145 h -1.508 c -0.115,0 -0.205,-0.03 -0.27,-0.09 -0.065,-0.065 -0.097,-0.147 -0.097,-0.247 v -0.998 z"
     fill="#f3358a"
     id="path16" />
</svg>
