<svg width="227" height="68" viewBox="0 0 227 68" fill="none" xmlns="http://www.w3.org/2000/svg">
<path d="M20.0888 43.4294C19.8903 44.18 19.245 44.3616 18.6741 43.8289L7.34453 33.5141C6.7613 32.9815 6.88539 32.3156 7.62994 32.025L23.5262 25.8265C24.2707 25.5359 24.705 25.9234 24.5065 26.674L20.0888 43.4294Z" fill="url(#paint0_linear_3185_23100)"/>
<path d="M10.7322 53.2357C10.1242 53.7441 9.51614 53.5383 9.37964 52.7635L6.27734 35.996C6.14084 35.2333 6.50071 35.0396 7.08394 35.5723L17.8675 45.3906C18.4508 45.9233 18.4384 46.7708 17.8303 47.2793L10.7322 53.2357Z" fill="url(#paint1_linear_3185_23100)"/>
<path d="M23.7371 22.4851C24.2583 23.0783 24.0722 23.7926 23.34 24.0832L7.53067 30.2454C6.78612 30.5359 6.41384 30.1728 6.68684 29.4464L13.1769 12.4246C13.4499 11.6982 14.1076 11.5771 14.6287 12.1704L23.7371 22.4851Z" fill="url(#paint2_linear_3185_23100)"/>
<path d="M7.18321 50.3785C7.31971 51.1412 7.08394 51.2381 6.64961 50.5843L0.519462 41.3471C0.0851396 40.6933 0.122367 39.6521 0.593917 39.0226L3.33635 35.4391C3.8079 34.8217 4.31668 34.9306 4.46559 35.6933L7.18321 50.3785Z" fill="url(#paint3_linear_3185_23100)"/>
<path d="M5.24737 28.4052C4.97437 29.1316 4.54005 29.1316 4.27946 28.3931L2.1823 22.2672C1.93411 21.5287 2.20712 20.4996 2.80276 19.9791L10.2731 13.381C10.8687 12.8604 11.1169 13.0299 10.8439 13.7563L5.24737 28.4052Z" fill="url(#paint4_linear_3185_23100)"/>
<path d="M3.27431 30.766C3.52249 31.5045 3.34876 32.6183 2.8648 33.2357L0.730419 36.0444C0.258869 36.6618 -0.063771 36.5408 0.0106843 35.766L1.04065 26.0323C1.12751 25.2575 1.40052 25.2333 1.6487 25.9718L3.27431 30.766Z" fill="url(#paint5_linear_3185_23100)"/>
<path d="M11.7002 8.85318C11.9608 9.15584 11.7002 9.8217 11.1045 10.3544L7.75404 13.3205C7.15839 13.8411 7.07153 13.7563 7.54308 13.1389L10.36 9.4464C10.8315 8.81686 11.4396 8.55052 11.7002 8.85318Z" fill="url(#paint6_linear_3185_23100)"/>
<path d="M32.8951 60.6448C32.498 61.3107 31.7907 61.347 31.344 60.7054L22.5582 48.2357C22.1115 47.594 22.3845 47.0008 23.1787 46.9282L40.8246 45.1485C41.6188 45.0638 41.9414 45.548 41.5319 46.226L32.8951 60.6448Z" fill="url(#paint7_linear_3185_23100)"/>
<path d="M29.222 60.657C29.6687 61.2986 29.4205 61.6134 28.676 61.3712L12.1345 55.887C11.3775 55.6328 11.2534 55.0153 11.8615 54.5068L18.9471 48.5504C19.5552 48.042 20.4114 48.1509 20.8706 48.7926L29.222 60.657Z" fill="url(#paint8_linear_3185_23100)"/>
<path d="M41.1969 42.2551C41.7181 42.8483 41.4947 43.3931 40.7005 43.4778L22.794 45.2817C21.9998 45.3664 21.5159 44.8095 21.7144 44.0589L26.1941 27.0493C26.3927 26.2987 26.9759 26.1655 27.4971 26.7466L41.1969 42.2551Z" fill="url(#paint9_linear_3185_23100)"/>
<path d="M54.0528 56.8313C54.574 57.4245 54.363 58.0298 53.5813 58.1993L35.3645 61.9402C34.5828 62.0976 34.2725 61.686 34.682 61.008L43.2692 46.6739C43.6663 46.0081 44.4233 45.9354 44.9445 46.5286L54.0528 56.8313Z" fill="url(#paint10_linear_3185_23100)"/>
<path d="M24.7547 66.3954C24.0473 66.7586 22.9926 66.6376 22.3969 66.1291L13.9338 58.841C13.3382 58.3204 13.4623 58.1146 14.2192 58.3567L28.6884 63.1509C29.4453 63.4051 29.4826 63.9015 28.7877 64.2768L24.7547 66.3954Z" fill="url(#paint11_linear_3185_23100)"/>
<path d="M44.3984 67.0855C43.778 67.5819 42.6984 67.6908 41.9787 67.3398L36.0843 64.41C35.3769 64.0589 35.4266 63.6351 36.2084 63.4778L51.906 60.2574C52.6878 60.1 52.8243 60.3664 52.2038 60.8628L44.3984 67.0855Z" fill="url(#paint12_linear_3185_23100)"/>
<path d="M27.9686 67.4366C27.1745 67.4003 27.1 67.0734 27.7949 66.6981L30.9593 65.0395C31.6666 64.6763 32.8206 64.6642 33.528 65.0153L38.1442 67.3034C38.8515 67.6545 38.7895 67.9208 37.9829 67.8845L27.9686 67.4366Z" fill="url(#paint13_linear_3185_23100)"/>
<path d="M56.9938 60.1485C57.2544 60.4511 56.9069 60.9959 56.1996 61.3591L52.0425 63.5262C51.3352 63.8894 51.2732 63.7925 51.8812 63.2962L55.393 60.4996C56.0011 60.0032 56.7208 59.8458 56.9938 60.1485Z" fill="url(#paint14_linear_3185_23100)"/>
<path d="M46.4708 42.0734C45.7262 42.364 45.2919 41.9766 45.4905 41.226L49.9081 24.4706C50.1067 23.72 50.752 23.5384 51.3352 24.0711L62.6648 34.3858C63.248 34.9185 63.124 35.5844 62.3794 35.8749L46.4708 42.0734Z" fill="url(#paint15_linear_3185_23100)"/>
<path d="M63.732 31.904C63.8685 32.6667 63.5086 32.8604 62.9254 32.3277L52.1418 22.5093C51.5586 21.9766 51.571 21.1292 52.179 20.6207L59.2647 14.6643C59.8728 14.1558 60.4808 14.3616 60.6173 15.1365L63.732 31.904Z" fill="url(#paint16_linear_3185_23100)"/>
<path d="M56.8201 55.4754C56.5471 56.2018 55.8894 56.3228 55.3682 55.7296L46.2598 45.4148C45.7386 44.8216 45.9248 44.1073 46.6569 43.8168L62.4663 37.6546C63.2108 37.364 63.5831 37.7272 63.3101 38.4536L56.8201 55.4754Z" fill="url(#paint17_linear_3185_23100)"/>
<path d="M69.4775 26.5529C69.9118 27.2067 69.8746 28.2478 69.403 28.8774L66.6606 32.4488C66.189 33.0662 65.6803 32.9572 65.5313 32.1945L62.8137 17.5214C62.6772 16.7587 62.913 16.6619 63.3473 17.3156L69.4775 26.5529Z" fill="url(#paint18_linear_3185_23100)"/>
<path d="M67.8022 45.6449C68.0504 46.3834 67.7774 47.4124 67.1818 47.933L59.7114 54.5311C59.1158 55.0516 58.8676 54.8821 59.1406 54.1558L64.7372 39.4948C65.0102 38.7684 65.4445 38.7684 65.7051 39.5069L67.8022 45.6449Z" fill="url(#paint19_linear_3185_23100)"/>
<path d="M68.9687 41.8555C68.8818 42.6304 68.6088 42.6546 68.3606 41.9161L66.7226 37.1219C66.4744 36.3834 66.6606 35.2696 67.1321 34.6522L69.2789 31.8434C69.7505 31.226 70.0731 31.3471 69.9987 32.1219L68.9687 41.8555Z" fill="url(#paint20_linear_3185_23100)"/>
<path d="M59.637 58.4536C59.1654 59.0831 58.5574 59.3373 58.2844 59.0468C58.0238 58.7441 58.2844 58.0783 58.88 57.5456L62.2429 54.5795C62.8386 54.0589 62.9254 54.1437 62.4539 54.7611L59.637 58.4536Z" fill="url(#paint21_linear_3185_23100)"/>
<path d="M47.4387 19.6643C47.8854 20.3059 47.6124 20.8992 46.8182 20.9718L29.1723 22.7515C28.3782 22.8362 28.0555 22.3519 28.465 21.674L37.1018 7.25512C37.4989 6.58926 38.2063 6.55294 38.653 7.19459L47.4387 19.6643Z" fill="url(#paint22_linear_3185_23100)"/>
<path d="M51.0498 19.3495C50.4417 19.858 49.5855 19.749 49.1264 19.1074L40.775 7.24301C40.3282 6.60137 40.5764 6.2866 41.321 6.52873L57.8625 12.013C58.6194 12.2672 58.7435 12.8846 58.1354 13.3931L51.0498 19.3495Z" fill="url(#paint23_linear_3185_23100)"/>
<path d="M43.8028 40.8507C43.6043 41.6013 43.021 41.7345 42.4998 41.1534L28.8125 25.6449C28.2913 25.0517 28.5147 24.5069 29.3088 24.4222L47.2153 22.6183C48.0095 22.5335 48.4935 23.0904 48.2949 23.841L43.8028 40.8507Z" fill="url(#paint24_linear_3185_23100)"/>
<path d="M26.7277 21.2381C26.3306 21.904 25.5737 21.9766 25.0525 21.3834L15.9441 11.0687C15.4229 10.4755 15.6339 9.87012 16.4157 9.70063L34.6324 5.95972C35.4142 5.80234 35.7244 6.21396 35.3149 6.89192L26.7277 21.2381Z" fill="url(#paint25_linear_3185_23100)"/>
<path d="M41.3086 4.74907C40.5516 4.49483 40.5144 3.99847 41.2093 3.62316L45.2423 1.51663C45.9496 1.15344 47.0044 1.2745 47.6124 1.78297L56.0631 9.07109C56.6588 9.59167 56.5347 9.79749 55.7777 9.55536L41.3086 4.74907Z" fill="url(#paint26_linear_3185_23100)"/>
<path d="M18.0909 7.64253C17.3091 7.79991 17.1726 7.53357 17.7931 7.0372L25.5861 0.814454C26.2065 0.318087 27.2861 0.209128 28.0059 0.560217L33.9127 3.48999C34.62 3.84108 34.5703 4.26481 33.7886 4.42219L18.0909 7.64253Z" fill="url(#paint27_linear_3185_23100)"/>
<path d="M39.0501 2.84835C38.3427 3.21154 37.1887 3.22365 36.4814 2.87256L31.8651 0.58443C31.1578 0.233341 31.2199 -0.0330021 32.0265 0.00331742L42.0407 0.451258C42.8349 0.487578 42.9093 0.814454 42.2144 1.18976L39.0501 2.84835Z" fill="url(#paint28_linear_3185_23100)"/>
<path d="M14.6163 7.4004C13.9959 7.89676 13.2761 8.05415 13.0155 7.75149C12.755 7.44882 13.1024 6.90403 13.8097 6.54083L17.9668 4.37377C18.6741 4.01057 18.7362 4.10742 18.1281 4.60379L14.6163 7.4004Z" fill="url(#paint29_linear_3185_23100)"/>
<path d="M9.28037 56.6739C9.5906 56.4197 10.2731 56.6739 10.8191 57.255L13.8594 60.5359C14.393 61.117 14.3061 61.2017 13.6732 60.7417L9.87601 57.9935C9.24314 57.5335 8.97014 56.9402 9.28037 56.6739Z" fill="url(#paint30_linear_3185_23100)"/>
<path d="M61.8458 12.4972C62.156 12.243 62.7145 12.582 63.0867 13.2721L65.308 17.3277C65.6803 18.0178 65.581 18.0783 65.0722 17.4851L62.2057 14.059C61.7093 13.4658 61.548 12.7515 61.8458 12.4972Z" fill="url(#paint31_linear_3185_23100)"/>
<path d="M60.1209 9.90644C60.7662 10.3665 61.0268 10.9597 60.729 11.2261C60.4187 11.4803 59.7362 11.2261 59.1902 10.6449L56.15 7.36408C55.6164 6.78297 55.7032 6.69822 56.3361 7.15827L60.1209 9.90644Z" fill="url(#paint32_linear_3185_23100)"/>
<path d="M7.79126 53.841C8.30004 54.4463 8.46136 55.1485 8.15113 55.4027C7.8409 55.657 7.28248 55.318 6.91021 54.6279L4.68896 50.5722C4.31668 49.8822 4.41596 49.8216 4.92473 50.4148L7.79126 53.841Z" fill="url(#paint33_linear_3185_23100)"/>
<path d="M111.212 20.491C113.674 21.8767 115.623 23.7534 117.057 26.1037C118.492 28.4716 119.218 31.0674 119.218 33.8913C119.218 36.7152 118.492 39.3286 117.057 41.714C115.623 44.0994 113.657 45.9936 111.212 47.3968C108.75 48.8 106.058 49.5016 103.1 49.5016C100.16 49.5016 97.4495 48.8 94.9875 47.3968C92.5254 45.9936 90.577 44.0994 89.1423 41.714C87.7075 39.3286 86.9813 36.7152 86.9813 33.8913C86.9813 31.0674 87.7075 28.4716 89.1423 26.1037C90.577 23.7359 92.5431 21.8767 94.9875 20.491C97.4495 19.1054 100.142 18.4214 103.1 18.4214C106.058 18.4038 108.75 19.1054 111.212 20.491ZM96.617 22.8238C94.6155 23.9639 93.0213 25.5074 91.8523 27.4543C90.6656 29.4012 90.081 31.5585 90.081 33.8913C90.081 36.2241 90.6656 38.3815 91.8523 40.3634C93.0213 42.3454 94.6155 43.9064 96.617 45.064C98.6185 46.2216 100.797 46.8004 103.153 46.8004C105.473 46.8004 107.634 46.2216 109.618 45.064C111.602 43.9064 113.196 42.3454 114.365 40.3634C115.534 38.3815 116.136 36.2241 116.136 33.8913C116.136 31.0499 115.251 28.4716 113.497 26.1914C112.647 25.0864 111.602 24.1042 110.433 23.3325C108.219 21.8591 105.792 21.1225 103.153 21.1225C100.797 21.1225 98.6185 21.6838 96.617 22.8238Z" fill="#6089DC"/>
<path d="M151.881 48.607L145.646 39.276C144.707 39.3286 143.981 39.3636 143.485 39.3636H135V47.8178C135 48.607 134.363 49.2385 133.566 49.2385H133.389C132.591 49.2385 131.954 48.607 131.954 47.8178V18.6669H143.485C147.346 18.6669 150.322 19.5439 152.43 21.3154C154.537 23.0869 155.583 25.5775 155.583 28.8224C155.583 31.3656 154.963 33.4704 153.723 35.1717C152.483 36.8555 150.712 38.0482 148.427 38.7147L154.272 47.0109C154.945 47.958 154.254 49.256 153.085 49.256C152.607 49.256 152.146 49.0104 151.881 48.607ZM143.485 36.645C146.425 36.645 148.692 35.9785 150.286 34.6631C151.881 33.33 152.678 31.4182 152.678 28.9101C152.678 26.4545 151.881 24.5953 150.286 23.3149C148.692 22.0345 146.425 21.3856 143.485 21.3856H135V36.645H143.485Z" fill="#6089DC"/>
<path d="M190.105 20.6664C191.858 22.017 192.726 23.8937 192.726 26.2791C192.726 28.0857 192.212 29.6116 191.203 30.8219C190.193 32.0496 188.758 32.8565 186.934 33.2248C189.201 33.523 190.972 34.3473 192.23 35.7154C193.488 37.0835 194.125 38.8199 194.125 40.9247C194.125 43.5556 193.133 45.5902 191.167 47.046C189.201 48.5018 186.456 49.2385 182.949 49.2385H169.877V18.6319H182.825C185.924 18.6319 188.351 19.2983 190.105 20.6664ZM187.784 30.7166C188.989 29.7695 189.591 28.419 189.591 26.665C189.591 24.9812 188.989 23.6657 187.784 22.7361C186.58 21.8065 184.879 21.3505 182.701 21.3856H172.941V32.1373H182.701C184.879 32.1373 186.58 31.6638 187.784 30.7166ZM188.865 44.9763C190.317 43.9415 191.043 42.4857 191.043 40.6265C191.043 38.7849 190.299 37.3642 188.829 36.3469C187.359 35.3296 185.304 34.8209 182.683 34.8209H172.923V46.5373H182.683C185.358 46.5373 187.412 46.0112 188.865 44.9763Z" fill="#6089DC"/>
<path d="M220.659 21.8416C219.153 21.4206 217.736 21.2102 216.426 21.2102C214.3 21.2102 212.6 21.6311 211.324 22.4555C210.049 23.2798 209.411 24.4199 209.411 25.8406C209.411 27.1035 209.766 28.1208 210.474 28.91C211.183 29.6993 212.051 30.3132 213.078 30.7693C214.105 31.2253 215.522 31.7164 217.311 32.2777C219.401 32.8915 221.084 33.4879 222.377 34.0842C223.652 34.6806 224.75 35.5576 225.654 36.6801C226.557 37.8202 227 39.3286 227 41.1878C227 42.8189 226.539 44.2572 225.601 45.5201C224.68 46.7829 223.369 47.7476 221.686 48.4316C220.004 49.1157 218.073 49.4665 215.894 49.4665C213.751 49.4665 211.643 49.0455 209.606 48.2036C207.959 47.5196 206.489 46.6602 205.213 45.6253C204.682 45.1868 204.558 44.4501 204.877 43.8538C205.302 43.0996 206.294 42.9067 206.967 43.4329C208.047 44.2748 209.234 44.9588 210.545 45.5025C212.369 46.2567 214.158 46.6426 215.93 46.6426C218.285 46.6426 220.163 46.169 221.545 45.2219C222.926 44.2747 223.617 42.9944 223.617 41.3982C223.617 40.1179 223.263 39.0655 222.554 38.2411C221.846 37.4168 220.978 36.8029 219.95 36.3644C218.923 35.9259 217.471 35.4173 215.628 34.8384C213.538 34.1895 211.856 33.5931 210.598 33.0319C209.323 32.4706 208.26 31.6111 207.374 30.4886C206.489 29.3661 206.046 27.8928 206.046 26.0862C206.046 24.5427 206.489 23.1921 207.374 22.017C208.26 20.8594 209.5 19.9473 211.094 19.3334C212.688 18.702 214.53 18.3863 216.62 18.3863C218.303 18.3863 219.986 18.6318 221.686 19.1229C222.855 19.4737 223.936 19.8947 224.928 20.3858C225.636 20.7366 225.92 21.5785 225.565 22.2801L225.53 22.3678C225.176 23.0694 224.308 23.3325 223.599 22.9641C222.643 22.5081 221.668 22.1398 220.659 21.8416Z" fill="#6089DC"/>
<defs>
<linearGradient id="paint0_linear_3185_23100" x1="35.0047" y1="2.99805e-09" x2="35.0703" y2="82.6942" gradientUnits="userSpaceOnUse">
<stop stop-color="#DA88DE"/>
<stop offset="0.373617" stop-color="#5E75E8"/>
<stop offset="1" stop-color="#80C6EB"/>
</linearGradient>
<linearGradient id="paint1_linear_3185_23100" x1="35.0047" y1="2.99805e-09" x2="35.0703" y2="82.6942" gradientUnits="userSpaceOnUse">
<stop stop-color="#DA88DE"/>
<stop offset="0.373617" stop-color="#5E75E8"/>
<stop offset="1" stop-color="#80C6EB"/>
</linearGradient>
<linearGradient id="paint2_linear_3185_23100" x1="35.0047" y1="2.99805e-09" x2="35.0703" y2="82.6942" gradientUnits="userSpaceOnUse">
<stop stop-color="#DA88DE"/>
<stop offset="0.373617" stop-color="#5E75E8"/>
<stop offset="1" stop-color="#80C6EB"/>
</linearGradient>
<linearGradient id="paint3_linear_3185_23100" x1="35.0047" y1="2.99805e-09" x2="35.0703" y2="82.6942" gradientUnits="userSpaceOnUse">
<stop stop-color="#DA88DE"/>
<stop offset="0.373617" stop-color="#5E75E8"/>
<stop offset="1" stop-color="#80C6EB"/>
</linearGradient>
<linearGradient id="paint4_linear_3185_23100" x1="35.0047" y1="2.99805e-09" x2="35.0703" y2="82.6942" gradientUnits="userSpaceOnUse">
<stop stop-color="#DA88DE"/>
<stop offset="0.373617" stop-color="#5E75E8"/>
<stop offset="1" stop-color="#80C6EB"/>
</linearGradient>
<linearGradient id="paint5_linear_3185_23100" x1="35.0047" y1="2.99805e-09" x2="35.0703" y2="82.6942" gradientUnits="userSpaceOnUse">
<stop stop-color="#DA88DE"/>
<stop offset="0.373617" stop-color="#5E75E8"/>
<stop offset="1" stop-color="#80C6EB"/>
</linearGradient>
<linearGradient id="paint6_linear_3185_23100" x1="35.0047" y1="2.99805e-09" x2="35.0703" y2="82.6942" gradientUnits="userSpaceOnUse">
<stop stop-color="#DA88DE"/>
<stop offset="0.373617" stop-color="#5E75E8"/>
<stop offset="1" stop-color="#80C6EB"/>
</linearGradient>
<linearGradient id="paint7_linear_3185_23100" x1="35.0047" y1="2.99805e-09" x2="35.0703" y2="82.6942" gradientUnits="userSpaceOnUse">
<stop stop-color="#DA88DE"/>
<stop offset="0.373617" stop-color="#5E75E8"/>
<stop offset="1" stop-color="#80C6EB"/>
</linearGradient>
<linearGradient id="paint8_linear_3185_23100" x1="35.0047" y1="2.99805e-09" x2="35.0703" y2="82.6942" gradientUnits="userSpaceOnUse">
<stop stop-color="#DA88DE"/>
<stop offset="0.373617" stop-color="#5E75E8"/>
<stop offset="1" stop-color="#80C6EB"/>
</linearGradient>
<linearGradient id="paint9_linear_3185_23100" x1="35.0047" y1="2.99805e-09" x2="35.0703" y2="82.6942" gradientUnits="userSpaceOnUse">
<stop stop-color="#DA88DE"/>
<stop offset="0.373617" stop-color="#5E75E8"/>
<stop offset="1" stop-color="#80C6EB"/>
</linearGradient>
<linearGradient id="paint10_linear_3185_23100" x1="35.0047" y1="2.99805e-09" x2="35.0703" y2="82.6942" gradientUnits="userSpaceOnUse">
<stop stop-color="#DA88DE"/>
<stop offset="0.373617" stop-color="#5E75E8"/>
<stop offset="1" stop-color="#80C6EB"/>
</linearGradient>
<linearGradient id="paint11_linear_3185_23100" x1="35.0047" y1="2.99805e-09" x2="35.0703" y2="82.6942" gradientUnits="userSpaceOnUse">
<stop stop-color="#DA88DE"/>
<stop offset="0.373617" stop-color="#5E75E8"/>
<stop offset="1" stop-color="#80C6EB"/>
</linearGradient>
<linearGradient id="paint12_linear_3185_23100" x1="35.0047" y1="2.99805e-09" x2="35.0703" y2="82.6942" gradientUnits="userSpaceOnUse">
<stop stop-color="#DA88DE"/>
<stop offset="0.373617" stop-color="#5E75E8"/>
<stop offset="1" stop-color="#80C6EB"/>
</linearGradient>
<linearGradient id="paint13_linear_3185_23100" x1="35.0047" y1="2.99805e-09" x2="35.0703" y2="82.6942" gradientUnits="userSpaceOnUse">
<stop stop-color="#DA88DE"/>
<stop offset="0.373617" stop-color="#5E75E8"/>
<stop offset="1" stop-color="#80C6EB"/>
</linearGradient>
<linearGradient id="paint14_linear_3185_23100" x1="35.0047" y1="2.99805e-09" x2="35.0703" y2="82.6942" gradientUnits="userSpaceOnUse">
<stop stop-color="#DA88DE"/>
<stop offset="0.373617" stop-color="#5E75E8"/>
<stop offset="1" stop-color="#80C6EB"/>
</linearGradient>
<linearGradient id="paint15_linear_3185_23100" x1="35.0047" y1="2.99805e-09" x2="35.0703" y2="82.6942" gradientUnits="userSpaceOnUse">
<stop stop-color="#DA88DE"/>
<stop offset="0.373617" stop-color="#5E75E8"/>
<stop offset="1" stop-color="#80C6EB"/>
</linearGradient>
<linearGradient id="paint16_linear_3185_23100" x1="35.0047" y1="2.99805e-09" x2="35.0703" y2="82.6942" gradientUnits="userSpaceOnUse">
<stop stop-color="#DA88DE"/>
<stop offset="0.373617" stop-color="#5E75E8"/>
<stop offset="1" stop-color="#80C6EB"/>
</linearGradient>
<linearGradient id="paint17_linear_3185_23100" x1="35.0047" y1="2.99805e-09" x2="35.0703" y2="82.6942" gradientUnits="userSpaceOnUse">
<stop stop-color="#DA88DE"/>
<stop offset="0.373617" stop-color="#5E75E8"/>
<stop offset="1" stop-color="#80C6EB"/>
</linearGradient>
<linearGradient id="paint18_linear_3185_23100" x1="35.0047" y1="2.99805e-09" x2="35.0703" y2="82.6942" gradientUnits="userSpaceOnUse">
<stop stop-color="#DA88DE"/>
<stop offset="0.373617" stop-color="#5E75E8"/>
<stop offset="1" stop-color="#80C6EB"/>
</linearGradient>
<linearGradient id="paint19_linear_3185_23100" x1="35.0047" y1="2.99805e-09" x2="35.0703" y2="82.6942" gradientUnits="userSpaceOnUse">
<stop stop-color="#DA88DE"/>
<stop offset="0.373617" stop-color="#5E75E8"/>
<stop offset="1" stop-color="#80C6EB"/>
</linearGradient>
<linearGradient id="paint20_linear_3185_23100" x1="35.0047" y1="2.99805e-09" x2="35.0703" y2="82.6942" gradientUnits="userSpaceOnUse">
<stop stop-color="#DA88DE"/>
<stop offset="0.373617" stop-color="#5E75E8"/>
<stop offset="1" stop-color="#80C6EB"/>
</linearGradient>
<linearGradient id="paint21_linear_3185_23100" x1="35.0047" y1="2.99805e-09" x2="35.0703" y2="82.6942" gradientUnits="userSpaceOnUse">
<stop stop-color="#DA88DE"/>
<stop offset="0.373617" stop-color="#5E75E8"/>
<stop offset="1" stop-color="#80C6EB"/>
</linearGradient>
<linearGradient id="paint22_linear_3185_23100" x1="35.0047" y1="2.99805e-09" x2="35.0703" y2="82.6942" gradientUnits="userSpaceOnUse">
<stop stop-color="#DA88DE"/>
<stop offset="0.373617" stop-color="#5E75E8"/>
<stop offset="1" stop-color="#80C6EB"/>
</linearGradient>
<linearGradient id="paint23_linear_3185_23100" x1="35.0047" y1="2.99805e-09" x2="35.0703" y2="82.6942" gradientUnits="userSpaceOnUse">
<stop stop-color="#DA88DE"/>
<stop offset="0.373617" stop-color="#5E75E8"/>
<stop offset="1" stop-color="#80C6EB"/>
</linearGradient>
<linearGradient id="paint24_linear_3185_23100" x1="35.0047" y1="2.99805e-09" x2="35.0703" y2="82.6942" gradientUnits="userSpaceOnUse">
<stop stop-color="#DA88DE"/>
<stop offset="0.373617" stop-color="#5E75E8"/>
<stop offset="1" stop-color="#80C6EB"/>
</linearGradient>
<linearGradient id="paint25_linear_3185_23100" x1="35.0047" y1="2.99805e-09" x2="35.0703" y2="82.6942" gradientUnits="userSpaceOnUse">
<stop stop-color="#DA88DE"/>
<stop offset="0.373617" stop-color="#5E75E8"/>
<stop offset="1" stop-color="#80C6EB"/>
</linearGradient>
<linearGradient id="paint26_linear_3185_23100" x1="35.0047" y1="2.99805e-09" x2="35.0703" y2="82.6942" gradientUnits="userSpaceOnUse">
<stop stop-color="#DA88DE"/>
<stop offset="0.373617" stop-color="#5E75E8"/>
<stop offset="1" stop-color="#80C6EB"/>
</linearGradient>
<linearGradient id="paint27_linear_3185_23100" x1="35.0047" y1="2.99805e-09" x2="35.0703" y2="82.6942" gradientUnits="userSpaceOnUse">
<stop stop-color="#DA88DE"/>
<stop offset="0.373617" stop-color="#5E75E8"/>
<stop offset="1" stop-color="#80C6EB"/>
</linearGradient>
<linearGradient id="paint28_linear_3185_23100" x1="35.0047" y1="2.99805e-09" x2="35.0703" y2="82.6942" gradientUnits="userSpaceOnUse">
<stop stop-color="#DA88DE"/>
<stop offset="0.373617" stop-color="#5E75E8"/>
<stop offset="1" stop-color="#80C6EB"/>
</linearGradient>
<linearGradient id="paint29_linear_3185_23100" x1="35.0047" y1="2.99805e-09" x2="35.0703" y2="82.6942" gradientUnits="userSpaceOnUse">
<stop stop-color="#DA88DE"/>
<stop offset="0.373617" stop-color="#5E75E8"/>
<stop offset="1" stop-color="#80C6EB"/>
</linearGradient>
<linearGradient id="paint30_linear_3185_23100" x1="35.0047" y1="2.99805e-09" x2="35.0703" y2="82.6942" gradientUnits="userSpaceOnUse">
<stop stop-color="#DA88DE"/>
<stop offset="0.373617" stop-color="#5E75E8"/>
<stop offset="1" stop-color="#80C6EB"/>
</linearGradient>
<linearGradient id="paint31_linear_3185_23100" x1="35.0047" y1="2.99805e-09" x2="35.0703" y2="82.6942" gradientUnits="userSpaceOnUse">
<stop stop-color="#DA88DE"/>
<stop offset="0.373617" stop-color="#5E75E8"/>
<stop offset="1" stop-color="#80C6EB"/>
</linearGradient>
<linearGradient id="paint32_linear_3185_23100" x1="35.0047" y1="2.99805e-09" x2="35.0703" y2="82.6942" gradientUnits="userSpaceOnUse">
<stop stop-color="#DA88DE"/>
<stop offset="0.373617" stop-color="#5E75E8"/>
<stop offset="1" stop-color="#80C6EB"/>
</linearGradient>
<linearGradient id="paint33_linear_3185_23100" x1="35.0047" y1="2.99805e-09" x2="35.0703" y2="82.6942" gradientUnits="userSpaceOnUse">
<stop stop-color="#DA88DE"/>
<stop offset="0.373617" stop-color="#5E75E8"/>
<stop offset="1" stop-color="#80C6EB"/>
</linearGradient>
</defs>
</svg>
