<?xml version="1.0" encoding="UTF-8"?>
<svg id="Layer_1" data-name="Layer 1" xmlns="http://www.w3.org/2000/svg" viewBox="0 0 486.76 130">
  <defs>
    <style>
      .cls-1 {
        fill: #55cc41;
      }
    </style>
  </defs>
  <g id="CCN-Logo-Green">
    <g>
      <path class="cls-1" d="M106.1,87.53c-6.19,5.67-15.3,8.25-25.45,8.25-14.44,0-26.48-4.99-31.47-16.34-1.38-3.1-2.75-8.08-2.75-14.44,0-5.85,1.38-10.83,3.09-14.44,4.99-11.01,15.82-16.34,31.3-16.34,9.97,0,18.06,2.24,23.9,7.39,3.57,3.27,6.63,8.09,8.16,12.68h45.86c-1.1-13.1-6.43-25.05-16.88-34.51C127.42,6.71,105.07,0,80.48,0,45.91,0,16.85,12.55,5.33,38,1.89,45.74,0,54.68,0,64.83s1.89,19.6,5.33,27.51c11.35,25.62,39.55,37.66,74.97,37.66,24.59,0,47.46-6.53,62.08-19.95,9.67-8.7,15.26-19.98,16.49-32.97h-45.92c-1.08,3.49-3.58,7.45-6.85,10.45Z"/>
      <path class="cls-1" d="M273.24,87.53c-6.19,5.67-15.3,8.25-25.45,8.25-14.44,0-26.48-4.99-31.47-16.34-1.38-3.1-2.75-8.08-2.75-14.44,0-5.85,1.38-10.83,3.1-14.44,4.99-11.01,15.82-16.34,31.3-16.34,9.97,0,18.06,2.24,23.9,7.39,3.57,3.27,6.63,8.09,8.16,12.68h45.86c-1.1-13.1-6.43-25.05-16.88-34.51C294.56,6.71,272.21,0,247.62,0c-34.56,0-63.62,12.55-75.15,38-3.44,7.74-5.33,16.68-5.33,26.83s1.89,19.6,5.33,27.51c11.35,25.62,39.55,37.66,74.97,37.66,24.59,0,47.46-6.53,62.08-19.95,9.67-8.7,15.26-19.98,16.49-32.97h-45.92c-1.08,3.49-3.58,7.45-6.85,10.45Z"/>
      <path class="cls-1" d="M466.07,22.3c-12.65-11.39-30.48-17.41-51.55-17.41h-50.49v.02h-25.31v121.46h43.56V45.54l32.24-.35c12.28.04,30.16,10.26,30.3,28.22v53.07h41.94v-53.07c0-26.85-11.25-42.62-20.69-51.11Z"/>
    </g>
  </g>
</svg>