<svg width="501" height="286" viewBox="0 0 501 286" fill="none" xmlns="http://www.w3.org/2000/svg">
<rect x="73" y="98" width="91" height="91" rx="30" fill="#121212"/>
<circle cx="27.5" cy="27.5" r="27" transform="matrix(-1 0 0 1 146 116)" fill="#313131" stroke="#7B7B7B"/>
<circle cx="23" cy="23" r="22.5" transform="matrix(-1 0 0 1 140 122)" fill="#4C4C4C" stroke="#898989"/>
<circle cx="18" cy="18" r="17.5" transform="matrix(-1 0 0 1 133 129)" fill="#717171" stroke="#A2A2A2"/>
<circle cx="12.5" cy="12.5" r="12" transform="matrix(-1 0 0 1 126 136)" fill="#989898" stroke="#C0C0C0"/>
<circle cx="7.5" cy="7.5" r="7" transform="matrix(-1 0 0 1 119 143)" fill="#BDBDBD" stroke="#B8B8B8"/>
<circle cx="4" cy="4" r="4" transform="matrix(-1 0 0 1 114 148)" fill="white"/>
<path d="M185.823 151.706C185.823 151.706 185.823 151.458 185.823 150.963V146.765H190.765C190.765 146.765 190.765 147.015 190.765 147.515V151.706C190.765 151.706 190.515 151.706 190.015 151.706H185.823ZM207 151.706C207 151.706 207 151.458 207 150.963V146.765H211.941C211.941 146.765 211.941 147.015 211.941 147.515V151.706C211.941 151.706 211.691 151.706 211.191 151.706H207ZM185.823 148.176C185.823 148.176 185.823 147.929 185.823 147.434V143.235H190.765C190.765 143.235 190.765 143.485 190.765 143.985V148.176C190.765 148.176 190.515 148.176 190.015 148.176H185.823ZM207 148.176C207 148.176 207 147.929 207 147.434V143.235H211.941C211.941 143.235 211.941 143.485 211.941 143.985V148.176C211.941 148.176 211.691 148.176 211.191 148.176H207ZM185.823 144.647C185.823 144.647 185.823 144.4 185.823 143.904V139.706H190.765C190.765 139.706 190.765 139.956 190.765 140.456V144.647C190.765 144.647 190.515 144.647 190.015 144.647H185.823ZM207 144.647C207 144.647 207 144.4 207 143.904V139.706H211.941C211.941 139.706 211.941 139.956 211.941 140.456V144.647C211.941 144.647 211.691 144.647 211.191 144.647H207ZM185.823 141.118C185.823 141.118 185.823 140.87 185.823 140.375V136.176H190.765C190.765 136.176 190.765 136.426 190.765 136.926V141.118C190.765 141.118 190.515 141.118 190.015 141.118H185.823ZM207 141.118C207 141.118 207 140.87 207 140.375V136.176H211.941C211.941 136.176 211.941 136.426 211.941 136.926V141.118C211.941 141.118 211.691 141.118 211.191 141.118H207ZM185.823 137.588C185.823 137.588 185.823 137.341 185.823 136.846V132.647H190.765C190.765 132.647 190.765 132.897 190.765 133.397V137.588C190.765 137.588 190.515 137.588 190.015 137.588H185.823ZM196.412 137.588C196.412 137.588 196.412 137.341 196.412 136.846V132.647H201.353C201.353 132.647 201.353 132.897 201.353 133.397V137.588C201.353 137.588 201.103 137.588 200.603 137.588H196.412ZM207 137.588C207 137.588 207 137.341 207 136.846V132.647H211.941C211.941 132.647 211.941 132.897 211.941 133.397V137.588C211.941 137.588 211.691 137.588 211.191 137.588H207ZM185.823 134.059C185.823 134.059 185.823 133.811 185.823 133.316V129.118H190.765C190.765 129.118 190.765 129.368 190.765 129.868V134.059C190.765 134.059 190.515 134.059 190.015 134.059H185.823ZM194.647 134.059C194.647 134.059 194.647 133.811 194.647 133.316V129.118H199.588C199.588 129.118 199.588 129.368 199.588 129.868V134.059C199.588 134.059 199.338 134.059 198.838 134.059H194.647ZM198.176 134.059C198.176 134.059 198.176 133.811 198.176 133.316V129.118H203.118C203.118 129.118 203.118 129.368 203.118 129.868V134.059C203.118 134.059 202.868 134.059 202.368 134.059H198.176ZM207 134.059C207 134.059 207 133.811 207 133.316V129.118H211.941C211.941 129.118 211.941 129.368 211.941 129.868V134.059C211.941 134.059 211.691 134.059 211.191 134.059H207ZM185.823 130.529C185.823 130.529 185.823 130.282 185.823 129.787V125.588H190.765C190.765 125.588 190.765 125.838 190.765 126.338V130.529C190.765 130.529 190.515 130.529 190.015 130.529H185.823ZM192.882 130.529C192.882 130.529 192.882 130.282 192.882 129.787V125.588H197.823C197.823 125.588 197.823 125.838 197.823 126.338V130.529C197.823 130.529 197.573 130.529 197.073 130.529H192.882ZM199.941 130.529C199.941 130.529 199.941 130.282 199.941 129.787V125.588H204.882C204.882 125.588 204.882 125.838 204.882 126.338V130.529C204.882 130.529 204.632 130.529 204.132 130.529H199.941ZM207 130.529C207 130.529 207 130.282 207 129.787V125.588H211.941C211.941 125.588 211.941 125.838 211.941 126.338V130.529C211.941 130.529 211.691 130.529 211.191 130.529H207ZM185.823 127C185.823 127 185.823 126.752 185.823 126.257V122.059H190.765C190.765 122.059 190.765 122.309 190.765 122.809V127C190.765 127 190.515 127 190.015 127H185.823ZM191.118 127C191.118 127 191.118 126.752 191.118 126.257V122.059H196.059C196.059 122.059 196.059 122.309 196.059 122.809V127C196.059 127 195.809 127 195.309 127H191.118ZM201.706 127C201.706 127 201.706 126.752 201.706 126.257V122.059H206.647C206.647 122.059 206.647 122.309 206.647 122.809V127C206.647 127 206.397 127 205.897 127H201.706ZM207 127C207 127 207 126.752 207 126.257V122.059H211.941C211.941 122.059 211.941 122.309 211.941 122.809V127C211.941 127 211.691 127 211.191 127H207ZM185.823 123.471C185.823 123.471 185.823 123.223 185.823 122.728V118.529H190.765C190.765 118.529 190.765 118.779 190.765 119.279V123.471C190.765 123.471 190.515 123.471 190.015 123.471H185.823ZM189.353 123.471C189.353 123.471 189.353 123.223 189.353 122.728V118.529H194.294C194.294 118.529 194.294 118.779 194.294 119.279V123.471C194.294 123.471 194.044 123.471 193.544 123.471H189.353ZM203.471 123.471C203.471 123.471 203.471 123.223 203.471 122.728V118.529H208.412C208.412 118.529 208.412 118.779 208.412 119.279V123.471C208.412 123.471 208.162 123.471 207.662 123.471H203.471ZM207 123.471C207 123.471 207 123.223 207 122.728V118.529H211.941C211.941 118.529 211.941 118.779 211.941 119.279V123.471C211.941 123.471 211.691 123.471 211.191 123.471H207ZM185.823 119.941C185.823 119.941 185.823 119.694 185.823 119.199V115H190.765C190.765 115 190.765 115.25 190.765 115.75V119.941C190.765 119.941 190.515 119.941 190.015 119.941H185.823ZM207 119.941C207 119.941 207 119.694 207 119.199V115H211.941C211.941 115 211.941 115.25 211.941 115.75V119.941C211.941 119.941 211.691 119.941 211.191 119.941H207ZM185.823 116.412C185.823 116.412 185.823 116.164 185.823 115.669V111.471H190.765C190.765 111.471 190.765 111.721 190.765 112.221V116.412C190.765 116.412 190.515 116.412 190.015 116.412H185.823ZM207 116.412C207 116.412 207 116.164 207 115.669V111.471H211.941C211.941 111.471 211.941 111.721 211.941 112.221V116.412C211.941 116.412 211.691 116.412 211.191 116.412H207Z" fill="black"/>
<path d="M215.817 151.706C215.817 151.706 215.817 151.458 215.817 150.963V146.765H220.758C220.758 146.765 220.758 147.015 220.758 147.515V151.706C220.758 151.706 220.508 151.706 220.008 151.706H215.817ZM219.346 151.706C219.346 151.706 219.346 151.458 219.346 150.963V146.765H224.287C224.287 146.765 224.287 147.015 224.287 147.515V151.706C224.287 151.706 224.037 151.706 223.537 151.706H219.346ZM222.875 151.706C222.875 151.706 222.875 151.458 222.875 150.963V146.765H227.817C227.817 146.765 227.817 147.015 227.817 147.515V151.706C227.817 151.706 227.567 151.706 227.067 151.706H222.875ZM219.346 148.176C219.346 148.176 219.346 147.929 219.346 147.434V143.235H224.287C224.287 143.235 224.287 143.485 224.287 143.985V148.176C224.287 148.176 224.037 148.176 223.537 148.176H219.346ZM219.346 144.647C219.346 144.647 219.346 144.4 219.346 143.904V139.706H224.287C224.287 139.706 224.287 139.956 224.287 140.456V144.647C224.287 144.647 224.037 144.647 223.537 144.647H219.346ZM219.346 141.118C219.346 141.118 219.346 140.87 219.346 140.375V136.176H224.287C224.287 136.176 224.287 136.426 224.287 136.926V141.118C224.287 141.118 224.037 141.118 223.537 141.118H219.346ZM219.346 137.588C219.346 137.588 219.346 137.341 219.346 136.846V132.647H224.287C224.287 132.647 224.287 132.897 224.287 133.397V137.588C224.287 137.588 224.037 137.588 223.537 137.588H219.346ZM219.346 134.059C219.346 134.059 219.346 133.811 219.346 133.316V129.118H224.287C224.287 129.118 224.287 129.368 224.287 129.868V134.059C224.287 134.059 224.037 134.059 223.537 134.059H219.346ZM219.346 130.529C219.346 130.529 219.346 130.282 219.346 129.787V125.588H224.287C224.287 125.588 224.287 125.838 224.287 126.338V130.529C224.287 130.529 224.037 130.529 223.537 130.529H219.346ZM219.346 127C219.346 127 219.346 126.752 219.346 126.257V122.059H224.287C224.287 122.059 224.287 122.309 224.287 122.809V127C224.287 127 224.037 127 223.537 127H219.346ZM219.346 123.471C219.346 123.471 219.346 123.223 219.346 122.728V118.529H224.287C224.287 118.529 224.287 118.779 224.287 119.279V123.471C224.287 123.471 224.037 123.471 223.537 123.471H219.346ZM219.346 119.941C219.346 119.941 219.346 119.694 219.346 119.199V115H224.287C224.287 115 224.287 115.25 224.287 115.75V119.941C224.287 119.941 224.037 119.941 223.537 119.941H219.346ZM215.817 116.412C215.817 116.412 215.817 116.164 215.817 115.669V111.471H220.758C220.758 111.471 220.758 111.721 220.758 112.221V116.412C220.758 116.412 220.508 116.412 220.008 116.412H215.817ZM219.346 116.412C219.346 116.412 219.346 116.164 219.346 115.669V111.471H224.287C224.287 111.471 224.287 111.721 224.287 112.221V116.412C224.287 116.412 224.037 116.412 223.537 116.412H219.346ZM222.875 116.412C222.875 116.412 222.875 116.164 222.875 115.669V111.471H227.817C227.817 111.471 227.817 111.721 227.817 112.221V116.412C227.817 116.412 227.567 116.412 227.067 116.412H222.875Z" fill="black"/>
<path d="M231.702 151.706C231.702 151.706 231.702 151.458 231.702 150.963V146.765H236.644C236.644 146.765 236.644 147.015 236.644 147.515V151.706C236.644 151.706 236.394 151.706 235.894 151.706H231.702ZM249.349 151.706C249.349 151.706 249.349 151.458 249.349 150.963V146.765H254.291C254.291 146.765 254.291 147.015 254.291 147.515V151.706C254.291 151.706 254.041 151.706 253.541 151.706H249.349ZM231.702 148.176C231.702 148.176 231.702 147.929 231.702 147.434V143.235H236.644C236.644 143.235 236.644 143.485 236.644 143.985V148.176C236.644 148.176 236.394 148.176 235.894 148.176H231.702ZM249.349 148.176C249.349 148.176 249.349 147.929 249.349 147.434V143.235H254.291C254.291 143.235 254.291 143.485 254.291 143.985V148.176C254.291 148.176 254.041 148.176 253.541 148.176H249.349ZM231.702 144.647C231.702 144.647 231.702 144.4 231.702 143.904V139.706H236.644C236.644 139.706 236.644 139.956 236.644 140.456V144.647C236.644 144.647 236.394 144.647 235.894 144.647H231.702ZM245.82 144.647C245.82 144.647 245.82 144.4 245.82 143.904V139.706H250.761C250.761 139.706 250.761 139.956 250.761 140.456V144.647C250.761 144.647 250.511 144.647 250.011 144.647H245.82ZM249.349 144.647C249.349 144.647 249.349 144.4 249.349 143.904V139.706H254.291C254.291 139.706 254.291 139.956 254.291 140.456V144.647C254.291 144.647 254.041 144.647 253.541 144.647H249.349ZM231.702 141.118C231.702 141.118 231.702 140.87 231.702 140.375V136.176H236.644C236.644 136.176 236.644 136.426 236.644 136.926V141.118C236.644 141.118 236.394 141.118 235.894 141.118H231.702ZM244.055 141.118C244.055 141.118 244.055 140.87 244.055 140.375V136.176H248.997C248.997 136.176 248.997 136.426 248.997 136.926V141.118C248.997 141.118 248.747 141.118 248.247 141.118H244.055ZM249.349 141.118C249.349 141.118 249.349 140.87 249.349 140.375V136.176H254.291C254.291 136.176 254.291 136.426 254.291 136.926V141.118C254.291 141.118 254.041 141.118 253.541 141.118H249.349ZM231.702 137.588C231.702 137.588 231.702 137.341 231.702 136.846V132.647H236.644C236.644 132.647 236.644 132.897 236.644 133.397V137.588C236.644 137.588 236.394 137.588 235.894 137.588H231.702ZM242.291 137.588C242.291 137.588 242.291 137.341 242.291 136.846V132.647H247.232C247.232 132.647 247.232 132.897 247.232 133.397V137.588C247.232 137.588 246.982 137.588 246.482 137.588H242.291ZM249.349 137.588C249.349 137.588 249.349 137.341 249.349 136.846V132.647H254.291C254.291 132.647 254.291 132.897 254.291 133.397V137.588C254.291 137.588 254.041 137.588 253.541 137.588H249.349ZM231.702 134.059C231.702 134.059 231.702 133.811 231.702 133.316V129.118H236.644C236.644 129.118 236.644 129.368 236.644 129.868V134.059C236.644 134.059 236.394 134.059 235.894 134.059H231.702ZM240.526 134.059C240.526 134.059 240.526 133.811 240.526 133.316V129.118H245.467C245.467 129.118 245.467 129.368 245.467 129.868V134.059C245.467 134.059 245.217 134.059 244.717 134.059H240.526ZM249.349 134.059C249.349 134.059 249.349 133.811 249.349 133.316V129.118H254.291C254.291 129.118 254.291 129.368 254.291 129.868V134.059C254.291 134.059 254.041 134.059 253.541 134.059H249.349ZM231.702 130.529C231.702 130.529 231.702 130.282 231.702 129.787V125.588H236.644C236.644 125.588 236.644 125.838 236.644 126.338V130.529C236.644 130.529 236.394 130.529 235.894 130.529H231.702ZM238.761 130.529C238.761 130.529 238.761 130.282 238.761 129.787V125.588H243.702C243.702 125.588 243.702 125.838 243.702 126.338V130.529C243.702 130.529 243.452 130.529 242.952 130.529H238.761ZM249.349 130.529C249.349 130.529 249.349 130.282 249.349 129.787V125.588H254.291C254.291 125.588 254.291 125.838 254.291 126.338V130.529C254.291 130.529 254.041 130.529 253.541 130.529H249.349ZM231.702 127C231.702 127 231.702 126.752 231.702 126.257V122.059H236.644C236.644 122.059 236.644 122.309 236.644 122.809V127C236.644 127 236.394 127 235.894 127H231.702ZM236.997 127C236.997 127 236.997 126.752 236.997 126.257V122.059H241.938C241.938 122.059 241.938 122.309 241.938 122.809V127C241.938 127 241.688 127 241.188 127H236.997ZM249.349 127C249.349 127 249.349 126.752 249.349 126.257V122.059H254.291C254.291 122.059 254.291 122.309 254.291 122.809V127C254.291 127 254.041 127 253.541 127H249.349ZM231.702 123.471C231.702 123.471 231.702 123.223 231.702 122.728V118.529H236.644C236.644 118.529 236.644 118.779 236.644 119.279V123.471C236.644 123.471 236.394 123.471 235.894 123.471H231.702ZM235.232 123.471C235.232 123.471 235.232 123.223 235.232 122.728V118.529H240.173C240.173 118.529 240.173 118.779 240.173 119.279V123.471C240.173 123.471 239.923 123.471 239.423 123.471H235.232ZM249.349 123.471C249.349 123.471 249.349 123.223 249.349 122.728V118.529H254.291C254.291 118.529 254.291 118.779 254.291 119.279V123.471C254.291 123.471 254.041 123.471 253.541 123.471H249.349ZM231.702 119.941C231.702 119.941 231.702 119.694 231.702 119.199V115H236.644C236.644 115 236.644 115.25 236.644 115.75V119.941C236.644 119.941 236.394 119.941 235.894 119.941H231.702ZM249.349 119.941C249.349 119.941 249.349 119.694 249.349 119.199V115H254.291C254.291 115 254.291 115.25 254.291 115.75V119.941C254.291 119.941 254.041 119.941 253.541 119.941H249.349ZM231.702 116.412C231.702 116.412 231.702 116.164 231.702 115.669V111.471H236.644C236.644 111.471 236.644 111.721 236.644 112.221V116.412C236.644 116.412 236.394 116.412 235.894 116.412H231.702ZM249.349 116.412C249.349 116.412 249.349 116.164 249.349 115.669V111.471H254.291C254.291 111.471 254.291 111.721 254.291 112.221V116.412C254.291 116.412 254.041 116.412 253.541 116.412H249.349Z" fill="black"/>
<path d="M259.945 151.706C259.945 151.706 259.945 151.458 259.945 150.963V146.765H264.886C264.886 146.765 264.886 147.015 264.886 147.515V151.706C264.886 151.706 264.636 151.706 264.136 151.706H259.945ZM263.474 151.706C263.474 151.706 263.474 151.458 263.474 150.963V146.765H268.415C268.415 146.765 268.415 147.015 268.415 147.515V151.706C268.415 151.706 268.165 151.706 267.665 151.706H263.474ZM267.003 151.706C267.003 151.706 267.003 151.458 267.003 150.963V146.765H271.945C271.945 146.765 271.945 147.015 271.945 147.515V151.706C271.945 151.706 271.695 151.706 271.195 151.706H267.003ZM270.533 151.706C270.533 151.706 270.533 151.458 270.533 150.963V146.765H275.474C275.474 146.765 275.474 147.015 275.474 147.515V151.706C275.474 151.706 275.224 151.706 274.724 151.706H270.533ZM259.945 148.176C259.945 148.176 259.945 147.929 259.945 147.434V143.235H264.886C264.886 143.235 264.886 143.485 264.886 143.985V148.176C264.886 148.176 264.636 148.176 264.136 148.176H259.945ZM274.062 148.176C274.062 148.176 274.062 147.929 274.062 147.434V143.235H279.003C279.003 143.235 279.003 143.485 279.003 143.985V148.176C279.003 148.176 278.753 148.176 278.253 148.176H274.062ZM259.945 144.647C259.945 144.647 259.945 144.4 259.945 143.904V139.706H264.886C264.886 139.706 264.886 139.956 264.886 140.456V144.647C264.886 144.647 264.636 144.647 264.136 144.647H259.945ZM274.062 144.647C274.062 144.647 274.062 144.4 274.062 143.904V139.706H279.003C279.003 139.706 279.003 139.956 279.003 140.456V144.647C279.003 144.647 278.753 144.647 278.253 144.647H274.062ZM259.945 141.118C259.945 141.118 259.945 140.87 259.945 140.375V136.176H264.886C264.886 136.176 264.886 136.426 264.886 136.926V141.118C264.886 141.118 264.636 141.118 264.136 141.118H259.945ZM274.062 141.118C274.062 141.118 274.062 140.87 274.062 140.375V136.176H279.003C279.003 136.176 279.003 136.426 279.003 136.926V141.118C279.003 141.118 278.753 141.118 278.253 141.118H274.062ZM259.945 137.588C259.945 137.588 259.945 137.341 259.945 136.846V132.647H264.886C264.886 132.647 264.886 132.897 264.886 133.397V137.588C264.886 137.588 264.636 137.588 264.136 137.588H259.945ZM274.062 137.588C274.062 137.588 274.062 137.341 274.062 136.846V132.647H279.003C279.003 132.647 279.003 132.897 279.003 133.397V137.588C279.003 137.588 278.753 137.588 278.253 137.588H274.062ZM259.945 134.059C259.945 134.059 259.945 133.811 259.945 133.316V129.118H264.886C264.886 129.118 264.886 129.368 264.886 129.868V134.059C264.886 134.059 264.636 134.059 264.136 134.059H259.945ZM274.062 134.059C274.062 134.059 274.062 133.811 274.062 133.316V129.118H279.003C279.003 129.118 279.003 129.368 279.003 129.868V134.059C279.003 134.059 278.753 134.059 278.253 134.059H274.062ZM259.945 130.529C259.945 130.529 259.945 130.282 259.945 129.787V125.588H264.886C264.886 125.588 264.886 125.838 264.886 126.338V130.529C264.886 130.529 264.636 130.529 264.136 130.529H259.945ZM274.062 130.529C274.062 130.529 274.062 130.282 274.062 129.787V125.588H279.003C279.003 125.588 279.003 125.838 279.003 126.338V130.529C279.003 130.529 278.753 130.529 278.253 130.529H274.062ZM259.945 127C259.945 127 259.945 126.752 259.945 126.257V122.059H264.886C264.886 122.059 264.886 122.309 264.886 122.809V127C264.886 127 264.636 127 264.136 127H259.945ZM274.062 127C274.062 127 274.062 126.752 274.062 126.257V122.059H279.003C279.003 122.059 279.003 122.309 279.003 122.809V127C279.003 127 278.753 127 278.253 127H274.062ZM259.945 123.471C259.945 123.471 259.945 123.223 259.945 122.728V118.529H264.886C264.886 118.529 264.886 118.779 264.886 119.279V123.471C264.886 123.471 264.636 123.471 264.136 123.471H259.945ZM274.062 123.471C274.062 123.471 274.062 123.223 274.062 122.728V118.529H279.003C279.003 118.529 279.003 118.779 279.003 119.279V123.471C279.003 123.471 278.753 123.471 278.253 123.471H274.062ZM259.945 119.941C259.945 119.941 259.945 119.694 259.945 119.199V115H264.886C264.886 115 264.886 115.25 264.886 115.75V119.941C264.886 119.941 264.636 119.941 264.136 119.941H259.945ZM274.062 119.941C274.062 119.941 274.062 119.694 274.062 119.199V115H279.003C279.003 115 279.003 115.25 279.003 115.75V119.941C279.003 119.941 278.753 119.941 278.253 119.941H274.062ZM259.945 116.412C259.945 116.412 259.945 116.164 259.945 115.669V111.471H264.886C264.886 111.471 264.886 111.721 264.886 112.221V116.412C264.886 116.412 264.636 116.412 264.136 116.412H259.945ZM263.474 116.412C263.474 116.412 263.474 116.164 263.474 115.669V111.471H268.415C268.415 111.471 268.415 111.721 268.415 112.221V116.412C268.415 116.412 268.165 116.412 267.665 116.412H263.474ZM267.003 116.412C267.003 116.412 267.003 116.164 267.003 115.669V111.471H271.945C271.945 111.471 271.945 111.721 271.945 112.221V116.412C271.945 116.412 271.695 116.412 271.195 116.412H267.003ZM270.533 116.412C270.533 116.412 270.533 116.164 270.533 115.669V111.471H275.474C275.474 111.471 275.474 111.721 275.474 112.221V116.412C275.474 116.412 275.224 116.412 274.724 116.412H270.533Z" fill="black"/>
<path d="M295.277 151.706C295.277 151.706 295.277 151.458 295.277 150.963V146.765H300.218C300.218 146.765 300.218 147.015 300.218 147.515V151.706C300.218 151.706 299.968 151.706 299.468 151.706H295.277ZM295.277 148.176C295.277 148.176 295.277 147.929 295.277 147.434V143.235H300.218C300.218 143.235 300.218 143.485 300.218 143.985V148.176C300.218 148.176 299.968 148.176 299.468 148.176H295.277ZM295.277 144.647C295.277 144.647 295.277 144.4 295.277 143.904V139.706H300.218C300.218 139.706 300.218 139.956 300.218 140.456V144.647C300.218 144.647 299.968 144.647 299.468 144.647H295.277ZM295.277 141.118C295.277 141.118 295.277 140.87 295.277 140.375V136.176H300.218C300.218 136.176 300.218 136.426 300.218 136.926V141.118C300.218 141.118 299.968 141.118 299.468 141.118H295.277ZM295.277 137.588C295.277 137.588 295.277 137.341 295.277 136.846V132.647H300.218C300.218 132.647 300.218 132.897 300.218 133.397V137.588C300.218 137.588 299.968 137.588 299.468 137.588H295.277ZM298.806 137.588C298.806 137.588 298.806 137.341 298.806 136.846V132.647H303.747C303.747 132.647 303.747 132.897 303.747 133.397V137.588C303.747 137.588 303.497 137.588 302.997 137.588H298.806ZM302.335 137.588C302.335 137.588 302.335 137.341 302.335 136.846V132.647H307.277C307.277 132.647 307.277 132.897 307.277 133.397V137.588C307.277 137.588 307.027 137.588 306.527 137.588H302.335ZM305.865 137.588C305.865 137.588 305.865 137.341 305.865 136.846V132.647H310.806C310.806 132.647 310.806 132.897 310.806 133.397V137.588C310.806 137.588 310.556 137.588 310.056 137.588H305.865ZM295.277 134.059C295.277 134.059 295.277 133.811 295.277 133.316V129.118H300.218C300.218 129.118 300.218 129.368 300.218 129.868V134.059C300.218 134.059 299.968 134.059 299.468 134.059H295.277ZM309.394 134.059C309.394 134.059 309.394 133.811 309.394 133.316V129.118H314.335C314.335 129.118 314.335 129.368 314.335 129.868V134.059C314.335 134.059 314.085 134.059 313.585 134.059H309.394ZM295.277 130.529C295.277 130.529 295.277 130.282 295.277 129.787V125.588H300.218C300.218 125.588 300.218 125.838 300.218 126.338V130.529C300.218 130.529 299.968 130.529 299.468 130.529H295.277ZM309.394 130.529C309.394 130.529 309.394 130.282 309.394 129.787V125.588H314.335C314.335 125.588 314.335 125.838 314.335 126.338V130.529C314.335 130.529 314.085 130.529 313.585 130.529H309.394ZM295.277 127C295.277 127 295.277 126.752 295.277 126.257V122.059H300.218C300.218 122.059 300.218 122.309 300.218 122.809V127C300.218 127 299.968 127 299.468 127H295.277ZM309.394 127C309.394 127 309.394 126.752 309.394 126.257V122.059H314.335C314.335 122.059 314.335 122.309 314.335 122.809V127C314.335 127 314.085 127 313.585 127H309.394ZM295.277 123.471C295.277 123.471 295.277 123.223 295.277 122.728V118.529H300.218C300.218 118.529 300.218 118.779 300.218 119.279V123.471C300.218 123.471 299.968 123.471 299.468 123.471H295.277ZM309.394 123.471C309.394 123.471 309.394 123.223 309.394 122.728V118.529H314.335C314.335 118.529 314.335 118.779 314.335 119.279V123.471C314.335 123.471 314.085 123.471 313.585 123.471H309.394ZM295.277 119.941C295.277 119.941 295.277 119.694 295.277 119.199V115H300.218C300.218 115 300.218 115.25 300.218 115.75V119.941C300.218 119.941 299.968 119.941 299.468 119.941H295.277ZM309.394 119.941C309.394 119.941 309.394 119.694 309.394 119.199V115H314.335C314.335 115 314.335 115.25 314.335 115.75V119.941C314.335 119.941 314.085 119.941 313.585 119.941H309.394ZM295.277 116.412C295.277 116.412 295.277 116.164 295.277 115.669V111.471H300.218C300.218 111.471 300.218 111.721 300.218 112.221V116.412C300.218 116.412 299.968 116.412 299.468 116.412H295.277ZM298.806 116.412C298.806 116.412 298.806 116.164 298.806 115.669V111.471H303.747C303.747 111.471 303.747 111.721 303.747 112.221V116.412C303.747 116.412 303.497 116.412 302.997 116.412H298.806ZM302.335 116.412C302.335 116.412 302.335 116.164 302.335 115.669V111.471H307.277C307.277 111.471 307.277 111.721 307.277 112.221V116.412C307.277 116.412 307.027 116.412 306.527 116.412H302.335ZM305.865 116.412C305.865 116.412 305.865 116.164 305.865 115.669V111.471H310.806C310.806 111.471 310.806 111.721 310.806 112.221V116.412C310.806 116.412 310.556 116.412 310.056 116.412H305.865Z" fill="black"/>
<path d="M318.245 151.706C318.245 151.706 318.245 151.458 318.245 150.963V146.765H323.187C323.187 146.765 323.187 147.015 323.187 147.515V151.706C323.187 151.706 322.937 151.706 322.437 151.706H318.245ZM332.363 151.706C332.363 151.706 332.363 151.458 332.363 150.963V146.765H337.304C337.304 146.765 337.304 147.015 337.304 147.515V151.706C337.304 151.706 337.054 151.706 336.554 151.706H332.363ZM318.245 148.176C318.245 148.176 318.245 147.929 318.245 147.434V143.235H323.187C323.187 143.235 323.187 143.485 323.187 143.985V148.176C323.187 148.176 322.937 148.176 322.437 148.176H318.245ZM332.363 148.176C332.363 148.176 332.363 147.929 332.363 147.434V143.235H337.304C337.304 143.235 337.304 143.485 337.304 143.985V148.176C337.304 148.176 337.054 148.176 336.554 148.176H332.363ZM318.245 144.647C318.245 144.647 318.245 144.4 318.245 143.904V139.706H323.187C323.187 139.706 323.187 139.956 323.187 140.456V144.647C323.187 144.647 322.937 144.647 322.437 144.647H318.245ZM332.363 144.647C332.363 144.647 332.363 144.4 332.363 143.904V139.706H337.304C337.304 139.706 337.304 139.956 337.304 140.456V144.647C337.304 144.647 337.054 144.647 336.554 144.647H332.363ZM318.245 141.118C318.245 141.118 318.245 140.87 318.245 140.375V136.176H323.187C323.187 136.176 323.187 136.426 323.187 136.926V141.118C323.187 141.118 322.937 141.118 322.437 141.118H318.245ZM321.775 141.118C321.775 141.118 321.775 140.87 321.775 140.375V136.176H326.716C326.716 136.176 326.716 136.426 326.716 136.926V141.118C326.716 141.118 326.466 141.118 325.966 141.118H321.775ZM325.304 141.118C325.304 141.118 325.304 140.87 325.304 140.375V136.176H330.245C330.245 136.176 330.245 136.426 330.245 136.926V141.118C330.245 141.118 329.995 141.118 329.495 141.118H325.304ZM328.834 141.118C328.834 141.118 328.834 140.87 328.834 140.375V136.176H333.775C333.775 136.176 333.775 136.426 333.775 136.926V141.118C333.775 141.118 333.525 141.118 333.025 141.118H328.834ZM332.363 141.118C332.363 141.118 332.363 140.87 332.363 140.375V136.176H337.304C337.304 136.176 337.304 136.426 337.304 136.926V141.118C337.304 141.118 337.054 141.118 336.554 141.118H332.363ZM318.245 137.588C318.245 137.588 318.245 137.341 318.245 136.846V132.647H323.187C323.187 132.647 323.187 132.897 323.187 133.397V137.588C323.187 137.588 322.937 137.588 322.437 137.588H318.245ZM332.363 137.588C332.363 137.588 332.363 137.341 332.363 136.846V132.647H337.304C337.304 132.647 337.304 132.897 337.304 133.397V137.588C337.304 137.588 337.054 137.588 336.554 137.588H332.363ZM318.245 134.059C318.245 134.059 318.245 133.811 318.245 133.316V129.118H323.187C323.187 129.118 323.187 129.368 323.187 129.868V134.059C323.187 134.059 322.937 134.059 322.437 134.059H318.245ZM332.363 134.059C332.363 134.059 332.363 133.811 332.363 133.316V129.118H337.304C337.304 129.118 337.304 129.368 337.304 129.868V134.059C337.304 134.059 337.054 134.059 336.554 134.059H332.363ZM318.245 130.529C318.245 130.529 318.245 130.282 318.245 129.787V125.588H323.187C323.187 125.588 323.187 125.838 323.187 126.338V130.529C323.187 130.529 322.937 130.529 322.437 130.529H318.245ZM332.363 130.529C332.363 130.529 332.363 130.282 332.363 129.787V125.588H337.304C337.304 125.588 337.304 125.838 337.304 126.338V130.529C337.304 130.529 337.054 130.529 336.554 130.529H332.363ZM318.245 127C318.245 127 318.245 126.752 318.245 126.257V122.059H323.187C323.187 122.059 323.187 122.309 323.187 122.809V127C323.187 127 322.937 127 322.437 127H318.245ZM332.363 127C332.363 127 332.363 126.752 332.363 126.257V122.059H337.304C337.304 122.059 337.304 122.309 337.304 122.809V127C337.304 127 337.054 127 336.554 127H332.363ZM320.01 123.471C320.01 123.471 320.01 123.223 320.01 122.728V118.529H324.951C324.951 118.529 324.951 118.779 324.951 119.279V123.471C324.951 123.471 324.701 123.471 324.201 123.471H320.01ZM330.598 123.471C330.598 123.471 330.598 123.223 330.598 122.728V118.529H335.539C335.539 118.529 335.539 118.779 335.539 119.279V123.471C335.539 123.471 335.289 123.471 334.789 123.471H330.598ZM321.775 119.941C321.775 119.941 321.775 119.694 321.775 119.199V115H326.716C326.716 115 326.716 115.25 326.716 115.75V119.941C326.716 119.941 326.466 119.941 325.966 119.941H321.775ZM328.834 119.941C328.834 119.941 328.834 119.694 328.834 119.199V115H333.775C333.775 115 333.775 115.25 333.775 115.75V119.941C333.775 119.941 333.525 119.941 333.025 119.941H328.834ZM323.539 116.412C323.539 116.412 323.539 116.164 323.539 115.669V111.471H328.481C328.481 111.471 328.481 111.721 328.481 112.221V116.412C328.481 116.412 328.231 116.412 327.731 116.412H323.539ZM327.069 116.412C327.069 116.412 327.069 116.164 327.069 115.669V111.471H332.01C332.01 111.471 332.01 111.721 332.01 112.221V116.412C332.01 116.412 331.76 116.412 331.26 116.412H327.069Z" fill="black"/>
<path d="M342.972 151.706C342.972 151.706 342.972 151.458 342.972 150.963V146.765H347.913C347.913 146.765 347.913 147.015 347.913 147.515V151.706C347.913 151.706 347.663 151.706 347.163 151.706H342.972ZM346.501 151.706C346.501 151.706 346.501 151.458 346.501 150.963V146.765H351.443C351.443 146.765 351.443 147.015 351.443 147.515V151.706C351.443 151.706 351.193 151.706 350.693 151.706H346.501ZM350.031 151.706C350.031 151.706 350.031 151.458 350.031 150.963V146.765H354.972C354.972 146.765 354.972 147.015 354.972 147.515V151.706C354.972 151.706 354.722 151.706 354.222 151.706H350.031ZM353.56 151.706C353.56 151.706 353.56 151.458 353.56 150.963V146.765H358.501C358.501 146.765 358.501 147.015 358.501 147.515V151.706C358.501 151.706 358.251 151.706 357.751 151.706H353.56ZM342.972 148.176C342.972 148.176 342.972 147.929 342.972 147.434V143.235H347.913C347.913 143.235 347.913 143.485 347.913 143.985V148.176C347.913 148.176 347.663 148.176 347.163 148.176H342.972ZM342.972 144.647C342.972 144.647 342.972 144.4 342.972 143.904V139.706H347.913C347.913 139.706 347.913 139.956 347.913 140.456V144.647C347.913 144.647 347.663 144.647 347.163 144.647H342.972ZM342.972 141.118C342.972 141.118 342.972 140.87 342.972 140.375V136.176H347.913C347.913 136.176 347.913 136.426 347.913 136.926V141.118C347.913 141.118 347.663 141.118 347.163 141.118H342.972ZM342.972 137.588C342.972 137.588 342.972 137.341 342.972 136.846V132.647H347.913C347.913 132.647 347.913 132.897 347.913 133.397V137.588C347.913 137.588 347.663 137.588 347.163 137.588H342.972ZM342.972 134.059C342.972 134.059 342.972 133.811 342.972 133.316V129.118H347.913C347.913 129.118 347.913 129.368 347.913 129.868V134.059C347.913 134.059 347.663 134.059 347.163 134.059H342.972ZM342.972 130.529C342.972 130.529 342.972 130.282 342.972 129.787V125.588H347.913C347.913 125.588 347.913 125.838 347.913 126.338V130.529C347.913 130.529 347.663 130.529 347.163 130.529H342.972ZM342.972 127C342.972 127 342.972 126.752 342.972 126.257V122.059H347.913C347.913 122.059 347.913 122.309 347.913 122.809V127C347.913 127 347.663 127 347.163 127H342.972ZM342.972 123.471C342.972 123.471 342.972 123.223 342.972 122.728V118.529H347.913C347.913 118.529 347.913 118.779 347.913 119.279V123.471C347.913 123.471 347.663 123.471 347.163 123.471H342.972ZM342.972 119.941C342.972 119.941 342.972 119.694 342.972 119.199V115H347.913C347.913 115 347.913 115.25 347.913 115.75V119.941C347.913 119.941 347.663 119.941 347.163 119.941H342.972ZM342.972 116.412C342.972 116.412 342.972 116.164 342.972 115.669V111.471H347.913C347.913 111.471 347.913 111.721 347.913 112.221V116.412C347.913 116.412 347.663 116.412 347.163 116.412H342.972Z" fill="black"/>
<path d="M362.366 151.706C362.366 151.706 362.366 151.458 362.366 150.963V146.765H367.308C367.308 146.765 367.308 147.015 367.308 147.515V151.706C367.308 151.706 367.058 151.706 366.558 151.706H362.366ZM376.484 151.706C376.484 151.706 376.484 151.458 376.484 150.963V146.765H381.425C381.425 146.765 381.425 147.015 381.425 147.515V151.706C381.425 151.706 381.175 151.706 380.675 151.706H376.484ZM362.366 148.176C362.366 148.176 362.366 147.929 362.366 147.434V143.235H367.308C367.308 143.235 367.308 143.485 367.308 143.985V148.176C367.308 148.176 367.058 148.176 366.558 148.176H362.366ZM376.484 148.176C376.484 148.176 376.484 147.929 376.484 147.434V143.235H381.425C381.425 143.235 381.425 143.485 381.425 143.985V148.176C381.425 148.176 381.175 148.176 380.675 148.176H376.484ZM362.366 144.647C362.366 144.647 362.366 144.4 362.366 143.904V139.706H367.308C367.308 139.706 367.308 139.956 367.308 140.456V144.647C367.308 144.647 367.058 144.647 366.558 144.647H362.366ZM376.484 144.647C376.484 144.647 376.484 144.4 376.484 143.904V139.706H381.425C381.425 139.706 381.425 139.956 381.425 140.456V144.647C381.425 144.647 381.175 144.647 380.675 144.647H376.484ZM362.366 141.118C362.366 141.118 362.366 140.87 362.366 140.375V136.176H367.308C367.308 136.176 367.308 136.426 367.308 136.926V141.118C367.308 141.118 367.058 141.118 366.558 141.118H362.366ZM365.896 141.118C365.896 141.118 365.896 140.87 365.896 140.375V136.176H370.837C370.837 136.176 370.837 136.426 370.837 136.926V141.118C370.837 141.118 370.587 141.118 370.087 141.118H365.896ZM369.425 141.118C369.425 141.118 369.425 140.87 369.425 140.375V136.176H374.366C374.366 136.176 374.366 136.426 374.366 136.926V141.118C374.366 141.118 374.116 141.118 373.616 141.118H369.425ZM372.955 141.118C372.955 141.118 372.955 140.87 372.955 140.375V136.176H377.896C377.896 136.176 377.896 136.426 377.896 136.926V141.118C377.896 141.118 377.646 141.118 377.146 141.118H372.955ZM376.484 141.118C376.484 141.118 376.484 140.87 376.484 140.375V136.176H381.425C381.425 136.176 381.425 136.426 381.425 136.926V141.118C381.425 141.118 381.175 141.118 380.675 141.118H376.484ZM362.366 137.588C362.366 137.588 362.366 137.341 362.366 136.846V132.647H367.308C367.308 132.647 367.308 132.897 367.308 133.397V137.588C367.308 137.588 367.058 137.588 366.558 137.588H362.366ZM376.484 137.588C376.484 137.588 376.484 137.341 376.484 136.846V132.647H381.425C381.425 132.647 381.425 132.897 381.425 133.397V137.588C381.425 137.588 381.175 137.588 380.675 137.588H376.484ZM362.366 134.059C362.366 134.059 362.366 133.811 362.366 133.316V129.118H367.308C367.308 129.118 367.308 129.368 367.308 129.868V134.059C367.308 134.059 367.058 134.059 366.558 134.059H362.366ZM376.484 134.059C376.484 134.059 376.484 133.811 376.484 133.316V129.118H381.425C381.425 129.118 381.425 129.368 381.425 129.868V134.059C381.425 134.059 381.175 134.059 380.675 134.059H376.484ZM362.366 130.529C362.366 130.529 362.366 130.282 362.366 129.787V125.588H367.308C367.308 125.588 367.308 125.838 367.308 126.338V130.529C367.308 130.529 367.058 130.529 366.558 130.529H362.366ZM376.484 130.529C376.484 130.529 376.484 130.282 376.484 129.787V125.588H381.425C381.425 125.588 381.425 125.838 381.425 126.338V130.529C381.425 130.529 381.175 130.529 380.675 130.529H376.484ZM362.366 127C362.366 127 362.366 126.752 362.366 126.257V122.059H367.308C367.308 122.059 367.308 122.309 367.308 122.809V127C367.308 127 367.058 127 366.558 127H362.366ZM376.484 127C376.484 127 376.484 126.752 376.484 126.257V122.059H381.425C381.425 122.059 381.425 122.309 381.425 122.809V127C381.425 127 381.175 127 380.675 127H376.484ZM364.131 123.471C364.131 123.471 364.131 123.223 364.131 122.728V118.529H369.072C369.072 118.529 369.072 118.779 369.072 119.279V123.471C369.072 123.471 368.822 123.471 368.322 123.471H364.131ZM374.719 123.471C374.719 123.471 374.719 123.223 374.719 122.728V118.529H379.661C379.661 118.529 379.661 118.779 379.661 119.279V123.471C379.661 123.471 379.411 123.471 378.911 123.471H374.719ZM365.896 119.941C365.896 119.941 365.896 119.694 365.896 119.199V115H370.837C370.837 115 370.837 115.25 370.837 115.75V119.941C370.837 119.941 370.587 119.941 370.087 119.941H365.896ZM372.955 119.941C372.955 119.941 372.955 119.694 372.955 119.199V115H377.896C377.896 115 377.896 115.25 377.896 115.75V119.941C377.896 119.941 377.646 119.941 377.146 119.941H372.955ZM367.661 116.412C367.661 116.412 367.661 116.164 367.661 115.669V111.471H372.602C372.602 111.471 372.602 111.721 372.602 112.221V116.412C372.602 116.412 372.352 116.412 371.852 116.412H367.661ZM371.19 116.412C371.19 116.412 371.19 116.164 371.19 115.669V111.471H376.131C376.131 111.471 376.131 111.721 376.131 112.221V116.412C376.131 116.412 375.881 116.412 375.381 116.412H371.19Z" fill="black"/>
<path d="M390.622 151.706C390.622 151.706 390.622 151.458 390.622 150.963V146.765H395.564C395.564 146.765 395.564 147.015 395.564 147.515V151.706C395.564 151.706 395.314 151.706 394.814 151.706H390.622ZM394.152 151.706C394.152 151.706 394.152 151.458 394.152 150.963V146.765H399.093C399.093 146.765 399.093 147.015 399.093 147.515V151.706C399.093 151.706 398.843 151.706 398.343 151.706H394.152ZM397.681 151.706C397.681 151.706 397.681 151.458 397.681 150.963V146.765H402.622C402.622 146.765 402.622 147.015 402.622 147.515V151.706C402.622 151.706 402.372 151.706 401.872 151.706H397.681ZM387.093 148.176C387.093 148.176 387.093 147.929 387.093 147.434V143.235H392.034C392.034 143.235 392.034 143.485 392.034 143.985V148.176C392.034 148.176 391.784 148.176 391.284 148.176H387.093ZM401.211 148.176C401.211 148.176 401.211 147.929 401.211 147.434V143.235H406.152C406.152 143.235 406.152 143.485 406.152 143.985V148.176C406.152 148.176 405.902 148.176 405.402 148.176H401.211ZM387.093 144.647C387.093 144.647 387.093 144.4 387.093 143.904V139.706H392.034C392.034 139.706 392.034 139.956 392.034 140.456V144.647C392.034 144.647 391.784 144.647 391.284 144.647H387.093ZM401.211 144.647C401.211 144.647 401.211 144.4 401.211 143.904V139.706H406.152C406.152 139.706 406.152 139.956 406.152 140.456V144.647C406.152 144.647 405.902 144.647 405.402 144.647H401.211ZM387.093 141.118C387.093 141.118 387.093 140.87 387.093 140.375V136.176H392.034C392.034 136.176 392.034 136.426 392.034 136.926V141.118C392.034 141.118 391.784 141.118 391.284 141.118H387.093ZM387.093 137.588C387.093 137.588 387.093 137.341 387.093 136.846V132.647H392.034C392.034 132.647 392.034 132.897 392.034 133.397V137.588C392.034 137.588 391.784 137.588 391.284 137.588H387.093ZM387.093 134.059C387.093 134.059 387.093 133.811 387.093 133.316V129.118H392.034C392.034 129.118 392.034 129.368 392.034 129.868V134.059C392.034 134.059 391.784 134.059 391.284 134.059H387.093ZM387.093 130.529C387.093 130.529 387.093 130.282 387.093 129.787V125.588H392.034C392.034 125.588 392.034 125.838 392.034 126.338V130.529C392.034 130.529 391.784 130.529 391.284 130.529H387.093ZM387.093 127C387.093 127 387.093 126.752 387.093 126.257V122.059H392.034C392.034 122.059 392.034 122.309 392.034 122.809V127C392.034 127 391.784 127 391.284 127H387.093ZM387.093 123.471C387.093 123.471 387.093 123.223 387.093 122.728V118.529H392.034C392.034 118.529 392.034 118.779 392.034 119.279V123.471C392.034 123.471 391.784 123.471 391.284 123.471H387.093ZM401.211 123.471C401.211 123.471 401.211 123.223 401.211 122.728V118.529H406.152C406.152 118.529 406.152 118.779 406.152 119.279V123.471C406.152 123.471 405.902 123.471 405.402 123.471H401.211ZM387.093 119.941C387.093 119.941 387.093 119.694 387.093 119.199V115H392.034C392.034 115 392.034 115.25 392.034 115.75V119.941C392.034 119.941 391.784 119.941 391.284 119.941H387.093ZM401.211 119.941C401.211 119.941 401.211 119.694 401.211 119.199V115H406.152C406.152 115 406.152 115.25 406.152 115.75V119.941C406.152 119.941 405.902 119.941 405.402 119.941H401.211ZM390.622 116.412C390.622 116.412 390.622 116.164 390.622 115.669V111.471H395.564C395.564 111.471 395.564 111.721 395.564 112.221V116.412C395.564 116.412 395.314 116.412 394.814 116.412H390.622ZM394.152 116.412C394.152 116.412 394.152 116.164 394.152 115.669V111.471H399.093C399.093 111.471 399.093 111.721 399.093 112.221V116.412C399.093 116.412 398.843 116.412 398.343 116.412H394.152ZM397.681 116.412C397.681 116.412 397.681 116.164 397.681 115.669V111.471H402.622C402.622 111.471 402.622 111.721 402.622 112.221V116.412C402.622 116.412 402.372 116.412 401.872 116.412H397.681Z" fill="black"/>
<path d="M411.82 151.706C411.82 151.706 411.82 151.458 411.82 150.963V146.765H416.761C416.761 146.765 416.761 147.015 416.761 147.515V151.706C416.761 151.706 416.511 151.706 416.011 151.706H411.82ZM415.349 151.706C415.349 151.706 415.349 151.458 415.349 150.963V146.765H420.29C420.29 146.765 420.29 147.015 420.29 147.515V151.706C420.29 151.706 420.04 151.706 419.54 151.706H415.349ZM418.878 151.706C418.878 151.706 418.878 151.458 418.878 150.963V146.765H423.82C423.82 146.765 423.82 147.015 423.82 147.515V151.706C423.82 151.706 423.57 151.706 423.07 151.706H418.878ZM422.408 151.706C422.408 151.706 422.408 151.458 422.408 150.963V146.765H427.349C427.349 146.765 427.349 147.015 427.349 147.515V151.706C427.349 151.706 427.099 151.706 426.599 151.706H422.408ZM411.82 148.176C411.82 148.176 411.82 147.929 411.82 147.434V143.235H416.761C416.761 143.235 416.761 143.485 416.761 143.985V148.176C416.761 148.176 416.511 148.176 416.011 148.176H411.82ZM411.82 144.647C411.82 144.647 411.82 144.4 411.82 143.904V139.706H416.761C416.761 139.706 416.761 139.956 416.761 140.456V144.647C416.761 144.647 416.511 144.647 416.011 144.647H411.82ZM411.82 141.118C411.82 141.118 411.82 140.87 411.82 140.375V136.176H416.761C416.761 136.176 416.761 136.426 416.761 136.926V141.118C416.761 141.118 416.511 141.118 416.011 141.118H411.82ZM411.82 137.588C411.82 137.588 411.82 137.341 411.82 136.846V132.647H416.761C416.761 132.647 416.761 132.897 416.761 133.397V137.588C416.761 137.588 416.511 137.588 416.011 137.588H411.82ZM411.82 134.059C411.82 134.059 411.82 133.811 411.82 133.316V129.118H416.761C416.761 129.118 416.761 129.368 416.761 129.868V134.059C416.761 134.059 416.511 134.059 416.011 134.059H411.82ZM415.349 134.059C415.349 134.059 415.349 133.811 415.349 133.316V129.118H420.29C420.29 129.118 420.29 129.368 420.29 129.868V134.059C420.29 134.059 420.04 134.059 419.54 134.059H415.349ZM418.878 134.059C418.878 134.059 418.878 133.811 418.878 133.316V129.118H423.82C423.82 129.118 423.82 129.368 423.82 129.868V134.059C423.82 134.059 423.57 134.059 423.07 134.059H418.878ZM422.408 134.059C422.408 134.059 422.408 133.811 422.408 133.316V129.118H427.349C427.349 129.118 427.349 129.368 427.349 129.868V134.059C427.349 134.059 427.099 134.059 426.599 134.059H422.408ZM411.82 130.529C411.82 130.529 411.82 130.282 411.82 129.787V125.588H416.761C416.761 125.588 416.761 125.838 416.761 126.338V130.529C416.761 130.529 416.511 130.529 416.011 130.529H411.82ZM411.82 127C411.82 127 411.82 126.752 411.82 126.257V122.059H416.761C416.761 122.059 416.761 122.309 416.761 122.809V127C416.761 127 416.511 127 416.011 127H411.82ZM411.82 123.471C411.82 123.471 411.82 123.223 411.82 122.728V118.529H416.761C416.761 118.529 416.761 118.779 416.761 119.279V123.471C416.761 123.471 416.511 123.471 416.011 123.471H411.82ZM411.82 119.941C411.82 119.941 411.82 119.694 411.82 119.199V115H416.761C416.761 115 416.761 115.25 416.761 115.75V119.941C416.761 119.941 416.511 119.941 416.011 119.941H411.82ZM411.82 116.412C411.82 116.412 411.82 116.164 411.82 115.669V111.471H416.761C416.761 111.471 416.761 111.721 416.761 112.221V116.412C416.761 116.412 416.511 116.412 416.011 116.412H411.82ZM415.349 116.412C415.349 116.412 415.349 116.164 415.349 115.669V111.471H420.29C420.29 111.471 420.29 111.721 420.29 112.221V116.412C420.29 116.412 420.04 116.412 419.54 116.412H415.349ZM418.878 116.412C418.878 116.412 418.878 116.164 418.878 115.669V111.471H423.82C423.82 111.471 423.82 111.721 423.82 112.221V116.412C423.82 116.412 423.57 116.412 423.07 116.412H418.878ZM422.408 116.412C422.408 116.412 422.408 116.164 422.408 115.669V111.471H427.349C427.349 111.471 427.349 111.721 427.349 112.221V116.412C427.349 116.412 427.099 116.412 426.599 116.412H422.408Z" fill="black"/>
<path d="M188.038 170.526H188.54C188.73 170.526 188.885 170.501 189.005 170.451C189.125 170.396 189.233 170.311 189.328 170.196L192.598 166.296C192.713 166.151 192.83 166.051 192.95 165.996C193.075 165.936 193.23 165.906 193.415 165.906H194.915L191.053 170.466C190.948 170.596 190.845 170.706 190.745 170.796C190.65 170.881 190.545 170.951 190.43 171.006C190.58 171.061 190.715 171.138 190.835 171.238C190.955 171.333 191.073 171.461 191.188 171.621L195.193 176.706H193.663C193.553 176.706 193.458 176.698 193.378 176.683C193.303 176.668 193.235 176.646 193.175 176.616C193.12 176.586 193.07 176.548 193.025 176.503C192.985 176.458 192.948 176.408 192.913 176.353L189.538 172.228C189.488 172.163 189.438 172.108 189.388 172.063C189.338 172.018 189.278 171.981 189.208 171.951C189.143 171.921 189.068 171.901 188.983 171.891C188.898 171.876 188.798 171.868 188.683 171.868H188.038V176.706H186.283V165.906H188.038V170.526ZM210.445 165.906V176.706H209.552C209.417 176.706 209.302 176.683 209.207 176.638C209.112 176.588 209.022 176.508 208.937 176.398L203.005 168.778C203.02 168.923 203.03 169.068 203.035 169.213C203.045 169.353 203.05 169.483 203.05 169.603V176.706H201.505V165.906H202.42C202.495 165.906 202.557 165.911 202.607 165.921C202.662 165.926 202.712 165.938 202.757 165.958C202.802 165.978 202.845 166.008 202.885 166.048C202.925 166.088 202.967 166.138 203.012 166.198L208.952 173.826C208.937 173.671 208.925 173.518 208.915 173.368C208.91 173.218 208.907 173.078 208.907 172.948V165.906H210.445ZM228.266 171.306C228.266 172.106 228.136 172.843 227.876 173.518C227.616 174.193 227.248 174.776 226.773 175.266C226.303 175.751 225.736 176.131 225.071 176.406C224.411 176.681 223.676 176.818 222.866 176.818C222.061 176.818 221.326 176.681 220.661 176.406C220.001 176.131 219.433 175.751 218.958 175.266C218.483 174.776 218.116 174.193 217.856 173.518C217.596 172.843 217.466 172.106 217.466 171.306C217.466 170.506 217.596 169.768 217.856 169.093C218.116 168.418 218.483 167.836 218.958 167.346C219.433 166.856 220.001 166.473 220.661 166.198C221.326 165.923 222.061 165.786 222.866 165.786C223.676 165.786 224.411 165.923 225.071 166.198C225.736 166.473 226.303 166.856 226.773 167.346C227.248 167.836 227.616 168.418 227.876 169.093C228.136 169.768 228.266 170.506 228.266 171.306ZM226.473 171.306C226.473 170.686 226.388 170.128 226.218 169.633C226.053 169.138 225.813 168.718 225.498 168.373C225.188 168.028 224.811 167.763 224.366 167.578C223.921 167.393 223.421 167.301 222.866 167.301C222.316 167.301 221.818 167.393 221.373 167.578C220.928 167.763 220.548 168.028 220.233 168.373C219.918 168.718 219.676 169.138 219.506 169.633C219.336 170.128 219.251 170.686 219.251 171.306C219.251 171.931 219.336 172.491 219.506 172.986C219.676 173.481 219.918 173.901 220.233 174.246C220.548 174.586 220.928 174.848 221.373 175.033C221.818 175.213 222.316 175.303 222.866 175.303C223.421 175.303 223.921 175.213 224.366 175.033C224.811 174.848 225.188 174.586 225.498 174.246C225.813 173.901 226.053 173.481 226.218 172.986C226.388 172.491 226.473 171.931 226.473 171.306ZM249.296 165.906L245.936 176.706H244.353L241.818 168.951C241.788 168.866 241.758 168.773 241.728 168.673C241.703 168.573 241.678 168.466 241.653 168.351C241.628 168.466 241.601 168.573 241.571 168.673C241.546 168.773 241.518 168.866 241.488 168.951L238.931 176.706H237.348L233.988 165.906H235.458C235.608 165.906 235.733 165.943 235.833 166.018C235.938 166.088 236.008 166.186 236.043 166.311L238.068 173.233C238.108 173.383 238.146 173.546 238.181 173.721C238.216 173.896 238.251 174.078 238.286 174.268C238.321 174.078 238.358 173.896 238.398 173.721C238.443 173.541 238.491 173.378 238.541 173.233L240.858 166.311C240.893 166.211 240.963 166.118 241.068 166.033C241.173 165.948 241.298 165.906 241.443 165.906H241.953C242.108 165.906 242.233 165.946 242.328 166.026C242.423 166.101 242.496 166.196 242.546 166.311L244.856 173.233C244.906 173.378 244.951 173.536 244.991 173.706C245.036 173.871 245.076 174.046 245.111 174.231C245.146 174.046 245.178 173.871 245.208 173.706C245.243 173.536 245.281 173.378 245.321 173.233L247.338 166.311C247.368 166.201 247.436 166.106 247.541 166.026C247.651 165.946 247.778 165.906 247.923 165.906H249.296ZM257.62 176.706H255.857V165.906H257.62V176.706ZM274.219 165.906V176.706H273.326C273.191 176.706 273.076 176.683 272.981 176.638C272.886 176.588 272.796 176.508 272.711 176.398L266.779 168.778C266.794 168.923 266.804 169.068 266.809 169.213C266.819 169.353 266.824 169.483 266.824 169.603V176.706H265.279V165.906H266.194C266.269 165.906 266.331 165.911 266.381 165.921C266.436 165.926 266.486 165.938 266.531 165.958C266.576 165.978 266.619 166.008 266.659 166.048C266.699 166.088 266.741 166.138 266.786 166.198L272.726 173.826C272.711 173.671 272.699 173.518 272.689 173.368C272.684 173.218 272.681 173.078 272.681 172.948V165.906H274.219ZM290.735 171.388V175.663C289.66 176.438 288.41 176.826 286.985 176.826C286.11 176.826 285.317 176.691 284.607 176.421C283.902 176.146 283.3 175.766 282.8 175.281C282.3 174.791 281.915 174.208 281.645 173.533C281.375 172.858 281.24 172.116 281.24 171.306C281.24 170.491 281.37 169.746 281.63 169.071C281.89 168.391 282.262 167.808 282.747 167.323C283.232 166.833 283.817 166.456 284.502 166.191C285.187 165.921 285.957 165.786 286.812 165.786C287.247 165.786 287.65 165.821 288.02 165.891C288.395 165.956 288.742 166.048 289.062 166.168C289.382 166.288 289.677 166.433 289.947 166.603C290.217 166.773 290.465 166.963 290.69 167.173L290.187 167.976C290.107 168.101 290.005 168.178 289.88 168.208C289.755 168.238 289.62 168.208 289.475 168.118C289.33 168.033 289.175 167.943 289.01 167.848C288.85 167.753 288.665 167.666 288.455 167.586C288.245 167.501 288.002 167.433 287.727 167.383C287.452 167.328 287.127 167.301 286.752 167.301C286.182 167.301 285.667 167.396 285.207 167.586C284.752 167.771 284.362 168.038 284.037 168.388C283.712 168.733 283.462 169.153 283.287 169.648C283.112 170.143 283.025 170.696 283.025 171.306C283.025 171.951 283.117 172.528 283.302 173.038C283.487 173.543 283.75 173.973 284.09 174.328C284.43 174.678 284.84 174.946 285.32 175.131C285.805 175.316 286.345 175.408 286.94 175.408C287.385 175.408 287.78 175.361 288.125 175.266C288.475 175.171 288.817 175.038 289.152 174.868V172.723H287.645C287.53 172.723 287.44 172.693 287.375 172.633C287.31 172.568 287.277 172.486 287.277 172.386V171.388H290.735ZM308.503 176.706H306.741V165.906H308.503V176.706ZM321.809 167.751C321.754 167.841 321.697 167.908 321.637 167.953C321.577 167.993 321.502 168.013 321.412 168.013C321.317 168.013 321.209 167.973 321.089 167.893C320.974 167.813 320.829 167.726 320.654 167.631C320.484 167.531 320.282 167.441 320.047 167.361C319.812 167.276 319.532 167.233 319.207 167.233C318.907 167.233 318.642 167.271 318.412 167.346C318.187 167.421 317.997 167.526 317.842 167.661C317.687 167.796 317.569 167.956 317.489 168.141C317.414 168.321 317.377 168.518 317.377 168.733C317.377 169.008 317.449 169.238 317.594 169.423C317.739 169.603 317.929 169.758 318.164 169.888C318.404 170.018 318.677 170.133 318.982 170.233C319.287 170.328 319.597 170.431 319.912 170.541C320.232 170.651 320.544 170.776 320.849 170.916C321.154 171.056 321.424 171.233 321.659 171.448C321.899 171.663 322.092 171.926 322.237 172.236C322.382 172.546 322.454 172.923 322.454 173.368C322.454 173.848 322.372 174.298 322.207 174.718C322.042 175.138 321.802 175.506 321.487 175.821C321.177 176.131 320.792 176.376 320.332 176.556C319.877 176.736 319.357 176.826 318.772 176.826C318.427 176.826 318.089 176.791 317.759 176.721C317.434 176.656 317.122 176.563 316.822 176.443C316.527 176.318 316.249 176.168 315.989 175.993C315.729 175.818 315.497 175.623 315.292 175.408L315.802 174.568C315.847 174.498 315.904 174.443 315.974 174.403C316.044 174.363 316.122 174.343 316.207 174.343C316.322 174.343 316.449 174.398 316.589 174.508C316.729 174.613 316.897 174.731 317.092 174.861C317.292 174.986 317.532 175.103 317.812 175.213C318.092 175.318 318.427 175.371 318.817 175.371C319.452 175.371 319.942 175.216 320.287 174.906C320.637 174.596 320.812 174.168 320.812 173.623C320.812 173.318 320.739 173.071 320.594 172.881C320.449 172.686 320.257 172.523 320.017 172.393C319.782 172.263 319.512 172.153 319.207 172.063C318.902 171.973 318.592 171.878 318.277 171.778C317.962 171.673 317.652 171.553 317.347 171.418C317.042 171.278 316.769 171.098 316.529 170.878C316.294 170.653 316.104 170.378 315.959 170.053C315.814 169.723 315.742 169.313 315.742 168.823C315.742 168.433 315.817 168.056 315.967 167.691C316.122 167.326 316.344 167.003 316.634 166.723C316.929 166.438 317.292 166.211 317.722 166.041C318.152 165.871 318.642 165.786 319.192 165.786C319.812 165.786 320.379 165.883 320.894 166.078C321.414 166.273 321.862 166.551 322.237 166.911L321.809 167.751ZM348.433 171.306C348.433 172.106 348.303 172.843 348.043 173.518C347.783 174.193 347.416 174.776 346.941 175.266C346.471 175.751 345.903 176.131 345.238 176.406C344.578 176.681 343.843 176.818 343.033 176.818C342.228 176.818 341.493 176.681 340.828 176.406C340.168 176.131 339.601 175.751 339.126 175.266C338.651 174.776 338.283 174.193 338.023 173.518C337.763 172.843 337.633 172.106 337.633 171.306C337.633 170.506 337.763 169.768 338.023 169.093C338.283 168.418 338.651 167.836 339.126 167.346C339.601 166.856 340.168 166.473 340.828 166.198C341.493 165.923 342.228 165.786 343.033 165.786C343.843 165.786 344.578 165.923 345.238 166.198C345.903 166.473 346.471 166.856 346.941 167.346C347.416 167.836 347.783 168.418 348.043 169.093C348.303 169.768 348.433 170.506 348.433 171.306ZM346.641 171.306C346.641 170.686 346.556 170.128 346.386 169.633C346.221 169.138 345.981 168.718 345.666 168.373C345.356 168.028 344.978 167.763 344.533 167.578C344.088 167.393 343.588 167.301 343.033 167.301C342.483 167.301 341.986 167.393 341.541 167.578C341.096 167.763 340.716 168.028 340.401 168.373C340.086 168.718 339.843 169.138 339.673 169.633C339.503 170.128 339.418 170.686 339.418 171.306C339.418 171.931 339.503 172.491 339.673 172.986C339.843 173.481 340.086 173.901 340.401 174.246C340.716 174.586 341.096 174.848 341.541 175.033C341.986 175.213 342.483 175.303 343.033 175.303C343.588 175.303 344.088 175.213 344.533 175.033C344.978 174.848 345.356 174.586 345.666 174.246C345.981 173.901 346.221 173.481 346.386 172.986C346.556 172.491 346.641 171.931 346.641 171.306ZM369.463 165.906L366.103 176.706H364.521L361.986 168.951C361.956 168.866 361.926 168.773 361.896 168.673C361.871 168.573 361.846 168.466 361.821 168.351C361.796 168.466 361.768 168.573 361.738 168.673C361.713 168.773 361.686 168.866 361.656 168.951L359.098 176.706H357.516L354.156 165.906H355.626C355.776 165.906 355.901 165.943 356.001 166.018C356.106 166.088 356.176 166.186 356.211 166.311L358.236 173.233C358.276 173.383 358.313 173.546 358.348 173.721C358.383 173.896 358.418 174.078 358.453 174.268C358.488 174.078 358.526 173.896 358.566 173.721C358.611 173.541 358.658 173.378 358.708 173.233L361.026 166.311C361.061 166.211 361.131 166.118 361.236 166.033C361.341 165.948 361.466 165.906 361.611 165.906H362.121C362.276 165.906 362.401 165.946 362.496 166.026C362.591 166.101 362.663 166.196 362.713 166.311L365.023 173.233C365.073 173.378 365.118 173.536 365.158 173.706C365.203 173.871 365.243 174.046 365.278 174.231C365.313 174.046 365.346 173.871 365.376 173.706C365.411 173.536 365.448 173.378 365.488 173.233L367.506 166.311C367.536 166.201 367.603 166.106 367.708 166.026C367.818 165.946 367.946 165.906 368.091 165.906H369.463ZM384.965 165.906V176.706H384.072C383.937 176.706 383.822 176.683 383.727 176.638C383.632 176.588 383.542 176.508 383.457 176.398L377.525 168.778C377.54 168.923 377.55 169.068 377.555 169.213C377.565 169.353 377.57 169.483 377.57 169.603V176.706H376.025V165.906H376.94C377.015 165.906 377.077 165.911 377.127 165.921C377.182 165.926 377.232 165.938 377.277 165.958C377.322 165.978 377.365 166.008 377.405 166.048C377.445 166.088 377.487 166.138 377.532 166.198L383.472 173.826C383.457 173.671 383.445 173.518 383.435 173.368C383.43 173.218 383.427 173.078 383.427 172.948V165.906H384.965ZM394.401 176.706H392.639V165.906H394.401V176.706ZM411 165.906V176.706H410.107C409.972 176.706 409.857 176.683 409.762 176.638C409.667 176.588 409.577 176.508 409.492 176.398L403.56 168.778C403.575 168.923 403.585 169.068 403.59 169.213C403.6 169.353 403.605 169.483 403.605 169.603V176.706H402.06V165.906H402.975C403.05 165.906 403.112 165.911 403.162 165.921C403.217 165.926 403.267 165.938 403.312 165.958C403.357 165.978 403.4 166.008 403.44 166.048C403.48 166.088 403.522 166.138 403.567 166.198L409.507 173.826C409.492 173.671 409.48 173.518 409.47 173.368C409.465 173.218 409.462 173.078 409.462 172.948V165.906H411ZM427.516 171.388V175.663C426.441 176.438 425.191 176.826 423.766 176.826C422.891 176.826 422.099 176.691 421.389 176.421C420.684 176.146 420.081 175.766 419.581 175.281C419.081 174.791 418.696 174.208 418.426 173.533C418.156 172.858 418.021 172.116 418.021 171.306C418.021 170.491 418.151 169.746 418.411 169.071C418.671 168.391 419.044 167.808 419.529 167.323C420.014 166.833 420.599 166.456 421.284 166.191C421.969 165.921 422.739 165.786 423.594 165.786C424.029 165.786 424.431 165.821 424.801 165.891C425.176 165.956 425.524 166.048 425.844 166.168C426.164 166.288 426.459 166.433 426.729 166.603C426.999 166.773 427.246 166.963 427.471 167.173L426.969 167.976C426.889 168.101 426.786 168.178 426.661 168.208C426.536 168.238 426.401 168.208 426.256 168.118C426.111 168.033 425.956 167.943 425.791 167.848C425.631 167.753 425.446 167.666 425.236 167.586C425.026 167.501 424.784 167.433 424.509 167.383C424.234 167.328 423.909 167.301 423.534 167.301C422.964 167.301 422.449 167.396 421.989 167.586C421.534 167.771 421.144 168.038 420.819 168.388C420.494 168.733 420.244 169.153 420.069 169.648C419.894 170.143 419.806 170.696 419.806 171.306C419.806 171.951 419.899 172.528 420.084 173.038C420.269 173.543 420.531 173.973 420.871 174.328C421.211 174.678 421.621 174.946 422.101 175.131C422.586 175.316 423.126 175.408 423.721 175.408C424.166 175.408 424.561 175.361 424.906 175.266C425.256 175.171 425.599 175.038 425.934 174.868V172.723H424.426C424.311 172.723 424.221 172.693 424.156 172.633C424.091 172.568 424.059 172.486 424.059 172.386V171.388H427.516Z" fill="#F3358A"/>
</svg>
