<svg xmlns="http://www.w3.org/2000/svg" xmlns:xlink="http://www.w3.org/1999/xlink" viewBox="0 0 976.2 490.98"><defs><style>.cls-1{isolation:isolate;}.cls-2{opacity:0.52;}.cls-3{fill:#d9d9d9;}.cls-4{opacity:0.64;}.cls-5{opacity:0.76;}.cls-6{opacity:0.88;}.cls-7{mix-blend-mode:overlay;}.cls-21,.cls-22,.cls-23,.cls-25,.cls-8{mix-blend-mode:multiply;}.cls-9{fill:url(#Degradado_sin_nombre_35);}.cls-10{fill:url(#Degradado_sin_nombre_5);}.cls-11{fill:url(#Degradado_sin_nombre_35-2);}.cls-12{fill:url(#Degradado_sin_nombre_35-3);}.cls-13{fill:url(#Degradado_sin_nombre_35-4);}.cls-14{fill:url(#Degradado_sin_nombre_5-2);}.cls-15{fill:url(#linear-gradient);}.cls-16{fill:url(#Degradado_sin_nombre_35-5);}.cls-17{fill:url(#Degradado_sin_nombre_35-6);}.cls-18{fill:url(#Degradado_sin_nombre_35-7);}.cls-19{fill:url(#Degradado_sin_nombre_35-8);}.cls-20{fill:url(#Degradado_sin_nombre_35-9);}.cls-21,.cls-22,.cls-23{opacity:0.5;}.cls-21,.cls-40{fill:url(#Degradado_sin_nombre_3);}.cls-22,.cls-41{fill:url(#Degradado_sin_nombre_3-2);}.cls-23,.cls-42{fill:url(#Degradado_sin_nombre_3-3);}.cls-24{fill:#646564;}.cls-25,.cls-26{opacity:0.7;}.cls-27{fill:url(#Degradado_sin_nombre_26);}.cls-28{fill:url(#Degradado_sin_nombre_26-2);}.cls-29{fill:url(#Degradado_sin_nombre_26-3);}.cls-30{opacity:0.9;}.cls-31{fill:url(#Degradado_sin_nombre_26-4);}.cls-32{fill:url(#Degradado_sin_nombre_26-5);}.cls-33{fill:url(#Degradado_sin_nombre_26-6);}.cls-34{fill:url(#Degradado_sin_nombre_26-7);}.cls-35{fill:url(#Degradado_sin_nombre_26-8);}.cls-36{fill:url(#Degradado_sin_nombre_26-9);}.cls-37{fill:url(#Degradado_sin_nombre_26-10);}.cls-38{fill:url(#Degradado_sin_nombre_26-11);}.cls-39{fill:url(#Degradado_sin_nombre_26-12);}.cls-43{fill:#101211;}</style><linearGradient id="Degradado_sin_nombre_35" x1="192.22" y1="354.27" x2="174.66" y2="187.14" gradientUnits="userSpaceOnUse"><stop offset="0" stop-color="#101211" stop-opacity="0.9"/><stop offset="0.12" stop-color="#101211" stop-opacity="0.51"/><stop offset="0.39" stop-color="#101211" stop-opacity="0.11"/><stop offset="1" stop-color="#101211" stop-opacity="0"/></linearGradient><linearGradient id="Degradado_sin_nombre_5" x1="355.61" y1="303.27" x2="220.21" y2="401.65" gradientUnits="userSpaceOnUse"><stop offset="0" stop-color="#e5e5e3" stop-opacity="0.9"/><stop offset="0.05" stop-color="#e5e5e3" stop-opacity="0.71"/><stop offset="0.11" stop-color="#e5e5e3" stop-opacity="0.55"/><stop offset="0.17" stop-color="#e5e5e3" stop-opacity="0.4"/><stop offset="0.24" stop-color="#e5e5e3" stop-opacity="0.27"/><stop offset="0.32" stop-color="#e5e5e3" stop-opacity="0.17"/><stop offset="0.41" stop-color="#e5e5e3" stop-opacity="0.09"/><stop offset="0.52" stop-color="#e5e5e3" stop-opacity="0.04"/><stop offset="0.66" stop-color="#e5e5e3" stop-opacity="0.01"/><stop offset="1" stop-color="#e5e5e3" stop-opacity="0"/></linearGradient><linearGradient id="Degradado_sin_nombre_35-2" x1="229" y1="186.85" x2="383.87" y2="255.8" xlink:href="#Degradado_sin_nombre_35"/><linearGradient id="Degradado_sin_nombre_35-3" x1="210.95" y1="352.3" x2="197.14" y2="220.91" xlink:href="#Degradado_sin_nombre_35"/><linearGradient id="Degradado_sin_nombre_35-4" x1="221.08" y1="204.64" x2="343.81" y2="259.28" xlink:href="#Degradado_sin_nombre_35"/><linearGradient id="Degradado_sin_nombre_5-2" x1="344.79" y1="288.38" x2="237.29" y2="366.48" xlink:href="#Degradado_sin_nombre_5"/><linearGradient id="linear-gradient" x1="235.25" y1="341.72" x2="208.69" y2="249.09" xlink:href="#Degradado_sin_nombre_35"/><linearGradient id="Degradado_sin_nombre_35-5" x1="323.06" y1="272.8" x2="256.23" y2="341.99" xlink:href="#Degradado_sin_nombre_35"/><linearGradient id="Degradado_sin_nombre_35-6" x1="218.45" y1="231.93" x2="313.27" y2="255.57" xlink:href="#Degradado_sin_nombre_35"/><linearGradient id="Degradado_sin_nombre_35-7" x1="221.17" y1="254.39" x2="291.64" y2="259.94" xlink:href="#Degradado_sin_nombre_35"/><linearGradient id="Degradado_sin_nombre_35-8" x1="253.91" y1="328.15" x2="223.48" y2="265.75" xlink:href="#Degradado_sin_nombre_35"/><linearGradient id="Degradado_sin_nombre_35-9" x1="302.33" y1="264.09" x2="263.45" y2="321.72" xlink:href="#Degradado_sin_nombre_35"/><linearGradient id="Degradado_sin_nombre_3" x1="230.2" y1="272.37" x2="274.67" y2="255.75" gradientUnits="userSpaceOnUse"><stop offset="0" stop-color="#101211" stop-opacity="0.9"/><stop offset="0.12" stop-color="#101211" stop-opacity="0.62"/><stop offset="0.46" stop-color="#101211" stop-opacity="0.14"/><stop offset="1" stop-color="#101211" stop-opacity="0"/></linearGradient><linearGradient id="Degradado_sin_nombre_3-2" x1="264.67" y1="312.51" x2="228.84" y2="282.44" xlink:href="#Degradado_sin_nombre_3"/><linearGradient id="Degradado_sin_nombre_3-3" x1="282.74" y1="262.63" x2="274.58" y2="308.92" xlink:href="#Degradado_sin_nombre_3"/><linearGradient id="Degradado_sin_nombre_26" x1="192.22" y1="354.27" x2="174.66" y2="187.14" xlink:href="#Degradado_sin_nombre_35"/><linearGradient id="Degradado_sin_nombre_26-2" x1="355.61" y1="303.27" x2="220.21" y2="401.65" xlink:href="#Degradado_sin_nombre_35"/><linearGradient id="Degradado_sin_nombre_26-3" x1="229" y1="186.85" x2="383.87" y2="255.8" xlink:href="#Degradado_sin_nombre_35"/><linearGradient id="Degradado_sin_nombre_26-4" x1="210.95" y1="352.3" x2="197.14" y2="220.91" xlink:href="#Degradado_sin_nombre_35"/><linearGradient id="Degradado_sin_nombre_26-5" x1="221.08" y1="204.64" x2="343.81" y2="259.28" xlink:href="#Degradado_sin_nombre_35"/><linearGradient id="Degradado_sin_nombre_26-6" x1="344.79" y1="288.38" x2="237.29" y2="366.48" xlink:href="#Degradado_sin_nombre_35"/><linearGradient id="Degradado_sin_nombre_26-7" x1="235.25" y1="341.72" x2="208.69" y2="249.09" xlink:href="#Degradado_sin_nombre_35"/><linearGradient id="Degradado_sin_nombre_26-8" x1="323.06" y1="272.8" x2="256.23" y2="341.99" xlink:href="#Degradado_sin_nombre_35"/><linearGradient id="Degradado_sin_nombre_26-9" x1="218.45" y1="231.93" x2="313.27" y2="255.57" xlink:href="#Degradado_sin_nombre_35"/><linearGradient id="Degradado_sin_nombre_26-10" x1="221.17" y1="254.39" x2="291.64" y2="259.94" xlink:href="#Degradado_sin_nombre_35"/><linearGradient id="Degradado_sin_nombre_26-11" x1="253.91" y1="328.15" x2="223.48" y2="265.75" xlink:href="#Degradado_sin_nombre_35"/><linearGradient id="Degradado_sin_nombre_26-12" x1="302.33" y1="264.09" x2="263.45" y2="321.72" xlink:href="#Degradado_sin_nombre_35"/></defs><title>API3-black-logotype</title><g class="cls-1"><g id="txt"><g id="isologotipo1-4" data-name="isologotipo1"><g id="OP2-Logotipo-color"><g id="API3-logo-black-11" data-name="API3-logo-black"><g id="API3-iso-black-4" data-name="API3-iso-black"><path d="M260.69,137.3a2.44,2.44,0,0,0-4.23,0L134.86,351.25a2.44,2.44,0,0,0,2.12,3.64H382.09a2.44,2.44,0,0,0,2.12-3.66ZM234.22,276h0l43.58-11.92L266,307.4h0L234.22,276"/><g id="_5" data-name="5" class="cls-2"><path class="cls-3" d="M137,354.89h49.26l45.29-173.72L134.86,351.25A2.44,2.44,0,0,0,137,354.89Z"/><path class="cls-3" d="M360,309.35,186.24,354.89H382.09a2.44,2.44,0,0,0,2.12-3.66Z"/><path class="cls-3" d="M333.36,282.75,360,309.35l-99.34-172a2.44,2.44,0,0,0-4.23,0l-24.93,43.86L333.25,282.64Z"/></g><g id="_4" data-name="4" class="cls-4"><polygon class="cls-3" points="186.24 354.89 222.05 345.51 221.85 218.32 186.24 354.89"/><polygon class="cls-3" points="221.85 218.32 333.36 282.75 231.53 181.17 231.53 181.17 221.85 218.32"/><polygon class="cls-3" points="222.05 345.51 360.03 309.35 360.03 309.35 333.36 282.75 222.05 345.51"/></g><g id="_3" data-name="3" class="cls-5"><polygon class="cls-3" points="222.05 345.51 245.93 332.04 221.89 245.3 222.05 345.51"/><polygon class="cls-3" points="333.36 282.75 309.88 269.18 245.93 332.04 333.36 282.75"/><polygon class="cls-3" points="221.89 245.3 309.88 269.18 221.85 218.32 221.89 245.3"/></g><g id="_2" data-name="2" class="cls-6"><polygon class="cls-3" points="277.8 264.12 291.31 264.14 221.89 245.3 227.07 264 277.68 264.12 277.8 264.12"/><polygon class="cls-3" points="234.08 275.8 227.07 264 245.93 332.04 259.29 318.91 234.22 276.04 234.08 275.8"/><polygon class="cls-3" points="291.31 264.14 259.29 318.91 309.88 269.18 291.31 264.14"/></g><g id="_1" data-name="1"><polygon class="cls-3" points="277.8 264.12 227.07 264 234.22 276.04 277.8 264.12"/><polygon class="cls-3" points="266.01 307.41 234.22 276.04 259.29 318.91 266.01 307.41"/><polygon class="cls-3" points="291.31 264.14 277.8 264.12 266.01 307.41 291.31 264.14"/></g><g id="Gradients" class="cls-7"><g id="_5-2" data-name="5" class="cls-8"><path class="cls-9" d="M137,354.89h49.26l45.29-173.72L134.86,351.25A2.44,2.44,0,0,0,137,354.89Z"/><path class="cls-10" d="M360,309.35,186.24,354.9H382.09a2.44,2.44,0,0,0,2.12-3.66Z"/><path class="cls-11" d="M333.36,282.75,360,309.35l-99.34-172a2.44,2.44,0,0,0-4.23,0l-24.93,43.86L333.25,282.64Z"/></g><g id="_4-2" data-name="4" class="cls-8"><polygon class="cls-12" points="186.24 354.89 222.05 345.51 221.85 218.32 186.24 354.89"/><polygon class="cls-13" points="221.85 218.32 333.36 282.75 231.53 181.17 221.85 218.32"/><polygon class="cls-14" points="222.05 345.51 360.03 309.35 360.03 309.35 333.36 282.75 222.05 345.51"/></g><g id="_3-2" data-name="3" class="cls-8"><polygon class="cls-15" points="222.05 345.51 245.93 332.04 221.89 245.3 222.05 345.51"/><polygon class="cls-16" points="333.36 282.75 309.88 269.18 245.93 332.04 333.36 282.75"/><polygon class="cls-17" points="221.89 245.3 309.88 269.18 221.85 218.32 221.89 245.3"/></g><g id="_2-2" data-name="2" class="cls-8"><polygon class="cls-18" points="277.8 264.12 291.31 264.14 221.89 245.3 227.07 264 277.68 264.12 277.8 264.12"/><polygon class="cls-19" points="234.08 275.8 227.07 264 245.93 332.04 259.29 318.91 234.22 276.04 234.08 275.8"/><polygon class="cls-20" points="291.31 264.14 259.29 318.91 309.88 269.18 291.31 264.14"/></g><g id="_1-2" data-name="1" class="cls-8"><polygon class="cls-21" points="277.8 264.12 227.07 264 234.22 276.04 277.8 264.12"/><polygon class="cls-22" points="266.01 307.41 234.22 276.04 259.29 318.91 266.01 307.41"/><polygon class="cls-23" points="291.31 264.14 277.8 264.12 266.01 307.41 291.31 264.14"/></g></g><path d="M260.69,137.3a2.44,2.44,0,0,0-4.23,0L134.86,351.25a2.44,2.44,0,0,0,2.12,3.64H382.09a2.44,2.44,0,0,0,2.12-3.66ZM234.22,276h0l43.58-11.92L266,307.4h0L234.22,276"/><g id="_5-3" data-name="5"><path class="cls-24" d="M137,354.89h49.26l45.29-173.72L134.86,351.25A2.44,2.44,0,0,0,137,354.89Z"/><path class="cls-24" d="M360,309.35,186.24,354.89H382.09a2.44,2.44,0,0,0,2.12-3.66Z"/><path class="cls-24" d="M333.36,282.75,360,309.35l-99.34-172a2.44,2.44,0,0,0-4.23,0l-24.93,43.86L333.25,282.64Z"/></g><g id="_4-3" data-name="4" class="cls-6"><polygon class="cls-24" points="186.24 354.89 222.05 345.51 221.85 218.32 186.24 354.89"/><polygon class="cls-24" points="221.85 218.32 333.36 282.75 231.53 181.17 231.53 181.17 221.85 218.32"/><polygon class="cls-24" points="222.05 345.51 360.03 309.35 360.03 309.35 333.36 282.75 222.05 345.51"/></g><g id="_3-3" data-name="3" class="cls-5"><polygon class="cls-24" points="222.05 345.51 245.93 332.04 221.89 245.3 222.05 345.51"/><polygon class="cls-24" points="333.36 282.75 309.88 269.18 245.93 332.04 333.36 282.75"/><polygon class="cls-24" points="221.89 245.3 309.88 269.18 221.85 218.32 221.89 245.3"/></g><g id="_2-3" data-name="2" class="cls-4"><polygon class="cls-24" points="277.8 264.12 291.31 264.14 221.89 245.3 227.07 264 277.68 264.12 277.8 264.12"/><polygon class="cls-24" points="234.08 275.8 227.07 264 245.93 332.04 259.29 318.91 234.22 276.04 234.08 275.8"/><polygon class="cls-24" points="291.31 264.14 259.29 318.91 309.88 269.18 291.31 264.14"/></g><g id="_1-3" data-name="1" class="cls-2"><polygon class="cls-24" points="277.8 264.12 227.07 264 234.22 276.04 277.8 264.12"/><polygon class="cls-24" points="266.01 307.41 234.22 276.04 259.29 318.91 266.01 307.41"/><polygon class="cls-24" points="291.31 264.14 277.8 264.12 266.01 307.41 291.31 264.14"/></g><g id="Gradients-2" data-name="Gradients" class="cls-25"><g id="_5-4" data-name="5" class="cls-26"><path class="cls-27" d="M137,354.89h49.26l45.29-173.72L134.86,351.25A2.44,2.44,0,0,0,137,354.89Z"/><path class="cls-28" d="M360,309.35,186.24,354.9H382.09a2.44,2.44,0,0,0,2.12-3.66Z"/><path class="cls-29" d="M333.36,282.75,360,309.35l-99.34-172a2.44,2.44,0,0,0-4.23,0l-24.93,43.86L333.25,282.64Z"/></g><g id="_4-4" data-name="4" class="cls-30"><polygon class="cls-31" points="186.24 354.89 222.05 345.51 221.85 218.32 186.24 354.89"/><polygon class="cls-32" points="221.85 218.32 333.36 282.75 231.53 181.17 221.85 218.32"/><polygon class="cls-33" points="222.05 345.51 360.03 309.35 360.03 309.35 333.36 282.75 222.05 345.51"/></g><g id="_3-4" data-name="3"><polygon class="cls-34" points="222.05 345.51 245.93 332.04 221.89 245.3 222.05 345.51"/><polygon class="cls-35" points="333.36 282.75 309.88 269.18 245.93 332.04 333.36 282.75"/><polygon class="cls-36" points="221.89 245.3 309.88 269.18 221.85 218.32 221.89 245.3"/></g><g id="_2-4" data-name="2"><polygon class="cls-37" points="277.8 264.12 291.31 264.14 221.89 245.3 227.07 264 277.68 264.12 277.8 264.12"/><polygon class="cls-38" points="234.08 275.8 227.07 264 245.93 332.04 259.29 318.91 234.22 276.04 234.08 275.8"/><polygon class="cls-39" points="291.31 264.14 259.29 318.91 309.88 269.18 291.31 264.14"/></g><g id="_1-4" data-name="1"><polygon class="cls-40" points="277.8 264.12 227.07 264 234.22 276.04 277.8 264.12"/><polygon class="cls-41" points="266.01 307.41 234.22 276.04 259.29 318.91 266.01 307.41"/><polygon class="cls-42" points="291.31 264.14 277.8 264.12 266.01 307.41 291.31 264.14"/></g></g></g><path class="cls-43" d="M500.9,179a9.4,9.4,0,0,0-5.13-1.43,9.68,9.68,0,0,0-4.94,1.33,8.22,8.22,0,0,0-3.42,4L428.63,313.64H437a11.56,11.56,0,0,0,10.57-6.86l12.48-28.07h72l12.26,28a11.57,11.57,0,0,0,10.59,6.93h8.23L504.32,182.9A8.91,8.91,0,0,0,500.9,179Zm25.46,86.79H465.75l.18-.42,30-68.22,30.22,68.22Z"/><path class="cls-43" d="M669.19,189q-11.69-10.26-32.78-10.26h-45a8,8,0,0,0-5.8,2.09,7.28,7.28,0,0,0-2.19,5.51V313.64h4A11.56,11.56,0,0,0,599,302.08v-44.3h37.44q20.9,0,32.69-10.45t11.78-29.27Q680.88,199.25,669.19,189Zm-34.3,55.88H599V191.64h35.92q30.6,0,30.6,26.42Q665.49,244.87,634.89,244.86Z"/><path class="cls-43" d="M711.88,178.72h-4V302.08a11.56,11.56,0,0,0,11.57,11.56h4V190.29A11.57,11.57,0,0,0,711.88,178.72Z"/><path class="cls-43" d="M835.3,256.26q-6.37-8.37-18.53-11.79A32.24,32.24,0,0,0,832.83,232a35.5,35.5,0,0,0,5.79-20.24q0-15.59-10.73-24.8t-29-9.22a64.68,64.68,0,0,0-22.9,4.18,62.86,62.86,0,0,0-9,4.17,11.51,11.51,0,0,0-3.77,16.44l1.22,1.82a64.14,64.14,0,0,1,16.73-10.17,46.5,46.5,0,0,1,17.29-3.32q11.79,0,18.25,5.79t6.46,16.63q0,12.36-8,18.91t-22.81,6.56h-7a6.33,6.33,0,0,0-6.65,6.46,6.73,6.73,0,0,0,1.8,4.66,6.22,6.22,0,0,0,4.85,2h10.07q30.79,0,30.79,24.52,0,12.17-7.32,18.63t-21.38,6.46a49.71,49.71,0,0,1-18.05-3.23A65.22,65.22,0,0,1,762.41,288l-1.2,1.79a11.59,11.59,0,0,0,4,16.61,64.06,64.06,0,0,0,8.85,4,67.6,67.6,0,0,0,23.66,4.18q20.34,0,32.12-10.07T841.66,277Q841.66,264.63,835.3,256.26Z"/></g></g></g></g></g></svg>