<svg width="141" height="42" viewBox="0 0 141 42" fill="none" xmlns="http://www.w3.org/2000/svg">
<path d="M23.8896 30.857L36.0813 36.6367C36.7059 36.9328 37.4537 36.6681 37.728 36.0335C40.5775 29.4405 42.3455 20.1606 39.1831 13.022C36.2046 6.29834 28.8387 4.47176 26.2309 4.85387L21.4469 7.44546C23.2574 7.7777 26.9082 10.037 27.0278 16.4163C27.1268 21.6953 25.0034 26.3371 23.3739 28.8734C22.9343 29.5576 23.1548 30.5086 23.8896 30.857Z" fill="#2B80D7"/>
<mask id="mask0_757_4348" style="mask-type:alpha" maskUnits="userSpaceOnUse" x="21" y="4" width="20" height="33">
<path d="M23.8895 30.8581L36.0812 36.6378C36.7058 36.9339 37.4536 36.6692 37.7279 36.0346C40.5773 29.4416 42.3454 20.1617 39.183 13.0231C36.2045 6.29944 28.8386 4.47286 26.2308 4.85497L21.4468 7.44656C23.2573 7.7788 26.9081 10.0381 27.0277 16.4174C27.1267 21.6964 25.0033 26.3382 23.3738 28.8745C22.9342 29.5587 23.1547 30.5097 23.8895 30.8581Z" fill="#DEA00D"/>
</mask>
<g mask="url(#mask0_757_4348)">
<g filter="url(#filter0_f_757_4348)">
<path d="M27.6204 32.8391C34.0437 28.2107 42.651 9.34718 38.3331 5.61752C36.7456 4.24621 22.256 4.57058 20.9615 3.5462L22.0166 5.11695C22.0166 5.11695 26.2587 10.4309 25.9811 18.7755C25.8105 23.9003 23.9693 29.1982 22.8253 31.7882C22.6383 32.2116 14.1388 28.0172 13.9791 28.3425C13.525 29.2676 21.8601 33.3968 21.8601 33.3968L27.1997 32.9881C27.3529 32.9763 27.4957 32.929 27.6204 32.8391Z" fill="url(#paint0_linear_757_4348)"/>
</g>
<g filter="url(#filter1_f_757_4348)">
<path d="M37.8749 37.8782C44.1569 33.1515 49.9876 19.1121 45.6031 11.2675C44.5796 9.43621 36.9153 4.19576 35.6208 3.17139L35.2184 8.39129C35.2184 8.39129 39.9489 12.9493 39.6707 21.3098C39.4525 27.8661 37.6029 32.8643 36.8147 34.7163C36.6243 35.1635 36.1151 35.3598 35.6644 35.1775C33.5355 34.3163 27.8888 31.9868 28.0864 31.5842C27.6324 32.5093 35.8906 37.3506 35.8906 37.3506L36.9734 37.9342C37.2622 38.0898 37.6127 38.0755 37.8749 37.8782Z" fill="url(#paint1_linear_757_4348)"/>
</g>
<g opacity="0.8" filter="url(#filter2_f_757_4348)">
<rect width="15.8579" height="13.2748" rx="2.50252" transform="matrix(0.94997 0.312342 -0.312247 0.950001 22.2167 19.9589)" fill="#13497E"/>
</g>
<g opacity="0.7" filter="url(#filter3_f_757_4348)">
<path d="M23.4635 27.7578C28.558 24.2002 29.3364 12.858 24.9272 8.48143C23.7906 7.35322 22.0943 6.1421 21.0004 5.3869L21.892 6.54489C21.892 6.54489 25.4769 10.4624 25.2423 16.6144C25.0982 20.3925 23.5422 24.2982 22.5754 26.2076C22.4174 26.5197 15.2347 23.4275 15.0997 23.6674C14.716 24.3494 21.7598 27.3935 21.7598 27.3935L22.6502 27.8122C22.9141 27.9362 23.2245 27.9248 23.4635 27.7578Z" fill="#2B80D7"/>
</g>
</g>
<path d="M32.8693 25.8645L21.6803 21.8146C21.3331 21.6889 20.9541 21.8883 20.8467 22.2415C20.0691 24.7977 18.0295 29.4124 14.0683 31.1415C8.8591 33.4156 7.14517 28.328 9.43734 34.7571C11.7295 41.1862 19.3036 43.0302 26.23 39.093C31.2509 36.2389 33.1871 30.4141 33.6547 27.1209C33.7331 26.5689 33.3935 26.0543 32.8693 25.8645Z" fill="url(#paint2_linear_757_4348)"/>
<mask id="mask1_757_4348" style="mask-type:alpha" maskUnits="userSpaceOnUse" x="8" y="21" width="26" height="21">
<path d="M32.8693 25.8657L21.6803 21.8157C21.3331 21.6901 20.9541 21.8895 20.8467 22.2426C20.0691 24.7988 18.0295 29.4135 14.0683 31.1427C8.8591 33.4167 7.14517 28.3291 9.43734 34.7583C11.7295 41.1874 19.3036 43.0314 26.23 39.0942C31.2509 36.2401 33.1871 30.4153 33.6547 27.1221C33.7331 26.57 33.3935 26.0555 32.8693 25.8657Z" fill="url(#paint3_radial_757_4348)"/>
</mask>
<g mask="url(#mask1_757_4348)">
<g filter="url(#filter4_f_757_4348)">
<path d="M15.4116 42.8809C26.2718 42.8809 30.8146 23.2803 29.5502 19.9521C29.4822 19.773 29.3169 19.6595 29.1341 19.6022L8.95722 13.2725L21.2348 18.3365C21.3704 18.3924 21.4489 18.5331 21.4195 18.6768C21.183 19.8326 20.0243 24.8229 17.0902 27.9898C13.7544 31.5901 6.86473 32.3979 4.02271 31.7266C2.50932 31.7242 1.65503 31.2064 1.65503 31.2064C5.09657 33.4428 10.0389 42.8809 15.4116 42.8809Z" fill="url(#paint4_linear_757_4348)"/>
</g>
<g opacity="0.4" filter="url(#filter5_f_757_4348)">
<path d="M16.6627 30.509C21.0756 27.5187 24.3668 16.1918 23.4869 13.0368C23.4076 12.7522 23.1324 12.5963 22.8373 12.5832L11.0157 12.0549L21.3052 17.1141C21.4271 17.174 21.4966 17.3024 21.4738 17.4363C21.2846 18.5475 20.3162 23.5839 17.8382 26.7722C15.0399 30.3725 9.26036 31.1803 6.87627 30.509C5.60673 30.5067 4.95129 31.0208 4.95129 31.0208C7.83831 33.2572 12.7443 33.1642 16.6627 30.509Z" fill="#3EBADD"/>
</g>
<g filter="url(#filter6_f_757_4348)">
<path d="M26.5759 40.0592C31.89 37.0385 36.5596 24.9126 35.4564 21.8463C35.3727 21.6136 35.143 21.4875 34.8974 21.4579L20.8187 19.7587L20.4991 21.8242L31.6175 26.1662C31.9811 26.3082 32.216 26.6594 32.1681 27.0468C31.992 28.4716 31.2387 32.0537 28.023 35.7136C23.8754 40.434 17.8794 40.2104 15.0373 39.539C13.5239 39.5367 13.1515 39.539 13.1515 39.539C16.39 41.8407 21.9049 42.7144 26.5759 40.0592Z" fill="url(#paint5_linear_757_4348)"/>
</g>
</g>
<path d="M15.9657 20.2522C12.5773 26.6283 9.29837 39.6851 19.6631 41.1304C15.6098 41.4422 6.39772 39.3602 2.21202 29.4723C-3.02012 17.1124 7.2454 2.26066 18.7063 0.915029C29.9106 -0.400482 35.6858 5.71457 39.0116 12.6479C39.097 12.8128 39.1718 12.9726 39.2362 13.1253C39.1626 12.9658 39.0877 12.8066 39.0116 12.6479C37.7319 10.1761 34.091 6.5717 27.9248 8.88909C23.4644 10.5654 18.5725 15.3468 15.9657 20.2522Z" fill="#2CBBF9"/>
<mask id="mask2_757_4348" style="mask-type:alpha" maskUnits="userSpaceOnUse" x="0" y="0" width="40" height="42">
<path d="M15.9657 20.2516C12.5773 26.6277 9.29837 39.6844 19.6631 41.1298C15.6098 41.4416 6.39772 39.3596 2.21202 29.4717C-3.02012 17.1118 7.2454 2.26005 18.7063 0.914418C29.9106 -0.401093 35.6858 5.71395 39.0116 12.6473C39.097 12.8122 39.1718 12.972 39.2362 13.1247C39.1626 12.9652 39.0877 12.806 39.0116 12.6473C37.7319 10.1754 34.091 6.57109 27.9248 8.88848C23.4644 10.5648 18.5725 15.3462 15.9657 20.2516Z" fill="#00CCC0"/>
</mask>
<g mask="url(#mask2_757_4348)">
<g filter="url(#filter7_f_757_4348)">
<path d="M-7.91145 29.1972C-3.72575 39.0851 15.3125 42.0461 19.3658 41.7343C19.5692 39.8162 13.7535 35.6516 13.9564 31.0175C13.9564 31.0175 6.54036 31.255 5.40796 20.251C4.27557 9.24698 10.5865 3.70905 10.5865 3.70905C3.06243 7.41862 -10.1758 23.8481 -7.91145 29.1972Z" fill="url(#paint6_linear_757_4348)"/>
<path d="M39.2361 13.1261C58.7734 -2.64557 25.7215 -6.28639 14.2607 -4.94075C9.48965 -4.38059 -3.06065 8.23532 1.87961 13.6644C1.87961 13.6644 7.00277 7.98814 14.2607 6.95112C21.5185 5.91411 24.8794 11.1469 24.8794 11.1469C25.7637 10.6044 28.0889 10.455 28.9605 10.1274C35.538 7.65546 38.9146 12.4484 39.2361 13.1261Z" fill="url(#paint7_linear_757_4348)"/>
</g>
<g filter="url(#filter8_f_757_4348)">
<path d="M2.69011 30.7454C-8.97454 27.0613 -3.36037 2.03983 8.34268 -1.54126C18.8725 -4.76335 19.7402 0.299442 21.5924 0.607897C21.8329 0.600467 21.9632 0.605231 21.9632 0.605231C21.8337 0.627905 21.7111 0.627652 21.5924 0.607897C20.201 0.650891 15.1225 1.10222 10.2794 5.24803C2.99538 11.4832 0.0626473 21.4515 2.69011 30.7454Z" fill="#56E5FF"/>
</g>
<g filter="url(#filter9_f_757_4348)">
<path d="M21.551 41.1095C18.3095 44.7589 5.0414 40.3214 0.855698 30.4335C0.102103 28.6533 0.921469 23.1916 0.867021 21.0691C0.857535 20.9098 0.855698 20.8246 0.855698 20.8246C0.861064 20.9001 0.864782 20.9818 0.867021 21.0691C0.937429 22.251 1.42923 27.5102 4.7191 32.263C8.45222 37.6562 16.1202 39.7686 16.1202 39.7686C17.1208 40.4804 19.9473 40.8859 21.551 41.1095Z" fill="#FDC7C7"/>
</g>
<mask id="mask3_757_4348" style="mask-type:alpha" maskUnits="userSpaceOnUse" x="-5" y="19" width="26" height="27">
<rect width="26.6031" height="9.34097" transform="matrix(0.696245 0.717804 -0.717687 0.696365 1.8136 19.476)" fill="url(#paint8_linear_757_4348)"/>
</mask>
<g mask="url(#mask3_757_4348)">
<path d="M21.5516 41.109C18.3101 44.7584 5.04201 40.3209 0.856308 30.433C0.102714 28.6528 0.922079 23.1912 0.867631 21.0686C0.858145 20.9093 0.856308 20.8241 0.856308 20.8241C0.861674 20.8996 0.865392 20.9813 0.867631 21.0686C0.93804 22.2505 1.42984 27.5097 4.71971 32.2625C8.45283 37.6557 16.1209 39.7681 16.1209 39.7681C17.1214 40.4799 19.9479 40.8854 21.5516 41.109Z" fill="#FDC7C7"/>
</g>
<g filter="url(#filter10_f_757_4348)">
<path d="M40.0644 13.645C40.918 7.44133 29.851 -2.17227 18.3902 -0.82664C14.2437 -0.339794 10.5697 3.65596 7.41345 6.92102C7.41345 6.92102 14.5764 0.554743 23.2965 1.77948C32.0166 3.00421 35.9129 9.46189 35.9129 9.46189C37.7338 10.5269 38.5646 13.7996 40.0644 13.645Z" fill="#EFC7FD"/>
</g>
<mask id="mask4_757_4348" style="mask-type:alpha" maskUnits="userSpaceOnUse" x="6" y="-3" width="33" height="17">
<rect width="31.6276" height="10.6225" transform="matrix(0.989125 0.147079 -0.147031 0.989132 7.63025 -2.0069)" fill="url(#paint9_linear_757_4348)"/>
</mask>
<g mask="url(#mask4_757_4348)">
<path d="M40.0646 13.6464C40.9183 7.44273 29.8513 -2.17087 18.3904 -0.825237C14.2439 -0.33839 10.5699 3.65737 7.4137 6.92242C7.4137 6.92242 14.5767 0.556146 23.2968 1.78088C32.0169 3.00561 35.9131 9.46329 35.9131 9.46329C37.734 10.5283 38.5648 13.801 40.0646 13.6464Z" fill="#EFC7FD"/>
</g>
<g filter="url(#filter11_f_757_4348)">
<path d="M26.7979 7.3302C15.0575 11.0331 4.65778 32.6459 14.763 40.753C24.8682 48.8602 36.6815 33.4601 42.6248 20.9868C39.6842 12.6042 38.5383 3.62729 26.7979 7.3302Z" fill="url(#paint10_linear_757_4348)"/>
</g>
<mask id="mask5_757_4348" style="mask-type:alpha" maskUnits="userSpaceOnUse" x="-5" y="-6" width="51" height="54">
<rect width="34.2275" height="40.8343" transform="matrix(0.855498 0.517807 -0.51768 0.855575 16.5284 -5.18903)" fill="url(#paint11_linear_757_4348)"/>
</mask>
<g mask="url(#mask5_757_4348)">
<path d="M26.7974 7.32977C15.057 11.0327 4.65729 32.6455 14.7625 40.7526C24.8677 48.8598 36.681 33.4597 42.6243 20.9864C39.6837 12.6038 38.5378 3.62686 26.7974 7.32977Z" fill="url(#paint12_linear_757_4348)"/>
</g>
</g>
<path d="M66.3885 12.5444C66.4484 12.3408 66.6352 12.2009 66.8474 12.2009H70.1679C70.4321 12.2009 70.6463 12.4151 70.6463 12.6793V32.3193C70.6463 32.5835 70.4321 32.7976 70.1679 32.7976H66.6668C66.4499 32.7976 66.2601 32.6516 66.2044 32.4419L65.803 30.9287C64.0488 32.4925 61.7607 33.4079 59.1293 33.4079C52.9513 33.4079 48.3369 28.7164 48.3369 22.4993C48.3369 16.2821 52.9513 11.6288 59.1293 11.6288C61.7988 11.6288 64.1251 12.5824 65.9174 14.1462L66.3885 12.5444ZM59.5869 28.1443C62.8285 28.1443 65.1929 25.7414 65.1929 22.4993C65.1929 19.2572 62.8285 16.8543 59.5869 16.8543C56.3454 16.8543 53.981 19.2572 53.981 22.4993C53.981 25.7032 56.3454 28.1443 59.5869 28.1443Z" fill="#373A4A"/>
<path d="M88.6633 12.5177C88.7316 12.3277 88.9117 12.2009 89.1136 12.2009H93.8314C94.1692 12.2009 94.4006 12.5415 94.2762 12.8556L86.4943 32.4955C86.422 32.6779 86.2457 32.7976 86.0495 32.7976H81.5479C81.3534 32.7976 81.1782 32.6799 81.1049 32.4997L73.1048 12.8598C72.9766 12.5452 73.2081 12.2009 73.5478 12.2009H78.4507C78.6518 12.2009 78.8313 12.3266 78.9002 12.5155L83.8194 26.0084L88.6633 12.5177Z" fill="#373A4A"/>
<path d="M112.82 12.2009H116.498C116.762 12.2009 116.977 12.4151 116.977 12.6793V32.3193C116.977 32.5835 116.762 32.7976 116.498 32.7976H112.997C112.78 32.7976 112.59 32.6516 112.535 32.4419L112.133 30.9287C110.379 32.4925 108.091 33.4079 105.46 33.4079C99.2816 33.4079 94.6672 28.7164 94.6672 22.4993C94.6672 16.2821 99.2816 11.6288 105.46 11.6288C108.129 11.6288 110.455 12.5824 112.248 14.1462L112.82 12.2009ZM105.917 28.1443C109.159 28.1443 111.523 25.7414 111.523 22.4993C111.523 19.2572 109.159 16.8543 105.917 16.8543C102.676 16.8543 100.311 19.2572 100.311 22.4993C100.311 25.7032 102.676 28.1443 105.917 28.1443Z" fill="#373A4A"/>
<path d="M124.336 10.1832C122.85 10.1832 121.646 8.97849 121.646 7.49234C121.646 6.0062 122.85 4.80144 124.336 4.80144H124.484C125.97 4.80144 127.175 6.0062 127.175 7.49234C127.175 8.97849 125.97 10.1832 124.484 10.1832H124.336ZM122.086 32.7976C121.822 32.7976 121.607 32.5835 121.607 32.3193V12.6793C121.607 12.4151 121.822 12.2009 122.086 12.2009H126.697C126.961 12.2009 127.175 12.4151 127.175 12.6793V32.3193C127.175 32.5835 126.961 32.7976 126.697 32.7976H122.086Z" fill="#373A4A"/>
<path d="M137.324 26.0338C137.324 26.5192 137.424 26.8619 137.624 27.0617C137.852 27.233 138.209 27.3187 138.695 27.3187C138.937 27.3187 139.162 27.3187 139.491 27.3187C139.82 27.3187 140.022 27.6137 140.022 27.8839V32.1589L140.022 32.1784C140.023 32.49 139.784 32.7665 139.404 32.7665C138.684 32.7665 138.086 32.7976 137.324 32.7976L136.296 32.7976C134.84 32.7976 133.712 32.4121 132.913 31.6412C132.142 30.8703 131.757 29.4998 131.757 27.5296V5.27983C131.757 5.01562 131.971 4.80144 132.235 4.80144L136.846 4.8014C137.11 4.8014 137.324 5.01558 137.324 5.27979V26.0338Z" fill="#373A4A"/>
<defs>
<filter id="filter0_f_757_4348" x="9.26896" y="-1.14602" width="34.9215" height="39.235" filterUnits="userSpaceOnUse" color-interpolation-filters="sRGB">
<feFlood flood-opacity="0" result="BackgroundImageFix"/>
<feBlend mode="normal" in="SourceGraphic" in2="BackgroundImageFix" result="shape"/>
<feGaussianBlur stdDeviation="2.34611" result="effect1_foregroundBlur_757_4348"/>
</filter>
<filter id="filter1_f_757_4348" x="27.912" y="3.01498" width="19.3743" height="35.1813" filterUnits="userSpaceOnUse" color-interpolation-filters="sRGB">
<feFlood flood-opacity="0" result="BackgroundImageFix"/>
<feBlend mode="normal" in="SourceGraphic" in2="BackgroundImageFix" result="shape"/>
<feGaussianBlur stdDeviation="0.0782036" result="effect1_foregroundBlur_757_4348"/>
</filter>
<filter id="filter2_f_757_4348" x="14.3479" y="16.2352" width="26.6571" height="25.0114" filterUnits="userSpaceOnUse" color-interpolation-filters="sRGB">
<feFlood flood-opacity="0" result="BackgroundImageFix"/>
<feBlend mode="normal" in="SourceGraphic" in2="BackgroundImageFix" result="shape"/>
<feGaussianBlur stdDeviation="2.1897" result="effect1_foregroundBlur_757_4348"/>
</filter>
<filter id="filter3_f_757_4348" x="14.459" y="4.76127" width="13.9754" height="23.7599" filterUnits="userSpaceOnUse" color-interpolation-filters="sRGB">
<feFlood flood-opacity="0" result="BackgroundImageFix"/>
<feBlend mode="normal" in="SourceGraphic" in2="BackgroundImageFix" result="shape"/>
<feGaussianBlur stdDeviation="0.312815" result="effect1_foregroundBlur_757_4348"/>
</filter>
<filter id="filter4_f_757_4348" x="-1.47312" y="10.1444" width="34.3574" height="35.8646" filterUnits="userSpaceOnUse" color-interpolation-filters="sRGB">
<feFlood flood-opacity="0" result="BackgroundImageFix"/>
<feBlend mode="normal" in="SourceGraphic" in2="BackgroundImageFix" result="shape"/>
<feGaussianBlur stdDeviation="1.56407" result="effect1_foregroundBlur_757_4348"/>
</filter>
<filter id="filter5_f_757_4348" x="4.32566" y="11.4293" width="19.9298" height="21.8026" filterUnits="userSpaceOnUse" color-interpolation-filters="sRGB">
<feFlood flood-opacity="0" result="BackgroundImageFix"/>
<feBlend mode="normal" in="SourceGraphic" in2="BackgroundImageFix" result="shape"/>
<feGaussianBlur stdDeviation="0.312815" result="effect1_foregroundBlur_757_4348"/>
</filter>
<filter id="filter6_f_757_4348" x="12.9951" y="19.6023" width="22.7806" height="22.2482" filterUnits="userSpaceOnUse" color-interpolation-filters="sRGB">
<feFlood flood-opacity="0" result="BackgroundImageFix"/>
<feBlend mode="normal" in="SourceGraphic" in2="BackgroundImageFix" result="shape"/>
<feGaussianBlur stdDeviation="0.0782036" result="effect1_foregroundBlur_757_4348"/>
</filter>
<filter id="filter7_f_757_4348" x="-13.1735" y="-10.2027" width="63.4632" height="56.964" filterUnits="userSpaceOnUse" color-interpolation-filters="sRGB">
<feFlood flood-opacity="0" result="BackgroundImageFix"/>
<feBlend mode="normal" in="SourceGraphic" in2="BackgroundImageFix" result="shape"/>
<feGaussianBlur stdDeviation="2.50252" result="effect1_foregroundBlur_757_4348"/>
</filter>
<filter id="filter8_f_757_4348" x="-4.3633" y="-3.23543" width="26.9522" height="34.6065" filterUnits="userSpaceOnUse" color-interpolation-filters="sRGB">
<feFlood flood-opacity="0" result="BackgroundImageFix"/>
<feBlend mode="normal" in="SourceGraphic" in2="BackgroundImageFix" result="shape"/>
<feGaussianBlur stdDeviation="0.312815" result="effect1_foregroundBlur_757_4348"/>
</filter>
<filter id="filter9_f_757_4348" x="-0.0903509" y="20.199" width="22.267" height="22.8034" filterUnits="userSpaceOnUse" color-interpolation-filters="sRGB">
<feFlood flood-opacity="0" result="BackgroundImageFix"/>
<feBlend mode="normal" in="SourceGraphic" in2="BackgroundImageFix" result="shape"/>
<feGaussianBlur stdDeviation="0.312815" result="effect1_foregroundBlur_757_4348"/>
</filter>
<filter id="filter10_f_757_4348" x="6.78782" y="-1.57973" width="33.9486" height="15.8557" filterUnits="userSpaceOnUse" color-interpolation-filters="sRGB">
<feFlood flood-opacity="0" result="BackgroundImageFix"/>
<feBlend mode="normal" in="SourceGraphic" in2="BackgroundImageFix" result="shape"/>
<feGaussianBlur stdDeviation="0.312815" result="effect1_foregroundBlur_757_4348"/>
</filter>
<filter id="filter11_f_757_4348" x="10.5195" y="6.31582" width="32.2617" height="36.8508" filterUnits="userSpaceOnUse" color-interpolation-filters="sRGB">
<feFlood flood-opacity="0" result="BackgroundImageFix"/>
<feBlend mode="normal" in="SourceGraphic" in2="BackgroundImageFix" result="shape"/>
<feGaussianBlur stdDeviation="0.0782036" result="effect1_foregroundBlur_757_4348"/>
</filter>
<linearGradient id="paint0_linear_757_4348" x1="29.9437" y1="8.59063" x2="29.7455" y2="33.5648" gradientUnits="userSpaceOnUse">
<stop stop-color="#13497E"/>
<stop offset="0.640419" stop-color="#2B80D7"/>
</linearGradient>
<linearGradient id="paint1_linear_757_4348" x1="37.5991" y1="10.4266" x2="37.6086" y2="36.3738" gradientUnits="userSpaceOnUse">
<stop stop-color="#E2C7FE"/>
<stop offset="0.450702" stop-color="#77B8FD"/>
</linearGradient>
<linearGradient id="paint2_linear_757_4348" x1="27.2233" y1="17.0931" x2="13.8342" y2="39.6203" gradientUnits="userSpaceOnUse">
<stop stop-color="#269EBF"/>
<stop offset="1" stop-color="#3EBADD"/>
</linearGradient>
<radialGradient id="paint3_radial_757_4348" cx="0" cy="0" r="1" gradientUnits="userSpaceOnUse" gradientTransform="translate(29.049 24.6232) rotate(139.705) scale(28.4118 20.9361)">
<stop offset="0.411461" stop-color="#FF7360"/>
<stop offset="1" stop-color="#630513"/>
</radialGradient>
<linearGradient id="paint4_linear_757_4348" x1="24.5092" y1="22.9435" x2="13.4977" y2="38.6568" gradientUnits="userSpaceOnUse">
<stop stop-color="#33B6D2"/>
<stop offset="0.142991" stop-color="#5BD8FF"/>
<stop offset="1" stop-color="#228AA7"/>
</linearGradient>
<linearGradient id="paint5_linear_757_4348" x1="28.1096" y1="24.6722" x2="18.662" y2="40.3881" gradientUnits="userSpaceOnUse">
<stop offset="0.635417" stop-color="#68DEFF"/>
<stop offset="1" stop-color="#F3C8CB"/>
</linearGradient>
<linearGradient id="paint6_linear_757_4348" x1="2.30371" y1="14.0544" x2="12.7156" y2="39.8177" gradientUnits="userSpaceOnUse">
<stop offset="0.661495" stop-color="#88FFF8"/>
<stop offset="1" stop-color="#176781"/>
</linearGradient>
<linearGradient id="paint7_linear_757_4348" x1="7.83403" y1="15.6434" x2="36.7585" y2="3.65299" gradientUnits="userSpaceOnUse">
<stop offset="0.731633" stop-color="#4D89FD"/>
<stop offset="1" stop-color="#033883"/>
</linearGradient>
<linearGradient id="paint8_linear_757_4348" x1="25.405" y1="4.54557" x2="10.7951" y2="7.1192" gradientUnits="userSpaceOnUse">
<stop stop-color="#D9D9D9"/>
<stop offset="0.658857" stop-color="#D9D9D9" stop-opacity="0"/>
</linearGradient>
<linearGradient id="paint9_linear_757_4348" x1="31.6064" y1="7.99669" x2="16.7665" y2="1.09312" gradientUnits="userSpaceOnUse">
<stop stop-color="#D9D9D9"/>
<stop offset="1" stop-color="#D9D9D9" stop-opacity="0"/>
</linearGradient>
<linearGradient id="paint10_linear_757_4348" x1="34.262" y1="7.243" x2="14.7976" y2="40.209" gradientUnits="userSpaceOnUse">
<stop stop-color="#EFC7FE"/>
<stop offset="0.286458" stop-color="#2CBBF9"/>
<stop offset="0.65625" stop-color="#2CBBF9"/>
<stop offset="1" stop-color="#FDC8C8"/>
</linearGradient>
<linearGradient id="paint11_linear_757_4348" x1="33.4852" y1="19.1239" x2="4.9907" y2="18.5219" gradientUnits="userSpaceOnUse">
<stop stop-color="#D9D9D9"/>
<stop offset="0.659264" stop-color="#D9D9D9" stop-opacity="0"/>
</linearGradient>
<linearGradient id="paint12_linear_757_4348" x1="34.2615" y1="7.24257" x2="14.7971" y2="40.2086" gradientUnits="userSpaceOnUse">
<stop stop-color="#EFC7FE"/>
<stop offset="0.317708" stop-color="#2CBBF9"/>
<stop offset="0.661458" stop-color="#2CBBF9"/>
<stop offset="1" stop-color="#FDC8C8"/>
</linearGradient>
</defs>
</svg>
