<svg viewBox="0 0 624 150" xmlns="http://www.w3.org/2000/svg"><path fill="#1980E5" d="M45 0H0V45H45V0Z"></path><path fill="#1980E5" d="M45 52.5H0V97.5H45V52.5Z"></path><path fill="#1980E5" d="M45 105H0V150H45V105Z" ></path><path fill="#1980E5" d="M97.5 0H52.5V45H97.5V0Z" ></path><path fill="#1980E5" d="M150 0H105V45H150V0Z" ></path><path fill="#FA8033" d="M75 98C87.7025 98 98 87.7025 98 75C98 62.2975 87.7025 52 75 52C62.2975 52 52 62.2975 52 75C52 87.7025 62.2975 98 75 98Z"></path><path d="M204 110.2C205.9 111.1 209.2 112 215.6 112C223.6 112 235.7 106.5 235.7 87.8C235.7 68.9 223.1 66 217.9 66C212.4 66 207.1 68 203.9 70.2V110.2H204ZM189 119V23H204V58.4C209 55.8 215.1 54.5 220.5 54.5C226 54.5 251.3 57.4 251.3 88.3C251.3 117.1 225.7 124.1 215.7 124.1C205.1 124 193 121 189 119Z" ></path><path d="M278.8 35.1C278.8 40 274.7 44 269.6 44C264.4 44 260.4 40 260.4 35.1C260.4 30 264.4 26 269.6 26C274.6 26 278.8 30 278.8 35.1ZM262 56V123H277V56H262Z" ></path><path d="M333.1 108.4C330.7 109.9 326.9 111.9 322.9 111.9C319.3 111.9 316 110.4 316 102.3V67.5H331.9L334.8 56H316V35L301 41V56H289V67.5H301V106C301 115.4 306.2 124 319.4 124C325.8 124 333.5 121.8 338.2 118.4L333.1 108.4Z" ></path><path d="M399.7 42L402.7 30H349.2V123H364.2V81.1H398.7V69.1H364.2V42H399.7Z" ></path><path d="M428.7 23H413.7V123H428.7V23Z" ></path><path d="M570.9 89.2C570.9 70.2 561.9 54.4 542.1 54.4C522.6 54.4 510.9 70.2 510.9 89.2C510.9 110.2 523.7 124 542.1 124C553.6 124 562 119.6 567.6 114.4L560.7 104.6C555.3 108.8 549.3 112 543.3 112C534.3 112 526 104.9 525.4 93.9H570.6C570.8 93.1 570.9 90.9 570.9 89.2ZM542.1 66C550.8 66 556.4 72.5 556.8 82.9H525.4C526.1 73.6 533.6 66 542.1 66Z" ></path><path d="M615 54.5C608 54.5 603 58.3 597 63.9L595 56H583V123H598V74.8C601 72 606.1 67.6 611.4 67.6C613.4 67.6 615.8 68 618.8 69.5L624 56.9C620.9 55.1 617.8 54.5 615 54.5Z" ></path><path d="M467.9 122.1L438.7 56H454.2L475.3 106.2L492.2 56H507.2L485.3 117.2C475.3 145.2 464.3 150 455.3 150C450.3 150 446.2 148.8 441.7 146.2L446.7 134.4C448.8 135.3 451.7 136.4 455.7 136.4C460.7 136.5 465.9 127.8 467.9 122.1Z" ></path></svg>
