<svg class="w-32 mr-5" xmlns="http://www.w3.org/2000/svg" viewBox="0 0 490.13 70.87"><defs><style>.cls-1<!-- -->{<!-- -->fill:black<!-- -->}</style></defs><g id="レイヤー_2"><g id="logo"><path class="cls-1" d="M249.16 10.89h-10.95a.4.4 0 0 0-.39.39v30.9a11.74 11.74 0 1 1-23.47 0v-30.9a.39.39 0 0 0-.39-.39H203a.39.39 0 0 0-.39.39v30.9a23.47 23.47 0 0 0 46.94 0v-30.9a.4.4 0 0 0-.39-.39ZM310.19 10.89a23.5 23.5 0 0 0-23.47 23.47v30.9a.38.38 0 0 0 .39.39h10.95a.38.38 0 0 0 .39-.39v-30.9a11.74 11.74 0 1 1 23.47 0v30.9a.39.39 0 0 0 .39.39h10.95a.39.39 0 0 0 .4-.39v-30.9a23.5 23.5 0 0 0-23.47-23.47ZM413.45 55.87H383a.19.19 0 0 1-.15-.32l29-34.77a.38.38 0 0 0 .09-.25v-9.25a.4.4 0 0 0-.39-.39h-40.34a.39.39 0 0 0-.39.39v9a.39.39 0 0 0 .39.39h26.57a.19.19 0 0 1 .15.32L369 55.76a.41.41 0 0 0-.09.26v9.24a.39.39 0 0 0 .39.39h44.2a.38.38 0 0 0 .39-.39v-9a.39.39 0 0 0-.44-.39ZM489.74 55.87h-30.49a.2.2 0 0 1-.15-.32l29-34.78a.38.38 0 0 0 .09-.25v-9.25a.39.39 0 0 0-.39-.39h-40.31a.4.4 0 0 0-.39.39v9a.39.39 0 0 0 .39.39h26.57a.2.2 0 0 1 .16.32l-29 34.78a.38.38 0 0 0-.09.25v9.24a.39.39 0 0 0 .39.4h44.2a.4.4 0 0 0 .39-.4v-9a.39.39 0 0 0-.37-.38ZM165.46 26.54a15.67 15.67 0 0 0-15.65-15.65h-28.95a.4.4 0 0 0-.39.39v54a.39.39 0 0 0 .39.39h29a15.64 15.64 0 0 0 10.34-27.38 15.66 15.66 0 0 0 5.26-11.75Zm-15.17 6.13a6.36 6.36 0 0 1-2.92.71h-15a.19.19 0 0 1-.19-.19V20.86a.19.19 0 0 1 .19-.19h15a6.23 6.23 0 0 1 2.45.49l.27.11h.06a6.31 6.31 0 0 1 3.57 6.15 6.38 6.38 0 0 1-3.43 5.25Zm3.41 16.38a6.3 6.3 0 0 1-3.53 6.17h-.07l-.29.13a6.41 6.41 0 0 1-2.45.48h-15a.18.18 0 0 1-.19-.19V43.36a.19.19 0 0 1 .19-.2h15a6.34 6.34 0 0 1 6.34 5.89Z"></path><rect class="cls-1" x="32.43" y="4.13" width="38.98" height="7.09" rx="3.54" transform="rotate(-15 51.92 7.686)"></rect><rect class="cls-1" x="-.54" y="4.13" width="38.98" height="7.09" rx="3.54" transform="rotate(-15 18.927 7.67)"></rect><path class="cls-1" d="M68.21 23.74H36.27a3.67 3.67 0 0 0-1.59.37l-12.23 6.12a2.63 2.63 0 0 1-2.38 0L7.83 24.11a3.59 3.59 0 0 0-1.58-.37H2.66A2.66 2.66 0 0 1 0 21.08a2.65 2.65 0 0 1 2.66-2.65h65.55a2.65 2.65 0 0 1 2.66 2.65 2.66 2.66 0 0 1-2.66 2.66Z"></path><path class="cls-1" d="M68 42.52H2.83A2.83 2.83 0 0 1 0 39.69v-8.51a2.83 2.83 0 0 1 2.83-2.83h3.42a3.46 3.46 0 0 1 1.58.37l12.24 6.12a2.69 2.69 0 0 0 2.38 0l12.23-6.12a3.53 3.53 0 0 1 1.59-.37H68a2.84 2.84 0 0 1 2.84 2.83v8.51A2.84 2.84 0 0 1 68 42.52Z"></path><rect class="cls-1" y="60.24" width="70.87" height="10.63" rx="3.54"></rect><path class="cls-1" d="M60.94 57.38a9.84 9.84 0 0 1-7-2.88L51.42 52A4.56 4.56 0 0 0 45 52l-2.59 2.5a9.87 9.87 0 0 1-13.94 0L25.92 52a4.57 4.57 0 0 0-6.46 0l-2.55 2.5A9.89 9.89 0 0 1 3 54.5L.77 52.31a2.65 2.65 0 1 1 3.75-3.74l2.18 2.19a4.59 4.59 0 0 0 6.47 0l2.55-2.55a9.86 9.86 0 0 1 13.94 0l2.55 2.55a4.57 4.57 0 0 0 6.46 0l2.55-2.55a9.86 9.86 0 0 1 13.94 0l2.55 2.55a4.57 4.57 0 0 0 6.46 0l2.18-2.18a2.64 2.64 0 0 1 3.74 3.74l-2.18 2.18a9.82 9.82 0 0 1-6.97 2.88Z"></path></g></g></svg>
