<svg width="1646" height="254" viewBox="0 0 1646 254" fill="none" xmlns="http://www.w3.org/2000/svg">
<path d="M1630.83 140.14L1578.45 87.9301H1645.7V62.3101H1514.83L1594.12 141.31L1515.12 219.38C1526.33 219.38 1551.18 219.38 1551.18 219.38C1551.18 219.38 1603.07 167.81 1627.87 143.14C1628.77 142.38 1629.55 141.47 1630.83 140.14Z" fill="#020024"/>
<path d="M552.425 79.6802C535.265 94.2202 524.845 112.54 523.425 135.05C521.525 165.45 534.265 189.17 559.865 207.31C555.305 211.43 551.235 215.11 546.805 219.13H657.405L644.835 207.08C689.835 176.37 689.395 121.08 662.545 90.1802C631.395 54.3102 581.535 55.0102 552.425 79.6802ZM602.605 192.97C573.605 193.25 549.815 169.97 549.685 141.2C549.545 111.76 572.395 88.6702 601.885 88.4502C615.745 88.3547 629.075 93.7691 638.943 103.502C648.812 113.235 654.409 126.49 654.505 140.35C654.6 154.21 649.186 167.541 639.453 177.409C629.719 187.277 616.465 192.875 602.605 192.97V192.97Z" fill="#020024"/>
<path d="M738.275 83.9601C722.915 99.3001 714.175 117.48 713.855 139.06C713.435 167.84 726.135 190.22 750.165 207.06L737.595 219.23H848.595L835.345 207.29C880.555 177.68 881.825 118.45 849.175 85.7701C817.145 53.7001 766.835 55.4901 738.275 83.9601ZM792.755 192.96C763.755 192.96 740.165 169.52 740.215 140.73C740.163 130.34 743.197 120.168 748.931 111.503C754.665 102.838 762.842 96.0697 772.425 92.0555C782.009 88.0413 792.569 86.9618 802.766 88.9536C812.964 90.9454 822.341 95.919 829.71 103.244C837.079 110.57 842.108 119.917 844.16 130.103C846.212 140.289 845.195 150.855 841.238 160.462C837.281 170.069 830.561 178.286 821.93 184.071C813.299 189.857 803.145 192.95 792.755 192.96Z" fill="#020024"/>
<path d="M1362.33 89.5001H1414.83V220.36H1441.21V89.5601H1493.3V63.5601H1362.3L1362.33 89.5001Z" fill="#020024"/>
<path d="M1614.39 193.31L1588.59 219.2H1645.67V193.14L1614.39 193.31Z" fill="#020024"/>
<path d="M464.725 126.56L412.324 178.79C411.064 177.63 410.164 176.79 409.324 176C384.604 151.253 359.871 126.513 335.124 101.78C334.309 101.028 333.669 100.104 333.253 99.075C332.836 98.0463 332.652 96.9381 332.714 95.83C332.834 85.2 332.764 74.56 332.764 62.73L411.834 141.39L490.454 63.02V219.81H464.725V126.56Z" fill="#020024"/>
<path d="M1212.5 184.68C1192.95 213.68 1158.19 226.3 1124.5 217.01C1094.5 208.75 1070.6 178.84 1068.25 148.33C1066.83 131.581 1070.79 114.815 1079.55 100.468C1088.31 86.1224 1101.41 74.9444 1116.96 68.5598C1148.38 55.7498 1182.44 65.0598 1201.96 85.5598L1184.24 103.77C1178.85 99.5698 1174.39 96.4798 1168.91 93.9998C1134.49 78.4298 1099.28 101.72 1094.91 133.54C1090.91 163.09 1109.84 188.95 1139.45 193.15C1156.26 195.54 1171.23 190.76 1183.45 178.79C1185.69 176.61 1187.45 176.26 1190.27 177.27C1197.58 179.91 1204.94 182.19 1212.5 184.68Z" fill="#020024"/>
<path d="M904.344 62.8501C904.344 62.8501 918.904 75.7001 925.734 81.8501C961.554 114.023 997.388 146.183 1033.23 178.33C1034.04 178.997 1034.69 179.84 1035.12 180.795C1035.56 181.75 1035.77 182.792 1035.73 183.84C1035.6 195.62 1035.67 207.4 1035.67 220.09L930.574 125.95V219.95H907.224C906.838 219.964 906.453 219.898 906.093 219.756C905.734 219.614 905.408 219.399 905.135 219.125C904.863 218.851 904.65 218.523 904.51 218.162C904.371 217.802 904.308 217.416 904.324 217.03C904.324 215.56 904.344 62.8501 904.344 62.8501Z" fill="#020024"/>
<path d="M1009.29 62.8398H1035.4V140.98C1035.4 140.98 1018.4 125.98 1011.03 119.27C1010.06 118.401 1009.45 117.204 1009.3 115.91C1009.21 98.5599 1009.29 62.8398 1009.29 62.8398Z" fill="#020024"/>
<path d="M1147.01 154.63V128.81H1211.91C1211.4 129.543 1210.85 130.247 1210.25 130.92C1202.84 138.253 1195.41 145.587 1187.95 152.92C1187.23 153.755 1186.25 154.322 1185.16 154.53C1172.56 154.66 1159.96 154.63 1147.01 154.63Z" fill="#020024"/>
<path d="M1301.59 62.27C1285.83 93.65 1222.83 219.4 1222.83 219.4H1249.01C1249.99 219.489 1250.97 219.264 1251.81 218.759C1252.65 218.254 1253.31 217.494 1253.68 216.59C1254.55 214.82 1301.57 121.18 1301.57 121.18C1302.39 122.8 1348.57 214.82 1349.47 216.59C1349.85 217.494 1350.5 218.254 1351.34 218.76C1352.18 219.266 1353.16 219.49 1354.13 219.4H1380.31L1301.59 62.27Z" fill="#020024"/>
<path d="M262.834 118.33C256.004 51.65 201.004 1.7 133.414 0H130.144C62.5544 1.7 7.55442 51.65 0.724422 118.33C-6.16558 185.77 37.2344 237.1 82.3444 253.96C81.0544 252.06 80.1544 250.67 79.1844 249.34C54.1844 215.4 68.5744 165.66 107.834 150.45C113.514 148.25 119.114 147.45 123.484 149.24C128.344 151.24 131.784 155.94 131.784 155.94C133.945 153.049 136.795 150.746 140.074 149.24C144.444 147.47 150.074 148.24 155.724 150.45C194.984 165.66 209.334 215.45 184.374 249.34C183.374 250.67 182.514 252.06 181.214 253.96C226.324 237.1 269.744 185.77 262.834 118.33ZM131.834 145.41C121.134 145.41 107.734 148.41 107.734 148.41L132.024 137L156.164 148.41C156.164 148.41 142.584 145.41 131.834 145.41Z" fill="#45BFB0"/>
</svg>
