<svg width="580" height="150" viewBox="0 0 580 150" fill="none" xmlns="http://www.w3.org/2000/svg">
<path d="M0 34.6579V121.955L56.6809 142.304V54.2718L117.959 31.7005L62.3352 11.7803L0 34.6579Z" fill="#00E7A2"/>
<path d="M61.3122 57.4782L61.2969 104.536L117.978 124.839V36.5312L61.3122 57.4782Z" fill="#00B79C"/>
<path d="M184.598 52.8892C189.195 56.9754 191.493 62.88 191.493 70.6029V110.796H181.456V74.1733C181.456 67.6456 180.052 62.9158 177.242 59.9839C175.78 58.5046 174.023 57.3488 172.086 56.5912C170.148 55.8337 168.073 55.4913 165.995 55.5861C162.726 55.5723 159.499 56.3226 156.571 57.7773C153.5 59.3895 150.986 61.8883 149.354 64.9487C147.343 68.7951 146.371 73.0999 146.534 77.4371V110.796H136.482V49.9165L145.676 53.6554L145.952 57.7773C147.893 54.1562 150.921 51.2353 154.61 49.4262C158.496 47.5867 162.753 46.664 167.052 46.7293C173.468 46.4993 179.734 48.6992 184.598 52.8892V52.8892Z" fill="#010032"/>
<path d="M262.978 83.1495H215.629C216.211 89.5239 218.326 94.4682 221.973 97.9824C223.86 99.7539 226.082 101.132 228.507 102.037C230.933 102.942 233.514 103.356 236.101 103.254C240.068 103.394 244.011 102.574 247.593 100.863C250.494 99.466 252.729 96.9836 253.814 93.9524L262.227 98.3502C259.898 102.618 256.414 106.144 252.175 108.525C247.206 111.053 241.672 112.267 236.101 112.049C226.631 112.049 219.199 109.158 213.805 103.376C208.411 97.5942 205.709 89.6005 205.699 79.3952C205.699 69.1797 208.253 61.181 213.361 55.399C218.469 49.617 225.778 46.726 235.288 46.726C240.618 46.5911 245.88 47.9385 250.489 50.6182C254.672 53.1199 258.033 56.7896 260.158 61.1759C262.384 65.8375 263.501 70.951 263.422 76.1161C263.442 78.4682 263.293 80.8186 262.978 83.1495ZM221.973 60.3791C218.571 63.648 216.497 68.245 215.751 74.17H253.814C253.479 69.0577 251.446 64.2038 248.037 60.3791C246.385 58.7141 244.402 57.4126 242.218 56.5577C240.033 55.7027 237.694 55.3133 235.35 55.4143C232.902 55.3088 230.457 55.6937 228.16 56.5462C225.863 57.3988 223.759 58.702 221.973 60.3791Z" fill="#010032"/>
<path d="M329.986 55.4054C335.39 61.1772 338.092 69.1759 338.092 79.4017C338.092 89.6274 335.39 97.6211 329.986 103.383C324.592 109.165 317.16 112.056 307.691 112.056C298.221 112.056 290.789 109.165 285.395 103.383C279.991 97.6109 277.289 89.6172 277.289 79.4017C277.289 69.1861 279.991 61.1874 285.395 55.4054C290.789 49.6337 298.221 46.7427 307.691 46.7324C317.16 46.7222 324.592 49.6132 329.986 55.4054ZM292.735 61.8106C289.139 66.0909 287.341 71.9545 287.341 79.4017C287.341 86.8488 289.139 92.7074 292.735 96.9775C296.331 101.248 301.316 103.383 307.691 103.383C314.065 103.383 319.045 101.248 322.631 96.9775C326.227 92.7074 328.03 86.8488 328.04 79.4017C328.05 71.9545 326.247 66.0909 322.631 61.8106C319.025 57.5303 314.045 55.3952 307.691 55.4054C301.336 55.4157 296.346 57.5507 292.72 61.8106H292.735Z" fill="#010032"/>
<line x1="400.099" y1="29.88" x2="400.099" y2="126.668" stroke="black" stroke-width="1.44364" stroke-linecap="round"/>
<path fill-rule="evenodd" clip-rule="evenodd" d="M569.46 121.482C574.588 127.96 572.546 137.508 565.218 141.324L552.294 148.053C546.551 151.044 539.487 149.413 535.637 144.209L511.126 111.093L493.132 132.552C487.794 138.916 477.822 138.298 473.315 131.323L467.082 121.686C464.286 117.361 464.471 111.752 467.547 107.618L488.322 79.7057L464.824 46.7518C462.184 43.051 461.643 38.245 463.391 34.0473L469.124 20.2855C472.271 12.7309 482.392 11.3678 487.427 17.8172L511.505 48.6659L544.628 5.97581C549.536 -0.349354 558.902 -0.865304 564.476 4.8834L575.938 16.7057C580.649 21.5658 580.907 29.2031 576.537 34.369L537.252 80.7886L569.46 121.482ZM550.478 10.5143C552.625 7.7466 556.724 7.52366 559.16 10.0365L559.167 10.0302L570.629 21.8524C572.69 23.9799 572.804 27.3209 570.89 29.5821L528.56 79.6006C528.054 80.1962 528.038 81.0689 528.525 81.6835L563.661 126.071C565.903 128.906 565.011 133.084 561.804 134.753L548.88 141.483C546.367 142.792 543.277 142.078 541.593 139.801L512.734 100.815C512.101 99.9584 510.836 99.9201 510.151 100.735L487.462 127.791C485.329 130.339 481.338 130.09 479.535 127.301L473.306 117.663C472.188 115.931 472.261 113.688 473.49 112.035L496.769 80.7567C497.195 80.1835 497.202 79.4032 496.788 78.8203L470.853 42.4522C469.697 40.8311 469.461 38.7323 470.226 36.8946L475.959 23.1327C476.927 20.811 480.042 20.3906 481.589 22.3748L510.218 59.055C510.878 59.9022 512.158 59.899 512.814 59.0518L550.478 10.5143Z" fill="#00E7A2"/>
</svg>
