<svg id="レイヤー_1" xmlns="http://www.w3.org/2000/svg" viewBox="0 0 195.8 33.7"><style>.st0{fill:none;stroke:#231815}.st1{fill:#003594}.st2{fill:#231815}</style><path class="st0" d="M-193.9-392.1h595v842h-595v-842z"/><path class="st1" d="M11 32.9l9.8-21c.5-1 1.6-1.6 2.7-1.5 1.8.1 3.6.5 5.2 1.1 5.1 2.2 5 6.8-.2 9.3-6 2.8-12.9 3-19 .6-1.8-.7-6-3-5.9-6.2.1-4.6 5.4-5.9 8.5-6.4.3 0 .3-.1 0-.1-2.9 0-5.7.8-8.1 2.3-3 2-4.8 6.3-1.5 10 6.2 7.2 19.5 7.4 28.6 4.4 12.2-4.1 12.6-13.6 6.1-19C31.2 1.3 22.7.8 19.3.9c-1.3 0-3 .2-3.2 2.3l-5.2 29.7c0 .1.1.2.1 0"/><path class="st2" d="M53.9 13.2L49 25.7c-.9 1.9-2.2 4.7-2.2 4.7 1.3 0 7.5 0 9-4.5L61 12.5h12.8l-2.7 6.8H60.3l-1 2.6H70c2.9 0 7.4-1.8 8.2-3.6l1.5-3.7c1.2-3-2.7-4.5-5.3-4.5H53c1 .7 1.3 2 .9 3.1m31.8-6L79.9 22h6.8l3.7-9.5h10.8L97.6 22h6.7l3-7.5c.6-1.5-.7-4.4-4.5-4.4H91.4l2.2-5.8c.1-.2-.1-.7-.4-.7h-8.6c1.1.8 1.5 2.3 1.1 3.6m33.4 3.5c.1-.2-.1-.7-.4-.7h-8.6c1.1.9 1.5 2.3 1.1 3.6L108 22h6.8l4.3-11.3zm2.7-5.5c.2 1.4-2 2.8-4.8 3.1s-5.2-.5-5.4-1.9 2-2.8 4.8-3.1 5.2.6 5.4 1.9m4.4 4.9l1.2-3h6.7l-1.2 3.1h6.6c-.5.7-.8 1.5-1.1 2.3H132l-2.7 7h6.4l-1.1 2.6h-12.9s0-.2.1-.6l3.5-9.1h-3.4c0-.4.3-1.7-.9-2.3h5.2zm63.5 0c3.8 0 5.9 2.4 5.2 4.4L192 22h-7.3l3.7-9.6h-10l-3.7 9.6h-7.3l3.3-8.4c.4-1.3-.1-2.7-1.1-3.6l20.1.1zm-44.1 7.1h19.9s.6-1.2 1.4-3.6-3.4-3.6-4.9-3.6h-13.4c-3.7 0-7.6 2.6-8.2 4l-1.5 3.8c-.7 2.2 2.8 4.2 5 4.2h19.6l1.1-2.5h-18.9l2.8-7.2h12.1l-1.1 2.8h-13l-.9 2.1z"/></svg>