<?xml version="1.0" encoding="UTF-8"?>
<svg xmlns="http://www.w3.org/2000/svg" id="Layer_2" viewBox="0 0 1482.08 378.41" width="1024px" height="261.45136564828px"><g id="Components"><g id="_5dde5c80-3c24-4df4-8135-7b629045ef3a_4"><polygon points="915.31 115.89 1070.13 115.89 1070.13 156.63 985.93 270.71 1070.13 270.71 1070.13 318.69 915.31 318.69 915.31 277.95 999.51 163.87 915.31 163.87 915.31 115.89" style="stroke-width:0px;"/><path d="m1437.7101,243.55c19-7.25,38.9301-26.26,38.9301-59.76,0-40.74-28.0601-67-69.71-67h-95.0601v201.9h52.51v-67.9h19.9199l37.12,67.9h60.66l-44.37-75.14Zm-37.12-39.84h-36.21v-40.74h36.21c13.58,0,22.64,8.15,22.64,19.92,0,12.67-9.0601,20.82-22.64,20.82h0Z" style="stroke-width:0px;"/><path d="m1184.2101,113.17c-61.5699,0-105,44.36-105,104.12s44.34,104.12,105,104.12,105.9301-44.37,105.9301-104.12-44.3701-104.12-105.9301-104.12Zm0,161.16c-30.78,0-51.61-23.54-51.61-57,0-34.4,20.83-57,51.61-57s52.51,23.54,52.51,57-21.7301,56.9999-52.51,56.9999h0Z" style="stroke-width:0px;"/><polygon points="743.29 115.89 889.9601 115.89 889.9601 162.97 795.8 162.97 795.8 192.84 887.24 192.84 887.24 239.02 795.8 239.02 795.8 271.61 889.9601 271.61 889.9601 318.69 743.29 318.69 743.29 115.89" style="stroke-width:0px;"/><path d="m222.7,87.82C222.7,39.82,181.05,0,130.35,0S38,39.84,38,87.82v28.07H0v201.9h0l130.35,60.62,130.38-60.66h0V116.75h-38l-.03-28.93Zm-137.62,0c0-22.63,19.92-40.74,45.27-40.74s45.27,18.11,45.27,40.74v28.07h-90.54v-28.07Zm123.13,197.37l-77.86,36.22-77.86-36.22v-121.32h155.72v121.32Z" style="stroke-width:0px;"/><path d="m718.85,183.79c0-40.74-28.07-67-69.72-67h-95.0599v201.9h52.51v-67.9h19.92l37.12,67.9h60.68l-44.37-75.14c19-7.25,38.92-26.26,38.92-59.76Zm-76.06,19.92h-36.21v-40.74h36.21c13.58,0,22.64,8.15,22.64,19.92,0,12.67-9.0601,20.82-22.6401,20.82Z" style="stroke-width:0px;"/><polygon points="366.66 115.89 530.53 115.89 530.53 163.87 474.4 163.87 474.4 318.69 421.88 318.69 421.88 163.87 366.66 163.87 366.66 115.89" style="stroke-width:0px;"/></g></g></svg>
